<svg width="33" height="31" viewBox="0 0 33 31" fill="none" xmlns="http://www.w3.org/2000/svg">
<path d="M18.0978 0.00670319C18.0649 0.00324337 18.0317 0 17.9988 0C17.121 0 16.5137 0.723738 16.5137 1.61659C16.5137 2.49649 16.8503 3.21176 18.1702 3.23014V3.23511C24.44 3.32247 29.9243 8.77248 29.9243 15.4618C29.9243 22.2049 24.483 27.7688 17.8569 27.7688C11.5327 27.7688 6.28285 22.9127 5.82048 16.533H8.61067L4.30438 9.248L0 16.5335H2.63994C3.10656 24.593 9.7295 31 17.8042 31C26.1824 31 33 24.0289 33 15.5011C33 7.07579 26.3407 0.166118 18.0979 0.00668957L18.0978 0.00670319Z" fill="#2974FF"/>
<path d="M20 7.40628C20 6.64959 19.3425 6 18.5256 6H18.2073C17.3904 6 16.7473 6.64981 16.7473 7.40628V15.4913L12.4625 19.4445C11.8299 20.0291 11.8625 20.9777 12.4606 21.5591C13.0606 22.147 14.1121 22.147 14.7447 21.5591L19.4796 17.183C19.5157 17.1462 19.5448 17.1094 19.5809 17.0761C19.8411 16.8272 19.9998 16.4898 19.9998 16.1174L19.9995 7.40631L20 7.40628Z" fill="#2974FF"/>
</svg>
