<svg width="17" height="30" viewBox="0 0 17 30" fill="none" xmlns="http://www.w3.org/2000/svg">
<path d="M16.2648 16.5798C15.7958 15.799 15.1525 15.1366 14.3854 14.6438C13.6386 14.1635 12.8272 13.7907 11.9755 13.5376C11.5055 13.3924 10.9373 13.2424 10.2888 13.0687C9.76746 12.9235 9.19891 12.7875 8.32032 12.5998L8.32065 12.6002C7.41 12.4082 6.51631 12.145 5.64728 11.8128C5.2229 11.6398 4.84735 11.3662 4.55274 11.0156C4.31188 10.7027 4.19325 10.3126 4.21914 9.91892V9.74072C4.23782 9.4085 4.35383 9.08905 4.55274 8.82188C4.90567 8.39419 5.36839 8.07015 5.89174 7.88445C6.7533 7.59409 7.66101 7.46396 8.56938 7.49992C9.27361 7.50025 9.9749 7.59148 10.6555 7.77197C11.1064 7.89948 11.5312 8.10581 11.9096 8.38145C12.1501 8.55377 12.3559 8.77022 12.5159 9.01873L13.5353 10.5937L16.697 8.5642L15.6776 6.98919C15.265 6.3457 14.7341 5.78591 14.1132 5.33926C13.3807 4.80759 12.5602 4.40903 11.6891 4.16244C11.3503 4.06696 11.0068 3.98881 10.6601 3.92799V0H6.90167V3.84855C6.14927 3.94338 5.40798 4.11275 4.68903 4.35472C3.51556 4.75755 2.47447 5.47236 1.67775 6.42184L1.62597 6.48266C0.902408 7.39982 0.491172 8.52299 0.451492 9.68902C0.373171 10.9737 0.757888 12.2443 1.53654 13.2704L1.5975 13.3502H1.59782C2.31745 14.2277 3.253 14.9046 4.31314 15.3143C5.36405 15.711 6.44482 16.0242 7.54523 16.2518C8.34842 16.43 8.86065 16.5519 9.32104 16.683H9.37282C9.96957 16.8331 10.4722 16.9688 10.909 17.1003C11.4183 17.25 11.9039 17.471 12.3512 17.7565C12.6183 17.9334 12.8428 18.1672 13.0089 18.4409C13.1787 18.7773 13.2596 19.1517 13.2439 19.5284V19.6127C13.2599 20.0679 13.1298 20.5162 12.8726 20.8922C12.4993 21.4117 11.9793 21.8083 11.3786 22.0313C10.4669 22.3799 9.49327 22.5391 8.5177 22.5002H8.40005C7.34193 22.5323 6.29161 22.3102 5.33701 21.8531C4.86512 21.5987 4.46076 21.2355 4.15791 20.7937L3.08662 19.2514L0 21.3888L1.07129 22.9312V22.9315C1.72506 23.8765 2.59678 24.6514 3.61296 25.1906L3.66473 25.2141C4.68452 25.7072 5.77746 26.0315 6.90143 26.1751V30H10.6599V26.0907C11.3736 25.9661 12.0726 25.7679 12.7457 25.5002C14.0128 25.0179 15.113 24.1795 15.9122 23.0861C16.5493 22.1418 16.9208 21.0447 16.9887 19.9088C17.0565 18.7726 16.8177 17.6393 16.2973 16.6266L16.2648 16.5798Z" fill="#2974FF"/>
</svg>
