<svg width="36" height="26" viewBox="0 0 36 26" fill="none" xmlns="http://www.w3.org/2000/svg">
<path d="M11.1751 4.67871C14.6137 4.67871 17.3796 7.44451 17.3796 10.8831C17.3796 14.247 14.6138 17.0876 11.1751 17.0876C7.73655 17.0876 4.9707 14.2469 4.9707 10.8831C4.9707 7.44456 7.7365 4.67871 11.1751 4.67871V4.67871ZM11.1751 6.84662C8.93254 6.84662 7.13846 8.6407 7.13846 10.8833C7.13846 13.1259 8.93254 14.92 11.1751 14.92C13.4177 14.92 15.2118 13.1259 15.2118 10.8833C15.2118 8.6407 13.4177 6.84662 11.1751 6.84662V6.84662Z" fill="#2974FF"/>
<path d="M2.05578 25.386C1.75684 25.9092 1.08406 26.0587 0.635542 25.6849C0.112338 25.386 -0.0372371 24.7132 0.261707 24.1898C2.72856 20.5269 6.76549 18.2842 11.1758 18.2842C15.5864 18.2842 19.6977 20.5268 22.09 24.1898C22.3889 24.713 22.2396 25.3857 21.791 25.6849C21.2678 26.0587 20.5951 25.9092 20.2959 25.386C18.2776 22.321 14.8388 20.4522 11.1758 20.4522C7.51301 20.4522 4.07438 22.321 2.05578 25.386V25.386Z" fill="#2974FF"/>
<path d="M24.931 0.866211C28.3696 0.866211 31.1354 3.63201 31.1354 7.07064C31.1354 10.5092 28.3696 13.2751 24.931 13.2751C21.4924 13.2751 18.7266 10.4344 18.7266 7.07064C18.7266 3.63206 21.4924 0.866211 24.931 0.866211V0.866211ZM24.931 3.03412C22.6884 3.03412 20.8943 4.8282 20.8943 7.0708C20.8943 9.31339 22.6884 11.1075 24.931 11.1075C27.1736 11.1075 28.9677 9.31339 28.9677 7.0708C28.9677 4.8282 27.1736 3.03412 24.931 3.03412V3.03412Z" fill="#2974FF"/>
<path d="M19.0986 18.358C18.6501 18.657 17.9773 18.5076 17.6784 17.9842C17.3045 17.5357 17.4541 16.8629 17.9773 16.489C20.0703 15.2182 22.4625 14.4707 24.9291 14.4707C29.3396 14.4707 33.451 16.7133 35.8432 20.3763C36.1422 20.8995 35.9928 21.5723 35.5443 21.8714C35.0211 22.2453 34.3483 22.0957 34.0492 21.5725C32.0308 18.5075 28.5921 16.6388 24.9291 16.6388C22.8361 16.6388 20.8924 17.2369 19.0983 18.3582L19.0986 18.358Z" fill="#2974FF"/>
</svg>
