<svg width="31" height="31" viewBox="0 0 31 31" fill="none" xmlns="http://www.w3.org/2000/svg">
<path d="M15.5 0C6.9531 0 0 6.9531 0 15.5C0 24.0469 6.9531 31 15.5 31C24.0469 31 31 24.0469 31 15.5C31 6.9531 24.0469 0 15.5 0V0ZM15.5 28.6154C8.26829 28.6154 2.38462 22.7318 2.38462 15.5C2.38462 8.26823 8.26823 2.38462 15.5 2.38462C22.7318 2.38462 28.6154 8.26823 28.6154 15.5C28.6154 22.7318 22.7318 28.6154 15.5 28.6154V28.6154ZM14.3076 14.3077H7.15373V16.6922H16.6922L16.6924 4.88293H14.3079L14.3076 14.3077Z" fill="#2974FF"/>
</svg>
