<svg width="18" height="34" viewBox="0 0 18 34" fill="none" xmlns="http://www.w3.org/2000/svg">
<path d="M0.889878 0H18V15.5885L17.6604 15.8835L10.146 22.0345L11.5896 24.5202L15.1558 25.2787C15.6653 25.3629 15.9624 25.8263 15.835 26.3319C15.7925 26.5006 15.7077 26.669 15.5803 26.7954L13.2028 29.4075L13.5849 33.0309C13.6275 33.4944 13.2876 33.9578 12.7783 34C12.6084 34 12.481 34 12.3113 33.9158L8.99987 32.4833L5.64588 33.9158C5.22143 34.1264 4.66935 33.9158 4.49969 33.4524C4.41485 33.326 4.37231 33.1154 4.41485 32.989L4.797 29.4078L2.33468 26.7114C2.03737 26.3744 2.03737 25.7846 2.41952 25.4896C2.5469 25.3631 2.67428 25.279 2.84397 25.279L6.36792 24.5205L7.85397 22.0348L0.339608 15.8838L0 15.5888V0.000285359H0.891664L0.889878 0ZM10.2299 25.7424L8.99862 23.5936L7.76733 25.7001C7.63995 25.9107 7.42772 26.0794 7.13043 26.1635L4.71038 26.6692L6.36608 28.5229C6.53601 28.6915 6.62085 28.9441 6.57831 29.1969L6.36608 31.6826L8.61617 30.6716C8.87094 30.5874 9.1257 30.5874 9.33793 30.6716L11.6306 31.6826L11.3758 29.1969C11.3758 28.9863 11.4607 28.7335 11.6306 28.5229L13.2863 26.6692L10.824 26.1635C10.6118 26.1213 10.3995 25.9529 10.2296 25.7423L10.2299 25.7424ZM16.1736 1.76983H1.78118V14.7883L8.9988 20.6866L16.1736 14.7883V1.76922V1.76983Z" fill="#2974FF"/>
<line x1="9" y1="21" x2="9" stroke="#2974FF" stroke-width="2"/>
</svg>
