<svg width="37" height="31" viewBox="0 0 37 31" fill="none" xmlns="http://www.w3.org/2000/svg">
<path d="M34.3088 0.000277326H2.72904C1.20854 0.000277326 0 1.24352 0 2.71949V28.2808C0 29.7958 1.24773 31 2.72904 31H34.2698C35.7903 31 36.9988 29.7568 36.9988 28.2808L36.9991 2.71949C37.038 1.20446 35.7903 0 34.3089 0L34.3088 0.000277326ZM11.6961 2.79726C12.3589 2.79726 12.8658 3.3411 12.8658 3.96273C12.8658 4.6231 12.32 5.12821 11.6961 5.12821C11.0334 5.12821 10.5264 4.58437 10.5264 3.96273C10.5264 3.30237 11.0334 2.79726 11.6961 2.79726ZM8.1093 2.79726C8.77205 2.79726 9.27899 3.3411 9.27899 3.96273C9.27899 4.6231 8.73318 5.12821 8.1093 5.12821C7.44655 5.12821 6.93961 4.58437 6.93961 3.96273C6.93961 3.30237 7.48541 2.79726 8.1093 2.79726ZM4.52246 2.79726C5.18521 2.79726 5.69215 3.3411 5.69215 3.96273C5.69215 4.6231 5.14634 5.12821 4.52246 5.12821C3.85971 5.12821 3.35277 4.58437 3.35277 3.96273C3.35277 3.30237 3.89858 2.79726 4.52246 2.79726ZM34.5037 28.2809C34.5037 28.3974 34.4257 28.4751 34.3087 28.4751H2.72899C2.61205 28.4751 2.534 28.3974 2.534 28.2809V7.9639H34.5036L34.5037 28.2809Z" fill="#2974FF"/>
<path d="M13.7392 24.8877C13.8782 25.0374 14.1219 25.0374 14.2609 24.8877L15.8957 23.1269C16.0348 22.9771 16.0348 22.7147 15.8957 22.565L12.1391 18.4812L15.8957 14.435C16.0348 14.2853 16.0348 14.0229 15.8957 13.8731L14.2609 12.1123C14.1218 11.9626 13.8782 11.9626 13.7392 12.1123L8.10427 18.2191C7.96524 18.3688 7.96524 18.6312 8.10427 18.781L13.7392 24.8877Z" fill="#2974FF"/>
<path d="M20.117 23.1269L21.9482 24.8877C22.1039 25.0374 22.3768 25.0374 22.5325 24.8877L28.8832 18.7809C29.0389 18.6312 29.0389 18.3688 28.8832 18.2191L22.5325 12.1123C22.3767 11.9626 22.1039 11.9626 21.9482 12.1123L20.117 13.8731C19.9613 14.0229 19.9613 14.2853 20.117 14.435L24.3248 18.4811L20.117 22.5647C19.961 22.7147 19.961 22.9768 20.117 23.1268V23.1269Z" fill="#2974FF"/>
</svg>
