<svg width="41" height="34" viewBox="0 0 41 34" fill="none" xmlns="http://www.w3.org/2000/svg">
<path d="M18.0845 20.1816L12.543 14.6401L14.4625 12.7203L18.0845 16.3423L26.234 8.19287L28.1535 10.1127L18.0845 20.1816Z" fill="#2974FF"/>
<path d="M33.2317 18.0768C33.7382 16.6326 33.9969 15.1132 33.9969 13.5824C33.9969 6.1315 27.8657 0 20.4144 0C12.9632 0 6.83198 6.1315 6.83198 13.5824C6.83198 15.1132 7.09063 16.6326 7.59719 18.0768L0 25.674L7.07637 26.9236L8.32604 34L15.9232 26.4028C18.8303 27.4217 21.9985 27.4217 24.9054 26.4028L32.5026 34L33.7523 26.9236L40.8286 25.674L33.2317 18.0768ZM10.0922 28.3905L9.42203 24.5784L5.60989 23.9082L8.83815 20.6803C9.96056 22.5042 11.4963 24.0399 13.3202 25.1624L10.0922 28.3905ZM9.54899 13.5857C9.54899 7.62476 14.4539 2.71972 20.4149 2.71972C26.376 2.71972 31.2809 7.6246 31.2809 13.5857C31.2809 19.5467 26.376 24.4516 20.4149 24.4516C14.4539 24.4516 9.54899 19.5467 9.54899 13.5857V13.5857ZM31.4078 24.5786L30.7377 28.3907L27.5097 25.1624C29.3336 24.04 30.8694 22.5042 31.9918 20.6804L35.22 23.9083L31.4078 24.5786Z" fill="#2974FF"/>
</svg>
