{
    "asset" : {
        "generator" : "Khronos glTF Blender I/O v1.2.75",
        "version" : "2.0"
    },
    "scene" : 0,
    "scenes" : [
        {
            "name" : "Scene",
            "nodes" : [
                0
            ]
        }
    ],
    "nodes" : [
        {
            "mesh" : 0,
            "name" : "Cube.004",
            "translation" : [
                111.92314910888672,
                19.492843627929688,
                11.360044479370117
            ]
        }
    ],
    "materials" : [
        {
            "doubleSided" : true,
            "emissiveFactor" : [
                0,
                0,
                0
            ],
            "name" : "Trunk.004",
            "pbrMetallicRoughness" : {
                "baseColorTexture" : {
                    "index" : 0,
                    "texCoord" : 0
                },
                "metallicFactor" : 0,
                "roughnessFactor" : 0.5
            }
        },
        {
            "doubleSided" : true,
            "emissiveFactor" : [
                0,
                0,
                0
            ],
            "name" : "Leaves.003",
            "pbrMetallicRoughness" : {
                "baseColorTexture" : {
                    "index" : 1,
                    "texCoord" : 0
                },
                "metallicFactor" : 0,
                "roughnessFactor" : 0.5
            }
        },
        {
            "doubleSided" : true,
            "emissiveFactor" : [
                0,
                0,
                0
            ],
            "name" : "Coconut.003",
            "pbrMetallicRoughness" : {
                "baseColorTexture" : {
                    "index" : 2,
                    "texCoord" : 0
                },
                "metallicFactor" : 0,
                "roughnessFactor" : 0.5
            }
        }
    ],
    "meshes" : [
        {
            "name" : "Cube.004",
            "primitives" : [
                {
                    "attributes" : {
                        "POSITION" : 0,
                        "NORMAL" : 1,
                        "TEXCOORD_0" : 2,
                        "TEXCOORD_1" : 3
                    },
                    "indices" : 4,
                    "material" : 0
                },
                {
                    "attributes" : {
                        "POSITION" : 5,
                        "NORMAL" : 6,
                        "TEXCOORD_0" : 7,
                        "TEXCOORD_1" : 8
                    },
                    "indices" : 9,
                    "material" : 1
                },
                {
                    "attributes" : {
                        "POSITION" : 10,
                        "NORMAL" : 11,
                        "TEXCOORD_0" : 12,
                        "TEXCOORD_1" : 13
                    },
                    "indices" : 14,
                    "material" : 2
                }
            ]
        }
    ],
    "textures" : [
        {
            "source" : 0
        },
        {
            "source" : 0
        },
        {
            "source" : 0
        }
    ],
    "images" : [
        {
            "mimeType" : "image/jpeg",
            "name" : "2_3",
            "uri" : "2_3.jpg"
        }
    ],
    "accessors" : [
        {
            "bufferView" : 0,
            "componentType" : 5126,
            "count" : 47916,
            "max" : [
                1.938323974609375,
                7.975946426391602,
                1.2562494277954102
            ],
            "min" : [
                -3.1053848266601562,
                -19.4432373046875,
                -2.1355648040771484
            ],
            "type" : "VEC3"
        },
        {
            "bufferView" : 1,
            "componentType" : 5126,
            "count" : 47916,
            "type" : "VEC3"
        },
        {
            "bufferView" : 2,
            "componentType" : 5126,
            "count" : 47916,
            "type" : "VEC2"
        },
        {
            "bufferView" : 3,
            "componentType" : 5126,
            "count" : 47916,
            "type" : "VEC2"
        },
        {
            "bufferView" : 4,
            "componentType" : 5123,
            "count" : 258048,
            "type" : "SCALAR"
        },
        {
            "bufferView" : 5,
            "componentType" : 5126,
            "count" : 32554,
            "max" : [
                7.470466613769531,
                12.113752365112305,
                6.421318054199219
            ],
            "min" : [
                -5.311317443847656,
                2.819978713989258,
                -5.480862140655518
            ],
            "type" : "VEC3"
        },
        {
            "bufferView" : 6,
            "componentType" : 5126,
            "count" : 32554,
            "type" : "VEC3"
        },
        {
            "bufferView" : 7,
            "componentType" : 5126,
            "count" : 32554,
            "type" : "VEC2"
        },
        {
            "bufferView" : 8,
            "componentType" : 5126,
            "count" : 32554,
            "type" : "VEC2"
        },
        {
            "bufferView" : 9,
            "componentType" : 5123,
            "count" : 48000,
            "type" : "SCALAR"
        },
        {
            "bufferView" : 10,
            "componentType" : 5126,
            "count" : 5018,
            "max" : [
                2.7655181884765625,
                8.221092224121094,
                2.0420522689819336
            ],
            "min" : [
                -0.4142608642578125,
                6.017631530761719,
                -1.028059959411621
            ],
            "type" : "VEC3"
        },
        {
            "bufferView" : 11,
            "componentType" : 5126,
            "count" : 5018,
            "type" : "VEC3"
        },
        {
            "bufferView" : 12,
            "componentType" : 5126,
            "count" : 5018,
            "type" : "VEC2"
        },
        {
            "bufferView" : 13,
            "componentType" : 5126,
            "count" : 5018,
            "type" : "VEC2"
        },
        {
            "bufferView" : 14,
            "componentType" : 5123,
            "count" : 6912,
            "type" : "SCALAR"
        }
    ],
    "bufferViews" : [
        {
            "buffer" : 0,
            "byteLength" : 574992,
            "byteOffset" : 0
        },
        {
            "buffer" : 0,
            "byteLength" : 574992,
            "byteOffset" : 574992
        },
        {
            "buffer" : 0,
            "byteLength" : 383328,
            "byteOffset" : 1149984
        },
        {
            "buffer" : 0,
            "byteLength" : 383328,
            "byteOffset" : 1533312
        },
        {
            "buffer" : 0,
            "byteLength" : 516096,
            "byteOffset" : 1916640
        },
        {
            "buffer" : 0,
            "byteLength" : 390648,
            "byteOffset" : 2432736
        },
        {
            "buffer" : 0,
            "byteLength" : 390648,
            "byteOffset" : 2823384
        },
        {
            "buffer" : 0,
            "byteLength" : 260432,
            "byteOffset" : 3214032
        },
        {
            "buffer" : 0,
            "byteLength" : 260432,
            "byteOffset" : 3474464
        },
        {
            "buffer" : 0,
            "byteLength" : 96000,
            "byteOffset" : 3734896
        },
        {
            "buffer" : 0,
            "byteLength" : 60216,
            "byteOffset" : 3830896
        },
        {
            "buffer" : 0,
            "byteLength" : 60216,
            "byteOffset" : 3891112
        },
        {
            "buffer" : 0,
            "byteLength" : 40144,
            "byteOffset" : 3951328
        },
        {
            "buffer" : 0,
            "byteLength" : 40144,
            "byteOffset" : 3991472
        },
        {
            "buffer" : 0,
            "byteLength" : 13824,
            "byteOffset" : 4031616
        }
    ],
    "buffers" : [
        {
            "byteLength" : 4045440,
            "uri" : "T3.bin"
        }
    ]
}
