{
  "accessors": [
    {
      "bufferView": 2,
      "componentType": 5126,
      "count": 782,
      "max": [
        697.187255859375,
        1063.769775390625,
        2131.752197265625
      ],
      "min": [
        -1167.57275390625,
        -864.29620361328125,
        981.24200439453125
      ],
      "type": "VEC3"
    },
    {
      "bufferView": 2,
      "byteOffset": 9384,
      "componentType": 5126,
      "count": 782,
      "max": [
        0.9958113431930542,
        0.9973798394203186,
        0.9998553991317749
      ],
      "min": [
        -0.9958113431930542,
        -0.9973798394203186,
        -0.9998553991317749
      ],
      "type": "VEC3"
    },
    {
      "bufferView": 3,
      "componentType": 5126,
      "count": 782,
      "max": [
        0.99806225299835205,
        0.99449396133422852,
        0.89056891202926636,
        1
      ],
      "min": [
        -0.99877816438674927,
        -0.9695773720741272,
        -0.97433209419250488,
        -1
      ],
      "type": "VEC4"
    },
    {
      "bufferView": 1,
      "componentType": 5126,
      "count": 782,
      "max": [
        0.99254012107849121,
        0.93745303153991699
      ],
      "min": [
        0.0051266634836792946,
        0.09181058406829834
      ],
      "type": "VEC2"
    },
    {
      "bufferView": 0,
      "componentType": 5125,
      "count": 2868,
      "max": [
        781
      ],
      "min": [
        0
      ],
      "type": "SCALAR"
    },
    {
      "bufferView": 2,
      "byteOffset": 18768,
      "componentType": 5126,
      "count": 1443,
      "max": [
        66.272659301757812,
        184.86143493652344,
        1857.999755859375
      ],
      "min": [
        -446.43365478515625,
        -182.08354187011719,
        2.9026873111724854
      ],
      "type": "VEC3"
    },
    {
      "bufferView": 2,
      "byteOffset": 36084,
      "componentType": 5126,
      "count": 1443,
      "max": [
        0.99973547458648682,
        0.99951231479644775,
        0.99566549062728882
      ],
      "min": [
        -0.99806231260299683,
        -0.99843066930770874,
        -0.99972182512283325
      ],
      "type": "VEC3"
    },
    {
      "bufferView": 3,
      "byteOffset": 12512,
      "componentType": 5126,
      "count": 1443,
      "max": [
        0.99112784862518311,
        0.99936187267303467,
        0.99961352348327637,
        1
      ],
      "min": [
        -0.99842864274978638,
        -0.99645847082138062,
        -0.9960479736328125,
        1
      ],
      "type": "VEC4"
    },
    {
      "bufferView": 1,
      "byteOffset": 6256,
      "componentType": 5126,
      "count": 1443,
      "max": [
        0.995952308177948,
        0.998046875
      ],
      "min": [
        0.001953125,
        0.001953125
      ],
      "type": "VEC2"
    },
    {
      "bufferView": 0,
      "byteOffset": 11472,
      "componentType": 5125,
      "count": 6654,
      "max": [
        1442
      ],
      "min": [
        0
      ],
      "type": "SCALAR"
    }
  ],
  "asset": {
    "extras": {
      "author": "zames1992 (https://sketchfab.com/zames1992)",
      "license": "SKETCHFAB Standard (https://sketchfab.com/licenses)",
      "source": "https://sketchfab.com/3d-models/cartoon-palm-tree-bfc74ae5948d4802b20a8b8a7d745a9d",
      "title": "Cartoon Palm Tree"
    },
    "generator": "Sketchfab-9.0.0",
    "version": "2.0"
  },
  "bufferViews": [
    {
      "buffer": 0,
      "byteLength": 38088,
      "byteOffset": 0,
      "name": "floatBufferViews",
      "target": 34963
    },
    {
      "buffer": 0,
      "byteLength": 17800,
      "byteOffset": 38088,
      "byteStride": 8,
      "name": "floatBufferViews",
      "target": 34962
    },
    {
      "buffer": 0,
      "byteLength": 53400,
      "byteOffset": 55888,
      "byteStride": 12,
      "name": "floatBufferViews",
      "target": 34962
    },
    {
      "buffer": 0,
      "byteLength": 35600,
      "byteOffset": 109288,
      "byteStride": 16,
      "name": "floatBufferViews",
      "target": 34962
    }
  ],
  "buffers": [
    {
      "byteLength": 144888,
      "uri": "scene.bin"
    }
  ],
  "images": [
    {
      "uri": "textures/leaves_baseColor.png"
    },
    {
      "uri": "textures/leaves_metallicRoughness.png"
    },
    {
      "uri": "textures/leaves_normal.png"
    },
    {
      "uri": "textures/trunk_baseColor.png"
    },
    {
      "uri": "textures/trunk_metallicRoughness.png"
    },
    {
      "uri": "textures/trunk_normal.png"
    }
  ],
  "materials": [
    {
      "alphaMode": "BLEND",
      "doubleSided": true,
      "name": "leaves",
      "normalTexture": {
        "index": 2,
        "scale": 1,
        "texCoord": 0
      },
      "occlusionTexture": {
        "index": 1,
        "strength": 1,
        "texCoord": 0
      },
      "pbrMetallicRoughness": {
        "baseColorFactor": [
          1,
          1,
          1,
          1
        ],
        "baseColorTexture": {
          "index": 0,
          "texCoord": 0
        },
        "metallicFactor": 1,
        "metallicRoughnessTexture": {
          "index": 1,
          "texCoord": 0
        },
        "roughnessFactor": 1
      }
    },
    {
      "doubleSided": true,
      "name": "trunk",
      "normalTexture": {
        "index": 5,
        "scale": 1,
        "texCoord": 0
      },
      "occlusionTexture": {
        "index": 4,
        "strength": 1,
        "texCoord": 0
      },
      "pbrMetallicRoughness": {
        "baseColorFactor": [
          1,
          1,
          1,
          1
        ],
        "baseColorTexture": {
          "index": 3,
          "texCoord": 0
        },
        "metallicFactor": 1,
        "metallicRoughnessTexture": {
          "index": 4,
          "texCoord": 0
        },
        "roughnessFactor": 1
      }
    }
  ],
  "meshes": [
    {
      "primitives": [
        {
          "attributes": {
            "NORMAL": 1,
            "POSITION": 0,
            "TANGENT": 2,
            "TEXCOORD_0": 3
          },
          "indices": 4,
          "material": 0,
          "mode": 4
        }
      ]
    },
    {
      "primitives": [
        {
          "attributes": {
            "NORMAL": 6,
            "POSITION": 5,
            "TANGENT": 7,
            "TEXCOORD_0": 8
          },
          "indices": 9,
          "material": 1,
          "mode": 4
        }
      ]
    }
  ],
  "nodes": [
    {
      "children": [
        1
      ],
      "name": "RootNode (gltf orientation matrix)",
      "rotation": [
        -0.70710678118654746,
        -0,
        -0,
        0.70710678118654757
      ]
    },
    {
      "children": [
        2
      ],
      "name": "RootNode (model correction matrix)"
    },
    {
      "children": [
        3,
        4
      ],
      "name": "38825910a8394dcaad4b36a378ed4531.obj.cleaner.materialmerger.gles"
    },
    {
      "mesh": 0,
      "name": ""
    },
    {
      "mesh": 1,
      "name": ""
    }
  ],
  "samplers": [
    {
      "magFilter": 9729,
      "minFilter": 9987,
      "wrapS": 10497,
      "wrapT": 10497
    }
  ],
  "scene": 0,
  "scenes": [
    {
      "name": "OSG_Scene",
      "nodes": [
        0
      ]
    }
  ],
  "textures": [
    {
      "sampler": 0,
      "source": 0
    },
    {
      "sampler": 0,
      "source": 1
    },
    {
      "sampler": 0,
      "source": 2
    },
    {
      "sampler": 0,
      "source": 3
    },
    {
      "sampler": 0,
      "source": 4
    },
    {
      "sampler": 0,
      "source": 5
    }
  ]
}

