<svg width="64" height="64" viewBox="0 0 64 64" fill="none" xmlns="http://www.w3.org/2000/svg">
<path d="M64 32C64 23.116 60.3 14.649 53.813 8.601L54.707 7.707C54.993 7.421 55.079 6.991 54.924 6.617C54.769 6.244 54.404 6 54 6H50.606C45.146 2.08 38.724 0 32 0C23.116 0 14.649 3.7 8.601 10.187L7.707 9.293C7.421 9.006 6.991 8.92 6.617 9.076C6.244 9.231 6 9.596 6 10V13.394C2.08 18.853 0 25.275 0 32C0 40.352 3.331 48.462 9.171 54.415L8.293 55.293C8.007 55.579 7.921 56.009 8.076 56.383C8.231 56.757 8.596 57 9 57H12.059C17.709 61.514 24.773 64 32 64C40.352 64 48.462 60.67 54.415 54.829L55.293 55.707C55.579 55.992 56.008 56.079 56.383 55.924C56.756 55.77 57 55.404 57 55V51.939C61.514 46.291 64 39.228 64 32ZM51.704 9.393C58.247 15.098 62 23.338 62 32C62 37.883 60.232 43.645 57 48.529V47C57 46.447 56.552 46 56 46H53.894C56.582 41.818 58 37.02 58 32C58 24.325 54.631 17.08 48.758 12.123C48.361 11.79 47.774 11.812 47.406 12.18L47 12.586V8H51.592C51.436 8.188 51.354 8.427 51.362 8.673C51.372 8.95 51.495 9.21 51.704 9.393ZM47.293 47.707L48.76 49.175C44.299 53.523 38.246 56 32 56C26.927 56 22.102 54.425 18 51.464V48C18 47.596 17.756 47.23 17.383 47.076C17.008 46.919 16.579 47.006 16.293 47.293L14.825 48.761C10.477 44.3 8 38.246 8 32C8 27.36 9.338 22.881 11.851 19H15C15.404 19 15.769 18.756 15.924 18.383C16.079 18.009 15.993 17.579 15.707 17.293L14.256 15.842C18.806 10.847 25.222 8 32 8C36.64 8 41.119 9.338 45 11.851V15C45 15.404 45.244 15.769 45.617 15.924C45.991 16.078 46.42 15.993 46.707 15.707L48.158 14.256C53.153 18.806 56 25.222 56 32C56 37.072 54.424 41.898 51.463 46H48C47.596 46 47.231 46.243 47.076 46.617C46.921 46.991 47.007 47.421 47.293 47.707ZM8 12.408C8.188 12.563 8.42 12.642 8.673 12.638C8.95 12.628 9.21 12.505 9.393 12.296C15.098 5.753 23.338 2 32 2C37.29 2 42.376 3.388 46.903 6H46C45.448 6 45 6.448 45 7V9.494C41.054 7.205 36.598 6 32 6C24.325 6 17.08 9.369 12.123 15.242C11.788 15.639 11.812 16.227 12.18 16.594L12.586 17H8V12.408ZM11.281 53.687C5.383 48.054 2 40.149 2 32C2 26.709 3.388 21.624 6 17.097V18C6 18.552 6.448 19 7 19H9.494C7.205 22.946 6 27.402 6 32C6 39.118 8.968 46.006 14.144 50.896C14.538 51.268 15.155 51.26 15.538 50.876L16 50.414V55H11.398C11.524 54.827 11.593 54.616 11.59 54.398C11.587 54.13 11.475 53.873 11.281 53.687ZM55 52.603C54.827 52.477 54.617 52.423 54.398 52.411C54.129 52.414 53.873 52.525 53.687 52.721C48.054 58.617 40.149 62 32 62C26.118 62 20.356 60.232 15.471 57H17C17.552 57 18 56.553 18 56V53.894C22.18 56.583 26.979 58 32 58C39.118 58 46.005 55.031 50.896 49.855C51.268 49.461 51.259 48.844 50.876 48.461L50.414 48H55V52.603Z" fill="#276EF1"/>
<path d="M47.894 36.188C49.114 35.943 50 34.863 50 33.619V30.38C50 29.136 49.114 28.056 47.894 27.812L46.039 27.441C45.801 26.702 45.504 25.983 45.152 25.293L46.199 23.721C46.889 22.686 46.752 21.296 45.872 20.417L43.582 18.126C42.721 17.264 41.289 17.123 40.277 17.799L38.705 18.847C38.015 18.495 37.295 18.198 36.557 17.96L36.186 16.106C35.944 14.886 34.864 14 33.619 14H30.381C29.136 14 28.056 14.886 27.814 16.105L27.442 17.96C26.704 18.198 25.985 18.495 25.294 18.847L23.722 17.8C22.709 17.123 21.282 17.263 20.417 18.127L18.128 20.417C17.248 21.297 17.11 22.688 17.801 23.721L18.848 25.293C18.496 25.983 18.199 26.702 17.96 27.441L16.105 27.812C14.886 28.056 14 29.136 14 30.381L14.001 33.619C14.001 34.861 14.886 35.941 16.106 36.187L17.96 36.558C18.199 37.297 18.496 38.016 18.847 38.705L17.799 40.276C17.109 41.31 17.246 42.701 18.127 43.584L20.419 45.873C21.284 46.732 22.708 46.874 23.722 46.198L25.293 45.15C25.982 45.501 26.701 45.797 27.441 46.036L27.813 47.893C28.056 49.114 29.135 50 30.381 50H33.619C34.865 50 35.944 49.114 36.186 47.896L36.558 46.038C37.298 45.8 38.017 45.503 38.706 45.152L40.277 46.201C41.289 46.877 42.717 46.737 43.582 45.874L45.872 43.584C46.751 42.704 46.889 41.313 46.199 40.278L45.152 38.707C45.503 38.018 45.8 37.299 46.038 36.56L47.894 36.188ZM45.058 34.715C44.687 34.789 44.391 35.065 44.29 35.429C44.015 36.423 43.621 37.379 43.118 38.27C42.932 38.599 42.948 39.003 43.157 39.317L44.537 41.387C44.7 41.632 44.668 41.962 44.46 42.17L42.171 44.458C41.965 44.664 41.629 44.697 41.389 44.536L39.319 43.155C39.006 42.947 38.602 42.932 38.273 43.116C37.383 43.618 36.426 44.012 35.43 44.288C35.067 44.389 34.79 44.685 34.717 45.056L34.227 47.504C34.168 47.792 33.913 48 33.619 48H30.381C30.087 48 29.832 47.792 29.774 47.503L29.284 45.056C29.21 44.686 28.934 44.389 28.571 44.288C27.575 44.013 26.618 43.618 25.727 43.116C25.575 43.03 25.405 42.987 25.236 42.987C25.042 42.987 24.849 43.044 24.681 43.155L22.612 44.535C22.372 44.693 22.034 44.659 21.83 44.457L19.54 42.171C19.332 41.962 19.299 41.632 19.462 41.387L20.843 39.317C21.052 39.004 21.067 38.599 20.881 38.27C20.378 37.379 19.984 36.423 19.708 35.429C19.607 35.065 19.31 34.789 18.94 34.715L16.498 34.227C16.209 34.169 16 33.914 16 33.619V30.381C16 30.086 16.209 29.83 16.498 29.773L18.942 29.285C19.312 29.211 19.61 28.935 19.71 28.571C19.984 27.579 20.379 26.623 20.884 25.73C21.07 25.402 21.054 24.998 20.845 24.684L19.465 22.612C19.302 22.368 19.335 22.04 19.543 21.832L21.831 19.543C22.037 19.339 22.373 19.304 22.613 19.465L24.683 20.845C24.996 21.054 25.402 21.07 25.729 20.884C26.624 20.38 27.581 19.985 28.571 19.711C28.935 19.61 29.211 19.314 29.285 18.943L29.775 16.497C29.832 16.208 30.087 16 30.381 16H33.619C33.913 16 34.168 16.208 34.225 16.498L34.714 18.943C34.788 19.313 35.064 19.61 35.428 19.711C36.42 19.985 37.377 20.379 38.27 20.884C38.599 21.07 39.003 21.054 39.316 20.845L41.387 19.464C41.626 19.305 41.965 19.339 42.167 19.542L44.457 21.833C44.664 22.041 44.697 22.369 44.534 22.614L43.154 24.685C42.945 24.999 42.93 25.403 43.115 25.731C43.619 26.625 44.014 27.581 44.288 28.572C44.389 28.936 44.685 29.212 45.056 29.286L47.5 29.774C47.79 29.83 48 30.085 48 30.38V33.619C48 33.913 47.79 34.169 47.502 34.227L45.058 34.715Z" fill="#276EF1"/>
<path d="M39.4192 26.967L36.1002 26.499L34.6852 23.661C34.1732 22.636 33.1442 22 32.0002 22C30.8552 22 29.8272 22.636 29.3152 23.661L27.9002 26.499L24.5812 26.967C23.4442 27.127 22.4862 27.938 22.1392 29.034C21.7942 30.128 22.1122 31.343 22.9502 32.127L25.4102 34.43L25.0222 37.638C24.8852 38.765 25.3852 39.857 26.3272 40.49C27.2472 41.108 28.4902 41.161 29.4602 40.62L32.0002 39.205L34.5402 40.621C34.9862 40.869 35.4912 41 36.0002 41C36.5982 41 37.1762 40.824 37.6732 40.49C38.6152 39.857 39.1152 38.765 38.9782 37.639L38.5902 34.43L41.0512 32.126C41.8882 31.342 42.2062 30.127 41.8612 29.032C41.5142 27.938 40.5562 27.127 39.4192 26.967ZM39.6842 30.667L36.8532 33.316C36.6202 33.534 36.5052 33.85 36.5432 34.167L36.9922 37.881C37.0372 38.256 36.8712 38.619 36.5572 38.83C36.2502 39.035 35.8352 39.052 35.5132 38.874L32.4872 37.187C32.3362 37.102 32.1682 37.06 32.0002 37.06C31.8322 37.06 31.6652 37.102 31.5132 37.187L28.4872 38.873C28.1642 39.055 27.7492 39.036 27.4422 38.83C27.1282 38.619 26.9612 38.256 27.0072 37.88L27.4562 34.167C27.4952 33.851 27.3792 33.534 27.1472 33.316L24.3172 30.668C24.0382 30.406 23.9312 30.001 24.0472 29.637C24.1622 29.271 24.4822 29.001 24.8612 28.948L28.7012 28.406C29.0272 28.36 29.3092 28.156 29.4562 27.862L31.1052 24.555C31.4472 23.871 32.5552 23.872 32.8962 24.555L34.5452 27.863C34.6922 28.158 34.9742 28.361 35.3002 28.407L39.1402 28.949C39.5192 29.002 39.8392 29.273 39.9542 29.637C40.0692 30.001 39.9622 30.406 39.6842 30.667Z" fill="#276EF1"/>
</svg>
