<svg width="66" height="83" viewBox="0 0 66 83" fill="none" xmlns="http://www.w3.org/2000/svg">
<path d="M41.7605 30.6954C41.7605 26.7509 38.5481 23.5385 34.6036 23.5385H34.2684L34.5778 23.0641C34.8098 22.7084 34.7119 22.2288 34.3561 21.9916C34.0003 21.7596 33.5208 21.8576 33.2836 22.2134L32.8711 22.8424L32.5205 22.2443C32.3039 21.8782 31.8295 21.7544 31.4634 21.971C31.0973 22.1876 30.9736 22.6619 31.1901 23.028L31.4892 23.5334H30.7106C27.029 23.5334 24.0333 26.5291 24.0333 30.2107V35.4855C24.0333 40.3737 28.0087 44.3491 32.8969 44.3491C37.785 44.3491 41.7605 40.3737 41.7605 35.4855V30.6954ZM30.7106 25.0854H32.8247H32.8453H34.6087C37.7025 25.0854 40.2187 27.6016 40.2187 30.6954V31.0976C38.7492 31.0048 36.532 29.8188 35.7431 27.9884C35.6606 27.7976 35.475 27.679 35.2687 27.679C35.0625 27.679 34.8769 27.8027 34.7944 27.9884C34.3819 28.9319 34.9697 30.7263 35.4131 31.8401C34.0312 31.5513 31.4789 30.716 30.9272 28.4627C30.8756 28.241 30.6848 28.0863 30.458 28.0709C30.2311 28.0554 30.0248 28.1895 29.9423 28.4009C29.3494 29.9632 27.7561 31.5616 25.575 31.5823V30.2159C25.5801 27.3851 27.8798 25.0854 30.7106 25.0854ZM32.8969 42.8126C28.8595 42.8126 25.5801 39.528 25.5801 35.4959V32.6135C27.7355 32.598 29.4267 31.3245 30.3703 29.8343C31.9223 32.6187 36.0267 32.9899 36.2175 33.0054C36.233 33.0054 36.2433 33.0054 36.2587 33.0054C36.4289 33.0054 36.5836 32.9229 36.6815 32.7837C36.7847 32.6341 36.8001 32.4382 36.7228 32.268C36.4186 31.6235 36.0834 30.7624 35.8772 29.9993C37.0786 31.2574 38.8162 32.0515 40.2136 32.1185V35.4959C40.2136 39.528 36.9342 42.8126 32.8969 42.8126Z" fill="#276EF1"/>
<path d="M30.0094 33.3608C29.6175 33.3608 29.303 34.1962 29.303 35.2274C29.303 36.2587 29.6175 37.094 30.0094 37.094C30.4013 37.094 30.7158 36.2587 30.7158 35.2274C30.7158 34.1962 30.4013 33.3608 30.0094 33.3608Z" fill="#276EF1"/>
<path d="M35.7844 33.3608C35.3925 33.3608 35.078 34.1962 35.078 35.2274C35.078 36.2587 35.3925 37.094 35.7844 37.094C36.1763 37.094 36.4908 36.2587 36.4908 35.2274C36.4908 34.1962 36.1711 33.3608 35.7844 33.3608Z" fill="#276EF1"/>
<path d="M9.60614 29.5195C7.62098 29.5195 6.00192 31.1334 6.00192 33.1237C6.00192 35.1141 7.61583 36.728 9.60614 36.728C11.5965 36.728 13.2104 35.1141 13.2104 33.1237C13.2104 31.1334 11.5913 29.5195 9.60614 29.5195ZM9.60614 35.1811C8.47177 35.1811 7.5488 34.2581 7.5488 33.1237C7.5488 31.9894 8.47177 31.0664 9.60614 31.0664C10.7405 31.0664 11.6635 31.9894 11.6635 33.1237C11.6635 34.2581 10.7354 35.1811 9.60614 35.1811Z" fill="#276EF1"/>
<path d="M32.933 13.4008C34.9182 13.4008 36.5372 11.7869 36.5372 9.7966C36.5372 7.81145 34.9233 6.19238 32.933 6.19238C30.9427 6.19238 29.3288 7.80629 29.3288 9.7966C29.3288 11.7818 30.9427 13.4008 32.933 13.4008ZM32.933 7.73926C34.0674 7.73926 34.9904 8.66223 34.9904 9.7966C34.9904 10.931 34.0674 11.8539 32.933 11.8539C31.7986 11.8539 30.8757 10.931 30.8757 9.7966C30.8757 8.66223 31.7986 7.73926 32.933 7.73926Z" fill="#276EF1"/>
<path d="M16.4381 20.2279C17.3611 20.2279 18.2841 19.8773 18.9853 19.176C20.3878 17.7735 20.3878 15.4842 18.9853 14.0817C17.5828 12.6792 15.2935 12.6792 13.891 14.0817C12.4885 15.4842 12.4885 17.7735 13.891 19.176C14.5922 19.8773 15.5152 20.2279 16.4381 20.2279ZM14.9841 15.1748C15.3863 14.7726 15.9122 14.5715 16.4381 14.5715C16.9641 14.5715 17.49 14.7726 17.8922 15.1748C18.6914 15.974 18.6914 17.2785 17.8922 18.0829C17.0878 18.8821 15.7833 18.8821 14.9841 18.0829C14.1797 17.2785 14.1797 15.974 14.9841 15.1748Z" fill="#276EF1"/>
<path d="M15.0357 32.3345C14.6077 32.3345 14.2622 32.6799 14.2622 33.1079C14.2622 33.5359 14.6077 33.8813 15.0357 33.8813H22.2441C22.6721 33.8813 23.0175 33.5359 23.0175 33.1079C23.0175 32.6799 22.6721 32.3345 22.2441 32.3345H15.0357Z" fill="#276EF1"/>
<path d="M56.2496 29.5195C54.2644 29.5195 52.6454 31.1334 52.6454 33.1237C52.6454 35.1141 54.2593 36.728 56.2496 36.728C58.2399 36.728 59.8538 35.1141 59.8538 33.1237C59.8538 31.1334 58.2347 29.5195 56.2496 29.5195ZM56.2496 35.1811C55.1152 35.1811 54.1922 34.2581 54.1922 33.1237C54.1922 31.9894 55.1152 31.0664 56.2496 31.0664C57.3839 31.0664 58.3069 31.9894 58.3069 33.1237C58.3069 34.2581 57.3839 35.1811 56.2496 35.1811Z" fill="#276EF1"/>
<path d="M43.6064 32.3345C43.1785 32.3345 42.833 32.6799 42.833 33.1079C42.833 33.5359 43.1785 33.8813 43.6064 33.8813H50.8149C51.2429 33.8813 51.5883 33.5359 51.5883 33.1079C51.5883 32.6799 51.2429 32.3345 50.8149 32.3345H43.6064Z" fill="#276EF1"/>
<path d="M19.5371 20.8208L23.925 25.2088C24.0746 25.3583 24.2756 25.4356 24.4716 25.4356C24.6675 25.4356 24.8686 25.3583 25.0181 25.2088C25.3224 24.9046 25.3224 24.4147 25.0181 24.1156L20.6302 19.7277C20.326 19.4235 19.8361 19.4235 19.5371 19.7277C19.238 20.0319 19.2328 20.5217 19.5371 20.8208Z" fill="#276EF1"/>
<path d="M49.3402 20.2689C50.2632 20.2689 51.1861 19.9183 51.8874 19.2171C53.2899 17.8146 53.2899 15.5252 51.8874 14.1227C50.4849 12.7202 48.1955 12.7202 46.793 14.1227C45.3905 15.5252 45.3905 17.8146 46.793 19.2171C47.4942 19.9183 48.4172 20.2689 49.3402 20.2689ZM47.8861 15.2158C48.6853 14.4166 49.9899 14.4166 50.7942 15.2158C51.5935 16.015 51.5935 17.3196 50.7942 18.1239C49.995 18.9231 48.6905 18.9231 47.8861 18.1239C47.0817 17.3196 47.0817 16.0202 47.8861 15.2158Z" fill="#276EF1"/>
<path d="M41.1882 25.6108C41.3841 25.6108 41.5852 25.5335 41.7347 25.3839L46.4321 20.6763C46.7311 20.3721 46.7311 19.8822 46.4321 19.5832C46.1278 19.2789 45.638 19.2841 45.3389 19.5832L40.6416 24.2908C40.3425 24.595 40.3425 25.0849 40.6416 25.3839C40.7911 25.5335 40.9871 25.6108 41.1882 25.6108Z" fill="#276EF1"/>
<path d="M32.8557 14.3237C32.4277 14.3289 32.0874 14.6795 32.0874 15.1023L32.1338 20.1967C32.1389 20.6195 32.4844 20.965 32.9072 20.965H32.9124C33.3403 20.9598 33.6807 20.6092 33.6807 20.1864L33.6342 15.092C33.6342 14.664 33.2888 14.3083 32.8557 14.3237Z" fill="#276EF1"/>
<path d="M32.933 52.8618C30.9479 52.8618 29.3288 54.4757 29.3288 56.466C29.3288 58.4564 30.9427 60.0703 32.933 60.0703C34.9233 60.0703 36.5372 58.4564 36.5372 56.466C36.5372 54.4757 34.9182 52.8618 32.933 52.8618ZM32.933 58.5182C31.7986 58.5182 30.8757 57.5953 30.8757 56.4609C30.8757 55.3265 31.7986 54.4035 32.933 54.4035C34.0674 54.4035 34.9904 55.3265 34.9904 56.4609C34.9904 57.5953 34.0622 58.5182 32.933 58.5182Z" fill="#276EF1"/>
<path d="M13.891 47.0612C12.4885 48.4637 12.4885 50.753 13.891 52.1555C14.5922 52.8568 15.5152 53.2074 16.4381 53.2074C17.3611 53.2074 18.2841 52.8568 18.9853 52.1555C20.3878 50.753 20.3878 48.4637 18.9853 47.0612C17.5777 45.6587 15.2935 45.6587 13.891 47.0612ZM17.8922 51.0624C17.0878 51.8616 15.7833 51.8616 14.9841 51.0624C14.1849 50.2632 14.1849 48.9587 14.9841 48.1543C15.3863 47.7521 15.9122 47.551 16.4381 47.551C16.9641 47.551 17.49 47.7521 17.8922 48.1543C18.6914 48.9587 18.6914 50.2632 17.8922 51.0624Z" fill="#276EF1"/>
<path d="M23.925 41.028L19.5371 45.416C19.2328 45.7202 19.2328 46.21 19.5371 46.5091C19.6866 46.6586 19.8877 46.736 20.0836 46.736C20.2796 46.736 20.4807 46.6586 20.6302 46.5091L25.0182 42.1211C25.3224 41.8169 25.3224 41.3271 25.0182 41.028C24.7139 40.7289 24.2241 40.7289 23.925 41.028Z" fill="#276EF1"/>
<path d="M49.3918 46.0142C48.4276 46.0142 47.5252 46.3906 46.8446 47.0712C46.164 47.7518 45.7876 48.6542 45.7876 49.6184C45.7876 50.5826 46.164 51.4849 46.8446 52.1656C47.5458 52.8668 48.4688 53.2174 49.3918 53.2174C50.3148 53.2174 51.2377 52.8668 51.939 52.1656C53.3415 50.7631 53.3415 48.4737 51.939 47.0712C51.2635 46.3854 50.356 46.0142 49.3918 46.0142ZM50.8458 51.0673C50.0415 51.8665 48.7421 51.8665 47.9377 51.0673C47.551 50.6806 47.3344 50.1649 47.3344 49.6132C47.3344 49.0615 47.551 48.5459 47.9377 48.1592C48.3244 47.7724 48.8401 47.5559 49.3918 47.5559C49.9383 47.5559 50.4591 47.7724 50.8458 48.1592C51.6502 48.9635 51.6502 50.2681 50.8458 51.0673Z" fill="#276EF1"/>
<path d="M46.4836 46.7052C46.7878 46.4062 46.7878 45.9112 46.4836 45.6121L41.7863 40.9044C41.4821 40.6002 40.9974 40.6002 40.6932 40.9044C40.3889 41.2035 40.3889 41.6985 40.6932 41.9976L45.3905 46.7052C45.54 46.8547 45.7411 46.9321 45.9371 46.9321C46.133 46.9321 46.3341 46.8547 46.4836 46.7052Z" fill="#276EF1"/>
<path d="M32.866 51.9386C33.2888 51.9386 33.6343 51.5983 33.6395 51.1703L33.6859 46.076C33.691 45.648 33.3456 45.2974 32.9176 45.2974H32.9124C32.4896 45.2974 32.1441 45.6377 32.139 46.0656L32.0926 51.16C32.0874 51.588 32.4329 51.9386 32.8609 51.9386C32.8609 51.9386 32.8609 51.9386 32.866 51.9386Z" fill="#276EF1"/>
</svg>
