<svg width="84" height="84" viewBox="0 0 84 84" fill="none" xmlns="http://www.w3.org/2000/svg">
<path d="M55.7773 38.202C55.7773 32.0522 50.7666 27.0439 44.6138 27.0439H44.091L44.5736 26.3043C44.9355 25.7496 44.7827 25.002 44.2277 24.6322C43.6728 24.2704 42.9248 24.4232 42.5548 24.9779L41.9114 25.9586L41.3645 25.0261C41.0267 24.4553 40.2867 24.2624 39.7157 24.6C39.1446 24.9377 38.9516 25.6773 39.2894 26.248L39.7559 27.0359H38.5414C32.7988 27.0359 28.1259 31.7065 28.1259 37.4464V45.6703C28.1259 53.2913 34.3269 59.4894 41.9516 59.4894C49.5763 59.4894 55.7773 53.2913 55.7773 45.6703V38.202ZM38.5414 29.4556H41.839H41.8712H44.6218C49.4476 29.4556 53.3725 33.3786 53.3725 38.202V38.8291C51.0803 38.6844 47.6218 36.8354 46.3913 33.9816C46.2626 33.6841 45.973 33.4992 45.6513 33.4992C45.3296 33.4992 45.0401 33.6922 44.9114 33.9816C44.2679 35.4527 45.1848 38.2503 45.8765 39.9867C43.721 39.5365 39.7398 38.2342 38.8792 34.7212C38.7988 34.3755 38.5012 34.1343 38.1473 34.1102C37.7934 34.0861 37.4717 34.2951 37.343 34.6247C36.4181 37.0605 33.9328 39.5526 30.5307 39.5848V37.4544C30.5387 33.041 34.1259 29.4556 38.5414 29.4556ZM41.9516 57.0937C35.654 57.0937 30.5387 51.9729 30.5387 45.6864V41.1926C33.9007 41.1684 36.5387 39.1828 38.0106 36.8595C40.4315 41.2006 46.8336 41.7794 47.1312 41.8035C47.1553 41.8035 47.1714 41.8035 47.1956 41.8035C47.461 41.8035 47.7023 41.6749 47.8551 41.4578C48.0159 41.2247 48.0401 40.9192 47.9194 40.6539C47.4449 39.6491 46.9221 38.3066 46.6004 37.1168C48.4744 39.0783 51.1848 40.3163 53.3645 40.4208V45.6864C53.3645 51.9729 48.2492 57.0937 41.9516 57.0937Z" fill="#276EF1"/>
<path d="M37.4477 42.3579C36.8364 42.3579 36.3458 43.6602 36.3458 45.268C36.3458 46.8758 36.8364 48.1782 37.4477 48.1782C38.059 48.1782 38.5496 46.8758 38.5496 45.268C38.5496 43.6602 38.059 42.3579 37.4477 42.3579Z" fill="#276EF1"/>
<path d="M46.4558 42.3579C45.8445 42.3579 45.3539 43.6602 45.3539 45.268C45.3539 46.8758 45.8445 48.1782 46.4558 48.1782C47.067 48.1782 47.5576 46.8758 47.5576 45.268C47.5576 43.6602 47.059 42.3579 46.4558 42.3579Z" fill="#276EF1"/>
<path d="M5.62198 36.3689C2.52547 36.3689 0 38.8851 0 41.9882C0 45.0912 2.51743 47.6074 5.62198 47.6074C8.72654 47.6074 11.244 45.0912 11.244 41.9882C11.244 38.8851 8.7185 36.3689 5.62198 36.3689ZM5.62198 45.1957C3.85255 45.1957 2.41287 43.7567 2.41287 41.9882C2.41287 40.2196 3.85255 38.7806 5.62198 38.7806C7.39142 38.7806 8.8311 40.2196 8.8311 41.9882C8.8311 43.7567 7.38338 45.1957 5.62198 45.1957Z" fill="#276EF1"/>
<path d="M42.008 11.2385C45.1045 11.2385 47.63 8.72233 47.63 5.61927C47.63 2.52425 45.1125 0 42.008 0C38.9034 0 36.386 2.51621 36.386 5.61927C36.386 8.71429 38.9034 11.2385 42.008 11.2385ZM42.008 2.4117C43.7774 2.4117 45.2171 3.85069 45.2171 5.61927C45.2171 7.38785 43.7774 8.82684 42.008 8.82684C40.2385 8.82684 38.7989 7.38785 38.7989 5.61927C38.7989 3.85069 40.2385 2.4117 42.008 2.4117Z" fill="#276EF1"/>
<path d="M16.2787 21.8826C17.7184 21.8826 19.1581 21.336 20.2519 20.2427C22.4396 18.056 22.4396 14.4867 20.2519 12.3001C18.0643 10.1135 14.4932 10.1135 12.3055 12.3001C10.1179 14.4867 10.1179 18.056 12.3055 20.2427C13.3994 21.336 14.8391 21.8826 16.2787 21.8826ZM14.0106 14.0044C14.638 13.3773 15.4584 13.0638 16.2787 13.0638C17.0991 13.0638 17.9195 13.3773 18.5468 14.0044C19.7935 15.2504 19.7935 17.2843 18.5468 18.5384C17.2921 19.7844 15.2573 19.7844 14.0106 18.5384C12.7559 17.2843 12.7559 15.2504 14.0106 14.0044Z" fill="#276EF1"/>
<path d="M14.0912 40.7576C13.4236 40.7576 12.8848 41.2962 12.8848 41.9634C12.8848 42.6307 13.4236 43.1693 14.0912 43.1693H25.3352C26.0027 43.1693 26.5416 42.6307 26.5416 41.9634C26.5416 41.2962 26.0027 40.7576 25.3352 40.7576H14.0912Z" fill="#276EF1"/>
<path d="M78.378 36.3689C75.2814 36.3689 72.756 38.8851 72.756 41.9882C72.756 45.0912 75.2734 47.6074 78.378 47.6074C81.4825 47.6074 84 45.0912 84 41.9882C84 38.8851 81.4745 36.3689 78.378 36.3689ZM78.378 45.1957C76.6085 45.1957 75.1689 43.7567 75.1689 41.9882C75.1689 40.2196 76.6085 38.7806 78.378 38.7806C80.1474 38.7806 81.5871 40.2196 81.5871 41.9882C81.5871 43.7567 80.1474 45.1957 78.378 45.1957Z" fill="#276EF1"/>
<path d="M58.6569 40.7576C57.9893 40.7576 57.4504 41.2962 57.4504 41.9634C57.4504 42.6307 57.9893 43.1693 58.6569 43.1693H69.9008C70.5684 43.1693 71.1073 42.6307 71.1073 41.9634C71.1073 41.2962 70.5684 40.7576 69.9008 40.7576H58.6569Z" fill="#276EF1"/>
<path d="M21.1127 22.8071L27.9572 29.6483C28.1904 29.8814 28.5041 30.002 28.8097 30.002C29.1153 30.002 29.429 29.8814 29.6623 29.6483C30.1368 29.174 30.1368 28.4103 29.6623 27.944L22.8177 21.1028C22.3432 20.6285 21.5791 20.6285 21.1127 21.1028C20.6462 21.5771 20.6381 22.3408 21.1127 22.8071Z" fill="#276EF1"/>
<path d="M67.6005 21.9463C69.0402 21.9463 70.4799 21.3997 71.5737 20.3064C73.7614 18.1198 73.7614 14.5504 71.5737 12.3638C69.386 10.1772 65.815 10.1772 63.6273 12.3638C61.4397 14.5504 61.4397 18.1198 63.6273 20.3064C64.7212 21.3997 66.1608 21.9463 67.6005 21.9463ZM65.3324 14.0681C66.5791 12.8221 68.6139 12.8221 69.8686 14.0681C71.1153 15.3142 71.1153 17.348 69.8686 18.6021C68.622 19.8482 66.5871 19.8482 65.3324 18.6021C64.0777 17.348 64.0777 15.3222 65.3324 14.0681Z" fill="#276EF1"/>
<path d="M54.8847 30.275C55.1903 30.275 55.504 30.1544 55.7372 29.9213L63.0643 22.5816C63.5308 22.1073 63.5308 21.3436 63.0643 20.8774C62.5898 20.4031 61.8257 20.4111 61.3592 20.8774L54.0321 28.217C53.5656 28.6913 53.5656 29.455 54.0321 29.9213C54.2654 30.1544 54.571 30.275 54.8847 30.275Z" fill="#276EF1"/>
<path d="M41.8874 12.6773C41.2198 12.6853 40.689 13.232 40.689 13.8912L40.7614 21.8337C40.7694 22.4929 41.3083 23.0315 41.9678 23.0315H41.9758C42.6434 23.0235 43.1742 22.4768 43.1742 21.8176L43.1018 13.8751C43.1018 13.2078 42.563 12.6532 41.8874 12.6773Z" fill="#276EF1"/>
<path d="M42.008 72.7615C38.9115 72.7615 36.386 75.2777 36.386 78.3808C36.386 81.4838 38.9034 84 42.008 84C45.1125 84 47.63 81.4838 47.63 78.3808C47.63 75.2777 45.1045 72.7615 42.008 72.7615ZM42.008 81.5803C40.2385 81.5803 38.7989 80.1413 38.7989 78.3727C38.7989 76.6041 40.2385 75.1651 42.008 75.1651C43.7774 75.1651 45.2171 76.6041 45.2171 78.3727C45.2171 80.1413 43.7694 81.5803 42.008 81.5803Z" fill="#276EF1"/>
<path d="M12.3055 63.7178C10.1179 65.9045 10.1179 69.4738 12.3055 71.6604C13.3994 72.7537 14.8391 73.3004 16.2787 73.3004C17.7184 73.3004 19.1581 72.7537 20.2519 71.6604C22.4396 69.4738 22.4396 65.9045 20.2519 63.7178C18.0562 61.5312 14.4932 61.5312 12.3055 63.7178ZM18.5468 69.9561C17.2921 71.2022 15.2573 71.2022 14.0106 69.9561C12.764 68.7101 12.764 66.6762 14.0106 65.4221C14.638 64.7951 15.4584 64.4815 16.2787 64.4815C17.0991 64.4815 17.9195 64.7951 18.5468 65.4221C19.7935 66.6762 19.7935 68.7101 18.5468 69.9561Z" fill="#276EF1"/>
<path d="M27.957 54.3116L21.1125 61.1528C20.638 61.6271 20.638 62.3908 21.1125 62.8571C21.3457 63.0902 21.6594 63.2108 21.965 63.2108C22.2707 63.2108 22.5843 63.0902 22.8176 62.8571L29.6621 56.0159C30.1366 55.5416 30.1366 54.7779 29.6621 54.3116C29.1876 53.8453 28.4235 53.8453 27.957 54.3116Z" fill="#276EF1"/>
<path d="M67.6811 62.0854C66.177 62.0854 64.7695 62.6723 63.7079 63.7334C62.6462 64.7946 62.0591 66.2014 62.0591 67.7047C62.0591 69.208 62.6462 70.6148 63.7079 71.676C64.8017 72.7693 66.2414 73.316 67.6811 73.316C69.1207 73.316 70.5604 72.7693 71.6543 71.676C73.8419 69.4894 73.8419 65.9201 71.6543 63.7334C70.6006 62.6643 69.1851 62.0854 67.6811 62.0854ZM69.9492 69.9637C68.6945 71.2097 66.6677 71.2097 65.413 69.9637C64.8098 69.3608 64.472 68.5569 64.472 67.6967C64.472 66.8365 64.8098 66.0326 65.413 65.4297C66.0162 64.8268 66.8205 64.4891 67.6811 64.4891C68.5336 64.4891 69.3459 64.8268 69.9492 65.4297C71.2039 66.6838 71.2039 68.7176 69.9492 69.9637Z" fill="#276EF1"/>
<path d="M63.1448 63.1628C63.6193 62.6965 63.6193 61.9248 63.1448 61.4585L55.8177 54.1189C55.3432 53.6446 54.5871 53.6446 54.1126 54.1189C53.6381 54.5852 53.6381 55.3569 54.1126 55.8232L61.4397 63.1628C61.6729 63.3959 61.9866 63.5165 62.2922 63.5165C62.5979 63.5165 62.9115 63.3959 63.1448 63.1628Z" fill="#276EF1"/>
<path d="M41.9035 71.3223C42.5631 71.3223 43.1019 70.7917 43.11 70.1245L43.1824 62.1819C43.1904 61.5147 42.6515 60.968 41.984 60.968H41.9759C41.3164 60.968 40.7775 61.4986 40.7695 62.1658L40.6971 70.1084C40.6891 70.7756 41.2279 71.3223 41.8955 71.3223C41.8955 71.3223 41.8955 71.3223 41.9035 71.3223Z" fill="#276EF1"/>
</svg>
