<svg width="50" height="36" viewBox="0 0 50 36" fill="none" xmlns="http://www.w3.org/2000/svg">
<path d="M49.7844 28.4097C49.7064 28.3287 49.6111 28.2639 49.5047 28.2195C49.3983 28.1752 49.2832 28.1523 49.1668 28.1524H45.0001V3.91005C44.9988 2.87342 44.5594 1.87959 43.7783 1.14657C42.9971 0.413558 41.9381 0.00121694 40.8334 0H9.16665C8.06197 0.00121694 7.00291 0.413558 6.22179 1.14657C5.44067 1.87959 5.00126 2.87342 4.99997 3.91005V28.1524H0.833288C0.716942 28.1524 0.601897 28.1753 0.495553 28.2196C0.389208 28.2639 0.293918 28.3286 0.215811 28.4095C0.137705 28.4905 0.0785097 28.5858 0.042034 28.6895C0.00555825 28.7932 -0.0073909 28.9029 0.00401922 29.0115C0.1611 30.5266 0.759013 31.972 1.7324 33.1896C2.70578 34.4073 4.01717 35.3505 5.5232 35.916C5.9281 36.1113 43.7639 35.8939 44.1669 35.9727C47.0547 35.4021 49.9458 31.6737 49.9958 29.0114C50.0075 28.9028 49.9947 28.7932 49.9583 28.6895C49.9219 28.5858 49.8626 28.4905 49.7844 28.4097ZM6.66664 3.91005C6.66736 3.28805 6.93099 2.69173 7.39967 2.25191C7.86836 1.81209 8.50382 1.5647 9.16665 1.56402H40.8334C41.4962 1.5647 42.1317 1.81209 42.6004 2.25191C43.0691 2.69173 43.3327 3.28805 43.3334 3.91005V28.1524H6.66664V3.91005ZM46.8442 32.3626C46.0951 33.2581 45.1174 33.9618 44.0015 34.4085H5.9985C4.95528 33.9925 4.03201 33.3504 3.30446 32.5348C2.57691 31.7192 2.06581 30.7533 1.81311 29.7164H48.1869C47.9523 30.6804 47.4938 31.584 46.8442 32.3626Z" fill="black"/>
<path d="M37.5 18.8792V15.6401C37.5001 15.5374 37.4786 15.4357 37.4367 15.3408C37.3949 15.2459 37.3335 15.1596 37.2561 15.087C37.1787 15.0144 37.0868 14.9568 36.9857 14.9175C36.8846 14.8782 36.7762 14.858 36.6667 14.8581H31.1574L25.8333 11.3254V9.38401H29.1667C29.8295 9.38333 30.465 9.13595 30.9337 8.69613C31.4023 8.25631 31.666 7.65998 31.6667 7.03798V5.47396C31.666 4.85196 31.4023 4.25564 30.9337 3.81582C30.465 3.376 29.8295 3.12861 29.1667 3.12793H20.8333C20.1705 3.12861 19.535 3.376 19.0664 3.81582C18.5977 4.25564 18.334 4.85196 18.3333 5.47396H10.8333C10.7239 5.4739 10.6155 5.49409 10.5143 5.53337C10.4132 5.57265 10.3213 5.63025 10.2439 5.70288C10.1665 5.7755 10.1051 5.86173 10.0633 5.95664C10.0214 6.05154 9.99991 6.15326 9.99997 6.25597V15.6401C9.99991 15.7428 10.0214 15.8445 10.0633 15.9394C10.1051 16.0343 10.1665 16.1206 10.2439 16.1932C10.3213 16.2658 10.4132 16.3234 10.5143 16.3627C10.6155 16.402 10.7239 16.4222 10.8333 16.4221H18.8427L24.1667 19.9548V21.8962H22.5C22.0582 21.8967 21.6346 22.0617 21.3221 22.3549C21.0097 22.6481 20.8339 23.0456 20.8333 23.4602V25.0242C20.8339 25.4389 21.0097 25.8364 21.3221 26.1296C21.6346 26.4227 22.0582 26.5877 22.5 26.5882H27.5C27.9419 26.5877 28.3655 26.4227 28.6779 26.1296C28.9903 25.8364 29.1661 25.4389 29.1667 25.0242V23.4602C29.1661 23.0456 28.9903 22.6481 28.6779 22.3549C28.3655 22.0617 27.9419 21.8967 27.5 21.8962H25.8333V19.9548L31.1574 16.4221H35.8334V18.8792C35.0495 19.0695 34.3665 19.5215 33.9123 20.1505C33.4581 20.7795 33.2639 21.5424 33.3661 22.2961C33.4683 23.0498 33.8599 23.7427 34.4675 24.245C35.0751 24.7472 35.857 25.0242 36.6667 25.0242C37.4764 25.0242 38.2583 24.7472 38.8659 24.245C39.4735 23.7427 39.8651 23.0498 39.9673 22.2961C40.0695 21.5424 39.8753 20.7795 39.4211 20.1505C38.9669 19.5215 38.2839 19.0695 37.5 18.8792ZM27.5017 25.0242H22.5V23.4602H27.5L27.5017 25.0242ZM20 5.47396C20.0001 5.2666 20.088 5.06777 20.2442 4.92115C20.4005 4.77452 20.6124 4.69209 20.8333 4.69195H29.1667C29.3877 4.69209 29.5995 4.77452 29.7558 4.92115C29.912 5.06777 29.9999 5.2666 30 5.47396V7.03798C29.9999 7.24534 29.912 7.44417 29.7558 7.59079C29.5995 7.73742 29.3877 7.81985 29.1667 7.81999H20.8333C20.6124 7.81985 20.4005 7.73742 20.2442 7.59079C20.088 7.44417 20.0001 7.24534 20 7.03798V5.47396ZM11.6666 7.03798H18.3333C18.334 7.65998 18.5977 8.25631 19.0664 8.69613C19.535 9.13595 20.1705 9.38333 20.8333 9.38401H24.1667V11.3254L18.8427 14.8581H11.6666V7.03798ZM25 18.5925L20.5509 15.6401L25 12.6877L29.4491 15.6401L25 18.5925ZM36.6667 23.4602C36.228 23.4555 35.8089 23.2886 35.5004 22.9958C35.192 22.703 35.019 22.3079 35.019 21.8962C35.019 21.4844 35.192 21.0893 35.5005 20.7965C35.8089 20.5037 36.228 20.3368 36.6668 20.3322C37.1055 20.3369 37.5246 20.5037 37.833 20.7965C38.1415 21.0893 38.3145 21.4845 38.3145 21.8962C38.3145 22.3079 38.1415 22.7031 37.833 22.9959C37.5245 23.2887 37.1054 23.4555 36.6667 23.4602Z" fill="black"/>
</svg>
