<svg width="54" height="68" viewBox="0 0 54 68" fill="none" xmlns="http://www.w3.org/2000/svg">
<g clip-path="url(#clip0_77_131)">
<path d="M52.0942 38.2464C52.0152 38.159 51.9187 38.089 51.8109 38.0412C51.7032 37.9934 51.5866 37.9687 51.4688 37.9688H47.25V11.8125C47.2487 10.694 46.8038 9.62173 46.0129 8.83084C45.222 8.03996 44.1497 7.59506 43.0313 7.59375H10.9688C9.85028 7.59506 8.77799 8.03996 7.98711 8.83084C7.19622 9.62173 6.75133 10.694 6.75001 11.8125V37.9688H2.53126C2.41346 37.9688 2.29698 37.9935 2.18931 38.0413C2.08163 38.0891 1.98515 38.1589 1.90607 38.2462C1.82699 38.3335 1.76705 38.4364 1.73012 38.5483C1.69319 38.6601 1.68008 38.7785 1.69163 38.8957C1.85067 40.5304 2.45606 42.0899 3.44161 43.4037C4.42715 44.7175 5.75493 45.7351 7.27979 46.3453C7.68975 46.5561 45.9984 46.3215 46.4064 46.4065C49.3303 45.7908 52.2575 41.7681 52.3082 38.8956C52.32 38.7785 52.307 38.6601 52.2702 38.5483C52.2333 38.4364 52.1733 38.3336 52.0942 38.2464ZM8.43751 11.8125C8.43825 11.1414 8.70517 10.498 9.17971 10.0234C9.65425 9.5489 10.2977 9.28198 10.9688 9.28125H43.0313C43.7024 9.28198 44.3458 9.5489 44.8203 10.0234C45.2949 10.498 45.5618 11.1414 45.5625 11.8125V37.9688H8.43751V11.8125ZM49.1171 42.5113C48.3588 43.4776 47.3688 44.2368 46.239 44.7188H7.76103C6.70477 44.27 5.76996 43.5772 5.03332 42.6972C4.29668 41.8171 3.77919 40.775 3.52333 39.6563H50.4767C50.2391 40.6964 49.7749 41.6713 49.1171 42.5113Z" fill="black"/>
<path d="M39.6562 27.9636V24.4688C39.6563 24.3579 39.6345 24.2482 39.5922 24.1458C39.5498 24.0434 39.4876 23.9504 39.4093 23.872C39.3309 23.7936 39.2379 23.7315 39.1355 23.6891C39.0331 23.6467 38.9233 23.6249 38.8125 23.625H33.2343L27.8438 19.8134V17.7188H31.2188C31.8899 17.718 32.5333 17.4511 33.0078 16.9766C33.4823 16.502 33.7493 15.8586 33.75 15.1875V13.5C33.7493 12.8289 33.4823 12.1855 33.0078 11.7109C32.5333 11.2364 31.8899 10.9695 31.2188 10.9688H22.7812C22.1101 10.9695 21.4667 11.2364 20.9922 11.7109C20.5177 12.1855 20.2507 12.8289 20.25 13.5H12.6563C12.5454 13.4999 12.4357 13.5217 12.3333 13.5641C12.2309 13.6065 12.1379 13.6686 12.0595 13.747C11.9811 13.8254 11.919 13.9184 11.8766 14.0208C11.8342 14.1232 11.8124 14.2329 11.8125 14.3438V24.4688C11.8124 24.5796 11.8342 24.6893 11.8766 24.7917C11.919 24.8941 11.9811 24.9871 12.0595 25.0655C12.1379 25.1439 12.2309 25.206 12.3333 25.2484C12.4357 25.2908 12.5454 25.3126 12.6563 25.3125H20.7657L26.1562 29.1241V31.2188H24.4688C24.0214 31.2193 23.5925 31.3973 23.2761 31.7136C22.9598 32.03 22.7818 32.4589 22.7812 32.9062V34.5938C22.7818 35.0411 22.9598 35.47 23.2761 35.7864C23.5925 36.1027 24.0214 36.2807 24.4688 36.2812H29.5312C29.9786 36.2807 30.4075 36.1027 30.7239 35.7864C31.0402 35.47 31.2182 35.0411 31.2188 34.5938V32.9062C31.2182 32.4589 31.0402 32.03 30.7239 31.7136C30.4075 31.3973 29.9786 31.2193 29.5312 31.2188H27.8438V29.1241L33.2343 25.3125H37.9688V27.9636C37.1751 28.1689 36.4835 28.6566 36.0236 29.3353C35.5638 30.0139 35.3672 30.837 35.4707 31.6503C35.5742 32.4635 35.9706 33.2111 36.5858 33.753C37.201 34.2948 37.9927 34.5938 38.8125 34.5938C39.6323 34.5938 40.424 34.2948 41.0392 33.753C41.6544 33.2111 42.0508 32.4635 42.1543 31.6503C42.2578 30.837 42.0612 30.0139 41.6014 29.3353C41.1415 28.6566 40.4499 28.1689 39.6562 27.9636ZM29.5329 34.5938H24.4688V32.9062H29.5312L29.5329 34.5938ZM21.9375 13.5C21.9376 13.2763 22.0266 13.0617 22.1848 12.9035C22.343 12.7453 22.5575 12.6564 22.7812 12.6562H31.2188C31.4425 12.6564 31.657 12.7453 31.8152 12.9035C31.9734 13.0617 32.0624 13.2763 32.0625 13.5V15.1875C32.0624 15.4112 31.9734 15.6258 31.8152 15.784C31.657 15.9422 31.4425 16.0311 31.2188 16.0312H22.7812C22.5575 16.0311 22.343 15.9422 22.1848 15.784C22.0266 15.6258 21.9376 15.4112 21.9375 15.1875V13.5ZM13.5 15.1875H20.25C20.2507 15.8586 20.5177 16.502 20.9922 16.9766C21.4667 17.4511 22.1101 17.718 22.7812 17.7188H26.1562V19.8134L20.7657 23.625H13.5V15.1875ZM27 27.6542L22.4953 24.4688L27 21.2833L31.5047 24.4688L27 27.6542ZM38.8125 32.9062C38.3683 32.9012 37.944 32.7212 37.6316 32.4052C37.3193 32.0893 37.1442 31.663 37.1442 31.2187C37.1442 30.7745 37.3193 30.3481 37.6317 30.0322C37.944 29.7163 38.3683 29.5363 38.8126 29.5312C39.2568 29.5363 39.6811 29.7163 39.9934 30.0323C40.3057 30.3482 40.4809 30.7745 40.4809 31.2188C40.4809 31.663 40.3057 32.0894 39.9934 32.4053C39.681 32.7212 39.2567 32.9012 38.8125 32.9062Z" fill="black"/>
<path d="M1.49214 68.3551V68.8345H0.0719105V68.3551H1.49214ZM0.397006 70.6562V68.1888C0.397006 68.022 0.429466 67.8837 0.494385 67.7738C0.560303 67.664 0.650191 67.5816 0.764049 67.5266C0.877908 67.4717 1.00725 67.4442 1.15207 67.4442C1.24994 67.4442 1.33933 67.4517 1.42023 67.4667C1.50213 67.4817 1.56305 67.4952 1.60301 67.5072L1.48915 67.9866C1.46418 67.9786 1.43322 67.9711 1.39626 67.9641C1.36031 67.9571 1.32335 67.9536 1.2854 67.9536C1.19152 67.9536 1.1261 67.9756 1.08914 68.0195C1.05219 68.0625 1.03371 68.1229 1.03371 68.2008V70.6562H0.397006ZM1.88203 70.6562V68.3551H2.50076V68.7566H2.52473C2.56668 68.6138 2.63709 68.5059 2.73597 68.433C2.83485 68.3591 2.94871 68.3222 3.07755 68.3222C3.10951 68.3222 3.14396 68.3242 3.18092 68.3281C3.21787 68.3321 3.25033 68.3376 3.2783 68.3446V68.9109C3.24833 68.9019 3.20688 68.8939 3.15395 68.887C3.10102 68.88 3.05258 68.8765 3.00863 68.8765C2.91475 68.8765 2.83085 68.8969 2.75694 68.9379C2.68403 68.9778 2.62611 69.0338 2.58316 69.1057C2.54121 69.1776 2.52024 69.2605 2.52024 69.3544V70.6562H1.88203ZM4.54085 70.7012C4.30814 70.7012 4.10689 70.6518 3.9371 70.5529C3.76831 70.453 3.63797 70.3142 3.54609 70.1364C3.4542 69.9576 3.40826 69.7504 3.40826 69.5147C3.40826 69.277 3.4542 69.0692 3.54609 68.8914C3.63797 68.7127 3.76831 68.5738 3.9371 68.475C4.10689 68.3751 4.30814 68.3252 4.54085 68.3252C4.77356 68.3252 4.97431 68.3751 5.1431 68.475C5.31289 68.5738 5.44373 68.7127 5.53561 68.8914C5.6275 69.0692 5.67344 69.277 5.67344 69.5147C5.67344 69.7504 5.6275 69.9576 5.53561 70.1364C5.44373 70.3142 5.31289 70.453 5.1431 70.5529C4.97431 70.6518 4.77356 70.7012 4.54085 70.7012ZM4.54385 70.2068C4.64971 70.2068 4.7381 70.1768 4.80902 70.1169C4.87993 70.056 4.93336 69.9731 4.96932 69.8682C5.00627 69.7634 5.02475 69.644 5.02475 69.5102C5.02475 69.3763 5.00627 69.257 4.96932 69.1521C4.93336 69.0473 4.87993 68.9644 4.80902 68.9034C4.7381 68.8425 4.64971 68.812 4.54385 68.812C4.43698 68.812 4.34709 68.8425 4.27418 68.9034C4.20227 68.9644 4.14784 69.0473 4.11088 69.1521C4.07493 69.257 4.05695 69.3763 4.05695 69.5102C4.05695 69.644 4.07493 69.7634 4.11088 69.8682C4.14784 69.9731 4.20227 70.056 4.27418 70.1169C4.34709 70.1768 4.43698 70.2068 4.54385 70.2068ZM6.08842 70.6562V68.3551H6.69667V68.7611H6.72363C6.77157 68.6263 6.85147 68.5199 6.96333 68.442C7.0752 68.3641 7.20903 68.3252 7.36483 68.3252C7.52264 68.3252 7.65697 68.3646 7.76783 68.4435C7.8787 68.5214 7.9526 68.6273 7.98956 68.7611H8.01353C8.06047 68.6293 8.14536 68.5239 8.26821 68.445C8.39206 68.3651 8.53837 68.3252 8.70716 68.3252C8.9219 68.3252 9.09618 68.3936 9.23001 68.5304C9.36485 68.6662 9.43226 68.859 9.43226 69.1087V70.6562H8.79555V69.2345C8.79555 69.1067 8.7616 69.0108 8.69368 68.9469C8.62577 68.883 8.54087 68.851 8.439 68.851C8.32314 68.851 8.23275 68.888 8.16784 68.9619C8.10292 69.0348 8.07046 69.1311 8.07046 69.251V70.6562H7.45173V69.221C7.45173 69.1082 7.41927 69.0183 7.35435 68.9514C7.29043 68.8845 7.20603 68.851 7.10116 68.851C7.03025 68.851 6.96633 68.869 6.9094 68.9049C6.85347 68.9399 6.80903 68.9893 6.77607 69.0532C6.74311 69.1162 6.72663 69.1901 6.72663 69.275V70.6562H6.08842ZM12.1368 68.3551V68.8345H10.751V68.3551H12.1368ZM11.0656 67.8038H11.7038V69.9491C11.7038 70.0081 11.7128 70.054 11.7308 70.087C11.7488 70.1189 11.7737 70.1414 11.8057 70.1544C11.8386 70.1674 11.8766 70.1739 11.9195 70.1739C11.9495 70.1739 11.9795 70.1714 12.0094 70.1664C12.0394 70.1604 12.0624 70.1559 12.0783 70.1529L12.1787 70.6278C12.1468 70.6378 12.1018 70.6493 12.0439 70.6622C11.986 70.6762 11.9155 70.6847 11.8326 70.6877C11.6788 70.6937 11.544 70.6732 11.4282 70.6263C11.3133 70.5793 11.2239 70.5064 11.16 70.4076C11.0961 70.3087 11.0646 70.1838 11.0656 70.033V67.8038ZM13.2401 69.3259V70.6562H12.6019V67.5881H13.2222V68.7611H13.2491C13.3011 68.6253 13.385 68.5189 13.5008 68.442C13.6167 68.3641 13.762 68.3252 13.9368 68.3252C14.0966 68.3252 14.2359 68.3601 14.3548 68.43C14.4746 68.4989 14.5675 68.5983 14.6334 68.7281C14.7003 68.857 14.7333 69.0113 14.7323 69.1911V70.6562H14.0941V69.3049C14.0951 69.1631 14.0591 69.0527 13.9862 68.9738C13.9143 68.8949 13.8134 68.8555 13.6836 68.8555C13.5967 68.8555 13.5198 68.874 13.4529 68.9109C13.387 68.9479 13.335 69.0018 13.2971 69.0727C13.2601 69.1426 13.2411 69.227 13.2401 69.3259ZM16.2832 70.7012C16.0465 70.7012 15.8428 70.6533 15.672 70.5574C15.5022 70.4605 15.3714 70.3237 15.2795 70.1469C15.1876 69.9691 15.1417 69.7589 15.1417 69.5162C15.1417 69.2795 15.1876 69.0717 15.2795 68.8929C15.3714 68.7142 15.5007 68.5748 15.6675 68.475C15.8353 68.3751 16.032 68.3252 16.2578 68.3252C16.4096 68.3252 16.5509 68.3496 16.6817 68.3986C16.8136 68.4465 16.9284 68.5189 17.0263 68.6158C17.1252 68.7127 17.2021 68.8345 17.257 68.9813C17.312 69.1272 17.3394 69.2979 17.3394 69.4937V69.669H15.3963V69.2735H16.7387C16.7387 69.1816 16.7187 69.1002 16.6787 69.0293C16.6388 68.9584 16.5834 68.9029 16.5125 68.863C16.4425 68.822 16.3611 68.8016 16.2683 68.8016C16.1714 68.8016 16.0855 68.824 16.0106 68.869C15.9367 68.9129 15.8787 68.9723 15.8368 69.0473C15.7948 69.1212 15.7734 69.2036 15.7724 69.2944V69.6705C15.7724 69.7843 15.7933 69.8827 15.8353 69.9656C15.8782 70.0485 15.9387 70.1124 16.0166 70.1574C16.0945 70.2023 16.1869 70.2248 16.2937 70.2248C16.3646 70.2248 16.4296 70.2148 16.4885 70.1948C16.5474 70.1748 16.5978 70.1449 16.6398 70.1049C16.6817 70.065 16.7137 70.016 16.7357 69.9581L17.3259 69.9971C17.296 70.1389 17.2346 70.2627 17.1417 70.3686C17.0498 70.4735 16.9309 70.5554 16.7851 70.6143C16.6403 70.6722 16.473 70.7012 16.2832 70.7012ZM21.3106 67.5881V70.6562H20.7503L19.4155 68.7252H19.393V70.6562H18.7443V67.5881H19.3136L20.6379 69.5177H20.6649V67.5881H21.3106ZM22.8743 70.7012C22.6416 70.7012 22.4403 70.6518 22.2705 70.5529C22.1017 70.453 21.9714 70.3142 21.8795 70.1364C21.7876 69.9576 21.7417 69.7504 21.7417 69.5147C21.7417 69.277 21.7876 69.0692 21.8795 68.8914C21.9714 68.7127 22.1017 68.5738 22.2705 68.475C22.4403 68.3751 22.6416 68.3252 22.8743 68.3252C23.107 68.3252 23.3077 68.3751 23.4765 68.475C23.6463 68.5738 23.7772 68.7127 23.869 68.8914C23.9609 69.0692 24.0069 69.277 24.0069 69.5147C24.0069 69.7504 23.9609 69.9576 23.869 70.1364C23.7772 70.3142 23.6463 70.453 23.4765 70.5529C23.3077 70.6518 23.107 70.7012 22.8743 70.7012ZM22.8773 70.2068C22.9831 70.2068 23.0715 70.1768 23.1425 70.1169C23.2134 70.056 23.2668 69.9731 23.3028 69.8682C23.3397 69.7634 23.3582 69.644 23.3582 69.5102C23.3582 69.3763 23.3397 69.257 23.3028 69.1521C23.2668 69.0473 23.2134 68.9644 23.1425 68.9034C23.0715 68.8425 22.9831 68.812 22.8773 68.812C22.7704 68.812 22.6805 68.8425 22.6076 68.9034C22.5357 68.9644 22.4813 69.0473 22.4443 69.1521C22.4084 69.257 22.3904 69.3763 22.3904 69.5102C22.3904 69.644 22.4084 69.7634 22.4443 69.8682C22.4813 69.9731 22.5357 70.056 22.6076 70.1169C22.6805 70.1768 22.7704 70.2068 22.8773 70.2068ZM25.8975 69.6765V68.3551H26.5357V70.6562H25.923V70.2383H25.899C25.8471 70.3731 25.7607 70.4815 25.6398 70.5634C25.52 70.6453 25.3737 70.6862 25.2009 70.6862C25.0471 70.6862 24.9117 70.6513 24.7949 70.5813C24.678 70.5114 24.5867 70.4121 24.5207 70.2832C24.4558 70.1544 24.4229 70.0001 24.4219 69.8203V68.3551H25.0601V69.7064C25.0611 69.8423 25.0975 69.9496 25.1694 70.0285C25.2413 70.1074 25.3377 70.1469 25.4586 70.1469C25.5355 70.1469 25.6074 70.1294 25.6743 70.0944C25.7412 70.0585 25.7951 70.0056 25.8361 69.9356C25.878 69.8657 25.8985 69.7793 25.8975 69.6765ZM27.6844 69.3259V70.6562H27.0462V68.3551H27.6545V68.7611H27.6814C27.7324 68.6273 27.8178 68.5214 27.9376 68.4435C28.0575 68.3646 28.2028 68.3252 28.3736 68.3252C28.5334 68.3252 28.6727 68.3601 28.7915 68.43C28.9104 68.4999 29.0028 68.5998 29.0687 68.7296C29.1346 68.8585 29.1676 69.0123 29.1676 69.1911V70.6562H28.5294V69.3049C28.5304 69.1641 28.4944 69.0542 28.4215 68.9753C28.3486 68.8954 28.2482 68.8555 28.1204 68.8555C28.0345 68.8555 27.9586 68.874 27.8927 68.9109C27.8277 68.9479 27.7768 69.0018 27.7399 69.0727C27.7039 69.1426 27.6854 69.227 27.6844 69.3259ZM30.659 70.6562V67.5881H31.8695C32.1022 67.5881 32.3004 67.6325 32.4642 67.7214C32.628 67.8093 32.7529 67.9316 32.8388 68.0884C32.9257 68.2443 32.9691 68.424 32.9691 68.6278C32.9691 68.8315 32.9252 69.0113 32.8373 69.1671C32.7494 69.3229 32.622 69.4443 32.4552 69.5312C32.2894 69.618 32.0887 69.6615 31.853 69.6615H31.0814V69.1416H31.7481C31.873 69.1416 31.9758 69.1202 32.0567 69.0772C32.1386 69.0333 32.1996 68.9728 32.2395 68.8959C32.2805 68.818 32.3009 68.7286 32.3009 68.6278C32.3009 68.5259 32.2805 68.437 32.2395 68.3611C32.1996 68.2842 32.1386 68.2248 32.0567 68.1828C31.9748 68.1399 31.871 68.1184 31.7451 68.1184H31.3077V70.6562H30.659ZM33.3785 70.6562V68.3551H33.9972V68.7566H34.0212C34.0631 68.6138 34.1335 68.5059 34.2324 68.433C34.3313 68.3591 34.4451 68.3222 34.574 68.3222C34.6059 68.3222 34.6404 68.3242 34.6773 68.3281C34.7143 68.3321 34.7468 68.3376 34.7747 68.3446V68.9109C34.7448 68.9019 34.7033 68.8939 34.6504 68.887C34.5974 68.88 34.549 68.8765 34.5051 68.8765C34.4112 68.8765 34.3273 68.8969 34.2534 68.9379C34.1805 68.9778 34.1225 69.0338 34.0796 69.1057C34.0376 69.1776 34.0167 69.2605 34.0167 69.3544V70.6562H33.3785ZM36.0373 70.7012C35.8046 70.7012 35.6033 70.6518 35.4335 70.5529C35.2647 70.453 35.1344 70.3142 35.0425 70.1364C34.9506 69.9576 34.9047 69.7504 34.9047 69.5147C34.9047 69.277 34.9506 69.0692 35.0425 68.8914C35.1344 68.7127 35.2647 68.5738 35.4335 68.475C35.6033 68.3751 35.8046 68.3252 36.0373 68.3252C36.27 68.3252 36.4707 68.3751 36.6395 68.475C36.8093 68.5738 36.9402 68.7127 37.032 68.8914C37.1239 69.0692 37.1699 69.277 37.1699 69.5147C37.1699 69.7504 37.1239 69.9576 37.032 70.1364C36.9402 70.3142 36.8093 70.453 36.6395 70.5529C36.4707 70.6518 36.27 70.7012 36.0373 70.7012ZM36.0403 70.2068C36.1461 70.2068 36.2345 70.1768 36.3054 70.1169C36.3764 70.056 36.4298 69.9731 36.4657 69.8682C36.5027 69.7634 36.5212 69.644 36.5212 69.5102C36.5212 69.3763 36.5027 69.257 36.4657 69.1521C36.4298 69.0473 36.3764 68.9644 36.3054 68.9034C36.2345 68.8425 36.1461 68.812 36.0403 68.812C35.9334 68.812 35.8435 68.8425 35.7706 68.9034C35.6987 68.9644 35.6443 69.0473 35.6073 69.1521C35.5714 69.257 35.5534 69.3763 35.5534 69.5102C35.5534 69.644 35.5714 69.7634 35.6073 69.8682C35.6443 69.9731 35.6987 70.056 35.7706 70.1169C35.8435 70.1768 35.9334 70.2068 36.0403 70.2068ZM37.5849 68.3551H38.2231V70.7701C38.2231 70.9479 38.1881 71.0917 38.1182 71.2016C38.0483 71.3114 37.9479 71.3918 37.8171 71.4428C37.6872 71.4937 37.5319 71.5192 37.3511 71.5192C37.3292 71.5192 37.3082 71.5187 37.2882 71.5177C37.2672 71.5177 37.2453 71.5172 37.2223 71.5162V71.0173C37.2393 71.0183 37.2543 71.0188 37.2672 71.0188C37.2792 71.0198 37.2922 71.0203 37.3062 71.0203C37.4091 71.0203 37.481 70.9983 37.5219 70.9544C37.5639 70.9114 37.5849 70.8465 37.5849 70.7596V68.3551ZM37.9025 68.0585C37.8086 68.0585 37.7277 68.027 37.6598 67.9641C37.5918 67.9002 37.5579 67.8238 37.5579 67.7349C37.5579 67.647 37.5918 67.5716 37.6598 67.5087C37.7277 67.4447 37.8086 67.4128 37.9025 67.4128C37.9983 67.4128 38.0797 67.4447 38.1467 67.5087C38.2146 67.5716 38.2485 67.647 38.2485 67.7349C38.2485 67.8238 38.2146 67.9002 38.1467 67.9641C38.0797 68.027 37.9983 68.0585 37.9025 68.0585ZM39.783 70.7012C39.5463 70.7012 39.3425 70.6533 39.1718 70.5574C39.002 70.4605 38.8711 70.3237 38.7792 70.1469C38.6874 69.9691 38.6414 69.7589 38.6414 69.5162C38.6414 69.2795 38.6874 69.0717 38.7792 68.8929C38.8711 68.7142 39.0005 68.5748 39.1673 68.475C39.335 68.3751 39.5318 68.3252 39.7575 68.3252C39.9093 68.3252 40.0507 68.3496 40.1815 68.3986C40.3133 68.4465 40.4282 68.5189 40.5261 68.6158C40.6249 68.7127 40.7018 68.8345 40.7568 68.9813C40.8117 69.1272 40.8392 69.2979 40.8392 69.4937V69.669H38.8961V69.2735H40.2384C40.2384 69.1816 40.2185 69.1002 40.1785 69.0293C40.1385 68.9584 40.0831 68.9029 40.0122 68.863C39.9423 68.822 39.8609 68.8016 39.768 68.8016C39.6711 68.8016 39.5852 68.824 39.5103 68.869C39.4364 68.9129 39.3785 68.9723 39.3365 69.0473C39.2946 69.1212 39.2731 69.2036 39.2721 69.2944V69.6705C39.2721 69.7843 39.2931 69.8827 39.335 69.9656C39.378 70.0485 39.4384 70.1124 39.5163 70.1574C39.5942 70.2023 39.6866 70.2248 39.7935 70.2248C39.8644 70.2248 39.9293 70.2148 39.9882 70.1948C40.0472 70.1748 40.0976 70.1449 40.1395 70.1049C40.1815 70.065 40.2135 70.016 40.2354 69.9581L40.8257 69.9971C40.7957 70.1389 40.7343 70.2627 40.6414 70.3686C40.5495 70.4735 40.4307 70.5554 40.2849 70.6143C40.14 70.6722 39.9728 70.7012 39.783 70.7012ZM42.2954 70.7012C42.0597 70.7012 41.8569 70.6513 41.6871 70.5514C41.5183 70.4505 41.3885 70.3107 41.2976 70.1319C41.2077 69.9531 41.1628 69.7474 41.1628 69.5147C41.1628 69.279 41.2082 69.0722 41.2991 68.8944C41.391 68.7157 41.5213 68.5763 41.6901 68.4765C41.8589 68.3756 42.0597 68.3252 42.2924 68.3252C42.4931 68.3252 42.6689 68.3616 42.8197 68.4345C42.9705 68.5074 43.0899 68.6098 43.1778 68.7416C43.2657 68.8735 43.3141 69.0283 43.3231 69.2061H42.7208C42.7039 69.0912 42.6589 68.9988 42.586 68.9289C42.5141 68.858 42.4197 68.8225 42.3029 68.8225C42.204 68.8225 42.1176 68.8495 42.0437 68.9034C41.9708 68.9564 41.9138 69.0338 41.8729 69.1356C41.8319 69.2375 41.8115 69.3609 41.8115 69.5057C41.8115 69.6525 41.8314 69.7773 41.8714 69.8802C41.9123 69.9831 41.9698 70.0615 42.0437 70.1154C42.1176 70.1694 42.204 70.1963 42.3029 70.1963C42.3758 70.1963 42.4412 70.1813 42.4991 70.1514C42.558 70.1214 42.6065 70.078 42.6444 70.021C42.6834 69.9631 42.7089 69.8937 42.7208 69.8128H43.3231C43.3131 69.9886 43.2652 70.1434 43.1793 70.2772C43.0944 70.4101 42.977 70.5139 42.8272 70.5888C42.6774 70.6637 42.5001 70.7012 42.2954 70.7012ZM44.9557 68.3551V68.8345H43.5699V68.3551H44.9557ZM43.8845 67.8038H44.5227V69.9491C44.5227 70.0081 44.5317 70.054 44.5497 70.087C44.5677 70.1189 44.5926 70.1414 44.6246 70.1544C44.6576 70.1674 44.6955 70.1739 44.7385 70.1739C44.7684 70.1739 44.7984 70.1714 44.8283 70.1664C44.8583 70.1604 44.8813 70.1559 44.8973 70.1529L44.9976 70.6278C44.9657 70.6378 44.9207 70.6493 44.8628 70.6622C44.8049 70.6762 44.7345 70.6847 44.6516 70.6877C44.4978 70.6937 44.3629 70.6732 44.2471 70.6263C44.1322 70.5793 44.0428 70.5064 43.9789 70.4076C43.915 70.3087 43.8835 70.1838 43.8845 70.033V67.8038Z" fill="black"/>
</g>
<defs>
<clipPath id="clip0_77_131">
<rect width="54" height="67.5" fill="white"/>
</clipPath>
</defs>
</svg>
