<svg width="50" height="36" viewBox="0 0 50 36" fill="none" xmlns="http://www.w3.org/2000/svg">
<g clip-path="url(#clip0_4376_11557)">
<path d="M49.7844 28.4097C49.7064 28.3287 49.6111 28.2639 49.5047 28.2195C49.3983 28.1752 49.2832 28.1523 49.1668 28.1524H45.0001V3.91005C44.9988 2.87342 44.5594 1.87959 43.7783 1.14657C42.9971 0.413558 41.9381 0.00121694 40.8334 0H9.16665C8.06197 0.00121694 7.00291 0.413558 6.22179 1.14657C5.44067 1.87959 5.00126 2.87342 4.99997 3.91005V28.1524H0.833288C0.716942 28.1524 0.601897 28.1753 0.495553 28.2196C0.389208 28.2639 0.293918 28.3286 0.215811 28.4095C0.137705 28.4905 0.0785097 28.5858 0.042034 28.6895C0.00555825 28.7932 -0.0073909 28.9029 0.00401922 29.0115C0.1611 30.5266 0.759013 31.972 1.7324 33.1896C2.70578 34.4073 4.01717 35.3505 5.5232 35.916C5.9281 36.1113 43.7639 35.8939 44.1669 35.9727C47.0547 35.4021 49.9458 31.6737 49.9958 29.0114C50.0075 28.9028 49.9947 28.7932 49.9583 28.6895C49.9219 28.5858 49.8626 28.4905 49.7844 28.4097ZM6.66664 3.91005C6.66736 3.28805 6.93099 2.69173 7.39967 2.25191C7.86836 1.81209 8.50382 1.5647 9.16665 1.56402H40.8334C41.4962 1.5647 42.1317 1.81209 42.6004 2.25191C43.0691 2.69173 43.3327 3.28805 43.3334 3.91005V28.1524H6.66664V3.91005ZM46.8442 32.3626C46.0951 33.2581 45.1174 33.9618 44.0015 34.4085H5.9985C4.95528 33.9925 4.03201 33.3504 3.30446 32.5348C2.57691 31.7192 2.06581 30.7533 1.81311 29.7164H48.1869C47.9523 30.6804 47.4938 31.584 46.8442 32.3626Z" fill="#266DF1"/>
<path d="M37.5 18.8802V15.6411C37.5001 15.5384 37.4786 15.4367 37.4367 15.3418C37.3949 15.2469 37.3335 15.1606 37.2561 15.088C37.1787 15.0154 37.0868 14.9578 36.9857 14.9185C36.8846 14.8792 36.7762 14.859 36.6667 14.8591H31.1574L25.8333 11.3264V9.38499H29.1667C29.8295 9.38431 30.465 9.13693 30.9337 8.69711C31.4023 8.25729 31.666 7.66096 31.6667 7.03896V5.47494C31.666 4.85294 31.4023 4.25662 30.9337 3.8168C30.465 3.37698 29.8295 3.12959 29.1667 3.12891H20.8333C20.1705 3.12959 19.535 3.37698 19.0664 3.8168C18.5977 4.25662 18.334 4.85294 18.3333 5.47494H10.8333C10.7239 5.47488 10.6155 5.49507 10.5143 5.53435C10.4132 5.57363 10.3213 5.63123 10.2439 5.70386C10.1665 5.77648 10.1051 5.86271 10.0633 5.95762C10.0214 6.05252 9.99994 6.15424 10 6.25695V15.6411C9.99994 15.7438 10.0214 15.8455 10.0633 15.9404C10.1051 16.0353 10.1665 16.1216 10.2439 16.1942C10.3213 16.2668 10.4132 16.3244 10.5143 16.3637C10.6155 16.403 10.7239 16.4232 10.8333 16.4231H18.8427L24.1667 19.9558V21.8972H22.5C22.0582 21.8977 21.6346 22.0627 21.3221 22.3559C21.0097 22.6491 20.8339 23.0466 20.8333 23.4612V25.0252C20.8339 25.4399 21.0097 25.8374 21.3221 26.1306C21.6346 26.4237 22.0582 26.5887 22.5 26.5892H27.5C27.9419 26.5887 28.3655 26.4237 28.6779 26.1306C28.9903 25.8374 29.1661 25.4399 29.1667 25.0252V23.4612C29.1661 23.0466 28.9903 22.6491 28.6779 22.3559C28.3655 22.0627 27.9419 21.8977 27.5 21.8972H25.8333V19.9558L31.1574 16.4231H35.8334V18.8802C35.0495 19.0705 34.3665 19.5225 33.9123 20.1515C33.4581 20.7805 33.2639 21.5434 33.3661 22.2971C33.4683 23.0508 33.8599 23.7437 34.4675 24.246C35.0751 24.7482 35.857 25.0252 36.6667 25.0252C37.4764 25.0252 38.2583 24.7482 38.8659 24.246C39.4735 23.7437 39.8651 23.0508 39.9673 22.2971C40.0695 21.5434 39.8753 20.7805 39.4211 20.1515C38.9669 19.5225 38.2839 19.0705 37.5 18.8802ZM27.5017 25.0252H22.5V23.4612H27.5L27.5017 25.0252ZM20 5.47494C20.0001 5.26758 20.088 5.06875 20.2442 4.92213C20.4005 4.7755 20.6124 4.69307 20.8333 4.69293H29.1667C29.3877 4.69307 29.5995 4.7755 29.7558 4.92213C29.912 5.06875 29.9999 5.26758 30 5.47494V7.03896C29.9999 7.24632 29.912 7.44515 29.7558 7.59177C29.5995 7.7384 29.3877 7.82083 29.1667 7.82097H20.8333C20.6124 7.82083 20.4005 7.7384 20.2442 7.59177C20.088 7.44515 20.0001 7.24632 20 7.03896V5.47494ZM11.6666 7.03896H18.3333C18.334 7.66096 18.5977 8.25729 19.0664 8.69711C19.535 9.13693 20.1705 9.38431 20.8333 9.38499H24.1667V11.3264L18.8427 14.8591H11.6666V7.03896ZM25 18.5935L20.5509 15.6411L25 12.6887L29.4491 15.6411L25 18.5935ZM36.6667 23.4612C36.228 23.4565 35.8089 23.2896 35.5004 22.9968C35.192 22.704 35.019 22.3089 35.019 21.8972C35.019 21.4854 35.192 21.0903 35.5005 20.7975C35.8089 20.5047 36.228 20.3378 36.6668 20.3332C37.1055 20.3379 37.5246 20.5047 37.833 20.7975C38.1415 21.0903 38.3145 21.4855 38.3145 21.8972C38.3145 22.3089 38.1415 22.7041 37.833 22.9969C37.5245 23.2897 37.1054 23.4565 36.6667 23.4612Z" fill="#266DF1"/>
</g>
<defs>
<clipPath id="clip0_4376_11557">
<rect width="50" height="36" fill="white"/>
</clipPath>
</defs>
</svg>
