<svg width="87" height="81" viewBox="0 0 87 81" fill="none" xmlns="http://www.w3.org/2000/svg">
<path d="M33.4443 0.822723C26.5926 2.45331 21.356 7.29976 19.5452 13.6862L18.7132 16.585L16.2662 16.8568C10.5891 17.4456 4.52051 21.7485 1.87773 27.0026C0.752097 29.222 0.556335 30.1732 0.556335 33.8873C0.556335 37.7826 0.703157 38.462 2.12243 41.225C2.95442 42.9008 4.66733 45.2108 5.93978 46.3432L8.19104 48.4267L7.11435 51.3255C4.17793 59.4331 8.28892 68.4919 16.7067 72.4778C20.524 74.2896 26.6416 74.7425 30.6547 73.5196C33.1506 72.7496 33.2485 72.7496 33.7379 73.5649C34.7167 75.286 38.4362 78.1848 41.2258 79.4531C43.8686 80.6307 44.6027 80.7666 49.252 80.7666C53.8035 80.7666 54.7334 80.6307 57.1804 79.5437C62.3191 77.3243 66.8216 72.0249 67.6536 67.269C67.9962 65.4572 69.1218 64.6872 71.4221 64.6872C72.0583 64.6872 74.0648 64.0078 75.9246 63.1472C87.6703 57.9384 90.2152 43.6708 81.0144 35.1556L78.6652 32.9814L79.3993 31.3056C82.3847 24.6926 80.476 16.9474 74.6032 11.9197C70.7858 8.61329 67.4579 7.43565 61.9765 7.48093C59.4806 7.48093 57.0336 7.7527 55.859 8.16035L53.9014 8.83976L52.58 7.29976C50.5734 4.94447 47.3434 2.72507 44.358 1.6833C41.2748 0.596252 36.136 0.188606 33.4443 0.822723ZM44.4069 4.53683C46.7071 5.53329 51.2097 9.06622 51.2097 9.92681C51.2097 10.0627 46.854 12.5086 41.5684 15.3168C36.2339 18.125 31.4867 20.7521 31.0462 21.1144C30.2632 21.7485 30.1653 22.8809 30.1653 33.072C30.1653 39.232 30.0674 44.3049 29.9206 44.3049C29.7738 44.3049 27.914 43.3538 25.7606 42.2214L21.8454 40.0926V27.365C21.8944 13.5956 21.9922 12.8256 24.635 9.33799C28.8439 3.67624 37.4574 1.54742 44.4069 4.53683ZM69.024 11.4215C76.365 14.728 79.9866 23.2885 76.9034 30.0826L76.2182 31.6679L74.6032 30.8979C73.7222 30.4903 69.0729 27.9991 64.2767 25.4626C59.4806 22.8809 55.3696 20.7521 55.1249 20.7521C54.8802 20.7521 49.9372 23.2885 44.1133 26.4138C38.2894 29.5391 33.3954 32.0756 33.2975 32.0756C33.1506 32.0756 33.1506 29.992 33.1996 27.4556L33.3464 22.8356L44.1133 17.038C50.0351 13.8674 55.859 10.9686 57.0825 10.5609C60.4105 9.51917 65.6471 9.88152 69.024 11.4215ZM19.0069 30.5809L19.1537 41.7685L25.0265 44.8938C28.2566 46.6602 33.0528 49.242 35.6955 50.6461L40.4917 53.2279L36.4297 55.402C34.2273 56.6249 32.1229 57.5761 31.8293 57.5761C30.6547 57.5761 9.65925 46.0261 7.94634 44.3955C2.02455 38.9603 1.68196 30.0373 7.21223 24.2397C9.56137 21.7485 14.3575 19.3933 17.0003 19.3933H18.909L19.0069 30.5809ZM66.4791 29.675C72.4987 32.9362 78.1269 36.2879 79.2525 37.2844C85.9084 43.3991 85.0275 53.9979 77.4417 59.2973C75.3862 60.7467 70.7858 62.4225 68.9261 62.4225C68.4856 62.4225 68.3388 59.569 68.3388 51.3708V40.2738L67.0174 39.4132C66.2344 38.9603 61.6829 36.4691 56.8378 33.8873C51.9927 31.3509 47.7349 28.9956 47.3923 28.6785C46.854 28.2256 47.4412 27.7273 50.5734 26.0515C52.6779 24.9191 54.6844 23.9679 55.027 23.9227C55.3696 23.9227 60.5083 26.5044 66.4791 29.675ZM48.5179 32.4832L53.412 35.1556L53.5588 40.7267L53.6567 46.3432L48.9095 48.8343C46.2667 50.1932 43.7707 51.3255 43.3792 51.2802C42.9387 51.2802 40.4917 50.1026 37.8489 48.6985L33.1017 46.0714V40.772V35.4273L38.1426 32.6644C40.8832 31.1244 43.2324 29.9015 43.3792 29.8562C43.526 29.8562 45.8262 31.0338 48.5179 32.4832ZM61.2424 39.3679L65.4513 41.6779L65.3045 54.4055L65.1577 67.1784L63.8363 69.7602C60.3615 76.6901 51.8459 80.0419 43.9175 77.596C41.3726 76.826 36.0381 72.8402 36.0381 71.7531C36.0381 71.436 40.5896 68.7637 46.2177 65.7743L56.3484 60.3843L56.4952 48.6985C56.5442 42.312 56.691 37.0579 56.7889 37.0579C56.8867 37.0579 58.8933 38.0997 61.2424 39.3679ZM53.6567 54.2243V58.6631L42.9877 64.3702C37.1638 67.4955 31.4867 70.4396 30.41 70.8472C29.2354 71.3002 27.082 71.6172 25.0265 71.6172C16.7067 71.6625 9.80607 65.8649 9.21879 58.3008C8.97409 54.9943 9.85501 50.6914 10.8338 50.329C11.2253 50.2385 15.9236 52.5032 21.3071 55.3567C26.6905 58.2555 31.4377 60.6108 31.8293 60.6108C32.2208 60.6108 37.1638 58.1649 42.743 55.1755C48.3222 52.1861 53.0694 49.7402 53.3141 49.7402C53.5099 49.7402 53.6567 51.7332 53.6567 54.2243Z" fill="black"/>
</svg>
