<svg width="89" height="83" viewBox="0 0 89 83" fill="none" xmlns="http://www.w3.org/2000/svg">
<path d="M15.4644 1.40154C14.222 1.7235 12.3336 2.36739 11.2403 2.82732C8.30823 4.11511 3.43804 8.80636 1.74839 12.0258L0.307208 14.7854L0.158121 40.6792L0.0090332 66.5731L1.40052 70.0685C3.88531 76.4155 10.9918 81.9806 16.4086 81.8886C17.9989 81.8426 18.3965 81.9346 17.7007 82.2106C17.1541 82.3945 32.858 82.5785 52.6369 82.5785L88.5173 82.6245V50.0157C88.5173 18.8327 88.4676 17.269 87.5233 14.5094C86.3306 10.922 83.7962 7.38058 80.9635 5.21893C78.3793 3.33324 77.6836 2.96529 73.857 1.7235C71.0243 0.803642 70.0801 0.757645 44.288 0.803642C24.7575 0.849632 17.1044 0.98761 15.4644 1.40154ZM46.3752 11.198C47.5679 11.6119 49.6551 12.6697 50.9969 13.5896C53.2829 15.0614 53.8296 15.1993 57.2089 15.2913C63.9178 15.4293 69.6825 18.9247 72.5152 24.5818C73.6582 26.8355 73.857 27.8473 73.9067 31.9406C73.9564 34.5162 74.2049 36.9078 74.4533 37.2298C74.7018 37.5058 75.4473 38.7935 76.143 40.0353C77.1369 41.967 77.3357 42.9789 77.3357 46.7043C77.3357 50.8436 77.2363 51.3035 75.646 54.0171C73.6582 57.3746 71.6207 59.1223 67.2971 61.054C64.713 62.2038 64.0172 62.8017 62.6754 64.8714C60.9858 67.6769 58.8986 69.5166 55.3702 71.4483C53.1835 72.6441 52.5872 72.7361 48.0152 72.6901C42.5486 72.6901 40.0639 71.9542 36.8833 69.4706C35.3427 68.2748 34.647 68.0908 30.6713 67.8609C27.4411 67.6769 25.5527 67.309 24.0121 66.5731C20.5831 64.9633 17.6013 62.1118 15.9117 58.8463C14.5202 56.1788 14.4208 55.5809 14.5202 51.6255C14.5699 47.8081 14.4705 47.0722 13.4269 45.5085C12.8306 44.5426 12.1348 43.6688 11.9857 43.5308C11.1906 42.9329 10.3955 37.8737 10.6936 35.3901C11.3894 29.779 16.2099 23.754 21.3782 22.0522C23.6642 21.3623 24.1612 20.9484 25.1551 19.1547C27.3417 15.1993 31.7647 11.8419 36.0882 10.83C38.8712 10.2321 44.1886 10.3701 46.3752 11.198Z" fill="#75AA9C"/>
<path d="M37.3305 15.4292C35.6408 15.9351 32.3609 17.8668 31.2676 18.9706C30.8203 19.4765 29.9755 20.8563 29.4289 22.0521C28.4846 24.0298 28.3853 25.2256 28.3853 32.0785V39.8512L30.3731 41.0011C31.4664 41.645 32.5597 42.1509 32.8579 42.1509C33.1561 42.1509 33.3548 39.2993 33.3548 34.1482C33.3548 27.2033 33.4542 26.0075 34.2494 25.1796C34.6966 24.6737 37.7778 22.788 41.0577 21.0403C44.3376 19.3385 47.0212 17.5908 47.0212 17.2689C47.0212 15.7511 40.4116 14.5093 37.3305 15.4292Z" fill="#77AA9C"/>
<path d="M48.7602 22.4664C46.1761 23.7542 42.6974 25.5479 41.0574 26.4677L38.0757 28.1235L37.9266 30.791C37.7278 34.0105 37.1811 34.1485 46.3748 29.0433C47.3688 28.4914 50.9966 26.6057 52.7359 25.7778C53.4317 25.4099 54.2268 25.1339 54.4753 25.1799C54.7734 25.1799 58.0037 26.7897 61.6812 28.7674C65.3586 30.791 68.5889 32.3088 68.8374 32.1708C69.5331 31.7569 68.8374 28.1235 67.595 25.8238C65.5574 22.0524 61.7309 20.0748 56.6122 20.0748C53.7795 20.0748 52.9844 20.3507 48.7602 22.4664Z" fill="#77AA9C"/>
<path d="M21.1298 27.5256C18.7444 29.2273 17.502 30.791 16.4584 33.3206C15.216 36.3562 15.216 37.368 16.5081 40.4955C17.2038 42.3352 18.2474 43.669 20.2353 45.3247C21.7758 46.6125 23.217 47.6703 23.5152 47.6703C23.7637 47.6703 24.6085 48.0383 25.3042 48.5442C27.3418 49.832 34.1998 53.1895 34.7961 53.1895C35.8398 53.1895 39.4179 50.7978 39.0203 50.4299C38.7718 50.1999 35.5416 48.4522 31.8641 46.5205C28.1866 44.5888 24.7576 42.6571 24.3103 42.2892C23.5152 41.6453 23.4158 40.6335 23.4158 34.2865C23.4158 30.2851 23.217 26.9277 22.9685 26.7897C22.7201 26.6517 21.8752 26.9737 21.1298 27.5256Z" fill="#77AA9C"/>
<path d="M51.0963 31.2047C50.1023 31.7566 49.3072 32.4465 49.4066 32.6765C49.506 32.9065 52.7859 34.8381 56.7616 36.9538C60.6875 39.0695 64.2159 41.1391 64.5638 41.5531C64.9614 42.105 65.1602 44.4506 65.1602 49.3718C65.1602 55.2589 65.2596 56.4087 65.9056 56.4087C66.8995 56.4087 70.1794 53.6491 69.8316 53.1432C69.6825 52.9133 69.8316 52.7753 70.1297 52.8213C71.0243 53.0512 72.5648 49.0959 72.5648 46.5203C72.6145 43.4848 70.8752 40.0353 68.2413 37.9656C65.9553 36.1719 54.7241 30.1929 53.6804 30.1929C53.2829 30.1929 52.1399 30.6528 51.0963 31.2047Z" fill="#77AA9C"/>
<path d="M40.8088 36.77L38.0755 38.2418L37.9264 41.5532L37.7773 44.8647L40.1627 46.2905C43.6911 48.3601 44.2378 48.3601 47.4183 46.6584L50.251 45.1407V41.8292V38.5177L47.6668 36.862C46.2256 35.9881 44.6851 35.2522 44.2875 35.2522C43.8402 35.2522 42.2997 35.9421 40.8088 36.77Z" fill="#77AA9C"/>
<path d="M55.0717 41.553C54.8729 41.691 54.7238 45.6003 54.7238 50.1536V58.4783L47.7664 62.0657C43.9398 64.0894 40.809 65.8831 40.809 66.113C40.809 67.1249 44.1386 68.1367 47.7664 68.1367C50.9469 68.1367 51.8414 67.9527 53.7796 66.8949C59.1964 63.9514 60.2897 61.2378 60.0909 50.8435L59.9418 43.3467L57.954 42.2889C55.7674 41.1391 55.5189 41.0931 55.0717 41.553Z" fill="#75AA9C"/>
<path d="M47.2689 51.442C46.3247 51.9479 43.0448 53.6956 40.0134 55.3053C36.9819 56.9151 34.2983 58.2489 34.0996 58.2489C33.8511 58.2489 30.7202 56.6851 27.0925 54.7994C23.4647 52.9137 20.2841 51.35 19.986 51.35C18.992 51.35 19.3896 54.9834 20.632 57.237C21.9241 59.5827 23.2162 60.8705 25.8998 62.3422C27.9373 63.492 33.0063 63.676 35.8389 62.7102C38.1746 61.9283 45.132 58.2489 46.6726 56.9611C47.3683 56.4092 48.2132 55.9492 48.6107 55.9492C49.0083 55.9492 49.1574 55.7653 49.0083 55.4893C48.8592 55.2134 49.058 55.1674 49.4556 55.3053C50.1016 55.5353 50.2507 55.1674 50.2507 53.0057C50.2507 50.1082 50.0022 49.9702 47.2689 51.442Z" fill="#77AA9C"/>
</svg>
