<svg width="43" height="44" viewBox="0 0 43 44" fill="none" xmlns="http://www.w3.org/2000/svg">
<path d="M18.8125 26.95C19.0813 26.6749 19.0813 26.2625 18.8797 25.9874C18.6109 25.7124 18.2078 25.7124 17.9391 25.9187C17.7375 26.1249 17.4688 26.0562 17.3344 25.85C17.1328 25.6437 17.2 25.2312 17.4016 25.0249C17.6703 24.7499 17.6703 24.3374 17.4688 24.0624C17.2 23.7875 16.7969 23.7875 16.5281 23.9937C15.7891 24.6812 15.7219 25.85 16.3266 26.6749C16.864 27.5 18.0062 27.6375 18.8125 26.95Z" fill="black"/>
<path d="M19.4172 16.7749C19.2828 16.5687 19.0141 16.4999 18.8125 16.7062C18.5437 16.9125 18.1406 16.9125 17.8047 16.7062C17.6031 16.4312 17.6031 16.0187 17.8719 15.7437C18.6109 14.9874 19.7531 15.1249 20.425 15.95C21.0297 16.7749 20.9625 17.9437 20.2234 18.6312C19.9547 18.8374 19.5515 18.8374 19.2828 18.5624C19.0812 18.2875 19.0812 17.8749 19.35 17.6C19.5515 17.3937 19.6188 16.9812 19.4172 16.7749Z" fill="black"/>
<path d="M11.6906 14.7125C12.161 14.2312 11.5563 13.4062 11.0859 13.8187C10.8172 14.0938 10.3469 14.025 10.1453 13.8187C9.94374 13.5437 9.94374 13.1312 10.2125 12.8562C11.9594 11.2063 14.3781 14.0938 12.5641 15.7438C12.2953 15.95 11.8922 15.95 11.6234 15.675C11.4219 15.4 11.4219 14.9875 11.6906 14.7125Z" fill="black"/>
<path d="M11.0188 24.0626C11.2875 23.7876 11.2875 23.3751 11.0859 23.1001C10.8172 22.8251 10.4141 22.8251 10.1453 23.0314C9.9438 23.2377 9.67502 23.1688 9.54064 22.9626C9.33909 22.7563 9.40625 22.3439 9.60786 22.1376C9.87657 21.8627 9.87657 21.4501 9.67502 21.1752C9.40625 20.9001 9.00315 20.9001 8.73438 21.1063C7.99534 21.7938 7.92817 22.9626 8.53282 23.7876C9.07031 24.6814 10.2797 24.7501 11.0188 24.0626Z" fill="black"/>
<path fill-rule="evenodd" clip-rule="evenodd" d="M4.2328 23.0999C3.35938 25.6436 4.83751 28.3936 7.45785 29.1499C7.25624 31.3499 9.00315 33.2749 11.2875 33.2749C12.4969 33.2749 13.6391 32.7249 14.3781 31.6936C14.9828 32.656 16.125 33.2749 17.3344 33.2749C19.6859 33.2749 21.3656 31.075 20.761 28.8748C23.2469 28.1873 24.6578 25.6437 24.0531 23.3062C26.136 21.5874 26.4047 18.5624 24.6578 16.5686C25.5313 14.0249 24.0531 11.2749 21.4328 10.5186C21.6344 8.3186 19.8203 6.39355 17.6031 6.39355C16.3938 6.39355 15.2516 6.87488 14.5125 7.97485C13.9078 7.01233 12.7656 6.39355 11.5563 6.39355C9.6078 6.39355 7.99534 7.97485 7.99534 9.8999C7.99534 10.0165 8.00309 10.1251 8.01592 10.2285C8.04091 10.4302 8.08529 10.6119 8.12972 10.7936C6.1141 11.4124 4.70313 13.1998 4.70313 15.3311C4.70313 15.6748 4.77035 16.0186 4.83751 16.3623C2.75472 18.0811 2.48595 21.1061 4.2328 23.0999ZM5.50939 17.5999C5.97971 18.0123 6.85314 18.4937 8.26405 18.5624C8.33127 18.9749 8.46566 19.4562 8.73438 19.9374C8.93593 20.2811 9.33909 20.4186 9.67502 20.2124C10.011 20.0061 10.1453 19.5936 9.94374 19.2499C9.13754 17.7374 9.74219 16.6373 9.80941 16.5686C10.011 16.2249 9.94374 15.8124 9.6078 15.6061C9.27186 15.3999 8.86876 15.4686 8.66721 15.8124C8.66721 15.8269 8.65236 15.8595 8.62766 15.9097L8.60834 15.9487C8.50592 16.155 8.29626 16.5771 8.19689 17.1874C6.38281 17.1187 6.04688 16.3623 6.04688 15.3311C6.04688 13.6123 7.39063 12.1686 9.13754 11.9624C9.6078 11.8936 9.87657 11.3436 9.6078 10.9312C9.40625 10.5874 9.33909 10.2437 9.33909 9.8999C9.33909 8.73108 10.2797 7.76855 11.5563 7.76855C12.7656 7.76855 13.7734 8.73108 13.7734 9.8999V24.0624C13.7734 24.4749 14.0422 24.7499 14.4453 24.7499C14.8485 24.7499 15.1172 24.4749 15.1172 24.0624V10.2437C15.1172 8.93738 16.1922 7.8374 17.6703 7.8374C19.2157 7.8374 20.425 9.14355 20.1563 10.6561C19.8203 10.8623 19.35 11.2749 18.9469 12.2373C18.6781 12.1686 18.4094 12.0999 18.1406 12.0999C17.7375 12.0999 17.4688 12.4436 17.4688 12.7874C17.4688 13.1311 17.8047 13.4749 18.1406 13.4749C19.0813 13.4749 19.4844 14.0936 19.5516 14.2311C19.6859 14.5748 20.0891 14.7124 20.425 14.5748C20.761 14.4374 20.8953 14.0249 20.761 13.6812C20.761 13.6812 20.5594 13.2686 20.1563 12.9248C20.425 12.2373 20.6937 12.0311 20.8281 11.9624C23.0453 12.3749 24.3219 14.7124 23.3812 16.6373C23.2469 16.9124 23.3141 17.2561 23.5156 17.4624C24.9266 18.7686 24.9266 21.0374 23.4485 22.3436C22.9781 21.9312 22.1047 21.4498 20.6937 21.3811C20.6266 20.9686 20.425 20.4873 20.2235 20.0061C20.0219 19.6624 19.6188 19.5249 19.2828 19.7311C18.9469 19.9374 18.8125 20.3499 19.0141 20.6936C19.8203 22.2061 19.2157 23.3062 19.1484 23.3749C18.9469 23.7186 19.0141 24.1311 19.35 24.3374C19.6859 24.5436 20.0891 24.4749 20.2906 24.1311C20.2906 24.0624 20.6266 23.5811 20.761 22.7561C22.1719 22.8248 22.6422 23.4436 22.7766 23.5811C23.4485 25.5061 22.1047 27.7749 19.8203 27.9812C19.35 28.0498 19.0813 28.5999 19.35 29.0125C20.1563 30.3875 19.1484 32.1748 17.4688 32.1748C16.2594 32.1748 15.2516 31.2124 15.2516 30.0437V26.6061C15.2516 26.1936 14.9828 25.9186 14.5797 25.9186C14.1766 25.9186 13.9078 26.1936 13.9078 26.6061V29.7C13.9078 31.0061 12.8328 32.1062 11.3547 32.1062C9.80941 32.1062 8.59999 30.7998 8.86876 29.2874C9.2047 29.0811 9.67502 28.6687 10.0781 27.7061C10.127 27.7161 10.173 27.7261 10.2169 27.7358L10.3221 27.7598C10.412 27.7805 10.4936 27.7993 10.5736 27.8137C10.6232 27.8228 10.6723 27.8301 10.7223 27.8352C10.7746 27.8406 10.828 27.8435 10.8844 27.8435C11.2875 27.8435 11.5563 27.4998 11.5563 27.156C11.5563 26.8124 11.2203 26.4686 10.8844 26.4686C9.87657 26.4686 9.54064 25.8499 9.47347 25.7124C9.33909 25.3687 8.93593 25.2311 8.59999 25.3687C8.26405 25.5061 8.12972 25.9186 8.26405 26.2623C8.26405 26.2623 8.46566 26.6748 8.86876 27.0186C8.59999 27.7061 8.33127 27.9124 8.19689 27.9812C5.97971 27.5686 4.70313 25.2311 5.64377 23.3062C5.77816 23.0311 5.71094 22.6874 5.50939 22.4811C4.03125 21.1061 4.09847 18.9061 5.50939 17.5999Z" fill="black"/>
<path d="M11.5563 39.3936H17.4016C17.7375 39.3936 18.0735 39.6687 18.0735 40.0811C18.0735 40.4937 17.8047 40.7686 17.4016 40.7686H11.5563C11.1532 40.7686 10.8844 40.4937 10.8844 40.0811C10.8844 39.6687 11.1532 39.3936 11.5563 39.3936Z" fill="black"/>
<path fill-rule="evenodd" clip-rule="evenodd" d="M36.3484 21.3125C36.6844 19.7312 38.0281 18.5625 39.6406 18.5625C41.5219 18.5625 43 20.075 43 22C43 23.925 41.5219 25.4375 39.6406 25.4375C38.0281 25.4375 36.6844 24.2688 36.3484 22.6875H28.9578V29.1499H35.1391C36.6172 29.1499 37.8266 30.3875 37.8266 31.8999V33.6875C38.9688 34.0312 39.8422 35.0625 39.8422 36.3687C39.8422 37.8813 38.6328 39.1187 37.1547 39.1187C35.6765 39.1187 34.4672 37.8813 34.4672 36.3687C34.4672 35.0625 35.3406 33.9624 36.4828 33.6875V31.8999C36.4828 31.1438 35.8781 30.5249 35.1391 30.5249H28.9578V39.875C28.9578 42.1438 27.1438 44 24.9265 44H4.03125C1.81407 44 0 42.1438 0 39.875V4.125C0 1.8562 1.81407 0 4.03125 0H24.9265C27.1438 0 28.9578 1.8562 28.9578 4.125V12.1H33.1234C33.8625 12.1 34.4672 11.4812 34.4672 10.725V9.625C33.325 9.28125 32.4516 8.25 32.4516 6.94373C32.4516 5.43127 33.6609 4.19373 35.1391 4.19373C36.6172 4.19373 37.8266 5.43127 37.8266 6.94373C37.8266 8.25 36.9531 9.34998 35.8109 9.625V10.725C35.8109 12.2375 34.6016 13.475 33.1234 13.475H28.9578V21.3125H36.3484ZM1.34375 15H1.34864V20H1.34375V36.6438H27.614V4.125C27.614 2.61255 26.4047 1.375 24.9265 1.375H4.03125C2.55311 1.375 1.34375 2.61255 1.34375 4.125V15ZM35.1391 5.56873C34.4 5.56873 33.7953 6.1875 33.7953 6.94373C33.7953 7.69995 34.4 8.31873 35.1391 8.31873C35.8781 8.31873 36.4828 7.69995 36.4828 6.94373C36.4828 6.1875 35.8781 5.56873 35.1391 5.56873ZM37.1547 37.7437C37.8938 37.7437 38.4984 37.125 38.4984 36.3687C38.4984 35.6125 37.8938 34.9937 37.1547 34.9937C36.4156 34.9937 35.8109 35.6125 35.8109 36.3687C35.8109 37.125 36.4156 37.7437 37.1547 37.7437ZM4.03125 42.625H24.9265C26.4047 42.625 27.614 41.3875 27.614 39.875V38.0188H1.34375V39.875C1.34375 41.3875 2.55311 42.625 4.03125 42.625ZM37.625 22C37.625 23.1687 38.4984 24.0625 39.6406 24.0625C40.7828 24.0625 41.6563 23.1687 41.6563 22C41.6563 20.8313 40.7828 19.9375 39.6406 19.9375C38.4984 19.9375 37.625 20.8313 37.625 22Z" fill="black"/>
</svg>
