<svg width="54" height="44" viewBox="0 0 54 44" fill="none" xmlns="http://www.w3.org/2000/svg">
<path d="M29.25 26.95C29.525 26.6749 29.525 26.2625 29.3187 25.9874C29.0438 25.7124 28.6312 25.7124 28.3563 25.9187C28.15 26.1249 27.875 26.0562 27.7375 25.85C27.5312 25.6437 27.6 25.2312 27.8063 25.0249C28.0812 24.7499 28.0812 24.3374 27.875 24.0624C27.6 23.7875 27.1875 23.7875 26.9125 23.9937C26.1562 24.6812 26.0875 25.85 26.7062 26.6749C27.2562 27.5 28.425 27.6375 29.25 26.95Z" fill="black"/>
<path d="M29.8687 16.7749C29.7313 16.5687 29.4562 16.4999 29.25 16.7062C28.975 16.9125 28.5625 16.9125 28.2188 16.7062C28.0125 16.4312 28.0125 16.0187 28.2875 15.7437C29.0438 14.9874 30.2125 15.1249 30.9 15.95C31.5187 16.7749 31.45 17.9437 30.6937 18.6312C30.4188 18.8374 30.0062 18.8374 29.7313 18.5624C29.525 18.2875 29.525 17.8749 29.8 17.6C30.0062 17.3937 30.075 16.9812 29.8687 16.7749Z" fill="black"/>
<path d="M21.9625 14.7125C22.4438 14.2312 21.825 13.4062 21.3438 13.8187C21.0688 14.0938 20.5875 14.025 20.3813 13.8187C20.175 13.5437 20.175 13.1312 20.45 12.8562C22.2375 11.2063 24.7125 14.0938 22.8563 15.7438C22.5812 15.95 22.1688 15.95 21.8937 15.675C21.6875 15.4 21.6875 14.9875 21.9625 14.7125Z" fill="black"/>
<path d="M21.275 24.0626C21.55 23.7876 21.55 23.3751 21.3438 23.1001C21.0688 22.8251 20.6562 22.8251 20.3813 23.0314C20.175 23.2377 19.9 23.1688 19.7625 22.9626C19.5563 22.7563 19.625 22.3439 19.8313 22.1376C20.1063 21.8627 20.1063 21.4501 19.9 21.1752C19.625 20.9001 19.2125 20.9001 18.9375 21.1063C18.1813 21.7938 18.1125 22.9626 18.7313 23.7876C19.2812 24.6814 20.5188 24.7501 21.275 24.0626Z" fill="black"/>
<path fill-rule="evenodd" clip-rule="evenodd" d="M14.3312 23.0999C13.4375 25.6436 14.95 28.3936 17.6313 29.1499C17.425 31.3499 19.2125 33.2749 21.55 33.2749C22.7875 33.2749 23.9562 32.7249 24.7125 31.6936C25.3312 32.656 26.5 33.2749 27.7375 33.2749C30.1437 33.2749 31.8625 31.075 31.2438 28.8748C33.7875 28.1873 35.2313 25.6437 34.6125 23.3062C36.7438 21.5874 37.0187 18.5624 35.2313 16.5686C36.125 14.0249 34.6125 11.2749 31.9313 10.5186C32.1375 8.3186 30.2812 6.39355 28.0125 6.39355C26.775 6.39355 25.6063 6.87488 24.85 7.97485C24.2313 7.01233 23.0625 6.39355 21.825 6.39355C19.8312 6.39355 18.1813 7.97485 18.1813 9.8999C18.1813 10.0165 18.1892 10.1251 18.2023 10.2285C18.2279 10.4302 18.2733 10.6119 18.3188 10.7936C16.2563 11.4124 14.8125 13.1998 14.8125 15.3311C14.8125 15.6748 14.8813 16.0186 14.95 16.3623C12.8188 18.0811 12.5438 21.1061 14.3312 23.0999ZM15.6375 17.5999C16.1188 18.0123 17.0125 18.4937 18.4562 18.5624C18.525 18.9749 18.6625 19.4562 18.9375 19.9374C19.1437 20.2811 19.5563 20.4186 19.9 20.2124C20.2438 20.0061 20.3813 19.5936 20.175 19.2499C19.35 17.7374 19.9688 16.6373 20.0375 16.5686C20.2438 16.2249 20.175 15.8124 19.8312 15.6061C19.4875 15.3999 19.075 15.4686 18.8688 15.8124C18.8688 15.8269 18.8536 15.8595 18.8283 15.9097L18.8085 15.9487C18.7037 16.155 18.4892 16.5771 18.3875 17.1874C16.5312 17.1187 16.1875 16.3623 16.1875 15.3311C16.1875 13.6123 17.5625 12.1686 19.35 11.9624C19.8312 11.8936 20.1063 11.3436 19.8312 10.9312C19.625 10.5874 19.5563 10.2437 19.5563 9.8999C19.5563 8.73108 20.5187 7.76855 21.825 7.76855C23.0625 7.76855 24.0938 8.73108 24.0938 9.8999V24.0624C24.0938 24.4749 24.3688 24.7499 24.7812 24.7499C25.1938 24.7499 25.4688 24.4749 25.4688 24.0624V10.2437C25.4688 8.93738 26.5688 7.8374 28.0812 7.8374C29.6625 7.8374 30.9 9.14355 30.625 10.6561C30.2812 10.8623 29.8 11.2749 29.3875 12.2373C29.1125 12.1686 28.8375 12.0999 28.5625 12.0999C28.15 12.0999 27.875 12.4436 27.875 12.7874C27.875 13.1311 28.2188 13.4749 28.5625 13.4749C29.525 13.4749 29.9375 14.0936 30.0063 14.2311C30.1437 14.5748 30.5563 14.7124 30.9 14.5748C31.2438 14.4374 31.3813 14.0249 31.2438 13.6812C31.2438 13.6812 31.0375 13.2686 30.625 12.9248C30.9 12.2373 31.175 12.0311 31.3125 11.9624C33.5812 12.3749 34.8875 14.7124 33.925 16.6373C33.7875 16.9124 33.8563 17.2561 34.0625 17.4624C35.5063 18.7686 35.5063 21.0374 33.9938 22.3436C33.5125 21.9312 32.6188 21.4498 31.175 21.3811C31.1063 20.9686 30.9 20.4873 30.6938 20.0061C30.4875 19.6624 30.075 19.5249 29.7313 19.7311C29.3875 19.9374 29.25 20.3499 29.4562 20.6936C30.2812 22.2061 29.6625 23.3062 29.5938 23.3749C29.3875 23.7186 29.4562 24.1311 29.8 24.3374C30.1437 24.5436 30.5563 24.4749 30.7625 24.1311C30.7625 24.0624 31.1063 23.5811 31.2438 22.7561C32.6875 22.8248 33.1688 23.4436 33.3063 23.5811C33.9938 25.5061 32.6188 27.7749 30.2812 27.9812C29.8 28.0498 29.525 28.5999 29.8 29.0125C30.625 30.3875 29.5938 32.1748 27.875 32.1748C26.6375 32.1748 25.6063 31.2124 25.6063 30.0437V26.6061C25.6063 26.1936 25.3312 25.9186 24.9188 25.9186C24.5063 25.9186 24.2313 26.1936 24.2313 26.6061V29.7C24.2313 31.0061 23.1313 32.1062 21.6188 32.1062C20.0375 32.1062 18.8 30.7998 19.075 29.2874C19.4188 29.0811 19.9 28.6687 20.3125 27.7061C20.3625 27.7161 20.4096 27.7261 20.4545 27.7358L20.5621 27.7598C20.6542 27.7805 20.7377 27.7993 20.8195 27.8137C20.8703 27.8228 20.9205 27.8301 20.9717 27.8352C21.0252 27.8406 21.0798 27.8435 21.1375 27.8435C21.55 27.8435 21.825 27.4998 21.825 27.156C21.825 26.8124 21.4813 26.4686 21.1375 26.4686C20.1063 26.4686 19.7625 25.8499 19.6938 25.7124C19.5563 25.3687 19.1437 25.2311 18.8 25.3687C18.4562 25.5061 18.3188 25.9186 18.4562 26.2623C18.4562 26.2623 18.6625 26.6748 19.075 27.0186C18.8 27.7061 18.525 27.9124 18.3875 27.9812C16.1188 27.5686 14.8125 25.2311 15.775 23.3062C15.9125 23.0311 15.8438 22.6874 15.6375 22.4811C14.125 21.1061 14.1938 18.9061 15.6375 17.5999Z" fill="black"/>
<path d="M21.825 39.3936H27.8063C28.15 39.3936 28.4938 39.6687 28.4938 40.0811C28.4938 40.4937 28.2188 40.7686 27.8063 40.7686H21.825C21.4125 40.7686 21.1375 40.4937 21.1375 40.0811C21.1375 39.6687 21.4125 39.3936 21.825 39.3936Z" fill="black"/>
<path fill-rule="evenodd" clip-rule="evenodd" d="M47.1937 21.3125C47.5375 19.7312 48.9125 18.5625 50.5625 18.5625C52.4875 18.5625 54 20.075 54 22C54 23.925 52.4875 25.4375 50.5625 25.4375C48.9125 25.4375 47.5375 24.2688 47.1937 22.6875H39.6312V29.1499H45.9562C47.4688 29.1499 48.7062 30.3875 48.7062 31.8999V33.6875C49.875 34.0312 50.7687 35.0625 50.7687 36.3687C50.7687 37.8813 49.5312 39.1187 48.0187 39.1187C46.5062 39.1187 45.2687 37.8813 45.2687 36.3687C45.2687 35.0625 46.1625 33.9624 47.3312 33.6875V31.8999C47.3312 31.1438 46.7125 30.5249 45.9562 30.5249H39.6312V39.875C39.6312 42.1438 37.775 44 35.5062 44H14.125C11.8563 44 10 42.1438 10 39.875V4.125C10 1.8562 11.8563 0 14.125 0H35.5062C37.775 0 39.6312 1.8562 39.6312 4.125V12.1H43.8937C44.65 12.1 45.2687 11.4812 45.2687 10.725V9.625C44.1 9.28125 43.2062 8.25 43.2062 6.94373C43.2062 5.43127 44.4437 4.19373 45.9562 4.19373C47.4688 4.19373 48.7062 5.43127 48.7062 6.94373C48.7062 8.25 47.8125 9.34998 46.6437 9.625V10.725C46.6437 12.2375 45.4062 13.475 43.8937 13.475H39.6312V21.3125H47.1937ZM11.375 15H11.38V20H11.375V36.6438H38.2562V4.125C38.2562 2.61255 37.0187 1.375 35.5062 1.375H14.125C12.6125 1.375 11.375 2.61255 11.375 4.125V15ZM45.9562 5.56873C45.2 5.56873 44.5812 6.1875 44.5812 6.94373C44.5812 7.69995 45.2 8.31873 45.9562 8.31873C46.7125 8.31873 47.3312 7.69995 47.3312 6.94373C47.3312 6.1875 46.7125 5.56873 45.9562 5.56873ZM48.0187 37.7437C48.775 37.7437 49.3937 37.125 49.3937 36.3687C49.3937 35.6125 48.775 34.9937 48.0187 34.9937C47.2625 34.9937 46.6437 35.6125 46.6437 36.3687C46.6437 37.125 47.2625 37.7437 48.0187 37.7437ZM14.125 42.625H35.5062C37.0187 42.625 38.2562 41.3875 38.2562 39.875V38.0188H11.375V39.875C11.375 41.3875 12.6125 42.625 14.125 42.625ZM48.5 22C48.5 23.1687 49.3937 24.0625 50.5625 24.0625C51.7313 24.0625 52.625 23.1687 52.625 22C52.625 20.8313 51.7313 19.9375 50.5625 19.9375C49.3937 19.9375 48.5 20.8313 48.5 22Z" fill="black"/>
</svg>
