<svg width="44" height="44" viewBox="0 0 44 44" fill="none" xmlns="http://www.w3.org/2000/svg">
<path d="M19.25 26.95C19.525 26.6749 19.525 26.2625 19.3187 25.9874C19.0438 25.7124 18.6312 25.7124 18.3563 25.9187C18.15 26.1249 17.875 26.0562 17.7375 25.85C17.5312 25.6437 17.6 25.2312 17.8063 25.0249C18.0812 24.7499 18.0812 24.3374 17.875 24.0624C17.6 23.7875 17.1875 23.7875 16.9125 23.9937C16.1562 24.6812 16.0875 25.85 16.7062 26.6749C17.2562 27.5 18.425 27.6375 19.25 26.95Z" fill="black"/>
<path d="M19.8687 16.7749C19.7313 16.5687 19.4562 16.4999 19.25 16.7062C18.975 16.9125 18.5625 16.9125 18.2188 16.7062C18.0125 16.4312 18.0125 16.0187 18.2875 15.7437C19.0438 14.9874 20.2125 15.1249 20.9 15.95C21.5187 16.7749 21.45 17.9437 20.6937 18.6312C20.4188 18.8374 20.0062 18.8374 19.7313 18.5624C19.525 18.2875 19.525 17.8749 19.8 17.6C20.0062 17.3937 20.075 16.9812 19.8687 16.7749Z" fill="black"/>
<path d="M11.9625 14.7125C12.4438 14.2312 11.825 13.4062 11.3438 13.8187C11.0688 14.0938 10.5875 14.025 10.3813 13.8187C10.175 13.5437 10.175 13.1312 10.45 12.8562C12.2375 11.2063 14.7125 14.0938 12.8563 15.7438C12.5812 15.95 12.1688 15.95 11.8937 15.675C11.6875 15.4 11.6875 14.9875 11.9625 14.7125Z" fill="black"/>
<path d="M11.275 24.0626C11.55 23.7876 11.55 23.3751 11.3438 23.1001C11.0688 22.8251 10.6562 22.8251 10.3813 23.0314C10.175 23.2377 9.90002 23.1688 9.76251 22.9626C9.55627 22.7563 9.625 22.3439 9.8313 22.1376C10.1063 21.8627 10.1063 21.4501 9.90002 21.1752C9.625 20.9001 9.21252 20.9001 8.9375 21.1063C8.18127 21.7938 8.11255 22.9626 8.73126 23.7876C9.28125 24.6814 10.5188 24.7501 11.275 24.0626Z" fill="black"/>
<path fill-rule="evenodd" clip-rule="evenodd" d="M4.33124 23.0999C3.4375 25.6436 4.95001 28.3936 7.63129 29.1499C7.42499 31.3499 9.21252 33.2749 11.55 33.2749C12.7875 33.2749 13.9562 32.7249 14.7125 31.6936C15.3312 32.656 16.5 33.2749 17.7375 33.2749C20.1437 33.2749 21.8625 31.075 21.2438 28.8748C23.7875 28.1873 25.2313 25.6437 24.6125 23.3062C26.7438 21.5874 27.0187 18.5624 25.2313 16.5686C26.125 14.0249 24.6125 11.2749 21.9313 10.5186C22.1375 8.3186 20.2812 6.39355 18.0125 6.39355C16.775 6.39355 15.6063 6.87488 14.85 7.97485C14.2313 7.01233 13.0625 6.39355 11.825 6.39355C9.83124 6.39355 8.18127 7.97485 8.18127 9.8999C8.18127 10.0165 8.18921 10.1251 8.20233 10.2285C8.22791 10.4302 8.27332 10.6119 8.31879 10.7936C6.25629 11.4124 4.8125 13.1998 4.8125 15.3311C4.8125 15.6748 4.88129 16.0186 4.95001 16.3623C2.81879 18.0811 2.54376 21.1061 4.33124 23.0999ZM5.63751 17.5999C6.11877 18.0123 7.01251 18.4937 8.45624 18.5624C8.52502 18.9749 8.66254 19.4562 8.9375 19.9374C9.14374 20.2811 9.55627 20.4186 9.90002 20.2124C10.2438 20.0061 10.3813 19.5936 10.175 19.2499C9.35004 17.7374 9.96875 16.6373 10.0375 16.5686C10.2438 16.2249 10.175 15.8124 9.83124 15.6061C9.48749 15.3999 9.07501 15.4686 8.86877 15.8124C8.86877 15.8269 8.85358 15.8595 8.82831 15.9097L8.80853 15.9487C8.70374 16.155 8.4892 16.5771 8.38751 17.1874C6.53125 17.1187 6.1875 16.3623 6.1875 15.3311C6.1875 13.6123 7.5625 12.1686 9.35004 11.9624C9.83124 11.8936 10.1063 11.3436 9.83124 10.9312C9.625 10.5874 9.55627 10.2437 9.55627 9.8999C9.55627 8.73108 10.5187 7.76855 11.825 7.76855C13.0625 7.76855 14.0938 8.73108 14.0938 9.8999V24.0624C14.0938 24.4749 14.3688 24.7499 14.7812 24.7499C15.1938 24.7499 15.4688 24.4749 15.4688 24.0624V10.2437C15.4688 8.93738 16.5688 7.8374 18.0812 7.8374C19.6625 7.8374 20.9 9.14355 20.625 10.6561C20.2812 10.8623 19.8 11.2749 19.3875 12.2373C19.1125 12.1686 18.8375 12.0999 18.5625 12.0999C18.15 12.0999 17.875 12.4436 17.875 12.7874C17.875 13.1311 18.2188 13.4749 18.5625 13.4749C19.525 13.4749 19.9375 14.0936 20.0063 14.2311C20.1437 14.5748 20.5563 14.7124 20.9 14.5748C21.2438 14.4374 21.3813 14.0249 21.2438 13.6812C21.2438 13.6812 21.0375 13.2686 20.625 12.9248C20.9 12.2373 21.175 12.0311 21.3125 11.9624C23.5812 12.3749 24.8875 14.7124 23.925 16.6373C23.7875 16.9124 23.8563 17.2561 24.0625 17.4624C25.5063 18.7686 25.5063 21.0374 23.9938 22.3436C23.5125 21.9312 22.6188 21.4498 21.175 21.3811C21.1063 20.9686 20.9 20.4873 20.6938 20.0061C20.4875 19.6624 20.075 19.5249 19.7313 19.7311C19.3875 19.9374 19.25 20.3499 19.4562 20.6936C20.2812 22.2061 19.6625 23.3062 19.5938 23.3749C19.3875 23.7186 19.4562 24.1311 19.8 24.3374C20.1437 24.5436 20.5563 24.4749 20.7625 24.1311C20.7625 24.0624 21.1063 23.5811 21.2438 22.7561C22.6875 22.8248 23.1688 23.4436 23.3063 23.5811C23.9938 25.5061 22.6188 27.7749 20.2812 27.9812C19.8 28.0498 19.525 28.5999 19.8 29.0125C20.625 30.3875 19.5938 32.1748 17.875 32.1748C16.6375 32.1748 15.6063 31.2124 15.6063 30.0437V26.6061C15.6063 26.1936 15.3312 25.9186 14.9188 25.9186C14.5063 25.9186 14.2313 26.1936 14.2313 26.6061V29.7C14.2313 31.0061 13.1313 32.1062 11.6188 32.1062C10.0375 32.1062 8.79999 30.7998 9.07501 29.2874C9.41876 29.0811 9.90002 28.6687 10.3125 27.7061C10.3625 27.7161 10.4096 27.7261 10.4545 27.7358L10.5621 27.7598C10.6542 27.7805 10.7377 27.7993 10.8195 27.8137C10.8703 27.8228 10.9205 27.8301 10.9717 27.8352C11.0252 27.8406 11.0798 27.8435 11.1375 27.8435C11.55 27.8435 11.825 27.4998 11.825 27.156C11.825 26.8124 11.4813 26.4686 11.1375 26.4686C10.1063 26.4686 9.76251 25.8499 9.69379 25.7124C9.55627 25.3687 9.14374 25.2311 8.79999 25.3687C8.45624 25.5061 8.31879 25.9186 8.45624 26.2623C8.45624 26.2623 8.66254 26.6748 9.07501 27.0186C8.79999 27.7061 8.52502 27.9124 8.38751 27.9812C6.11877 27.5686 4.8125 25.2311 5.77502 23.3062C5.91254 23.0311 5.84375 22.6874 5.63751 22.4811C4.125 21.1061 4.19379 18.9061 5.63751 17.5999Z" fill="black"/>
<path d="M11.825 39.3936H17.8063C18.15 39.3936 18.4938 39.6687 18.4938 40.0811C18.4938 40.4937 18.2188 40.7686 17.8063 40.7686H11.825C11.4125 40.7686 11.1375 40.4937 11.1375 40.0811C11.1375 39.6687 11.4125 39.3936 11.825 39.3936Z" fill="black"/>
<path fill-rule="evenodd" clip-rule="evenodd" d="M37.1937 21.3125C37.5375 19.7312 38.9125 18.5625 40.5625 18.5625C42.4875 18.5625 44 20.075 44 22C44 23.925 42.4875 25.4375 40.5625 25.4375C38.9125 25.4375 37.5375 24.2688 37.1937 22.6875H29.6312V29.1499H35.9562C37.4688 29.1499 38.7062 30.3875 38.7062 31.8999V33.6875C39.875 34.0312 40.7687 35.0625 40.7687 36.3687C40.7687 37.8813 39.5312 39.1187 38.0187 39.1187C36.5062 39.1187 35.2687 37.8813 35.2687 36.3687C35.2687 35.0625 36.1625 33.9624 37.3312 33.6875V31.8999C37.3312 31.1438 36.7125 30.5249 35.9562 30.5249H29.6312V39.875C29.6312 42.1438 27.775 44 25.5062 44H4.125C1.85626 44 0 42.1438 0 39.875V4.125C0 1.8562 1.85626 0 4.125 0H25.5062C27.775 0 29.6312 1.8562 29.6312 4.125V12.1H33.8937C34.65 12.1 35.2687 11.4812 35.2687 10.725V9.625C34.1 9.28125 33.2062 8.25 33.2062 6.94373C33.2062 5.43127 34.4437 4.19373 35.9562 4.19373C37.4688 4.19373 38.7062 5.43127 38.7062 6.94373C38.7062 8.25 37.8125 9.34998 36.6437 9.625V10.725C36.6437 12.2375 35.4062 13.475 33.8937 13.475H29.6312V21.3125H37.1937ZM1.375 15H1.38V20H1.375V36.6438H28.2562V4.125C28.2562 2.61255 27.0187 1.375 25.5062 1.375H4.125C2.61249 1.375 1.375 2.61255 1.375 4.125V15ZM35.9562 5.56873C35.2 5.56873 34.5812 6.1875 34.5812 6.94373C34.5812 7.69995 35.2 8.31873 35.9562 8.31873C36.7125 8.31873 37.3312 7.69995 37.3312 6.94373C37.3312 6.1875 36.7125 5.56873 35.9562 5.56873ZM38.0187 37.7437C38.775 37.7437 39.3937 37.125 39.3937 36.3687C39.3937 35.6125 38.775 34.9937 38.0187 34.9937C37.2625 34.9937 36.6437 35.6125 36.6437 36.3687C36.6437 37.125 37.2625 37.7437 38.0187 37.7437ZM4.125 42.625H25.5062C27.0187 42.625 28.2562 41.3875 28.2562 39.875V38.0188H1.375V39.875C1.375 41.3875 2.61249 42.625 4.125 42.625ZM38.5 22C38.5 23.1687 39.3937 24.0625 40.5625 24.0625C41.7313 24.0625 42.625 23.1687 42.625 22C42.625 20.8313 41.7313 19.9375 40.5625 19.9375C39.3937 19.9375 38.5 20.8313 38.5 22Z" fill="black"/>
</svg>
