<svg width="54" height="44" viewBox="0 0 54 44" fill="none" xmlns="http://www.w3.org/2000/svg">
<path d="M29.2505 26.9509C29.5255 26.6758 29.5255 26.2634 29.3192 25.9883C29.0443 25.7133 28.6317 25.7133 28.3568 25.9196C28.1505 26.1258 27.8755 26.0571 27.738 25.8509C27.5317 25.6446 27.6005 25.2321 27.8068 25.0258C28.0817 24.7508 28.0817 24.3383 27.8755 24.0633C27.6005 23.7884 27.188 23.7884 26.913 23.9946C26.1567 24.6821 26.088 25.8509 26.7067 26.6758C27.2567 27.5009 28.4255 27.6384 29.2505 26.9509Z" fill="#266DF1"/>
<path d="M29.8692 16.7741C29.7318 16.5679 29.4567 16.4991 29.2505 16.7054C28.9755 16.9117 28.563 16.9117 28.2193 16.7054C28.013 16.4304 28.013 16.0179 28.288 15.7429C29.0443 14.9866 30.213 15.1241 30.9005 15.9492C31.5192 16.7741 31.4505 17.9429 30.6942 18.6304C30.4193 18.8366 30.0067 18.8366 29.7318 18.5616C29.5255 18.2867 29.5255 17.8741 29.8005 17.5992C30.0067 17.3929 30.0755 16.9804 29.8692 16.7741Z" fill="#266DF1"/>
<path d="M21.9626 14.7122C22.4439 14.2309 21.8251 13.4059 21.3439 13.8184C21.0689 14.0935 20.5876 14.0247 20.3814 13.8184C20.1751 13.5434 20.1751 13.1309 20.4501 12.8559C22.2376 11.206 24.7126 14.0935 22.8564 15.7435C22.5813 15.9497 22.1689 15.9497 21.8938 15.6747C21.6876 15.3997 21.6876 14.9872 21.9626 14.7122Z" fill="#266DF1"/>
<path d="M21.2758 24.0642C21.5508 23.7892 21.5508 23.3767 21.3446 23.1017C21.0696 22.8267 20.657 22.8267 20.3821 23.033C20.1758 23.2393 19.9008 23.1704 19.7633 22.9642C19.5571 22.7579 19.6258 22.3455 19.8321 22.1392C20.1071 21.8643 20.1071 21.4517 19.9008 21.1768C19.6258 20.9017 19.2133 20.9017 18.9383 21.1079C18.1821 21.7954 18.1133 22.9642 18.7321 23.7892C19.282 24.683 20.5196 24.7517 21.2758 24.0642Z" fill="#266DF1"/>
<path fill-rule="evenodd" clip-rule="evenodd" d="M14.3315 23.1009C13.4378 25.6446 14.9503 28.3946 17.6316 29.1509C17.4253 31.3509 19.2128 33.2759 21.5503 33.2759C22.7878 33.2759 23.9565 32.7259 24.7128 31.6946C25.3315 32.657 26.5003 33.2759 27.7378 33.2759C30.144 33.2759 31.8628 31.076 31.2441 28.8758C33.7878 28.1883 35.2316 25.6447 34.6128 23.3072C36.7441 21.5884 37.019 18.5634 35.2316 16.5696C36.1253 14.0259 34.6128 11.2759 31.9316 10.5196C32.1378 8.31958 30.2815 6.39453 28.0128 6.39453C26.7753 6.39453 25.6066 6.87586 24.8503 7.97583C24.2316 7.01331 23.0628 6.39453 21.8253 6.39453C19.8315 6.39453 18.1816 7.97583 18.1816 9.90088C18.1816 10.0175 18.1895 10.1261 18.2026 10.2295C18.2282 10.4312 18.2736 10.6129 18.3191 10.7946C16.2566 11.4134 14.8128 13.2008 14.8128 15.3321C14.8128 15.6758 14.8816 16.0196 14.9503 16.3633C12.8191 18.0821 12.5441 21.1071 14.3315 23.1009ZM15.6378 17.6009C16.1191 18.0133 17.0128 18.4947 18.4565 18.5634C18.5253 18.9759 18.6628 19.4572 18.9378 19.9384C19.144 20.2821 19.5566 20.4196 19.9003 20.2134C20.2441 20.0071 20.3816 19.5946 20.1753 19.2509C19.3503 17.7384 19.9691 16.6383 20.0378 16.5696C20.2441 16.2259 20.1753 15.8134 19.8315 15.6071C19.4878 15.4009 19.0753 15.4696 18.8691 15.8134C18.8691 15.8279 18.8539 15.8605 18.8286 15.9107L18.8088 15.9497C18.704 16.156 18.4895 16.5781 18.3878 17.1884C16.5315 17.1197 16.1878 16.3633 16.1878 15.3321C16.1878 13.6133 17.5628 12.1696 19.3503 11.9634C19.8315 11.8946 20.1066 11.3446 19.8315 10.9322C19.6253 10.5884 19.5566 10.2447 19.5566 9.90088C19.5566 8.73206 20.519 7.76953 21.8253 7.76953C23.0628 7.76953 24.0941 8.73206 24.0941 9.90088V24.0634C24.0941 24.4759 24.3691 24.7509 24.7815 24.7509C25.1941 24.7509 25.4691 24.4759 25.4691 24.0634V10.2447C25.4691 8.93836 26.5691 7.83838 28.0815 7.83838C29.6628 7.83838 30.9003 9.14453 30.6253 10.6571C30.2815 10.8633 29.8003 11.2759 29.3878 12.2383C29.1128 12.1696 28.8378 12.1009 28.5628 12.1009C28.1503 12.1009 27.8753 12.4446 27.8753 12.7884C27.8753 13.1321 28.2191 13.4759 28.5628 13.4759C29.5253 13.4759 29.9378 14.0946 30.0066 14.2321C30.144 14.5758 30.5566 14.7134 30.9003 14.5758C31.2441 14.4384 31.3816 14.0259 31.2441 13.6822C31.2441 13.6822 31.0378 13.2696 30.6253 12.9258C30.9003 12.2383 31.1753 12.0321 31.3128 11.9634C33.5815 12.3759 34.8878 14.7134 33.9253 16.6383C33.7878 16.9134 33.8566 17.2571 34.0628 17.4634C35.5066 18.7696 35.5066 21.0384 33.9941 22.3446C33.5128 21.9322 32.6191 21.4508 31.1753 21.3821C31.1066 20.9696 30.9003 20.4883 30.6941 20.0071C30.4878 19.6634 30.0753 19.5259 29.7316 19.7321C29.3878 19.9384 29.2503 20.3509 29.4565 20.6946C30.2815 22.2071 29.6628 23.3072 29.5941 23.3759C29.3878 23.7196 29.4565 24.1321 29.8003 24.3384C30.144 24.5446 30.5566 24.4759 30.7628 24.1321C30.7628 24.0634 31.1066 23.5821 31.2441 22.7571C32.6878 22.8258 33.1691 23.4446 33.3066 23.5821C33.9941 25.5071 32.6191 27.7759 30.2815 27.9822C29.8003 28.0508 29.5253 28.6009 29.8003 29.0135C30.6253 30.3885 29.5941 32.1758 27.8753 32.1758C26.6378 32.1758 25.6066 31.2134 25.6066 30.0447V26.6071C25.6066 26.1946 25.3315 25.9196 24.9191 25.9196C24.5066 25.9196 24.2316 26.1946 24.2316 26.6071V29.701C24.2316 31.0071 23.1316 32.1072 21.6191 32.1072C20.0378 32.1072 18.8003 30.8008 19.0753 29.2884C19.4191 29.0821 19.9003 28.6697 20.3128 27.7071C20.3628 27.7171 20.4099 27.7271 20.4548 27.7368L20.5624 27.7608C20.6545 27.7815 20.738 27.8003 20.8198 27.8147C20.8706 27.8238 20.9208 27.8311 20.972 27.8362C21.0255 27.8416 21.0801 27.8445 21.1378 27.8445C21.5503 27.8445 21.8253 27.5008 21.8253 27.157C21.8253 26.8134 21.4816 26.4696 21.1378 26.4696C20.1066 26.4696 19.7628 25.8509 19.6941 25.7134C19.5566 25.3697 19.144 25.2321 18.8003 25.3697C18.4565 25.5071 18.3191 25.9196 18.4565 26.2633C18.4565 26.2633 18.6628 26.6758 19.0753 27.0196C18.8003 27.7071 18.5253 27.9134 18.3878 27.9822C16.1191 27.5696 14.8128 25.2321 15.7753 23.3072C15.9128 23.0321 15.8441 22.6884 15.6378 22.4821C14.1253 21.1071 14.1941 18.9071 15.6378 17.6009Z" fill="#266DF1"/>
<path d="M21.8242 39.3945H27.8055C28.1492 39.3945 28.493 39.6696 28.493 40.082C28.493 40.4946 28.218 40.7695 27.8055 40.7695H21.8242C21.4117 40.7695 21.1367 40.4946 21.1367 40.082C21.1367 39.6696 21.4117 39.3945 21.8242 39.3945Z" fill="#266DF1"/>
<path fill-rule="evenodd" clip-rule="evenodd" d="M47.1937 21.3125C47.5375 19.7312 48.9125 18.5625 50.5625 18.5625C52.4875 18.5625 54 20.075 54 22C54 23.925 52.4875 25.4375 50.5625 25.4375C48.9125 25.4375 47.5375 24.2688 47.1937 22.6875H39.6312V29.1499H45.9562C47.4688 29.1499 48.7062 30.3875 48.7062 31.8999V33.6875C49.875 34.0312 50.7687 35.0625 50.7687 36.3687C50.7687 37.8813 49.5312 39.1187 48.0187 39.1187C46.5062 39.1187 45.2687 37.8813 45.2687 36.3687C45.2687 35.0625 46.1625 33.9624 47.3312 33.6875V31.8999C47.3312 31.1438 46.7125 30.5249 45.9562 30.5249H39.6312V39.875C39.6312 42.1438 37.775 44 35.5062 44H14.125C11.8563 44 10 42.1438 10 39.875V4.125C10 1.8562 11.8563 0 14.125 0H35.5062C37.775 0 39.6312 1.8562 39.6312 4.125V12.1H43.8937C44.65 12.1 45.2687 11.4812 45.2687 10.725V9.625C44.1 9.28125 43.2062 8.25 43.2062 6.94373C43.2062 5.43127 44.4437 4.19373 45.9562 4.19373C47.4688 4.19373 48.7062 5.43127 48.7062 6.94373C48.7062 8.25 47.8125 9.34998 46.6437 9.625V10.725C46.6437 12.2375 45.4062 13.475 43.8937 13.475H39.6312V21.3125H47.1937ZM11.375 15H11.38V20H11.375V36.6438H38.2562V4.125C38.2562 2.61255 37.0187 1.375 35.5062 1.375H14.125C12.6125 1.375 11.375 2.61255 11.375 4.125V15ZM45.9562 5.56873C45.2 5.56873 44.5812 6.1875 44.5812 6.94373C44.5812 7.69995 45.2 8.31873 45.9562 8.31873C46.7125 8.31873 47.3312 7.69995 47.3312 6.94373C47.3312 6.1875 46.7125 5.56873 45.9562 5.56873ZM48.0187 37.7437C48.775 37.7437 49.3937 37.125 49.3937 36.3687C49.3937 35.6125 48.775 34.9937 48.0187 34.9937C47.2625 34.9937 46.6437 35.6125 46.6437 36.3687C46.6437 37.125 47.2625 37.7437 48.0187 37.7437ZM14.125 42.625H35.5062C37.0187 42.625 38.2562 41.3875 38.2562 39.875V38.0188H11.375V39.875C11.375 41.3875 12.6125 42.625 14.125 42.625ZM48.5 22C48.5 23.1687 49.3937 24.0625 50.5625 24.0625C51.7313 24.0625 52.625 23.1687 52.625 22C52.625 20.8313 51.7313 19.9375 50.5625 19.9375C49.3937 19.9375 48.5 20.8313 48.5 22Z" fill="#266DF1"/>
</svg>
