<svg width="80" height="83" viewBox="0 0 80 83" fill="none" xmlns="http://www.w3.org/2000/svg">
<path d="M54.2289 67.7895C54.2384 67.0806 53.672 66.4982 52.9624 66.4886L17.7992 66.0168C17.0897 66.0073 16.5078 66.5744 16.4983 67.2833C16.4888 67.9922 17.0552 68.5747 17.7648 68.5842L52.928 69.056C53.6375 69.0655 54.2194 68.4985 54.2289 67.7895V67.7895Z" fill="black"/>
<path d="M43.889 61.7856C43.8985 61.0767 43.3321 60.4942 42.6226 60.4847L17.7288 60.1507C17.0193 60.1412 16.4374 60.7083 16.4279 61.4172C16.4184 62.1261 16.9848 62.7086 17.6944 62.7181L42.5881 63.0521C43.2977 63.0616 43.8795 62.4945 43.889 61.7856V61.7856Z" fill="black"/>
<path d="M23.7396 6.4375C8.33726 6.4375 0.639295 25.1793 11.4846 36.0242C18.2578 42.7973 29.2203 42.798 35.9939 36.0242C46.8441 25.1734 39.1363 6.4375 23.739 6.4375H23.7396ZM34.1793 34.2076C31.3904 36.9959 27.6833 38.5316 23.7396 38.5316C19.7961 38.5316 16.0882 36.9958 13.2999 34.2076C4.0582 24.9646 10.6219 9.00509 23.7396 9.00509C36.8616 9.00509 43.417 24.9697 34.1793 34.2076Z" fill="black"/>
<path d="M69.0073 79.9295L79.9001 69.036L70.0178 59.1537V6.43458H40.4905V6.93606C32.9301 -0.588746 23.6102 -0.00574255 23.7386 0.0199334C1.09881 0.0249482 -8.85703 29.2119 9.6789 42.8955V82.2422H62.8666V79.6747L12.2465 79.6753V44.549C19.7381 48.7114 29.045 48.5766 36.507 43.7999L40.5353 47.8275L38.7193 49.6434L69.0073 79.9295ZM49.6139 42.3817L52.3345 45.1022L45.0717 52.365L42.3505 49.6438L49.6139 42.3817ZM56.8728 49.6406L49.6101 56.9033L46.887 54.1802L54.1491 46.9175L56.8728 49.6406ZM69.0074 76.2986L51.4259 58.7186L58.6886 51.4565L76.2686 69.0365L69.0074 76.2986ZM67.4497 56.5859L49.6146 38.7508L47.7993 40.5661L43.7711 36.5378C49.2742 27.9436 48.6192 16.8974 42.3224 9.00201H67.4511L67.4497 56.5859ZM42.3515 46.0114L36.8114 40.4725L35.9282 41.0956C27.5001 47.047 16.0727 46.0604 8.76309 38.7499C-4.49676 25.4895 4.9186 2.59183 23.7379 2.58862C24.0683 2.65506 32.0613 2.1354 38.719 8.7932C46.0282 16.1023 47.0154 27.527 41.0653 35.9583L40.4416 36.8409L45.9817 42.381L42.3515 46.0114Z" fill="black"/>
<path d="M28.7203 19.275H31.2879C31.2879 16.3721 28.6226 14.0389 25.0244 13.5845V11.5723H22.4568V13.5845C18.8587 14.0389 16.1934 16.3727 16.1934 19.275C16.1934 22.178 18.8587 24.5112 22.4568 24.9656V31.3438C20.3594 30.9665 18.761 29.7147 18.761 28.2616H16.1934C16.1934 31.1646 18.8587 33.4977 22.4568 33.9522V35.9644H25.0244V33.9522C28.6226 33.4977 31.2879 31.164 31.2879 28.2616C31.2879 25.3586 28.6226 23.0255 25.0244 22.571V16.1928C27.1212 16.5696 28.7203 17.8213 28.7203 19.275V19.275ZM18.761 19.275C18.761 17.8214 20.3594 16.5702 22.4568 16.1928V22.3579C20.3594 21.9799 18.761 20.7288 18.761 19.275ZM28.7203 28.2616C28.7203 29.7153 27.1218 30.9664 25.0244 31.3438V25.1787C27.1212 25.5561 28.7203 26.8079 28.7203 28.2616Z" fill="black"/>
</svg>
