<svg width="146" height="145" viewBox="0 0 146 145" fill="none" xmlns="http://www.w3.org/2000/svg">
<path d="M13.1114 44.932L22.1453 49.449C22.47 49.6113 22.8148 49.6869 23.1535 49.6869C23.9813 49.6869 24.7798 49.2302 25.1751 48.4387C25.7326 47.3226 25.2799 45.9665 24.1648 45.408L19.1719 42.9115L24.1658 40.4151C25.2809 39.8565 25.7336 38.5005 25.1761 37.3844C24.6165 36.2673 23.2584 35.8156 22.1454 36.3741L13.1115 40.8911C12.3472 41.2742 11.8633 42.0556 11.8633 42.9116C11.8633 43.7676 12.3472 44.549 13.1115 44.9321L13.1114 44.932Z" fill="black"/>
<path d="M77.5941 48.437C77.9904 49.2285 78.7879 49.6852 79.6166 49.6852C79.9564 49.6852 80.3012 49.6096 80.6249 49.4473L89.6588 44.9303C90.423 44.5472 90.907 43.7658 90.907 42.9098C90.907 42.0538 90.423 41.2724 89.6588 40.8893L80.6249 36.3724C79.5088 35.8128 78.1527 36.2655 77.5941 37.3826C77.0366 38.4988 77.4893 39.8549 78.6044 40.4134L83.5983 42.9098L78.6044 45.4062C77.4893 45.9648 77.0366 47.3209 77.5941 48.437L77.5941 48.437Z" fill="black"/>
<path d="M34.2073 55.4525C33.6488 54.3354 32.2917 53.8847 31.1766 54.4423L22.1427 58.9592C21.3785 59.3424 20.8945 60.1237 20.8945 60.9797C20.8945 61.8357 21.3785 62.6171 22.1427 63.0002L31.1766 67.5172C31.5013 67.6795 31.8461 67.7551 32.1848 67.7551C33.0126 67.7551 33.8111 67.2984 34.2064 66.5069C34.7639 65.3908 34.3112 64.0347 33.1961 63.4762L28.2032 60.9798L33.1971 58.4834C34.3122 57.9248 34.7649 56.5687 34.2074 55.4526L34.2073 55.4525Z" fill="black"/>
<path d="M25.1741 18.1868C24.6146 17.0696 23.2565 16.6179 22.1434 17.1765L13.1095 21.6934C12.3453 22.0766 11.8613 22.8579 11.8613 23.7139C11.8613 24.5699 12.3453 25.3513 13.1095 25.7345L22.1434 30.2514C22.4681 30.4137 22.8129 30.4893 23.1516 30.4893C23.9794 30.4893 24.7779 30.0326 25.1732 29.2411C25.7307 28.125 25.278 26.7689 24.1629 26.2104L19.17 23.714L24.1639 21.2176C25.279 20.659 25.7317 19.3029 25.1742 18.1868L25.1741 18.1868Z" fill="black"/>
<path d="M89.6588 21.6934L80.6249 17.1764C79.5088 16.6169 78.1527 17.0696 77.5941 18.1867C77.0366 19.3028 77.4893 20.6589 78.6044 21.2175L83.5984 23.7139L78.6044 26.2103C77.4893 26.7689 77.0366 28.125 77.5941 29.241C77.9904 30.0325 78.7879 30.4892 79.6167 30.4892C79.9565 30.4892 80.3013 30.4136 80.6249 30.2513L89.6588 25.7344C90.423 25.3512 90.907 24.5698 90.907 23.7138C90.907 22.8578 90.423 22.0764 89.6588 21.6933L89.6588 21.6934Z" fill="black"/>
<path d="M5.0853 76.788V9.03388C5.0853 6.54252 7.11188 4.51694 9.60224 4.51694H93.1656C95.656 4.51694 97.6826 6.54252 97.6826 9.03388V54.2033H102.2V9.03388C102.2 4.06525 98.1343 0 93.1656 0H9.60224C4.63361 0 0.568359 4.06525 0.568359 9.03388V76.788C0.568359 81.7566 4.63361 85.8219 9.60224 85.8219H38.9624V81.3049H9.60224C7.11188 81.3049 5.0853 79.2794 5.0853 76.788Z" fill="black"/>
<path d="M136.076 58.7202H52.5124C47.5438 58.7202 43.4785 62.7855 43.4785 67.7541V135.508C43.4785 140.477 47.5438 144.542 52.5124 144.542H136.076C141.044 144.542 145.11 140.477 145.11 135.508V67.7541C145.11 62.7855 141.044 58.7202 136.076 58.7202ZM52.5124 63.2372H136.076C138.566 63.2372 140.593 65.2627 140.593 67.7541V72.271H47.9955V67.7541C47.9955 65.2627 50.022 63.2372 52.5124 63.2372ZM136.076 140.025H52.5124C50.022 140.025 47.9955 138 47.9955 135.508V76.788H140.593V135.508C140.593 138 138.566 140.025 136.076 140.025Z" fill="black"/>
<path d="M75.0984 130.991H54.7721C53.525 130.991 52.5137 132.003 52.5137 133.25C52.5137 134.497 53.525 135.508 54.7721 135.508H75.0984C76.3456 135.508 77.3568 134.497 77.3568 133.25C77.3568 132.003 76.3456 130.991 75.0984 130.991Z" fill="black"/>
<path d="M104.458 130.991H84.1315C82.8843 130.991 81.873 132.003 81.873 133.25C81.873 134.497 82.8843 135.508 84.1315 135.508H104.458C105.705 135.508 106.716 134.497 106.716 133.25C106.716 132.003 105.705 130.991 104.458 130.991Z" fill="black"/>
<path d="M133.819 130.991H113.493C112.246 130.991 111.234 132.003 111.234 133.25C111.234 134.497 112.246 135.508 113.493 135.508H133.819C135.066 135.508 136.078 134.497 136.078 133.25C136.078 132.003 135.066 130.991 133.819 130.991Z" fill="black"/>
<path d="M72.8399 108.407H57.0306C54.5463 108.407 52.5137 110.439 52.5137 112.924V121.957C52.5137 124.442 54.5463 126.474 57.0306 126.474H72.8399C75.3242 126.474 77.3568 124.442 77.3568 121.957V112.924C77.3568 110.439 75.3242 108.407 72.8399 108.407ZM72.8399 121.957H57.0306V112.924H72.8399V121.957Z" fill="black"/>
<path d="M131.561 108.407H115.751C113.267 108.407 111.234 110.439 111.234 112.924V121.957C111.234 124.442 113.267 126.474 115.751 126.474H131.561C134.045 126.474 136.078 124.442 136.078 121.957V112.924C136.078 110.439 134.045 108.407 131.561 108.407ZM131.561 121.957H115.751V112.924H131.561V121.957Z" fill="black"/>
<path d="M102.199 108.407H86.39C83.9057 108.407 81.873 110.439 81.873 112.924V121.957C81.873 124.442 83.9057 126.474 86.39 126.474H102.199C104.684 126.474 106.716 124.442 106.716 121.957V112.924C106.716 110.439 104.684 108.407 102.199 108.407ZM102.199 121.957H86.39V112.924H102.199V121.957Z" fill="black"/>
<path d="M131.56 81.3049H57.0306C54.5463 81.3049 52.5137 83.3376 52.5137 85.8219V99.3727C52.5137 101.857 54.5463 103.89 57.0306 103.89H131.56C134.044 103.89 136.077 101.857 136.077 99.3727V85.8219C136.077 83.3376 134.044 81.3049 131.56 81.3049ZM131.56 99.3727H57.0306V85.8219H131.56V99.3727Z" fill="black"/>
<path d="M125.911 67.7541C125.911 69.0013 124.9 70.0125 123.653 70.0125C122.406 70.0125 121.395 69.0013 121.395 67.7541C121.395 66.5069 122.406 65.4956 123.653 65.4956C124.9 65.4956 125.911 66.5069 125.911 67.7541Z" fill="black"/>
<path d="M134.947 67.7541C134.947 69.0013 133.935 70.0125 132.688 70.0125C131.441 70.0125 130.43 69.0013 130.43 67.7541C130.43 66.5069 131.441 65.4956 132.688 65.4956C133.935 65.4956 134.947 66.5069 134.947 67.7541Z" fill="black"/>
<path d="M45.173 25.971C46.4202 25.971 47.4315 24.9598 47.4315 23.7126C47.4315 22.4654 46.4202 21.4541 45.173 21.4541H43.4792C42.232 21.4541 41.2207 22.4654 41.2207 23.7126C41.2207 24.9598 42.232 25.971 43.4792 25.971H45.173Z" fill="black"/>
<path d="M59.5574 25.971C60.8046 25.971 61.8159 24.9598 61.8159 23.7126C61.8159 22.4654 60.8046 21.4541 59.5574 21.4541H55.6354C54.3882 21.4541 53.377 22.4654 53.377 23.7126C53.377 24.9598 54.3882 25.971 55.6354 25.971H59.5574Z" fill="black"/>
<path d="M71.7082 21.4554H70.0143C68.7671 21.4554 67.7559 22.4667 67.7559 23.7139C67.7559 24.9611 68.7671 25.9724 70.0143 25.9724H71.7082C72.9554 25.9724 73.9667 24.9611 73.9667 23.7139C73.9667 22.4667 72.9554 21.4554 71.7082 21.4554Z" fill="black"/>
<path d="M71.1457 40.6525H69.4518C68.2046 40.6525 67.1934 41.6637 67.1934 42.9109C67.1934 44.1581 68.2046 45.1694 69.4518 45.1694H71.1457C72.3929 45.1694 73.4042 44.1581 73.4042 42.9109C73.4042 41.6637 72.3929 40.6525 71.1457 40.6525Z" fill="black"/>
<path d="M56.6139 45.1694H60.1144C61.3616 45.1694 62.3729 44.1581 62.3729 42.9109C62.3729 41.6637 61.3616 40.6525 60.1144 40.6525H56.6139C55.3667 40.6525 54.3555 41.6637 54.3555 42.9109C54.3555 44.1581 55.3667 45.1694 56.6139 45.1694Z" fill="black"/>
<path d="M43.7819 45.1694H47.2824C48.5296 45.1694 49.5409 44.1581 49.5409 42.9109C49.5409 41.6637 48.5296 40.6525 47.2824 40.6525H43.7819C42.5347 40.6525 41.5234 41.6637 41.5234 42.9109C41.5234 44.1581 42.5347 45.1694 43.7819 45.1694Z" fill="black"/>
<path d="M36.703 42.9109C36.703 41.6637 35.6917 40.6525 34.4445 40.6525H32.7507C31.5035 40.6525 30.4922 41.6637 30.4922 42.9109C30.4922 44.1581 31.5035 45.1694 32.7507 45.1694H34.4445C35.6917 45.1694 36.703 44.1581 36.703 42.9109Z" fill="black"/>
<path d="M33.2828 27.3467C32.3854 27.3679 31.723 27.992 31.6746 28.8198C31.6192 29.7968 32.4066 30.4985 33.3251 30.4904C34.168 30.5015 34.9292 29.8411 34.9615 28.9811C34.9948 28.0585 34.2517 27.3235 33.2828 27.3467H33.2828Z" fill="black"/>
<path d="M35.5736 18.8744C35.5726 18.7907 35.5685 18.708 35.5595 18.6233C35.4475 17.6534 34.4927 16.9144 33.2647 16.9386C32.0538 16.9648 31.1605 17.6726 31.0566 18.6223C31.0566 18.6223 31.7977 24.8451 31.9187 25.7668C31.9439 25.9554 31.958 25.9695 32.2121 25.9695C32.932 25.9725 33.6539 25.9725 34.3727 25.9705C34.6258 25.9705 34.6399 25.9584 34.6651 25.7658C34.7579 25.048 34.8547 24.3281 34.9505 23.6092C35.0936 22.5324 35.2439 21.4546 35.379 20.3758C35.4415 19.8788 35.5776 19.3767 35.5736 18.8746L35.5736 18.8744Z" fill="black"/>
<path d="M46.6062 52.1203C45.4558 51.6373 44.133 52.1858 43.6532 53.3352L38.007 66.886C37.5664 67.9447 37.9969 69.1375 38.9628 69.6981V67.7553C38.9628 61.9318 42.662 56.9701 47.8284 55.0565C48.2952 53.9091 47.7528 52.5974 46.6064 52.1205L46.6062 52.1203Z" fill="black"/>
</svg>
