<svg width="91" height="59" viewBox="0 0 91 59" fill="none" xmlns="http://www.w3.org/2000/svg">
<mask id="mask0" style="mask-type:alpha" maskUnits="userSpaceOnUse" x="0" y="0" width="91" height="59">
<rect x="0.616211" y="0.351562" width="89.9756" height="58.1372" fill="#C4C4C4"/>
</mask>
<g mask="url(#mask0)">
<path opacity="0.1" d="M48.5561 40.9933C50.3159 50.9827 52.2801 58.0669 41.8951 56.6832C31.5101 55.2995 2.70121 42.7174 8.14613 29.4473C10.7947 22.9922 17.0548 13.5544 27.685 13.165C37.4492 12.8073 47.6523 35.8631 48.5561 40.9933Z" fill="#276EF1"/>
<path d="M10.7981 25.383C9.75143 24.783 8.43403 25.1403 7.83399 26.1871C7.23395 27.2338 7.59129 28.5512 8.638 29.1512C9.68472 29.7513 11.0021 29.3939 11.6022 28.3472C12.232 27.4103 11.8449 25.9831 10.7981 25.383Z" fill="#276EF1"/>
<path d="M89.9826 25.5319C90.1937 24.355 89.936 23.1874 89.1991 22.2087L75.3883 2.79513C74.7212 1.85641 73.7145 1.18659 72.5375 0.975453C71.3606 0.76432 70.193 1.0221 69.2142 1.75902L64.3709 5.19425C63.4321 5.86139 62.7623 6.8681 62.5512 8.04505C62.4805 8.65352 62.4796 9.302 62.6583 9.9607C59.8141 10.5554 56.7913 10.4913 53.989 9.71927L50.0199 8.55651C47.4669 7.83467 44.7921 8.61913 43.0337 10.3925L39.702 10.0587C37.5873 9.86624 35.3618 10.352 33.4946 11.5067L32.2265 12.2632C31.258 12.8206 30.1704 12.9388 29.0735 12.5881L26.8498 11.7769C26.9605 11.0986 27.0014 10.3804 26.8227 9.72169C26.5249 8.62385 25.788 7.64513 24.7413 7.04509L19.5775 4.0849C17.4841 2.88482 14.7395 3.62928 13.5394 5.7227L1.65866 26.4476C1.05862 27.4943 0.917264 28.7113 1.21505 29.8091C1.51283 30.907 2.24975 31.8857 3.29646 32.4857L8.46024 35.4459C9.22783 35.8859 10.0456 36.0766 10.9137 36.018C12.3604 35.9202 13.7383 35.1339 14.4983 33.8081L14.5783 33.6685L17.5389 35.4584C16.0997 37.3221 16.3455 39.9662 18.0891 41.6148C18.946 42.3841 20.0728 42.8446 21.2301 42.7664C21.3484 43.854 21.8257 44.9621 22.6826 45.7314C23.6093 46.5408 24.7063 46.8915 25.8237 46.8831C25.9419 47.9707 26.4192 49.0788 27.2762 49.8481C28.2029 50.6575 29.2998 51.0082 30.4172 50.9998C30.4954 52.1572 31.0128 53.1954 31.8697 53.9648C32.7964 54.7742 34.0329 55.2049 35.1903 55.1267C36.3477 55.0485 37.5255 54.6111 38.3749 53.6146L39.7239 52.0701L41.9253 54.5374C41.9951 54.5774 41.9951 54.5774 42.0248 54.6872C43.1209 55.6863 44.5667 56.2371 46.0833 56.1793C47.5998 56.1215 48.9376 55.4051 49.9368 54.309C50.7862 53.3125 51.2867 52.116 51.3982 50.7893C53.1139 51.0311 55.0202 50.4551 56.2492 49.1199C56.2892 49.0501 56.2892 49.0501 56.3292 48.9804C57.2483 48.0239 57.719 46.7176 57.7906 45.4606C59.576 45.7425 61.5223 45.0967 62.7913 43.6917C63.7105 42.7352 64.1812 41.4289 64.223 40.0622C64.6519 40.1227 65.0808 40.1831 65.5199 40.064C67.0765 39.9365 68.4143 39.22 69.4135 38.1239C70.0731 37.2968 70.4935 36.2399 70.6247 35.2025L77.2153 30.8219C78.1615 31.9206 79.4976 32.5011 80.8345 32.4331C81.6626 32.4442 82.4711 32.166 83.1502 31.6282L87.9936 28.1929C89.1017 27.7156 89.7715 26.7089 89.9826 25.5319ZM9.94034 32.864L4.77656 29.9038C4.42765 29.7038 4.22853 29.4042 4.06942 29.0349C3.98008 28.7055 4.04054 28.2766 4.24055 27.9277L16.1213 7.2028C16.5214 6.50499 17.3996 6.26677 18.0974 6.66679L23.2612 9.62699C23.6101 9.827 23.8092 10.1266 23.9684 10.4959C24.0577 10.8253 23.9972 11.2542 23.7972 11.6031L11.9164 32.328C11.5862 33.0658 10.7079 33.304 9.94034 32.864ZM25.9393 35.3603L22.4022 39.2662C21.8626 39.884 20.7053 39.9622 20.1275 39.3529C19.4399 38.7733 19.3914 37.7257 20.0408 37.0781L23.5779 33.1722C23.8477 32.8633 24.2571 32.6344 24.726 32.625C25.1251 32.5757 25.5838 32.7459 25.8927 33.0157C26.5403 33.6651 26.5887 34.7127 25.9393 35.3603ZM31.332 38.7298L27.0255 43.4927C26.4459 44.1803 25.3983 44.2287 24.7508 43.5794C24.0632 42.9998 24.0147 41.9522 24.6641 41.3046L28.2012 37.3986L28.9306 36.6115C29.2004 36.3026 29.6097 36.0737 30.0786 36.0644C30.5476 36.055 30.9365 36.1853 31.2454 36.4551C31.5543 36.7249 31.7832 37.1342 31.7925 37.6031C31.772 37.9622 31.6018 38.4209 31.332 38.7298ZM35.1562 43.7035L31.6191 47.6094C31.0395 48.297 29.9919 48.3454 29.3443 47.696C28.6567 47.1165 28.6083 46.0688 29.2576 45.4213L32.7947 41.5153C33.0645 41.2064 33.4739 40.9775 33.9428 40.9682C34.3419 40.9189 34.8006 41.0891 35.1095 41.3589C35.4184 41.6287 35.6473 42.038 35.6566 42.507C35.5962 42.9359 35.426 43.3946 35.1562 43.7035ZM39.0501 48.7171L36.2424 51.8359C35.7028 52.4537 34.5454 52.5319 33.9676 51.9225C33.6587 51.6527 33.4298 51.2434 33.4205 50.7745C33.4111 50.3055 33.5414 49.9166 33.8112 49.6077L36.6189 46.4889C36.8887 46.18 37.298 45.9511 37.7669 45.9418C38.2359 45.9325 38.6248 46.0627 38.9337 46.3325C39.5812 46.9819 39.6297 48.0295 39.0501 48.7171ZM67.2009 36.4847C66.8111 37.003 66.1422 37.3612 65.4239 37.3203C65.4239 37.3203 65.424 37.3203 65.3142 37.3501C64.5559 37.379 63.7781 37.1185 63.1603 36.5789L62.5425 36.0393L58.5668 32.4622C57.949 31.9226 57.0111 31.9413 56.4715 32.5591C55.932 33.1769 55.9506 34.1147 56.5684 34.6543L60.5441 38.2314C61.0224 38.691 61.3108 39.3199 61.3099 39.9684C61.3788 40.6569 61.0886 41.3249 60.589 41.8729C59.6298 42.8992 57.8937 43.0165 56.8675 42.0574L53.0313 38.5603C52.4135 38.0207 51.4757 38.0393 50.9361 38.6571C50.3965 39.2749 50.4152 40.2128 51.033 40.7523L54.0122 43.4801C55.0385 44.4392 55.126 46.0655 54.2366 47.1318L54.1966 47.2016C53.2375 48.2278 51.5014 48.3452 50.4751 47.386L47.735 44.8881C47.1172 44.3485 46.1794 44.3671 45.6398 44.9849C45.1002 45.6028 45.1189 46.5406 45.7367 47.0802L47.6896 48.8487C48.1679 49.3083 48.4563 49.9372 48.4554 50.5857C48.5243 51.2742 48.2341 51.9422 47.7345 52.4902C46.7753 53.5165 45.109 53.6738 44.0827 52.7147L41.6422 50.0176C42.7921 48.1735 42.5361 45.709 40.8222 44.1702C40.1346 43.5906 39.2973 43.1106 38.3994 43.0595C38.4497 42.8101 38.4599 42.6305 38.4003 42.411C38.3621 41.1838 37.815 40.0357 36.8883 39.2264C36.2407 38.577 35.3233 38.2365 34.4655 38.1156C34.5157 37.8663 34.526 37.6867 34.4664 37.4671C34.4282 36.24 33.8811 35.0919 32.9544 34.2825C32.0277 33.4731 30.9009 33.0127 29.6338 33.1207C29.4142 33.1802 29.2346 33.17 28.9453 33.1895C28.7071 32.3113 28.319 31.5326 27.5617 30.913C25.6785 29.1844 22.785 29.38 21.0965 31.1934L19.5773 33.1966L16.1282 31.1267L25.6488 14.5188L28.1916 15.4202C30.0962 16.1412 32.0918 15.8945 33.8092 14.8393L35.0773 14.0829C36.3854 13.2566 37.9521 12.9495 39.4584 13.0713L41.2141 13.2433C40.3638 14.8883 39.7526 16.7631 39.4308 18.6183C39.0383 21.0819 40.5215 23.5083 43.0047 24.1901L43.0745 24.2301C45.1391 24.6719 47.2454 23.747 48.2855 21.9327L49.4455 19.9091L51.2105 20.55C55.588 22.1324 59.5451 24.7716 62.663 28.2278L66.8667 32.8628C66.9365 32.9028 66.9365 32.9028 66.9663 33.0126C67.5143 33.5121 67.8028 34.1411 67.8716 34.8295C67.841 35.3682 67.5907 35.9665 67.2009 36.4847ZM70.07 32.2885C69.7415 31.7294 69.4131 31.1703 68.9348 30.7107L64.8009 26.1157C61.3443 22.28 57.0086 19.3309 52.1324 17.6481L49.45 16.6667C48.6024 16.3662 47.6441 16.744 47.2041 17.5116L45.564 20.3726C45.164 21.0704 44.3853 21.4584 43.6372 21.3078C42.6799 21.0371 42.0127 20.0983 42.2136 19.101C42.5457 17.0662 43.2666 15.1617 44.2667 13.4171L44.4267 13.138C45.3067 11.6028 47.2633 10.7775 49.0683 11.3486L53.0373 12.5114C56.6873 13.5839 60.4684 13.6191 64.0912 12.6364L75.4623 28.7044L70.07 32.2885ZM86.3904 25.9759L81.547 29.4112C80.9079 29.8792 79.9803 29.7183 79.5123 29.0791L65.7416 9.59582C65.5424 9.29625 65.4233 8.85711 65.5136 8.53799C65.574 8.10908 65.8038 7.86996 66.1434 7.60106L70.9868 4.16582C71.1765 3.99648 71.5059 3.90714 71.7952 3.88759C71.905 3.85781 71.9748 3.89781 72.1544 3.90804C72.5833 3.96849 72.8224 4.19828 73.0913 4.53786L86.862 24.0212C87.0611 24.3207 87.1803 24.7599 87.09 25.079C86.9998 25.3981 86.73 25.707 86.3904 25.9759Z" fill="#276EF1"/>
<path d="M83.0523 22.5792C82.3154 21.6005 80.9589 21.3792 80.0202 22.0463C79.0415 22.7832 78.8201 24.1397 79.4873 25.0784C80.2242 26.0572 81.5807 26.2785 82.5194 25.6114C83.5279 24.9843 83.7893 23.558 83.0523 22.5792Z" fill="#276EF1"/>
</g>
</svg>
