<svg width="60" height="50" viewBox="0 0 60 50" fill="none" xmlns="http://www.w3.org/2000/svg">
<path d="M10.0009 4C8.68714 4.02484 8.68726 5.97498 10.0009 6C11.3145 5.97455 11.3143 4.0249 10.0009 4Z" fill="#266DF1"/>
<path d="M6.00086 4C4.68714 4.02484 4.68726 5.97498 6.00092 6C7.31452 5.97455 7.31427 4.0249 6.00086 4Z" fill="#266DF1"/>
<path d="M14.0009 4C12.6871 4.02484 12.6873 5.97498 14.0009 6C15.3145 5.97455 15.3143 4.0249 14.0009 4Z" fill="#266DF1"/>
<path d="M57.7143 27.4287H56.3633C56.2842 27.0879 56.1928 26.7485 56.0903 26.4116C59.5976 24.711 58.4926 23.1512 56.8119 20.3857C56.1816 19.2949 54.7802 18.9199 53.6899 19.5493L52.5254 20.2217C52.2846 19.9644 52.0351 19.7148 51.7778 19.4741L52.4502 18.3105C53.0863 17.259 52.6897 15.7808 51.6132 15.188L49.3862 13.9023C48.3368 13.2678 46.8549 13.662 46.2636 14.7393L45.5879 15.9097C45.2514 15.8071 44.9121 15.7158 44.5713 15.6367V14.2856C44.5713 13.0254 43.5459 12 42.2856 12H39.7143C38.4541 12 37.4287 13.0254 37.4287 14.2856V15.6362C37.0879 15.7158 36.748 15.8071 36.4116 15.9097C34.711 12.4031 33.1512 13.5087 30.3862 15.1885C29.2949 15.8189 28.9194 17.2192 29.5498 18.311L30.2217 19.4751C29.9643 19.7158 29.7148 19.9653 29.4746 20.2222L28.3105 19.5498C27.258 18.915 25.781 19.3098 25.188 20.3867L23.9023 22.6138C23.2664 23.6649 23.6625 25.1442 24.7393 25.7363C24.7392 25.7363 25.9097 26.4121 25.9097 26.4121C25.8071 26.7485 25.7158 27.0879 25.6367 27.4287H24.2856C23.0254 27.4287 22 28.4541 22 29.7143V32.2856C22 33.5459 23.0254 34.5713 24.2856 34.5713H25.6362C25.7158 34.9116 25.8071 35.2505 25.9097 35.5874L24.7393 36.2632C23.6479 36.8935 23.2725 38.2939 23.9028 39.3857C25.4722 42.2356 26.2419 43.9554 29.4741 41.7778C29.7148 42.0351 29.9644 42.2847 30.2217 42.5254L29.5498 43.6885C28.9138 44.74 29.3103 46.2182 30.3868 46.811C30.3867 46.811 32.6138 48.0967 32.6138 48.0967C33.6646 48.7339 35.1443 48.336 35.7363 47.2597C35.7363 47.2597 36.4116 46.0903 36.4116 46.0903C36.7485 46.1929 37.0879 46.2842 37.4287 46.3633V47.7143C37.4287 48.9746 38.4541 50 39.7143 50H42.2856C43.5459 50 44.5713 48.9746 44.5713 47.7143V46.3638C44.9111 46.2842 45.2505 46.1933 45.5874 46.0903L46.2632 47.2612C46.8931 48.3515 48.2925 48.7285 49.3857 48.0976C52.2359 46.5281 53.9554 45.7588 51.7773 42.5264C52.0342 42.2856 52.2842 42.0356 52.5249 41.7783L53.6885 42.4502C54.7411 43.0855 56.218 42.6899 56.811 41.6132C56.811 41.6133 58.0967 39.3862 58.0967 39.3862C58.7326 38.3351 58.3365 36.8557 57.2598 36.2637L56.0903 35.5884C56.1929 35.2515 56.2842 34.9121 56.3633 34.5713H57.7143C58.9746 34.5713 60 33.5459 60 32.2856V29.7143C60 28.4541 58.9746 27.4287 57.7143 27.4287ZM58 32.2856C58 32.4433 57.872 32.5713 57.7143 32.5713H55.5478C55.0625 32.5713 54.6474 32.9199 54.563 33.3979C54.4262 34.1743 54.2178 34.9502 53.9433 35.7046C53.7778 36.1606 53.9629 36.6699 54.3833 36.9126L56.2597 37.9961C56.4112 38.1072 56.4398 38.2142 56.3643 38.3862C56.3642 38.3862 55.0786 40.6133 55.0786 40.6133C54.9715 40.7665 54.8569 40.7919 54.6884 40.7178L52.8188 39.6382C52.3998 39.396 51.8652 39.4892 51.5532 39.8608C49.3458 42.4438 48.7144 41.3743 50.7169 44.6899C50.7951 44.865 50.7614 44.9662 50.6123 45.0801C50.6123 45.0801 48.3857 46.3657 48.3857 46.3657C48.2485 46.4443 48.0742 46.397 47.9956 46.2612L46.9116 44.3838C46.6684 43.9634 46.1582 43.7788 45.7041 43.9438C44.9467 44.2187 44.1714 44.4272 43.3984 44.563C42.9199 44.647 42.5713 45.0625 42.5713 45.5478V47.7143C42.5713 47.8721 42.4433 48 42.2856 48H39.7143C39.5566 48 39.4287 47.8721 39.4287 47.7143V45.5478C39.4287 45.0625 39.0801 44.6475 38.602 44.563C37.8257 44.4263 37.0498 44.2178 36.2954 43.9433C35.8485 43.7791 35.3306 43.9595 35.0874 44.3833L34.0039 46.2598C33.8912 46.4149 33.7871 46.4371 33.6137 46.3642L31.3867 45.0786C31.2332 44.9714 31.2085 44.8572 31.2822 44.6885C33.291 41.3652 32.6444 42.4393 30.4457 39.8603C30.1333 39.4893 29.6006 39.396 29.1801 39.6377L27.311 40.7168C27.1753 40.7944 26.9995 40.7495 26.9204 40.6123L25.6348 38.3857C25.5561 38.2495 25.603 38.0742 25.7392 37.9956L27.6167 36.9116C28.0371 36.6689 28.2221 36.1597 28.0566 35.7036C27.7812 34.9472 27.5727 34.1714 27.437 33.3984C27.353 32.9199 26.9375 32.5713 26.4521 32.5713H24.2856C24.1279 32.5713 24 32.4433 24 32.2856V29.7143C24 29.5566 24.1279 29.4287 24.2856 29.4287H26.4521C26.9375 29.4287 27.3525 29.0801 27.437 28.602C27.5737 27.8257 27.7822 27.0498 28.0566 26.2959C28.2221 25.8398 28.0371 25.3306 27.6167 25.0879L25.7392 24.0039C25.584 23.8914 25.5619 23.7867 25.6348 23.6138C25.7032 23.5667 26.9551 21.1484 27.0937 21.2534C26.9953 21.0316 29.1991 22.3915 29.1806 22.3618C29.5991 22.605 30.1343 22.5107 30.4463 22.1392C30.9575 21.5303 31.5273 20.9609 32.1391 20.4468C32.5102 20.1343 32.604 19.6011 32.3613 19.1812L31.2817 17.311C31.2031 17.1748 31.25 16.9995 31.3862 16.9204L33.6132 15.6348C33.75 15.5567 33.9253 15.603 34.0034 15.7393L35.0874 17.6167C35.3305 18.0376 35.8418 18.2222 36.2954 18.0566C37.0488 17.7822 37.8252 17.5737 38.602 17.437C39.08 17.3525 39.4287 16.9375 39.4287 16.4522V14.2857C39.4287 14.1279 39.5566 14 39.7143 14H42.2856C42.4433 14 42.5712 14.1279 42.5712 14.2857V16.4522C42.5712 16.9375 42.9199 17.3525 43.3979 17.437C44.1743 17.5737 44.9502 17.7822 45.7041 18.0566C46.1582 18.2207 46.6689 18.0371 46.9121 17.6167L47.996 15.7393C48.1084 15.5839 48.2134 15.5623 48.3862 15.6347C48.3862 15.6348 50.6132 16.9204 50.6132 16.9204C50.6977 16.9692 50.7324 17.0415 50.7465 17.0938C50.9658 17.0018 49.6116 19.1925 49.6381 19.1807C49.3955 19.6006 49.4892 20.1343 49.8608 20.4463C50.4707 20.9585 51.04 21.5283 51.5537 22.1392C51.8662 22.5103 52.3999 22.6045 52.8193 22.3618L54.6899 21.2817C54.8261 21.2031 55.0009 21.2505 55.08 21.3862L56.3657 23.6133C56.4449 23.7827 56.4096 23.8942 56.2613 24.0034C56.2612 24.0034 54.3833 25.0874 54.3833 25.0874C53.9633 25.3301 53.7778 25.8394 53.9433 26.2954C54.2177 27.0498 54.4262 27.8257 54.563 28.602C54.6474 29.0801 55.0625 29.4287 55.5478 29.4287H57.7143C57.872 29.4287 57.9999 29.5566 57.9999 29.7143L58 32.2856Z" fill="#266DF1"/>
<path d="M6 46H27.25C27.8023 46 28.25 45.5523 28.25 45C28.25 44.4477 27.8023 44 27.25 44H6C3.79443 44 2 42.2056 2 40V9H54V17.25C54 17.8023 54.4477 18.25 55 18.25C55.5523 18.25 56 17.8023 56 17.25V6C56 2.69141 53.3086 0 50 0H6C2.69141 0 0 2.69141 0 6V40C0 43.3086 2.69141 46 6 46ZM2 6C2 3.79443 3.79443 2 6 2H50C52.2056 2 54 3.79443 54 6V7H2V6Z" fill="#266DF1"/>
<path d="M26 18.4102C26.5523 18.4102 27 17.9624 27 17.4102V15C27 13.3457 25.6543 12 24 12H18C17.2289 12 16.532 12.3005 16 12.7803C15.468 12.3005 14.7711 12 14 12H8C6.3457 12 5 13.3457 5 15V21C5 21.7711 5.30054 22.468 5.78027 23C5.30053 23.532 5 24.2289 5 25V31C5 32.6543 6.3457 34 8 34H14C14.7711 34 15.468 33.6995 16 33.2197C16.9217 34.2264 18.8241 33.9816 20.0601 33.9999C21.3761 33.9737 21.3741 32.0244 20.0601 32H18C17.4487 32 17 31.5513 17 31V25C17 24.4487 17.4487 24 18 24H21.6802C22.2324 24 22.6802 23.5523 22.6802 23C22.6802 22.4477 22.2324 22 21.6802 22H18C17.4487 22 17 21.5513 17 21V15C17 14.4487 17.4487 14 18 14H24C24.5513 14 25 14.4487 25 15V17.4102C25 17.9624 25.4477 18.4102 26 18.4102ZM15 31C15 31.5513 14.5513 32 14 32H8C7.44873 32 7 31.5513 7 31V25C7 24.4487 7.44873 24 8 24H14C14.5513 24 15 24.4487 15 25V31ZM15 21C15 21.5513 14.5513 22 14 22H8C7.44873 22 7 21.5513 7 21V15C7 14.4487 7.44873 14 8 14H14C14.5513 14 15 14.4487 15 15V21Z" fill="#266DF1"/>
<path d="M31.5192 31L36.3737 26.7525C37.3528 25.8888 36.0447 24.389 35.0563 25.2476L29.3419 30.2476C28.8915 30.6241 28.891 31.376 29.342 31.7525C29.3419 31.7525 35.0563 36.7525 35.0563 36.7525C36.0409 37.6076 37.3556 36.115 36.3736 35.2475C36.3736 35.2476 31.5192 31 31.5192 31Z" fill="#266DF1"/>
<path d="M46.9452 25.2476C45.957 24.392 44.6477 25.887 45.6279 26.7525C45.6279 26.7525 50.4824 31.0001 50.4824 31.0001L45.6279 35.2476C44.6517 36.102 45.9594 37.6185 46.9453 36.7524C46.9452 36.7525 52.6596 31.7525 52.6596 31.7525C53.11 31.3762 53.1106 30.624 52.6596 30.2476L46.9452 25.2476Z" fill="#266DF1"/>
<path d="M41 22C40.4477 22 40 22.4477 40 23V39C40 39.5523 40.4477 40 41 40C41.5523 40 42 39.5523 42 39V23C42 22.4477 41.5523 22 41 22Z" fill="#266DF1"/>
</svg>
