<svg width="141" height="161" viewBox="0 0 141 161" fill="none" xmlns="http://www.w3.org/2000/svg">
<path d="M140.331 39.9721L111.779 23.49L99.0593 30.8342V16.4864L70.5123 0L41.9613 16.4864V30.7527L29.3863 23.4925L0.837891 39.9746V72.9374L14.0581 80.5736L0.837891 88.2068V121.173L29.3863 137.65L41.9613 130.39V144.352L70.5109 160.836L99.0647 144.354V130.31L111.779 137.65L140.331 121.171V88.2039L127.108 80.5707L140.331 72.9374L140.331 39.9721ZM136.06 70.471L113.915 83.255L113.92 57.6896L136.06 44.9071L136.06 70.471ZM136.06 118.704L113.915 131.484L113.92 105.917L136.06 93.1371L136.06 118.704ZM94.7917 141.887L72.6466 154.669L72.6508 129.099L94.7916 116.319L94.7917 141.887ZM29.3874 28.4253L51.5282 41.2053L29.3888 53.9878L7.24513 41.2053L29.3874 28.4253ZM70.5119 4.93243L92.6513 17.7164L70.5148 30.4978L48.3711 17.7178L70.5119 4.93243ZM70.5147 125.402L48.371 112.619L70.5104 99.8391L92.6556 112.619L70.5147 125.402ZM53.6625 44.9045V70.47L31.5216 83.2539L31.523 57.6871L53.6625 44.9045ZM83.2373 88.2011V102.249L70.5108 94.9045L57.9358 102.165V88.2039L44.7156 80.5707L57.9358 72.9346V58.6682L70.5137 65.9299L83.2373 58.5814V72.932L96.4532 80.5653L83.2373 88.2011ZM111.786 53.9857L89.6449 41.2032L111.78 28.4231L133.925 41.2032L111.786 53.9857ZM94.7874 33.3006L83.2373 39.9689V53.6479L72.648 59.7621L72.6494 34.1967L94.7859 21.4167L94.7874 33.3006ZM29.3866 89.421L40.4416 83.0374L51.5274 89.4393L29.3881 102.218L7.24435 89.4393L18.3302 83.0374L29.3866 89.421ZM31.5238 105.919L53.6632 93.14V104.634L41.9617 111.387V125.459L31.5238 131.484V105.919ZM111.784 102.218L89.6432 89.435L100.725 83.0331L111.778 89.4167L122.836 83.0331L133.923 89.435L111.784 102.218Z" fill="black"/>
</svg>
