<svg width="94" height="84" viewBox="0 0 94 84" fill="none" xmlns="http://www.w3.org/2000/svg">
<path d="M47.0003 42.1719C42.4755 42.1675 38.0719 43.6357 34.453 46.3552C30.8342 49.0747 28.1961 52.8982 26.9365 57.2494C25.6768 61.6007 25.8638 66.2439 27.4692 70.4795C29.0746 74.7151 32.0115 78.3135 35.8372 80.7325C35.8547 80.7405 35.8675 80.7545 35.8851 80.7618C39.2075 82.8769 43.0631 84.0002 47.0003 84.0002C50.9374 84.0002 54.793 82.8769 58.1154 80.7618C58.1328 80.7545 58.1461 80.7405 58.1633 80.7325C61.9891 78.3135 64.926 74.7151 66.5314 70.4795C68.1368 66.2439 68.3237 61.6007 67.0641 57.2494C65.8044 52.8982 63.1664 49.0747 59.5475 46.3552C55.9287 43.6357 51.5251 42.1675 47.0003 42.1719ZM38.2967 78.1564V77.9002C38.2994 75.5899 39.2173 73.375 40.8489 71.7413C42.4806 70.1077 44.6928 69.1887 47.0003 69.186C49.3074 69.1901 51.5188 70.1095 53.1502 71.7428C54.7815 73.3762 55.6998 75.5903 55.7039 77.9002V78.1564C53.0626 79.7007 50.0589 80.5145 47.0003 80.5145C43.9417 80.5145 40.938 79.7007 38.2967 78.1564ZM41.7781 60.4718C41.7781 59.4377 42.0844 58.4268 42.6582 57.5669C43.232 56.7071 44.0476 56.037 45.0019 55.6412C45.9561 55.2455 47.0061 55.142 48.0191 55.3437C49.0321 55.5454 49.9626 56.0434 50.6929 56.7746C51.4232 57.5059 51.9206 58.4375 52.1221 59.4517C52.3236 60.466 52.2202 61.5173 51.8249 62.4726C51.4297 63.428 50.7603 64.2446 49.9015 64.8191C49.0428 65.3937 48.0331 65.7003 47.0003 65.7003C45.6157 65.6988 44.2884 65.1474 43.3093 64.1672C42.3303 63.187 41.7797 61.858 41.7781 60.4718ZM58.9809 75.6974C58.6427 73.8708 57.8941 72.1451 56.7918 70.6508C55.6894 69.1564 54.2621 67.9327 52.6177 67.0719C53.9806 65.919 54.9566 64.3746 55.4136 62.6479C55.8707 60.9212 55.7867 59.0955 55.173 57.4182C54.5593 55.7409 53.4456 54.2929 51.9827 53.2703C50.5197 52.2478 48.7783 51.7001 46.9941 51.7014C45.21 51.7027 43.4693 52.2529 42.0079 53.2776C40.5465 54.3023 39.4349 55.7519 38.8236 57.4301C38.2124 59.1084 38.131 60.9341 38.5906 62.6602C39.0501 64.3863 40.0284 65.9292 41.3929 67.0801C39.7466 67.9381 38.3174 69.1606 37.2138 70.6547C36.1103 72.1487 35.3614 73.875 35.0242 75.7023C32.4972 73.3037 30.7468 70.2014 29.9992 66.7964C29.2516 63.3913 29.5411 59.84 30.8304 56.6015C32.1197 53.3629 34.3494 50.5859 37.2314 48.6293C40.1134 46.6728 43.5153 45.6266 46.9974 45.626C50.4795 45.6254 53.8817 46.6704 56.7644 48.6259C59.6471 50.5815 61.8778 53.3577 63.1682 56.5958C64.4586 59.8339 64.7494 63.3851 64.0029 66.7904C63.2565 70.1957 61.507 73.2979 58.9809 75.6974Z" fill="#276EF1"/>
<path d="M36.652 22.8803L34.805 33.66C34.75 33.9806 34.7857 34.3102 34.9081 34.6115C35.0305 34.9128 35.2347 35.1738 35.4975 35.365C35.7604 35.5562 36.0714 35.6699 36.3954 35.6933C36.7195 35.7167 37.0436 35.6488 37.3311 35.4973L47.0002 30.4084L56.6694 35.4975C56.9569 35.649 57.281 35.7168 57.6051 35.6935C57.9291 35.6701 58.2401 35.5564 58.503 35.3652C58.7658 35.174 58.97 34.913 59.0924 34.6117C59.2148 34.3104 59.2505 33.9808 59.1955 33.6602L57.3485 22.8805L65.1716 15.2469C65.4044 15.0199 65.5691 14.7322 65.647 14.4164C65.725 14.1006 65.7131 13.7692 65.6127 13.4598C65.5123 13.1504 65.3275 12.8752 65.079 12.6656C64.8305 12.4559 64.5284 12.3201 64.2069 12.2734L53.397 10.7008L48.5617 0.892254C48.4013 0.620468 48.173 0.39523 47.8992 0.238762C47.6253 0.0822931 47.3155 0 47.0002 0C46.685 0 46.3751 0.0822931 46.1013 0.238762C45.8275 0.39523 45.5992 0.620468 45.4388 0.892254L40.6043 10.7001L29.7945 12.2727C29.4729 12.3194 29.1708 12.4552 28.9224 12.6649C28.6739 12.8745 28.489 13.1497 28.3886 13.4591C28.2883 13.7685 28.2764 14.0999 28.3543 14.4157C28.4323 14.7315 28.597 15.0192 28.8298 15.2462L36.652 22.8803ZM42.011 14.0182C42.2903 13.9775 42.5554 13.8694 42.7836 13.7031C43.0118 13.5369 43.1961 13.3176 43.3207 13.0641L47.0002 5.6009L50.6798 13.0634C50.8044 13.3169 50.9887 13.5362 51.2169 13.7024C51.4451 13.8687 51.7102 13.9768 51.9895 14.0175L60.2154 15.2139L54.2622 21.0228C54.0603 21.2203 53.9094 21.4639 53.8222 21.7326C53.735 22.0013 53.7142 22.2872 53.7615 22.5658L55.1673 30.7676L47.81 26.8955C47.5602 26.7642 47.2822 26.6956 47.0001 26.6956C46.7179 26.6956 46.44 26.7642 46.1901 26.8955L38.8328 30.7676L40.2386 22.5658C40.286 22.2872 40.2652 22.0013 40.178 21.7326C40.0908 21.4639 39.9398 21.2203 39.738 21.0228L33.7847 15.2139L42.011 14.0182Z" fill="#276EF1"/>
<path d="M22.8566 37.4807L28.6168 31.8598C28.8495 31.6329 29.0142 31.3452 29.0922 31.0294C29.1702 30.7135 29.1583 30.3822 29.0579 30.0727C28.9575 29.7633 28.7726 29.4882 28.5242 29.2786C28.2757 29.0689 27.9736 28.933 27.652 28.8864L19.6919 27.7277L16.1315 20.5069C15.9712 20.2352 15.7429 20.01 15.4692 19.8535C15.1955 19.697 14.8857 19.6147 14.5705 19.6147C14.2553 19.6147 13.9455 19.697 13.6718 19.8535C13.398 20.01 13.1698 20.2352 13.0095 20.5069L9.45079 27.7277L1.49102 28.8858C1.16945 28.9325 0.867338 29.0684 0.618884 29.278C0.370429 29.4877 0.185548 29.7628 0.0851611 30.0722C-0.0152253 30.3816 -0.0271089 30.713 0.0508557 31.0288C0.12882 31.3447 0.293519 31.6323 0.526316 31.8593L6.28634 37.4807L4.92719 45.4166C4.87222 45.7372 4.90794 46.0667 5.03033 46.3681C5.15272 46.6694 5.35689 46.9304 5.61974 47.1215C5.88258 47.3127 6.19362 47.4264 6.51766 47.4498C6.8417 47.4732 7.1658 47.4053 7.45332 47.2539L14.5716 43.5068L21.6911 47.2539C21.9787 47.4053 22.3027 47.4731 22.6267 47.4497C22.9508 47.4263 23.2618 47.3126 23.5246 47.1214C23.7874 46.9302 23.9915 46.6693 24.1139 46.368C24.2363 46.0667 24.272 45.7371 24.2171 45.4166L22.8566 37.4807ZM19.7711 35.6246C19.5693 35.8219 19.4183 36.0653 19.3311 36.3339C19.2439 36.6025 19.2231 36.8882 19.2705 37.1666L20.1886 42.5262L15.3811 39.9954C15.1313 39.864 14.8533 39.7953 14.5711 39.7953C14.2889 39.7953 14.0109 39.864 13.7611 39.9954L8.95468 42.5254L9.87256 37.1666C9.91998 36.8882 9.89919 36.6024 9.81199 36.3338C9.72479 36.0652 9.57378 35.8219 9.37193 35.6246L5.48231 31.8278L10.8575 31.0458C11.137 31.0051 11.4024 30.8969 11.6308 30.7305C11.8592 30.5642 12.0438 30.3447 12.1686 30.091L14.5708 25.2149L16.9755 30.091C17.1002 30.3445 17.2845 30.5638 17.5127 30.73C17.7409 30.8963 18.006 31.0044 18.2853 31.0451L23.6604 31.8271L19.7711 35.6246Z" fill="#276EF1"/>
<path d="M93.9147 30.0725C93.8143 29.7632 93.6295 29.4883 93.3812 29.2786C93.1329 29.069 92.831 28.9331 92.5096 28.8861L84.5498 27.728L80.9911 20.5072C80.8474 20.2156 80.625 19.97 80.3491 19.7983C80.0733 19.6266 79.755 19.5356 79.4301 19.5356C79.1053 19.5356 78.787 19.6266 78.5111 19.7983C78.2353 19.97 78.0129 20.2156 77.8691 20.5072L74.3087 27.728L66.3488 28.8861C66.0272 28.9328 65.7251 29.0686 65.4766 29.2783C65.2282 29.488 65.0433 29.7631 64.9429 30.0725C64.8425 30.3819 64.8306 30.7133 64.9086 31.0291C64.9865 31.345 65.1513 31.6326 65.384 31.8596L71.1441 37.481L69.7842 45.4174C69.7294 45.7379 69.7652 46.0674 69.8876 46.3687C70.0101 46.6699 70.2142 46.9308 70.4771 47.1219C70.7399 47.313 71.0509 47.4267 71.3749 47.4501C71.6988 47.4734 72.0229 47.4056 72.3104 47.2542L79.4299 43.507L86.5482 47.2542C86.8357 47.4054 87.1597 47.473 87.4836 47.4495C87.8075 47.426 88.1183 47.3123 88.381 47.1212C88.6437 46.93 88.8478 46.6691 88.9702 46.3679C89.0925 46.0668 89.1283 45.7373 89.0734 45.4168L87.7143 37.481L93.4743 31.8601C93.707 31.6329 93.8715 31.3451 93.9493 31.0292C94.0271 30.7133 94.0152 30.3819 93.9147 30.0725ZM84.6289 35.6243C84.427 35.8216 84.276 36.065 84.1888 36.3336C84.1016 36.6022 84.0808 36.888 84.1282 37.1664L85.0461 42.5251L80.2397 39.9952C79.9899 39.8635 79.7119 39.7947 79.4297 39.7947C79.1475 39.7947 78.8695 39.8635 78.6197 39.9952L73.8122 42.526L74.7299 37.1673C74.7773 36.8888 74.7565 36.6031 74.6693 36.3345C74.5821 36.0659 74.4311 35.8225 74.2293 35.6252L70.3399 31.8289L75.715 31.0469C75.9943 31.0062 76.2594 30.8981 76.4876 30.7319C76.7158 30.5657 76.9001 30.3464 77.0247 30.0929L79.4299 25.2159L81.8321 30.0913C81.9569 30.3448 82.1415 30.564 82.3698 30.7302C82.5981 30.8964 82.8633 31.0046 83.1427 31.0453L88.5178 31.8273L84.6289 35.6243Z" fill="#276EF1"/>
</svg>
