<svg width="71" height="89" viewBox="0 0 71 89" fill="none" xmlns="http://www.w3.org/2000/svg">
<path d="M35.5 35.6343C32.6163 35.6315 29.8098 36.5661 27.5035 38.2971C25.1972 40.0282 23.5159 42.4619 22.7131 45.2316C21.9104 48.0013 22.0295 50.9569 23.0527 53.653C24.0758 56.349 25.9475 58.6395 28.3857 60.1793C28.3968 60.1844 28.405 60.1933 28.4162 60.198C30.5336 61.5443 32.9908 62.2593 35.5 62.2593C38.0092 62.2593 40.4664 61.5443 42.5838 60.198C42.5949 60.1933 42.6033 60.1844 42.6143 60.1793C45.0525 58.6395 46.9242 56.349 47.9474 53.653C48.9705 50.9569 49.0896 48.0013 48.2869 45.2316C47.4841 42.4619 45.8028 40.0282 43.4965 38.2971C41.1902 36.5661 38.3837 35.6315 35.5 35.6343ZM29.9531 58.5395V58.3765C29.9549 56.9059 30.5398 55.496 31.5797 54.4562C32.6195 53.4163 34.0294 52.8313 35.5 52.8296C36.9703 52.8322 38.3797 53.4174 39.4194 54.4571C40.4591 55.4968 41.0443 56.9061 41.0469 58.3765V58.5395C39.3636 59.5225 37.4493 60.0405 35.5 60.0405C33.5507 60.0405 31.6364 59.5225 29.9531 58.5395ZM32.1719 47.2827C32.1719 46.6245 32.3671 45.981 32.7328 45.4337C33.0985 44.8864 33.6182 44.4598 34.2264 44.2079C34.8345 43.956 35.5037 43.8901 36.1493 44.0185C36.7949 44.147 37.3879 44.4639 37.8533 44.9294C38.3188 45.3948 38.6358 45.9878 38.7642 46.6334C38.8926 47.279 38.8267 47.9482 38.5748 48.5563C38.3229 49.1645 37.8963 49.6843 37.349 50.05C36.8017 50.4157 36.1582 50.6108 35.5 50.6108C34.6176 50.6099 33.7717 50.2589 33.1477 49.635C32.5238 49.0111 32.1728 48.1651 32.1719 47.2827ZM43.1354 56.9743C42.9199 55.8116 42.4428 54.7131 41.7402 53.762C41.0376 52.8108 40.128 52.0318 39.0801 51.4839C39.9486 50.7501 40.5706 49.767 40.8619 48.6679C41.1532 47.5688 41.0997 46.4067 40.7085 45.339C40.3174 44.2714 39.6077 43.3497 38.6753 42.6988C37.743 42.0479 36.6331 41.6993 35.4961 41.7001C34.359 41.7009 33.2497 42.0512 32.3183 42.7034C31.3869 43.3557 30.6785 44.2784 30.2889 45.3466C29.8994 46.4149 29.8475 47.577 30.1404 48.6757C30.4333 49.7744 31.0568 50.7565 31.9264 51.4891C30.8772 52.0353 29.9663 52.8134 29.263 53.7645C28.5597 54.7155 28.0824 55.8143 27.8675 56.9774C26.2571 55.4506 25.1415 53.4759 24.6651 51.3085C24.1886 49.1411 24.3731 46.8806 25.1948 44.8192C26.0164 42.7577 27.4375 40.9901 29.2742 39.7447C31.111 38.4992 33.279 37.8333 35.4982 37.8329C37.7173 37.8325 39.8856 38.4977 41.7228 39.7425C43.56 40.9873 44.9816 42.7544 45.804 44.8156C46.6264 46.8767 46.8117 49.1372 46.336 51.3047C45.8603 53.4723 44.7453 55.447 43.1354 56.9743Z" fill="#276EF1"/>
<path d="M28.905 23.3551L27.7278 30.2167C27.6928 30.4207 27.7155 30.6305 27.7936 30.8223C27.8716 31.0141 28.0017 31.1802 28.1692 31.3019C28.3367 31.4236 28.5349 31.496 28.7414 31.5109C28.9479 31.5258 29.1545 31.4826 29.3377 31.3862L35.5 28.1469L41.6622 31.3863C41.8455 31.4827 42.052 31.5259 42.2585 31.511C42.465 31.4961 42.6633 31.4237 42.8308 31.302C42.9983 31.1804 43.1284 31.0142 43.2064 30.8224C43.2844 30.6306 43.3072 30.4208 43.2722 30.2168L42.095 23.3552L47.0808 18.4961C47.2291 18.3516 47.3341 18.1685 47.3838 17.9675C47.4335 17.7665 47.4259 17.5555 47.3619 17.3586C47.2979 17.1616 47.1801 16.9865 47.0218 16.853C46.8634 16.7196 46.6709 16.6331 46.4659 16.6034L39.5767 15.6024L36.4951 9.35896C36.3929 9.18596 36.2474 9.04259 36.0729 8.94299C35.8984 8.8434 35.7009 8.79102 35.5 8.79102C35.2991 8.79102 35.1016 8.8434 34.9271 8.94299C34.7526 9.04259 34.6071 9.18596 34.5049 9.35896L31.4238 15.602L24.5346 16.603C24.3296 16.6327 24.1371 16.7191 23.9788 16.8526C23.8204 16.9861 23.7026 17.1612 23.6386 17.3581C23.5746 17.5551 23.5671 17.766 23.6168 17.967C23.6664 18.1681 23.7714 18.3512 23.9198 18.4957L28.905 23.3551ZM32.3203 17.714C32.4983 17.6881 32.6672 17.6193 32.8127 17.5135C32.9581 17.4077 33.0756 17.2681 33.155 17.1067L35.5 12.3562L37.845 17.1063C37.9244 17.2676 38.0419 17.4072 38.1873 17.513C38.3327 17.6188 38.5017 17.6877 38.6797 17.7136L43.9221 18.4751L40.1281 22.1727C39.9995 22.2984 39.9032 22.4534 39.8477 22.6245C39.7921 22.7955 39.7788 22.9775 39.809 23.1548L40.705 28.3755L36.0161 25.9108C35.8568 25.8273 35.6797 25.7836 35.4999 25.7836C35.32 25.7836 35.1429 25.8273 34.9837 25.9108L30.2948 28.3755L31.1907 23.1548C31.2209 22.9775 31.2077 22.7955 31.1521 22.6245C31.0965 22.4534 31.0003 22.2984 30.8717 22.1727L27.0776 18.4751L32.3203 17.714Z" fill="#276EF1"/>
<path d="M20.113 32.6486L23.784 29.0707C23.9324 28.9263 24.0373 28.7432 24.087 28.5421C24.1367 28.3411 24.1291 28.1302 24.0652 27.9332C24.0012 27.7363 23.8834 27.5611 23.725 27.4277C23.5667 27.2942 23.3741 27.2077 23.1692 27.178L18.0961 26.4405L15.827 21.8443C15.7249 21.6713 15.5794 21.5279 15.4049 21.4283C15.2305 21.3287 15.0331 21.2764 14.8322 21.2764C14.6313 21.2764 14.4339 21.3287 14.2594 21.4283C14.085 21.5279 13.9395 21.6713 13.8373 21.8443L11.5693 26.4405L6.4965 27.1777C6.29156 27.2074 6.09902 27.2939 5.94068 27.4273C5.78234 27.5608 5.66451 27.7359 5.60054 27.9329C5.53656 28.1298 5.52898 28.3408 5.57867 28.5418C5.62836 28.7428 5.73332 28.9259 5.88169 29.0704L9.55261 32.6486L8.68641 37.7C8.65137 37.9041 8.67414 38.1139 8.75214 38.3057C8.83014 38.4975 8.96026 38.6636 9.12778 38.7853C9.29529 38.907 9.49352 38.9794 9.70003 38.9942C9.90654 39.0091 10.1131 38.9659 10.2963 38.8695L14.8329 36.4844L19.3702 38.8695C19.5535 38.9659 19.76 39.0091 19.9665 38.9942C20.173 38.9793 20.3712 38.9069 20.5387 38.7852C20.7062 38.6635 20.8363 38.4974 20.9143 38.3056C20.9923 38.1138 21.0151 37.9041 20.9801 37.7L20.113 32.6486ZM18.1466 31.4671C18.018 31.5927 17.9218 31.7476 17.8662 31.9186C17.8106 32.0896 17.7974 32.2715 17.8275 32.4487L18.4126 35.8602L15.3488 34.2493C15.1896 34.1656 15.0124 34.1219 14.8326 34.1219C14.6527 34.1219 14.4756 34.1656 14.3164 34.2493L11.2532 35.8597L11.8381 32.4487C11.8684 32.2715 11.8551 32.0896 11.7995 31.9186C11.744 31.7476 11.6477 31.5927 11.5191 31.4671L9.04019 29.0503L12.4658 28.5526C12.644 28.5266 12.8131 28.4578 12.9587 28.3519C13.1043 28.246 13.2219 28.1063 13.3014 27.9448L14.8323 24.841L16.3649 27.9448C16.4444 28.1062 16.5618 28.2458 16.7073 28.3516C16.8527 28.4574 17.0217 28.5262 17.1996 28.5521L20.6253 29.0499L18.1466 31.4671Z" fill="#276EF1"/>
<path d="M65.399 27.9331C65.335 27.7363 65.2172 27.5612 65.059 27.4278C64.9008 27.2944 64.7084 27.2078 64.5036 27.1779L59.4307 26.4408L57.1627 21.8445C57.0711 21.6589 56.9294 21.5026 56.7536 21.3933C56.5778 21.284 56.3749 21.2261 56.1679 21.2261C55.9609 21.2261 55.758 21.284 55.5822 21.3933C55.4064 21.5026 55.2646 21.6589 55.173 21.8445L52.9039 26.4408L47.831 27.1779C47.626 27.2076 47.4335 27.2941 47.2752 27.4276C47.1168 27.561 46.999 27.7362 46.935 27.9331C46.871 28.1301 46.8635 28.341 46.9131 28.542C46.9628 28.7431 47.0678 28.9262 47.2162 29.0706L50.8871 32.6488L50.0204 37.7006C49.9855 37.9046 50.0083 38.1144 50.0863 38.3061C50.1644 38.4979 50.2945 38.6639 50.462 38.7856C50.6295 38.9072 50.8277 38.9796 51.0342 38.9944C51.2406 39.0093 51.4472 38.9661 51.6304 38.8698L56.1677 36.4846L60.7043 38.8698C60.8875 38.966 61.094 39.0091 61.3004 38.9941C61.5068 38.9792 61.7049 38.9068 61.8724 38.7851C62.0398 38.6634 62.1698 38.4974 62.2478 38.3056C62.3258 38.1139 62.3486 37.9042 62.3136 37.7002L61.4474 32.6488L65.1184 29.071C65.2666 28.9264 65.3715 28.7432 65.4211 28.5421C65.4707 28.341 65.4631 28.1301 65.399 27.9331ZM59.4811 31.467C59.3524 31.5926 59.2562 31.7475 59.2006 31.9185C59.1451 32.0895 59.1318 32.2714 59.162 32.4486L59.747 35.8596L56.6838 34.2492C56.5246 34.1654 56.3475 34.1216 56.1676 34.1216C55.9877 34.1216 55.8106 34.1654 55.6514 34.2492L52.5875 35.8601L53.1724 32.4491C53.2026 32.2719 53.1893 32.09 53.1338 31.9191C53.0782 31.7481 52.982 31.5932 52.8533 31.4676L50.3746 29.0511L53.8002 28.5533C53.9782 28.5274 54.1471 28.4586 54.2926 28.3528C54.438 28.247 54.5555 28.1074 54.6349 27.9461L56.1677 24.8417L57.6986 27.9451C57.7782 28.1064 57.8958 28.246 58.0413 28.3518C58.1868 28.4576 58.3559 28.5264 58.5339 28.5523L61.9595 29.0501L59.4811 31.467Z" fill="#276EF1"/>
</svg>
