<svg width="73" height="92" viewBox="0 0 73 92" fill="none" xmlns="http://www.w3.org/2000/svg">
<path d="M68.1029 34.4821C69.2486 34.4821 69.2486 36.2057 68.1029 36.2057H62.8307C61.7763 36.2057 61.7763 34.4821 62.8307 34.4821H68.1029ZM58.5115 12.0549C59.2821 11.2843 60.5292 12.5314 59.6572 13.3019L55.916 16.9418C55.1454 17.7124 53.9997 16.5565 54.7703 15.7961L58.5115 12.0549ZM13.3631 13.3019C12.5013 12.5314 13.7483 11.2843 14.5088 12.0549L18.25 15.7961C19.0206 16.5667 17.8647 17.7124 17.1043 16.9418L13.3631 13.3019ZM35.699 3.23403C35.699 2.08833 37.3314 2.08833 37.3314 3.23403V8.415C37.3314 9.56069 35.699 9.56069 35.699 8.415V3.23403ZM45.3817 64.1079V61.1372H27.6488V64.1079H45.3817ZM45.3817 59.5049V57.6799C45.3817 57.1019 44.9051 56.6254 44.3272 56.6254H37.3314V59.5049H45.3817ZM35.699 56.6356H28.7032C28.1253 56.6356 27.6488 57.1121 27.6488 57.69V59.515H35.699V56.6356ZM28.3179 65.8417L30.2342 68.9137H42.7963L44.7125 65.8417H28.3179ZM47.014 57.69V64.9799C47.014 65.1725 47.014 65.2637 46.9228 65.4564L44.0433 70.1507C43.8507 70.4346 43.5668 70.6272 43.2728 70.6272H29.7576C29.4738 70.6272 29.1797 70.4346 29.0885 70.1507L26.1178 65.4564C26.0265 65.3651 26.0265 65.1725 26.0265 64.9799V57.69C26.0265 56.9194 26.3104 56.2503 26.7971 55.7737C21.6161 53.2796 17.4997 48.9706 15.1982 43.6983C15.1069 43.2218 15.2894 42.7351 15.6747 42.5526L20.1764 40.7276C18.8381 39.6732 15.766 39.5819 14.5189 39.5819C14.0424 39.5819 13.6571 39.1967 13.6571 38.7201V30.9537C13.6571 30.4772 14.0424 30.0919 14.5189 30.0919C21.7074 30.0919 22.6706 27.6992 17.591 22.6094C17.3071 22.3256 17.3071 21.7476 17.591 21.4637L23.1471 15.9076C23.431 15.6237 24.0089 15.6237 24.2928 15.9076C29.2811 21.2812 31.7753 19.5475 31.7753 12.8356C31.7753 12.359 32.1606 11.9737 32.6371 11.9737H40.4035C40.88 11.9737 41.2653 12.359 41.2653 12.8356C41.2653 20.024 43.6581 20.9872 48.7478 15.9076C49.0317 15.6237 49.6096 15.6237 49.8935 15.9989L55.4496 21.4637C55.7335 21.7476 55.7335 22.3256 55.4496 22.6094C54.4864 23.4712 52.4789 25.7728 52.2863 27.4051L56.6967 25.5801C57.1732 25.3875 57.6599 25.5801 57.8424 26.0567C60.8131 33.3465 59.9513 41.5894 55.3482 48.1087C53.0467 51.3735 49.8833 54.0501 46.2435 55.7737C46.72 56.2503 47.014 56.9194 47.014 57.69ZM29.271 54.9119H35.699V44.9454C33.5901 44.7528 31.6739 43.9822 29.9503 42.5526C29.1797 41.8835 30.2342 40.535 31.096 41.3056C34.2593 43.9924 39.055 43.891 42.1169 41.1129C43.6479 39.7746 44.6111 37.8583 44.895 35.7393C44.9863 34.6849 46.72 34.8775 46.5274 35.9319C46.2435 38.5174 45.0876 40.7276 43.2626 42.36C41.539 43.891 39.4301 44.7528 37.3213 44.9454V54.9119H43.7493C48.0685 53.381 51.7083 50.5015 54.2938 46.669C58.035 41.0115 58.8968 33.8231 56.5953 27.395L41.0625 33.8129C41.1538 34.1982 41.1538 34.4821 41.1538 34.8674C41.1538 37.4528 39.0449 39.4704 36.4594 39.4704C34.8271 39.4704 33.3874 38.6999 32.5256 37.3615L17.0942 43.7896C19.4971 48.9604 23.9075 52.9856 29.271 54.9119ZM36.4594 30.1731C38.1831 30.1731 39.6228 31.0349 40.4846 32.2819L43.9318 30.8422C43.2626 29.5951 42.2994 28.5407 41.1538 27.7701C37.889 25.57 33.3874 26.0465 30.5079 28.8246C28.9769 30.3556 28.1151 32.4644 28.1151 34.8674C28.1151 35.6379 28.2064 36.4997 28.399 37.2601L31.9476 35.8204C31.8564 35.5365 31.8564 35.1512 31.8564 34.8572C31.8665 32.2819 33.874 30.1731 36.4594 30.1731ZM36.4594 31.8054C34.8271 31.8054 33.4888 33.1437 33.4888 34.8775C33.4888 36.5099 34.8271 37.8482 36.4594 37.8482C38.1831 37.8482 39.5315 36.5099 39.5315 34.8775C39.5315 33.1437 38.1932 31.8054 36.4594 31.8054ZM45.4729 30.1731L50.5525 28.0642C50.2686 25.864 52.2761 23.4611 53.6246 22.0214L49.3054 17.7022C43.6479 22.9744 39.8154 21.3421 39.5214 13.6771H33.3874C33.1947 21.3421 29.3622 22.9744 23.7047 17.7022L19.3856 22.0214C24.6578 27.6789 23.0254 31.5114 15.3604 31.8054V37.9394C17.3781 37.9394 20.44 38.3247 21.7885 40.0483L26.8681 37.9394C26.5842 36.885 26.3915 35.9218 26.3915 34.8674C26.3915 31.9879 27.5372 29.4937 29.3622 27.6789C32.7182 24.3229 38.0817 23.745 42.1169 26.4318C43.5567 27.395 44.7125 28.6421 45.4729 30.1731ZM46.72 50.0149C46.4361 50.4001 45.9494 50.4001 45.5743 50.1061C45.189 49.7208 45.189 49.2443 45.4831 48.859L46.3449 47.9972C46.6288 47.6119 46.8214 47.3281 47.1154 47.034C47.3993 46.6487 47.9772 46.6487 48.3625 46.9428C48.6464 47.2267 48.7478 47.8046 48.4538 48.0885C48.1699 48.4737 47.8758 48.7576 47.5919 49.0517L46.72 50.0149ZM50.8465 45.0367C50.5626 45.4219 50.076 45.5132 49.7008 45.2293C49.3257 44.9454 49.2243 44.4587 49.417 44.0836C50.5626 42.4512 51.4346 40.829 51.9111 39.1967C52.489 37.5643 52.6817 35.8407 52.5803 33.9244C52.5803 33.4479 52.8642 33.0626 53.3508 33.0626C53.8274 33.0626 54.2126 33.3465 54.314 33.8332C54.4053 35.9421 54.1214 37.8583 53.5435 39.6833C52.9554 41.5793 52.0936 43.3029 50.8465 45.0367ZM4.82611 36.2158C3.77167 36.2158 3.77167 34.4922 4.82611 34.4922H10.0983C11.244 34.4922 11.244 36.2158 10.0983 36.2158H4.82611Z" fill="#276EF1"/>
</svg>
