<svg width="84" height="84" viewBox="0 0 84 84" fill="none" xmlns="http://www.w3.org/2000/svg">
<path d="M82.8883 39.5153C84.3706 39.5153 84.3706 41.6366 82.8883 41.6366H76.0673C74.7031 41.6366 74.7031 39.5153 76.0673 39.5153H82.8883ZM70.4793 11.9135C71.4762 10.9652 73.0897 12.5 71.9616 13.4484L67.1213 17.928C66.1244 18.8764 64.6421 17.4539 65.639 16.518L70.4793 11.9135ZM12.0679 13.4484C10.953 12.5 12.5664 10.9652 13.5502 11.9135L18.3905 16.518C19.3874 17.4663 17.892 18.8764 16.9082 17.928L12.0679 13.4484ZM40.9654 1.05753C40.9654 -0.352509 43.0773 -0.352509 43.0773 1.05753V7.43388C43.0773 8.84391 40.9654 8.84391 40.9654 7.43388V1.05753ZM53.4924 75.9765V72.3204H30.5502V75.9765H53.4924ZM53.4924 70.3114V68.0654C53.4924 67.3541 52.8759 66.7676 52.1282 66.7676H43.0773V70.3114H53.4924ZM40.9654 66.7801H31.9144C31.1667 66.7801 30.5502 67.3666 30.5502 68.0778V70.3239H40.9654V66.7801ZM31.416 78.1103L33.8951 81.8912H50.1475L52.6267 78.1103H31.416ZM55.6043 68.0778V77.0496C55.6043 77.2867 55.6043 77.399 55.4862 77.6361L51.7609 83.4135C51.5117 83.7629 51.1444 84 50.764 84H33.2786C32.9113 84 32.5309 83.7629 32.4129 83.4135L28.5695 77.6361C28.4515 77.5238 28.4515 77.2867 28.4515 77.0496V68.0778C28.4515 67.1295 28.8187 66.3059 29.4484 65.7195C22.7454 62.6498 17.4198 57.3466 14.4422 50.8579C14.3241 50.2715 14.5602 49.6725 15.0587 49.4479L20.8828 47.2018C19.1513 45.9041 15.1767 45.7918 13.5633 45.7918C12.9468 45.7918 12.4483 45.3176 12.4483 44.7312V35.1729C12.4483 34.5864 12.9468 34.1122 13.5633 34.1122C22.8635 34.1122 24.1096 31.1674 17.5378 24.9033C17.1706 24.5539 17.1706 23.8427 17.5378 23.4933L24.7261 16.6553C25.0934 16.3059 25.8411 16.3059 26.2084 16.6553C32.6621 23.2687 35.889 21.1349 35.889 12.8744C35.889 12.2879 36.3874 11.8137 37.0039 11.8137H47.0518C47.6683 11.8137 48.1668 12.2879 48.1668 12.8744C48.1668 21.7214 51.2625 22.9068 57.8474 16.6553C58.2146 16.3059 58.9623 16.3059 59.3296 16.7676L66.5179 23.4933C66.8852 23.8427 66.8852 24.5539 66.5179 24.9033C65.2718 25.964 62.6745 28.7965 62.4253 30.8055L68.1313 28.5594C68.7478 28.3224 69.3775 28.5594 69.6136 29.1459C73.457 38.1177 72.342 48.2625 66.3867 56.286C63.4091 60.3039 59.3165 63.5982 54.6074 65.7195C55.2239 66.3059 55.6043 67.1295 55.6043 68.0778ZM32.649 64.6588H40.9654V52.3928C38.237 52.1557 35.7578 51.2073 33.5279 49.4479C32.5309 48.6244 33.8951 46.9648 35.0101 47.9131C39.1027 51.2198 45.3072 51.095 49.2686 47.676C51.2493 46.0289 52.4955 43.6705 52.8628 41.0626C52.9808 39.7648 55.2239 40.0019 54.9747 41.2997C54.6074 44.4816 53.112 47.2018 50.7509 49.2108C48.5209 51.095 45.7925 52.1557 43.0641 52.3928V64.6588H51.3805C56.9685 62.7746 61.6776 59.2308 65.0225 54.5141C69.8628 47.5512 70.9778 38.7042 68.0002 30.793L47.9044 38.6917C48.0225 39.1659 48.0225 39.5153 48.0225 39.9895C48.0225 43.1714 45.2941 45.6545 41.9492 45.6545C39.8373 45.6545 37.9746 44.7062 36.8597 43.0591L16.8951 50.9703C20.0039 57.3341 25.7099 62.288 32.649 64.6588ZM41.9492 34.2121C44.1791 34.2121 46.0418 35.2727 47.1567 36.8075L51.6166 35.0356C50.7509 33.5008 49.5047 32.2031 48.0225 31.2547C43.7987 28.547 37.9746 29.1334 34.2493 32.5525C32.2686 34.4367 31.1536 37.0321 31.1536 39.9895C31.1536 40.9378 31.2717 41.9984 31.5209 42.9343L36.112 41.1624C35.9939 40.813 35.9939 40.3388 35.9939 39.977C36.007 36.8075 38.6043 34.2121 41.9492 34.2121ZM41.9492 36.221C39.8373 36.221 38.1058 37.8682 38.1058 40.0019C38.1058 42.0109 39.8373 43.658 41.9492 43.658C44.1791 43.658 45.9237 42.0109 45.9237 40.0019C45.9237 37.8682 44.1922 36.221 41.9492 36.221ZM53.6105 34.2121L60.1822 31.6166C59.815 28.9088 62.4122 25.9515 64.1568 24.1796L58.5688 18.8639C51.2494 25.3525 46.291 23.3436 45.9106 13.9101H37.9746C37.7254 23.3436 32.7671 25.3525 25.4476 18.8639L19.8596 24.1796C26.6806 31.1424 24.5687 35.8592 14.652 36.221V43.7703C17.2624 43.7703 21.2238 44.2445 22.9684 46.3658L29.5402 43.7703C29.1729 42.4726 28.9237 41.2872 28.9237 39.9895C28.9237 36.4456 30.4059 33.376 32.7671 31.1424C37.1089 27.0121 44.0479 26.3009 49.2686 29.6076C51.1313 30.793 52.6267 32.3278 53.6105 34.2121ZM55.2239 58.6319C54.8566 59.106 54.227 59.106 53.7416 58.7442C53.2432 58.27 53.2432 57.6835 53.6236 57.2093L54.7386 56.1487C55.1058 55.6745 55.3551 55.3251 55.7355 54.9633C56.1028 54.4891 56.8504 54.4891 57.3489 54.851C57.7162 55.2004 57.8474 55.9116 57.467 56.261C57.0997 56.7352 56.7193 57.0846 56.352 57.4464L55.2239 58.6319ZM60.5626 52.5051C60.1954 52.9792 59.5657 53.0915 59.0804 52.7422C58.595 52.3928 58.4639 51.7938 58.7131 51.3321C60.1954 49.3231 61.3234 47.3266 61.94 45.3176C62.6876 43.3086 62.9369 41.1874 62.8057 38.829C62.8057 38.2425 63.173 37.7683 63.8026 37.7683C64.4191 37.7683 64.9176 38.1177 65.0488 38.7167C65.1668 41.3121 64.7995 43.6705 64.0518 45.9166C63.291 48.25 62.1761 50.3713 60.5626 52.5051ZM1.02315 41.6491C-0.34105 41.6491 -0.34105 39.5278 1.02315 39.5278H7.84415C9.32641 39.5278 9.32641 41.6491 7.84415 41.6491H1.02315Z" fill="#276EF1"/>
</svg>
