<svg width="64" height="67" viewBox="0 0 64 67" fill="none" xmlns="http://www.w3.org/2000/svg">
<path d="M54.9999 49.9008L55.8999 48.8008H53.3999L47.8999 56.6008L44.8999 53.0008L43.3999 54.2008L47.9999 59.9008L54.9999 49.9008Z" fill="#276EF1"/>
<path d="M32.5002 40.9004H16.2002V42.9004H32.5002V40.9004Z" fill="#276EF1"/>
<path d="M11.6001 39.9004H7.6001V43.9004H11.6001V39.9004Z" fill="#276EF1"/>
<path d="M32.5002 50.9004H16.2002V52.9004H32.5002V50.9004Z" fill="#276EF1"/>
<path d="M11.6001 49.9004H7.6001V53.9004H11.6001V49.9004Z" fill="#276EF1"/>
<path d="M61.2 41.4V39C61.2 32.8 56.2 27.8 50 27.8H49.5C49.4 27.8 49.3 27.8 49.3 27.8V17.6V16.6V11H42.3V9.2V7.2V0H0V7.2V9.2V61H34.1V59H2V9.2H40.3V32.6C39 34.4 38.3 36.6 38.3 39V41C36.6 41.5 35.3 43.2 35.3 45.1V62.4C35.3 64.8 37.2 66.7 39.5 66.7H44.3V64.7H39.5C38.3 64.7 37.3 63.7 37.3 62.4V45.1C37.3 43.8 38.3 42.8 39.5 42.8H40.3H59.1C60.3 42.8 61.3 43.8 61.3 45.1V48.8H63.3V45.1C63.2 43.5 62.4 42.2 61.2 41.4ZM2 7.2V2H40.3V7.2H2ZM42.2 30.4V18.6H47.2V27.9C45.4 28.4 43.7 29.2 42.2 30.4ZM47.2 13.1V16.7H42.2V13.1H47.2ZM54.2 40.8H45.2V38.9C45.2 36.6 47.1 34.8 49.5 34.8H49.9C52.3 34.8 54.2 36.6 54.2 38.9V40.8ZM56.2 40.8V38.9C56.2 35.5 53.4 32.8 49.9 32.8H49.5C46 32.8 43.2 35.5 43.2 38.9V40.8H40.2V39C40.2 33.9 44.3 29.8 49.4 29.8H49.9C55 29.8 59.1 33.9 59.1 39V40.8C59 40.8 58.9 40.8 58.9 40.8H56.2Z" fill="#276EF1"/>
<path d="M61.2002 62.4008C61.2002 63.7008 60.2002 64.8008 58.9002 64.8008H52.2002V66.8008H58.9002C61.3002 66.8008 63.2002 64.8008 63.2002 62.4008V57.8008H61.2002V62.4008Z" fill="#276EF1"/>
<path d="M63.2002 51.8008H61.2002V55.8008H63.2002V51.8008Z" fill="#276EF1"/>
<path d="M50.2002 64.8008H46.2002V66.8008H50.2002V64.8008Z" fill="#276EF1"/>
<path d="M8.2002 3.60059H4.2002V5.60059H8.2002V3.60059Z" fill="#276EF1"/>
<path d="M34.1003 33.2002V30.7002C35.2003 30.3002 35.9003 29.2002 35.9003 28.0002V24.2002C35.9003 23.0002 35.1003 21.9002 34.1003 21.5002V16.5002H26.0003V15.6002C26.0003 14.0002 24.7003 12.7002 23.1003 12.7002H11.2003C9.10029 12.7002 7.40029 14.4002 7.30029 16.5002V18.5002V33.2002C7.30029 34.8002 8.60029 36.1002 10.2003 36.1002H31.2003C32.8003 36.1002 34.1003 34.8002 34.1003 33.2002ZM33.0003 23.3002C33.5003 23.3002 33.9003 23.7002 33.9003 24.2002V28.0002C33.9003 28.5002 33.5003 28.9002 33.0003 28.9002H24.5003V23.3002H33.0003ZM11.2003 14.7002H23.1003C23.6003 14.7002 24.0003 15.1002 24.0003 15.6002V16.5002H9.30029C9.30029 15.5002 10.1003 14.7002 11.2003 14.7002ZM31.2003 34.1002H10.2003C9.70029 34.1002 9.30029 33.7002 9.30029 33.2002V18.5002H26.0003H32.1003V21.3002H22.5003V30.9002H32.1003V33.2002C32.1003 33.7002 31.7003 34.1002 31.2003 34.1002Z" fill="#276EF1"/>
</svg>
