<svg width="48" height="59" viewBox="0 0 48 59" fill="none" xmlns="http://www.w3.org/2000/svg">
<rect x="0.205078" y="21.0244" width="32.3174" height="37.6679" rx="2" fill="#E9F0FE"/>
<path d="M5.63465 55.5031H32.1648C33.9008 55.5031 35.3127 54.0955 35.3127 52.366V49.3728H38.3059C40.036 49.3728 41.443 47.9609 41.443 46.2254V43.229H44.4437C46.176 43.229 47.5852 41.8198 47.5852 40.0881V11.1973C47.635 10.7516 47.4614 10.4241 47.1695 10.2025C34.2201 -2.74335 38.4362 1.47166 37.5697 0.6054C37.3699 0.405596 37.0338 0.286133 36.7861 0.286133H17.9158C16.184 0.286133 14.7748 1.69534 14.7748 3.4276V6.42992H11.7757C10.0462 6.42992 8.63914 7.83698 8.63914 9.56653V12.5602H5.63465C3.90509 12.5602 2.49805 13.9721 2.49805 15.7076V52.366C2.49804 54.0955 3.90509 55.5031 5.63465 55.5031ZM43.816 9.97533H38.9358C38.3609 9.97533 37.8933 9.50775 37.8933 8.93284V4.05805C38.0048 4.16948 44.2092 10.3682 43.816 9.97533ZM17.9158 2.49514H35.6843V8.93284C35.6843 10.7255 37.1431 12.1843 38.9358 12.1843H45.3762V40.0881C45.3762 40.602 44.9577 41.02 44.4437 41.02H17.9158C17.4018 41.02 16.9838 40.602 16.9838 40.0881C16.9838 30.7297 16.9838 10.957 16.9838 3.4276C16.9838 2.91364 17.4018 2.49514 17.9158 2.49514ZM10.8481 9.56654C10.8481 9.0639 11.2731 8.63894 11.7757 8.63894H14.7748V40.0881C14.7748 41.8198 16.184 43.229 17.9157 43.229H39.234V46.2254C39.234 46.7426 38.8177 47.1638 38.3059 47.1638H11.7757C11.2645 47.1638 10.8481 46.7426 10.8481 46.2254V9.56654V9.56654ZM4.70704 15.7076C4.70704 15.1904 5.12338 14.7692 5.63464 14.7692H8.63912V46.2254C8.63912 47.9609 10.0462 49.3728 11.7757 49.3728H33.1037V52.366C33.1037 52.8778 32.6825 53.2941 32.1648 53.2941H5.63465C5.13202 53.2941 4.70705 52.8691 4.70705 52.366V15.7076H4.70704Z" fill="#276EF1"/>
<path d="M20.1182 17.4685H42.2454C42.8554 17.4685 43.3499 16.974 43.3499 16.364C43.3499 15.7541 42.8554 15.2595 42.2454 15.2595H20.1182C19.5082 15.2595 19.0137 15.7541 19.0137 16.364C19.0137 16.974 19.5082 17.4685 20.1182 17.4685Z" fill="#276EF1"/>
<path d="M20.1182 24.1951H42.2454C42.8554 24.1951 43.3499 23.7005 43.3499 23.0906C43.3499 22.4806 42.8554 21.9861 42.2454 21.9861H20.1182C19.5082 21.9861 19.0137 22.4806 19.0137 23.0906C19.0137 23.7005 19.5082 24.1951 20.1182 24.1951Z" fill="#276EF1"/>
<path d="M20.1182 30.9226H42.2454C42.8554 30.9226 43.3499 30.4281 43.3499 29.8181C43.3499 29.2082 42.8554 28.7136 42.2454 28.7136H20.1182C19.5082 28.7136 19.0137 29.2082 19.0137 29.8181C19.0137 30.4281 19.5082 30.9226 20.1182 30.9226Z" fill="#276EF1"/>
<path d="M20.1182 37.6492H31.2004C31.8104 37.6492 32.3049 37.1546 32.3049 36.5447C32.3049 35.9347 31.8104 35.4402 31.2004 35.4402H20.1182C19.5082 35.4402 19.0137 35.9347 19.0137 36.5447C19.0137 37.1546 19.5082 37.6492 20.1182 37.6492Z" fill="#276EF1"/>
<path d="M24.3677 13.0126C26.7585 13.0126 28.7037 11.0673 28.7037 8.67655C28.7037 6.2858 26.7585 4.34106 24.3677 4.34106C21.977 4.34106 20.0322 6.2858 20.0322 8.67655C20.0322 11.0673 21.977 13.0126 24.3677 13.0126ZM24.3677 5.99782C25.8449 5.99782 27.047 7.19939 27.047 8.67655C27.047 10.1537 25.8449 11.3558 24.3677 11.3558C22.8906 11.3558 21.689 10.1537 21.689 8.67655C21.689 7.19939 22.8906 5.99782 24.3677 5.99782Z" fill="#276EF1"/>
</svg>
