<svg width="152" height="144" viewBox="0 0 152 144" fill="none" xmlns="http://www.w3.org/2000/svg">
<path d="M36.2909 77.6953C36.2913 68.5784 36.2858 59.6244 36.2962 50.6704C36.2987 48.4532 37.6674 47.5697 39.7693 48.3526C40.2751 48.541 40.4015 48.9205 40.4405 49.355C40.4937 49.9481 40.5031 50.5467 40.5031 51.1429C40.5038 65.0895 40.5013 79.036 40.4975 92.9825C40.4969 95.2119 38.9963 96.201 36.943 95.3338C36.1404 94.9949 36.3123 94.2679 36.3101 93.6498C36.2916 88.386 36.2945 83.1221 36.2909 77.6953Z" fill="black"/>
<path d="M46.4083 68.6547C43.7524 68.6403 43.7563 68.6403 43.7571 66.1195C43.7587 60.8544 43.7926 55.5889 43.7319 50.3244C43.7144 48.8075 44.1691 48.2095 45.7782 48.2575C49.3574 48.3644 52.9437 48.3518 56.5239 48.2589C58.0508 48.2192 58.5948 48.6506 58.6088 50.2564C58.6241 52.0113 57.6823 52.0256 56.4376 52.0054C54.2128 51.9692 51.9848 52.0522 49.7622 51.9717C48.3983 51.9223 47.9676 52.4597 47.9757 53.7804C47.992 56.4074 47.9342 56.4078 50.5142 56.4131C51.5455 56.4152 52.5787 56.4563 53.6076 56.4085C54.7153 56.357 55.0424 56.9191 54.9661 57.9086C54.8954 58.8235 55.2981 60.0096 53.7319 60.0424C52.3756 60.0707 51.0178 60.1053 49.6622 60.0731C48.5251 60.0461 48.0088 60.4565 47.9671 61.6727C47.8539 64.9726 47.8101 64.9698 51.1803 64.9703C53.2429 64.9706 55.3066 65.0178 57.3678 64.9653C58.9481 64.925 58.8454 65.9421 58.8917 67.0255C58.9421 68.204 58.5353 68.683 57.3135 68.6661C53.7317 68.6167 50.1488 68.6523 46.4083 68.6547Z" fill="black"/>
<path d="M29.0009 83.8851C29.0011 72.7547 29.0007 61.7873 29.0024 50.8198C29.0028 48.2969 29.6028 47.8284 32.1099 48.3065C32.6776 48.4147 32.9992 48.6777 33.0484 49.2392C33.0862 49.6709 33.0926 50.1065 33.0926 50.5403C33.0936 64.7111 33.0939 78.882 33.0893 93.0528C33.0885 95.235 31.6833 96.1401 29.6276 95.3322C28.8552 95.0286 29.0176 94.3797 29.014 93.8209C28.9932 90.5634 29.0021 87.3057 29.0009 83.8851Z" fill="black"/>
<path d="M74.2563 84.8911C74.2156 82.078 74.2171 79.4218 74.1196 76.7693C74.057 75.0625 74.922 74.7288 76.4248 74.728C78.0152 74.7273 78.1546 75.559 78.108 76.7986C78.0452 78.4661 78.0924 80.1378 78.0924 82.1164C80.302 80.6969 82.4172 80.1125 84.707 81.0747C85.9455 81.5951 86.9123 82.4209 87.606 83.5804C89.4512 86.6646 89.0346 91.4692 86.6944 93.9305C84.6134 96.1189 81.7816 96.2859 78.3701 94.4211C77.7752 95.2762 75.5479 95.7971 74.6611 95.2898C74.0475 94.9388 74.2518 94.3454 74.2503 93.8321C74.2422 90.9046 74.2526 87.9771 74.2563 84.8911ZM78.0454 87.9975C78.1184 90.5792 78.7515 91.8333 80.2814 92.1968C81.5579 92.5001 82.8405 92.4062 83.6405 91.2172C84.8197 89.4646 84.7728 87.5219 84.016 85.6382C83.5201 84.4038 82.3945 83.9474 81.1023 83.9991C79.294 84.0714 78.2631 85.3512 78.0454 87.9975Z" fill="black"/>
<path d="M81.1927 60.563C81.2513 62.7639 81.226 62.7931 79.1549 62.7978C76.9313 62.8028 74.7074 62.7802 72.4843 62.8155C71.9458 62.8241 71.1504 62.5256 70.9826 63.3522C70.8395 64.0574 71.3779 64.5621 71.9324 64.9312C73.6416 66.0687 76.0472 65.6991 77.3408 64.1242C77.5079 63.9207 77.6772 63.7191 77.8765 63.4793C78.9525 63.9173 80.1148 64.0095 80.9791 64.7897C80.0673 67.9605 76.2008 69.4803 71.7899 68.6063C68.6251 67.9791 66.3056 64.5998 66.5923 61.1072C66.9614 56.6108 69.6922 53.9165 73.9819 53.8164C78.0509 53.7214 80.4692 55.9445 81.1927 60.563ZM74.7831 59.8051C75.4566 59.7154 76.1723 60.026 76.8111 59.6221C76.726 57.9351 75.8661 57.0969 74.192 57.0405C72.3884 56.9796 71.1125 57.9915 70.8024 59.8045C72.0402 59.8045 73.2659 59.8045 74.7831 59.8051Z" fill="black"/>
<path d="M103.181 65.5119C103.744 65.2833 104.186 65.0861 104.61 64.8538C105.203 64.528 105.285 63.3969 106.153 63.6191C107.111 63.8644 108.163 64.0493 108.949 64.9169C107.74 67.7702 105.367 68.6751 102.573 68.862C99.3392 69.0781 96.5097 67.3673 95.3961 64.579C94.163 61.4923 94.9831 57.6259 97.3033 55.5841C99.5919 53.5705 103.081 53.2317 105.818 54.7573C108.103 56.031 109.572 59.3554 109.034 61.8887C108.843 62.786 108.22 62.7871 107.564 62.791C105.395 62.804 103.226 62.7922 101.057 62.8083C100.47 62.8126 99.8631 62.6962 99.3043 62.9848C99.3359 64.8925 100.374 65.593 103.181 65.5119ZM100.564 57.4117C99.7384 57.8776 99.0984 58.4632 99.1499 59.6865C101.074 59.7955 102.941 59.9652 104.837 59.5758C104.288 57.3127 103.05 56.6799 100.564 57.4117Z" fill="black"/>
<path d="M58.6893 93.6326C57.3915 90.6869 58.4235 88.3072 61.3772 87.4188C62.9798 86.9367 64.6476 86.6754 66.2691 86.2504C66.8588 86.0958 67.7108 85.9872 67.5939 85.1101C67.4968 84.3812 66.7789 84.1013 66.1237 84.0281C64.6324 83.8615 63.3244 83.8909 62.3884 85.5396C61.5063 87.0932 59.9141 86.033 58.5493 86.1893C58.4625 84.2478 59.2149 82.9156 60.5954 82.0034C63.2569 80.2446 66.1143 80.1764 68.9538 81.4857C70.8272 82.3494 71.5005 84.0857 71.5434 86.0408C71.5992 88.5879 71.5764 91.1372 71.5534 93.6853C71.5469 94.3959 71.7684 95.4359 70.6033 95.357C69.5166 95.2834 68.0182 96.1709 67.432 94.1933C65.7612 95.7336 63.7628 95.9796 61.6739 95.6299C60.4665 95.4279 59.4362 94.82 58.6893 93.6326ZM62.2998 90.8228C61.9648 91.7298 62.3443 92.3158 63.1887 92.5933C64.4226 92.9988 65.5698 92.7096 66.534 91.8847C67.4923 91.0649 67.8979 90.0187 67.5166 88.559C65.7857 89.3852 63.7416 89.0284 62.2998 90.8228Z" fill="black"/>
<path d="M119.895 64.336C119.894 62.8194 119.921 61.4639 119.884 60.1101C119.835 58.3297 119.156 57.428 117.777 57.3354C116.178 57.228 115.411 58.2189 115.07 59.6088C114.678 61.2074 114.948 62.846 114.882 64.4655C114.856 65.1147 114.881 65.7658 114.88 66.4161C114.877 68.6412 114.831 68.6075 112.612 68.6785C111.159 68.7248 110.736 68.1573 110.762 66.7715C110.832 63.1964 110.765 59.6189 110.798 56.0428C110.805 55.3126 110.455 54.1639 111.728 54.1996C112.907 54.2327 114.506 53.3414 115.088 55.3863C116.576 54.0269 118.264 53.4651 120.204 53.9634C122.58 54.5737 123.818 56.3463 123.953 59.5789C124.06 62.1214 123.941 64.6725 123.999 67.2181C124.033 68.7226 123.072 68.689 122.051 68.6493C121.066 68.611 119.848 68.9391 119.898 67.2614C119.926 66.3411 119.898 65.4192 119.895 64.336Z" fill="black"/>
<path d="M98.5419 81.1249C99.9498 81.7538 101.181 82.4011 101.8 83.7716C99.9953 85.473 99.4966 85.5415 97.7094 84.4451C96.7317 83.8451 95.6629 83.7538 94.5727 84.0492C94.0669 84.1863 93.7198 84.5383 93.732 85.1097C93.743 85.6266 94.1044 85.8914 94.5442 86.0015C95.6477 86.2776 96.7679 86.4871 97.869 86.7705C100.782 87.5203 102.314 89.1514 102.168 91.3061C102.012 93.6178 100.161 95.3822 97.3043 95.7524C94.3335 96.1373 91.7547 95.358 89.8072 92.9464C91.2633 91.1291 92.2864 90.907 93.9644 91.946C94.9821 92.5759 96.0746 92.7967 97.2297 92.4204C97.714 92.2628 98.09 91.9388 98.0742 91.355C98.0603 90.8348 97.7021 90.57 97.2687 90.4532C96.1194 90.1436 94.9504 89.9045 93.8034 89.5866C91.1382 88.848 89.6528 87.3406 89.6502 85.4223C89.6472 83.2718 91.3586 81.4471 93.9507 80.7517C95.4934 80.3379 96.9566 80.6218 98.5419 81.1249Z" fill="black"/>
<path d="M43.7604 79.3329C43.7598 78.5753 43.7541 77.9788 43.7596 77.3822C43.7798 75.217 43.9306 75.1503 46.0695 75.0634C47.6744 74.9982 48.119 75.6709 48.0931 77.1802C48.0187 81.5174 48.1034 85.8572 48.031 90.1944C48.0081 91.5665 48.5055 91.9972 49.8263 91.9379C51.7205 91.8527 53.6233 91.9697 55.5187 91.8993C56.9073 91.8476 56.9219 92.6704 56.93 93.6779C56.9385 94.7251 56.8133 95.4521 55.4691 95.4284C52.1622 95.37 48.8518 95.3499 45.5462 95.4388C44.037 95.4794 43.7263 94.8124 43.7407 93.4849C43.7914 88.8217 43.7604 84.1576 43.7604 79.3329Z" fill="black"/>
<path d="M89.8642 58.6614C90.1059 57.9206 90.3104 57.3033 90.5113 56.6848C91.427 53.8642 91.8954 53.6231 95.0104 54.3728C95.1661 54.8216 94.9794 55.2217 94.8321 55.6283C93.4486 59.452 92.0363 63.2658 90.7005 67.1062C90.2994 68.2597 89.6588 68.7175 88.4288 68.6758C87.2722 68.6364 86.3727 68.5794 85.8885 67.2395C84.5066 63.4152 82.9905 59.6396 81.5491 55.8364C81.3834 55.3994 81.0897 54.9531 81.3061 54.4391C84.2563 53.5251 84.9992 53.8942 85.9538 56.6953C86.6508 58.7402 87.3751 60.7759 88.1609 63.0267C89.0898 61.571 89.3032 60.1156 89.8642 58.6614Z" fill="black"/>
<path d="M60.6726 56.8459C60.6791 54.3492 60.7334 52.0142 60.6772 49.6819C60.6349 47.9197 61.7856 48.0429 62.9705 48.0038C64.1838 47.9637 64.9413 48.2239 64.9209 49.6744C64.8374 55.5833 64.7998 61.4931 64.7779 67.4026C64.7744 68.327 64.3814 68.6056 63.5112 68.659C60.8172 68.8242 60.684 68.7216 60.6839 65.9643C60.6838 62.9792 60.6768 59.994 60.6726 56.8459Z" fill="black"/>
</svg>
