<svg width="142" height="142" viewBox="0 0 142 142" fill="none" xmlns="http://www.w3.org/2000/svg">
<circle opacity="0.1" cx="60.5779" cy="81.4216" r="60.5779" fill="#276EF1"/>
<path d="M72.6117 134.274C60.2836 134.281 48.2087 130.775 37.8017 124.167C27.3947 117.558 19.0869 108.12 13.8516 96.9586C8.61635 85.7974 6.67052 73.3752 8.24215 61.1477C9.81378 48.9202 14.8378 37.3939 22.7254 27.9194L26.485 31.6432L30.1036 16.8555L15.3539 20.6218L19.532 24.7596C8.88214 37.4221 3.11035 53.475 3.25865 70.02C3.40695 86.565 9.46557 102.512 20.3407 114.981C31.2158 127.451 46.1907 135.622 62.5619 138.018C78.9331 140.415 95.6216 136.879 109.615 128.05L107.22 124.268C96.8666 130.819 84.8634 134.289 72.6117 134.274Z" fill="#276EF1"/>
<path d="M72.6123 4.85453e-05C59.5129 -0.0154812 46.6792 3.6953 35.6094 10.6992L38.0039 14.4812C51.0629 6.23381 66.6362 2.91663 81.9227 5.12634C97.2091 7.33605 111.206 14.9276 121.394 26.5356C131.583 38.1436 137.296 53.0061 137.505 68.4501C137.714 83.894 132.405 98.9057 122.534 110.785L118.954 107.283L114.702 121.898L129.852 117.919L125.764 113.925C134.255 103.812 139.682 91.4847 141.407 78.3928C143.131 65.3009 141.081 51.9887 135.498 40.022C129.915 28.0553 121.031 17.9316 109.891 10.8417C98.7505 3.75181 85.8174 -0.00953672 72.6123 4.85453e-05Z" fill="#276EF1"/>
<path d="M99.9879 18.3945H82.3536L72.2832 51.112H92.4239L82.3536 81.3231L112.565 41.0416H89.9175L99.9879 18.3945Z" fill="#276EF1"/>
<path d="M107.825 65.2094L110.98 64.2024C111.319 64.0896 111.601 63.8483 111.764 63.5303C111.927 63.2123 111.959 62.8429 111.853 62.5016L109.346 54.8481C109.279 54.6425 109.163 54.4565 109.007 54.307C108.85 54.1574 108.66 54.0489 108.451 53.991L96.8143 69.4972C96.8479 70.0342 96.8948 70.5691 96.8948 71.1174C96.8942 75.8436 95.5331 80.4697 92.9741 84.4431C90.415 88.4165 86.7662 91.5693 82.4636 93.5248C78.1609 95.4803 73.3862 96.1558 68.7099 95.4707C64.0337 94.7855 59.6535 92.7687 56.0926 89.6612C52.5317 86.5536 49.9407 82.4866 48.629 77.9461C47.3174 73.4055 47.3405 68.5834 48.6957 64.0557C50.0509 59.5279 52.6809 55.486 56.2715 52.4128C59.862 49.3396 64.2614 47.3649 68.944 46.7247L73.836 30.8359H68.2413C67.8852 30.8359 67.5437 30.9774 67.2919 31.2292C67.0401 31.481 66.8986 31.8225 66.8986 32.1787V35.4907C66.8978 35.8074 66.785 36.1136 66.5803 36.3552C66.3755 36.5968 66.092 36.7582 65.7797 36.811C62.8625 37.3684 60.0276 38.2933 57.343 39.5636C57.061 39.6988 56.7404 39.7303 56.4375 39.6525C56.1347 39.5748 55.8689 39.3927 55.687 39.1384L53.7176 36.453C53.6168 36.3094 53.488 36.1877 53.339 36.095C53.1901 36.0022 53.024 35.9405 52.8507 35.9133C52.6773 35.8862 52.5003 35.8942 52.3301 35.9369C52.16 35.9797 52.0002 36.0562 51.8602 36.162L45.3257 40.9063C45.0437 41.1162 44.8553 41.4283 44.8009 41.7756C44.7465 42.1229 44.8305 42.4777 45.0348 42.7637L46.9817 45.4491C47.1687 45.7037 47.2599 46.0159 47.2395 46.3311C47.219 46.6462 47.0881 46.9441 46.8698 47.1723C44.8293 49.332 43.0767 51.7465 41.6556 54.3558C41.5082 54.6324 41.2686 54.8488 40.9784 54.9673C40.6882 55.0858 40.3657 55.0991 40.0667 55.0048L36.889 53.9754C36.5506 53.8699 36.1844 53.9025 35.87 54.066C35.5556 54.2295 35.3185 54.5106 35.2106 54.8481L32.7042 62.5016C32.598 62.8429 32.63 63.2123 32.7932 63.5303C32.9563 63.8483 33.2378 64.0896 33.5769 64.2024L36.7323 65.2094C37.0319 65.3124 37.2867 65.5156 37.4539 65.7847C37.621 66.0537 37.6902 66.3722 37.6498 66.6864C37.2619 69.6276 37.2619 72.6071 37.6498 75.5483C37.6902 75.8625 37.621 76.181 37.4539 76.4501C37.2867 76.7191 37.0319 76.9223 36.7323 77.0253L33.5769 78.0323C33.2378 78.1451 32.9563 78.3864 32.7932 78.7044C32.63 79.0225 32.598 79.3918 32.7042 79.7331L35.2106 87.3866C35.3185 87.7241 35.5556 88.0052 35.87 88.1687C36.1844 88.3322 36.5506 88.3648 36.889 88.2593L40.0667 87.2299C40.3657 87.1356 40.6882 87.1489 40.9784 87.2674C41.2686 87.3859 41.5082 87.6023 41.6556 87.8789C43.0767 90.4882 44.8293 92.9027 46.8698 95.0624C47.0881 95.2906 47.219 95.5885 47.2395 95.9036C47.2599 96.2188 47.1687 96.5311 46.9817 96.7856L45.0348 99.471C44.8305 99.7571 44.7465 100.112 44.8009 100.459C44.8553 100.806 45.0437 101.119 45.3257 101.328L51.8602 106.073C52.0002 106.178 52.16 106.255 52.3301 106.298C52.5003 106.341 52.6773 106.349 52.8507 106.321C53.024 106.294 53.1901 106.232 53.339 106.14C53.488 106.047 53.6168 105.925 53.7176 105.782L55.687 103.096C55.8689 102.842 56.1347 102.66 56.4375 102.582C56.7404 102.504 57.061 102.536 57.343 102.671C60.0276 103.941 62.8625 104.866 65.7797 105.424C66.092 105.476 66.3755 105.638 66.5803 105.88C66.785 106.121 66.8978 106.427 66.8986 106.744V110.056C66.8986 110.412 67.0401 110.754 67.2919 111.006C67.5437 111.257 67.8852 111.399 68.2413 111.399H76.2976C76.6537 111.399 76.9953 111.257 77.2471 111.006C77.4989 110.754 77.6403 110.412 77.6403 110.056V106.744C77.6412 106.427 77.7539 106.121 77.9587 105.88C78.1634 105.638 78.447 105.476 78.7593 105.424C81.6765 104.866 84.5113 103.941 87.196 102.671C87.4779 102.536 87.7985 102.504 88.1014 102.582C88.4043 102.66 88.6701 102.842 88.852 103.096L90.8213 105.782C90.9222 105.925 91.051 106.047 91.1999 106.14C91.3489 106.232 91.5149 106.294 91.6883 106.321C91.8616 106.349 92.0386 106.341 92.2088 106.298C92.379 106.255 92.5388 106.178 92.6787 106.073L99.2133 101.328C99.4952 101.119 99.6837 100.806 99.7381 100.459C99.7925 100.112 99.7085 99.7571 99.5042 99.471L97.5573 96.7856C97.3703 96.5311 97.279 96.2188 97.2995 95.9036C97.3199 95.5885 97.4508 95.2906 97.6691 95.0624C99.7096 92.9027 101.462 90.4882 102.883 87.8789C103.031 87.6023 103.27 87.3859 103.561 87.2674C103.851 87.1489 104.173 87.1356 104.472 87.2299L107.65 88.2593C107.988 88.3648 108.355 88.3322 108.669 88.1687C108.983 88.0052 109.22 87.7241 109.328 87.3866L111.835 79.7331C111.941 79.3918 111.909 79.0225 111.746 78.7044C111.583 78.3864 111.301 78.1451 110.962 78.0323L107.807 77.0253C107.507 76.9223 107.252 76.7191 107.085 76.4501C106.918 76.181 106.849 75.8625 106.889 75.5483C107.277 72.6071 107.277 69.6276 106.889 66.6864C106.85 66.37 106.922 66.0497 107.092 65.7803C107.263 65.5109 107.522 65.3091 107.825 65.2094Z" fill="#276EF1"/>
</svg>
