<svg width="119" height="98" viewBox="0 0 119 98" fill="none" xmlns="http://www.w3.org/2000/svg">
<path d="M104.993 0H13.4749C6.1385 0 0.169922 5.96858 0.169922 13.305V84.6793C0.169922 92.0157 6.1385 97.9843 13.4749 97.9843H104.869C112.205 97.9843 118.174 92.0157 118.174 84.6793V13.305C118.298 5.96858 112.33 0 104.993 0ZM13.4749 5.34686H104.869C109.221 5.34686 112.827 8.82853 112.827 13.305V25.6152H5.64112V13.305C5.64112 8.95287 9.1228 5.34686 13.4749 5.34686ZM104.993 92.6374H13.4749C9.1228 92.6374 5.51678 89.1557 5.51678 84.8036V31.0864H112.703V84.8036C112.827 89.0314 109.345 92.6374 104.993 92.6374Z" fill="#276EF1"/>
<path d="M17.0813 19.0219C19.0708 19.0219 20.563 17.4055 20.563 15.5403C20.563 13.6751 18.9465 12.0586 17.0813 12.0586C15.0918 12.0586 13.5996 13.6751 13.5996 15.5403C13.5996 17.4055 15.0918 19.0219 17.0813 19.0219Z" fill="#276EF1"/>
<path d="M27.2766 19.0219C29.2661 19.0219 30.7583 17.4055 30.7583 15.5403C30.7583 13.6751 29.1418 12.0586 27.2766 12.0586C25.2871 12.0586 23.7949 13.6751 23.7949 15.5403C23.7949 17.4055 25.2871 19.0219 27.2766 19.0219Z" fill="#276EF1"/>
<path d="M37.4758 19.0219C39.3987 19.0219 40.9575 17.4631 40.9575 15.5403C40.9575 13.6174 39.3987 12.0586 37.4758 12.0586C35.5529 12.0586 33.9941 13.6174 33.9941 15.5403C33.9941 17.4631 35.5529 19.0219 37.4758 19.0219Z" fill="#276EF1"/>
<path d="M85.2239 18.1528H102.135C103.627 18.1528 104.87 16.9094 104.87 15.4172C104.87 13.9251 103.627 12.6816 102.135 12.6816H85.2239C83.7317 12.6816 82.4883 13.9251 82.4883 15.4172C82.4883 16.9094 83.7317 18.1528 85.2239 18.1528Z" fill="#276EF1"/>
<path d="M45.4326 47.0014C44.3135 45.8823 42.697 45.8823 41.5779 47.0014L28.646 59.9334C27.5269 61.0525 27.5269 62.669 28.646 63.7881L41.5779 76.72C42.0753 77.2174 42.8214 77.4661 43.5674 77.4661C44.3135 77.4661 44.9352 77.2174 45.557 76.72C46.6761 75.6009 46.6761 73.9844 45.557 72.8653L34.3659 61.7986L45.4326 50.7318C46.4274 49.737 46.4274 47.9962 45.4326 47.0014Z" fill="#276EF1"/>
<path d="M76.8913 47.0014C75.7722 45.8823 74.1557 45.8823 73.0366 47.0014C71.9175 48.1206 71.9175 49.737 73.0366 50.8561L84.1033 61.9229L73.0366 72.9897C71.9175 74.1088 71.9175 75.7253 73.0366 76.8444C73.534 77.3417 74.2801 77.5904 75.0261 77.5904C75.7722 77.5904 76.3939 77.3417 77.0157 76.8444L89.9476 63.9124C91.0667 62.7933 91.0667 61.1768 89.9476 60.0577L76.8913 47.0014Z" fill="#276EF1"/>
<path d="M66.4453 45.6339C65.0775 45.0121 63.461 45.6339 62.8393 47.126L50.6534 75.7255C50.0317 77.0933 50.6534 78.7098 52.1455 79.3315C52.5186 79.4558 52.8916 79.5802 53.2647 79.5802C54.3838 79.5802 55.3785 78.9585 55.7516 77.9637L67.9374 49.3642C68.4348 47.7477 67.8131 46.1312 66.4453 45.6339Z" fill="#276EF1"/>
</svg>
