<svg width="110" height="110" viewBox="0 0 110 110" fill="none" xmlns="http://www.w3.org/2000/svg">
<mask id="mask0" style="mask-type:alpha" maskUnits="userSpaceOnUse" x="0" y="0" width="110" height="110">
<circle cx="54.75" cy="55.2281" r="54.295" fill="#276EF1"/>
</mask>
<g mask="url(#mask0)">
<path d="M70.3999 70.3188C70.3999 74.2188 73.4999 77.3188 77.3999 77.3188C81.2999 77.3188 84.3999 74.2188 84.3999 70.3188C84.3999 66.4188 81.2999 63.3188 77.3999 63.3188C73.5999 63.3188 70.3999 66.4188 70.3999 70.3188ZM77.3999 74.8188C74.8999 74.8188 72.8999 72.8188 72.8999 70.3188C72.8999 67.8188 74.8999 65.8188 77.3999 65.8188C79.8999 65.8188 81.8999 67.8188 81.8999 70.3188C81.8999 72.7188 79.8999 74.8188 77.3999 74.8188Z" fill="black"/>
<path d="M78.7001 79.6188C73.2001 79.6188 68.6001 83.8188 68.0001 89.2188C67.5001 88.2188 67.0001 87.2188 66.7001 86.5188C66.5001 86.0188 66.3001 85.5188 66.1001 85.1188C65.6001 83.9188 64.1001 82.0188 61.5001 82.0188L60.6001 79.4188H60.7001C61.6001 79.1188 62.3001 78.4188 62.7001 77.6188C63.1001 76.7188 63.2001 75.8188 62.8001 74.9188L61.7001 71.7188C61.2001 70.3188 59.8001 69.3188 58.3001 69.3188C57.9001 69.3188 57.5001 69.4188 57.1001 69.5188L54.7001 70.4188C53.8001 70.7188 53.1001 71.4188 52.7001 72.2188C52.3001 73.1188 52.2001 74.0188 52.6001 74.9188L53.8001 78.1188C54.3001 79.5188 55.7001 80.5188 57.2001 80.5188C57.6001 80.5188 58.0001 80.4188 58.4001 80.3188L59.2001 82.6188C58.7001 82.9188 58.2001 83.3189 57.9001 83.8189C56.9001 85.4189 57.3001 87.3188 57.4001 87.7188C58.3001 93.8188 62.7001 104.919 72.5001 104.919C72.8001 104.919 73.0001 104.919 73.3001 104.919C73.5001 104.919 77.1001 104.519 80.9001 102.719C82.9001 101.719 85.0001 100.319 86.6001 98.3189C86.8001 98.1189 86.9001 97.8188 87.1001 97.6188V103.519V103.719C87.1001 104.419 87.7001 104.919 88.3001 104.919C89.0001 104.919 89.5001 104.319 89.5001 103.719V90.4188C89.5001 84.5188 84.6001 79.6188 78.7001 79.6188ZM84.5001 96.8189C81.9001 100.119 77.6001 101.519 75.0001 102.119C73.8001 102.419 72.9001 102.519 72.9001 102.519C71.9001 102.619 70.9001 102.519 70.0001 102.219C69.2001 102.019 68.5001 101.719 67.8001 101.419C61.4001 97.9188 59.7001 87.5188 59.7001 87.4188V87.3189C59.6001 87.0189 59.5001 85.9188 59.9001 85.2188C60.0001 85.0188 60.2001 84.8188 60.8001 84.6188C62.9001 84.2188 63.6001 85.8188 63.8001 86.1188V86.2188C64.0001 86.5188 64.2001 87.0188 64.4001 87.5188C65.4001 89.9188 66.5001 92.3188 67.9001 93.9188C68.3001 94.4188 68.7001 94.8188 69.1001 95.1188C69.5001 95.4188 69.9001 95.6189 70.3001 95.8189C70.5001 95.9189 70.7001 95.9188 70.9001 96.0188C71.8001 96.2188 73.1001 96.0188 74.5001 94.5188C76.5001 92.3188 77.2001 88.4188 77.2001 88.2188C77.2001 88.1188 77.2001 88.0188 77.2001 88.0188C77.2001 87.4188 76.8001 86.9189 76.2001 86.8189C75.5001 86.7189 74.9001 87.1189 74.8001 87.8189C74.6001 88.7189 74.0001 91.5189 72.7001 92.8189C71.9001 93.6189 71.5001 93.5188 71.3001 93.5188C71.0001 93.4188 70.6001 93.2188 70.3001 92.9188V90.4188C70.3001 85.8189 74.0001 82.1188 78.6001 82.1188C82.2001 82.1188 85.3001 84.5188 86.4001 87.7188C86.4001 87.7188 86.4001 87.7189 86.4001 87.8189V87.9188C87.0001 91.4188 86.4001 94.4189 84.5001 96.8189ZM56.1001 77.3188L54.9001 74.1188C54.8001 73.8188 54.8001 73.5188 54.9001 73.3188C55.0001 73.0188 55.2001 72.8188 55.5001 72.7188L57.9001 71.8188C58.0001 71.8188 58.1001 71.7188 58.3001 71.7188C58.8001 71.7188 59.2001 72.0188 59.3001 72.4188L60.5001 75.6188C60.6001 75.9188 60.6001 76.2188 60.5001 76.4188C60.4001 76.7188 60.2001 76.9188 59.9001 77.0188L57.5001 77.9188C56.9001 78.1188 56.3001 77.8188 56.1001 77.3188Z" fill="black"/>
<path d="M33.7 76.519C37.6 76.519 40.7 73.419 40.7 69.519C40.7 65.619 37.6 62.519 33.7 62.519C29.8 62.519 26.7 65.619 26.7 69.519C26.7 73.419 29.9 76.519 33.7 76.519ZM33.7 65.019C36.2 65.019 38.2 67.019 38.2 69.519C38.2 72.019 36.2 74.019 33.7 74.019C31.2 74.019 29.2 72.019 29.2 69.519C29.2 67.019 31.3 65.019 33.7 65.019Z" fill="black"/>
<path d="M50.7 86.6191C51 85.6191 51.1 84.4191 50.5 83.2191C49.7 81.6191 48.5 81.3191 47.8 81.3191C46.2 81.2191 44.8 82.4191 44.1 83.5191C43.7 84.1191 43.2 84.6191 42.6 85.0191C40.9 81.3191 37.1 78.6191 32.8 78.6191C26.9 78.6191 22 83.4191 22 89.4191V101.319C22 102.019 22.6 102.519 23.2 102.519C23.9 102.519 24.4 101.919 24.4 101.319V101.219V92.6191C25.8 95.5191 28.1 98.2191 30.5 99.8191C31 100.119 31.5 100.419 32.1 100.719C33.9 101.619 35.9 102.019 37.8 102.019C39.2 102.019 40.6 101.819 42.1 101.419H42.2C42.5 101.419 42.7 101.319 42.9 101.119C46.7 99.9191 50.4 97.6191 53 94.6191C54.5 93.0191 55.3 89.5191 54.1 87.6191C53.8 87.4191 52.8 86.2191 50.7 86.6191ZM43.5 98.6191C43.1 98.8191 42.7 98.9191 42.3 99.0191C41.9 99.1191 41.5 99.2191 41.1 99.3191C37.9 100.019 34.7 99.7191 32 98.0191C28.4 95.5191 24.9 90.0191 25.7 86.0191C25.7 85.8191 25.8 85.6191 25.8 85.4191V85.3191C25.8 85.2191 25.8 85.1191 25.8 85.0191C27.3 82.8191 29.8 81.3191 32.7 81.3191C36.2 81.3191 39.1 83.4191 40.4 86.5191C40.6 86.9191 40.7 87.3191 40.8 87.7191C40.9 88.1191 41 88.6191 41 89.0191C41 89.2191 41 89.4191 41 89.6191V89.7191V91.3191C39.3 90.4191 38 87.6191 37.7 86.5191C37.5 85.8191 36.8 85.5191 36.1 85.7191C35.6 85.9191 35.3 86.3191 35.3 86.7191C35.3 86.9191 35.3 87.1191 35.3 87.3191C35.5 87.9191 37.3 93.0191 41 93.9191C41.2 93.9191 41.4 94.0191 41.6 94.0191C41.8 94.0191 42.1 94.0191 42.3 94.0191C42.8 94.0191 43.2 93.9191 43.5 93.8191C44.2 93.6191 44.7 93.2191 45.1 92.9191C45.2 92.8191 45.3 92.8191 45.3 92.7191C45.7 92.4191 46 92.1191 46.5 91.8191C47.1 91.5191 47.6 91.1191 48.1 90.7191C48.2 90.6191 48.4 90.5191 48.5 90.4191C49.3 89.8191 50 89.2191 50.7 89.0191C51.7 88.7191 51.9 89.0191 52 89.1191C52.5 89.9191 52.1 92.2191 51.2 93.1191C49.2 95.5191 46.5 97.4191 43.5 98.6191ZM47.7 83.8191C47.9 83.8191 48.1 84.1191 48.3 84.4191C48.6 85.0191 48.5 85.7191 48 86.9191C47.6 87.7191 47.1 88.5191 46.5 89.1191C46.2 89.4191 45.8 89.6191 45.5 89.8191C44.9 90.2191 44.4 90.5191 44 90.8191C43.9 90.9191 43.8 90.9191 43.6 90.9191V89.4191C43.6 88.7191 43.5 88.1191 43.4 87.5191C44.4 86.8191 45.4 86.0191 46.2 84.8191C46.6 84.2191 47.3 83.8191 47.7 83.8191Z" fill="black"/>
<path d="M59.2999 58.3188H66.4C71.5 58.3188 75.6 54.2188 75.6 49.0188V41.5188C75.6 36.4188 71.5 32.3188 66.4 32.3188H42.9C37.8 32.3188 33.7 36.4188 33.7 41.5188V49.0188C33.7 54.1188 37.8 58.3188 42.9 58.3188H48.2999C48.0999 60.2188 47.7 63.4188 47.5 65.1188C47.4 65.5188 47.5999 65.8188 47.7999 66.1188C47.9999 66.4188 48.4 66.5188 48.7 66.5188C48.8 66.5188 56.2999 66.1188 59.2999 58.3188ZM50.2 63.8188C50.6 61.1188 50.9 57.4188 50.9 57.2188C50.9 56.8188 50.8 56.5188 50.6 56.2188C50.4 55.9188 50 55.8188 49.7 55.8188H42.9C39.2 55.8188 36.2 52.8188 36.2 49.0188V41.5188C36.2 37.8188 39.2 34.7188 42.9 34.7188H66.4C70.1 34.7188 73.2 37.7188 73.2 41.5188V49.0188C73.2 52.7188 70.2 55.8188 66.4 55.8188H58.4C57.9 55.8188 57.4 56.2188 57.2 56.7188C55.6 61.6188 52.2 63.2188 50.2 63.8188Z" fill="black"/>
<path d="M67.6 49.219C67.6 48.519 67 48.019 66.4 48.019H43.2C42.5 48.019 42 48.619 42 49.219C42 49.819 42.6 50.419 43.2 50.419H66.3C67 50.419 67.6 49.919 67.6 49.219Z" fill="black"/>
<path d="M43.2 43.419H59.5C60.2 43.419 60.7 42.819 60.7 42.219C60.7 41.519 60.1 41.019 59.5 41.019H43.2C42.5 41.019 42 41.619 42 42.219C41.9 42.819 42.5 43.419 43.2 43.419Z" fill="black"/>
</g>
</svg>
