<svg width="77" height="64" viewBox="0 0 77 64" fill="none" xmlns="http://www.w3.org/2000/svg">
<path d="M5.55795 21.1794C5.56636 21.1794 5.57492 21.1794 5.58206 21.1794C5.88803 21.1715 35.0548 20.2104 52.839 3.68823L51.795 8.70662C51.6935 9.1948 52.0185 9.67019 52.521 9.76882C52.5825 9.78053 52.6442 9.78639 52.7058 9.78639C53.1383 9.78639 53.5249 9.49175 53.6143 9.06335L55.2755 1.07533C55.2866 1.02186 55.2685 0.969928 55.2696 0.916456C55.2708 0.873308 55.2703 0.840331 55.265 0.797491C55.243 0.61134 55.1845 0.431507 55.052 0.290198C55.0387 0.276021 55.0184 0.272014 55.0041 0.258608C54.996 0.250903 54.999 0.237959 54.9903 0.230254C54.9727 0.214536 54.9464 0.222549 54.9278 0.208217C54.766 0.0844759 54.5762 0.0152855 54.3744 0.0135904C54.3489 0.0132822 54.329 0.00311179 54.3037 0.00480687C54.2911 0.00573147 54.2791 -0.00120279 54.2667 0.000184096L46.0385 0.858206C45.5287 0.912141 45.1602 1.35579 45.2146 1.85107C45.2701 2.34526 45.7111 2.69846 46.2366 2.65146L51.9173 2.05833C34.7083 18.4148 5.83268 19.3687 5.53257 19.3766C5.0204 19.3906 4.61688 19.805 4.6302 20.3026C4.64464 20.7921 5.05656 21.1794 5.55795 21.1794Z" fill="#276EF1"/>
<path d="M75.8631 48.0781C75.6994 47.9131 73.4149 45.6561 69.8831 43.7222V9.12007C69.8831 8.62249 69.4675 8.21875 68.9554 8.21875H59.9055C59.3933 8.21875 58.9778 8.62249 58.9778 9.12007V40.9762C56.4677 41.1124 54.1271 41.7767 52.0735 42.6645V20.033C52.0735 19.5355 51.6579 19.1317 51.1457 19.1317H42.0948C41.5826 19.1317 41.167 19.5355 41.167 20.033V61.7328H34.2674V26.0481C34.2674 25.5506 33.8518 25.1468 33.3396 25.1468H24.279C23.7668 25.1468 23.3512 25.5506 23.3512 26.0481V61.7328H16.4615V34.2804C16.4615 33.7828 16.046 33.3791 15.5338 33.3791H6.47282C5.96065 33.3791 5.54508 33.7828 5.54508 34.2804V61.7328H0.927748C0.415575 61.7328 0 62.1366 0 62.6341C0 63.1317 0.415575 63.5355 0.927748 63.5355H6.47282H15.5335H24.2788H33.3395H42.0646C42.0753 63.5358 42.084 63.5413 42.0946 63.5413H51.1456C51.1562 63.5413 51.1649 63.5358 51.1756 63.5355H59.8757C59.8863 63.5358 59.895 63.5413 59.9057 63.5413H68.9555C68.9662 63.5413 68.9749 63.5358 68.9855 63.5355H74.2514C74.7636 63.5355 75.1792 63.1317 75.1792 62.6341C75.1792 62.1366 74.7636 61.7328 74.2514 61.7328H69.883V53.7715C73.4149 51.8378 75.6993 49.5812 75.863 49.4162C76.2351 49.0429 76.2351 48.4513 75.8631 48.0781ZM14.6057 61.7328H7.40057V35.1817H14.6056V61.7328H14.6057ZM32.4117 61.7328H25.2067V26.9496H32.4117V61.7328ZM60.8333 10.0216H68.0275V42.8079C65.9058 41.8548 63.4647 41.1249 60.8333 40.9777V10.0216ZM50.2177 61.7328H43.0224V20.9344H50.2177V43.5575C46.5099 45.5261 44.0884 47.9081 43.92 48.0781C43.5479 48.4513 43.5479 49.0429 43.92 49.4162C44.0886 49.586 46.51 51.9677 50.2177 53.936V61.7328ZM46.0764 48.7472C47.4003 47.604 50.4193 45.292 54.2194 43.9299C53.0541 45.2236 52.3233 46.8965 52.3233 48.7472C52.3233 50.597 53.0536 52.2694 54.2181 53.563C50.4186 52.2012 47.4002 49.8903 46.0764 48.7472ZM58.9776 61.7328H52.0733V54.8289C54.1269 55.7165 56.4675 56.3808 58.9776 56.5169V61.7328ZM59.8909 54.1778C56.8092 54.1778 54.3022 51.7412 54.3022 48.7472C54.3022 45.7531 56.809 43.3166 59.8909 43.3166C62.9728 43.3166 65.4807 45.7532 65.4807 48.7472C65.4807 51.7412 62.9727 54.1778 59.8909 54.1778ZM68.0275 61.7328H60.8333V56.5155C63.4647 56.3683 65.9056 55.6387 68.0275 54.6856V61.7328ZM65.5646 53.5628C66.7292 52.2693 67.4595 50.597 67.4595 48.7472C67.4595 46.8968 66.7287 45.2237 65.5634 43.9301C69.3638 45.292 72.3826 47.6038 73.7064 48.7472C72.3829 49.8903 69.3646 52.201 65.5646 53.5628Z" fill="#276EF1"/>
<path d="M60.3408 47.8862C59.1576 47.5359 58.8985 47.3189 58.9088 46.8458C58.9161 46.5124 59.1281 46.1071 59.8428 46.1219C60.6941 46.1391 60.8276 46.6281 60.9011 46.9301L62.4806 46.9623C62.4163 46.1185 61.941 45.2793 60.5634 45.0478L60.5784 44.353L59.2551 44.3262L59.2397 45.0363C58.1806 45.2092 57.3387 45.8685 57.3149 46.9628C57.293 47.9792 57.8276 48.6645 59.6956 49.2285C60.7215 49.5355 61.0051 49.8008 60.9939 50.3312C60.9845 50.764 60.7131 51.1418 59.8901 51.1252C59.2251 51.1116 58.7897 50.751 58.6739 50.1906L57.0957 50.1585C57.1598 51.2045 57.8832 51.9801 59.1641 52.1966L59.1453 53.0674L60.478 53.0946L60.4969 52.2202C61.7197 52.0672 62.5534 51.4062 62.5797 50.187C62.6045 49.0345 61.9936 48.3702 60.3408 47.8862Z" fill="#276EF1"/>
</svg>
