<svg width="91" height="92" viewBox="0 0 91 92" fill="none" xmlns="http://www.w3.org/2000/svg">
<path d="M90.9989 1.69223C91 31.7231 91 61.5105 91 91.3922C60.6145 91.3922 30.4304 91.3922 0.138672 91.3922C0.138672 61.1003 0.138672 30.917 0.138672 0.533274C1.06062 0.533274 1.88072 0.533274 2.70082 0.533274C31.2483 0.533274 59.7957 0.525045 88.3431 0.571734C89.2285 0.573182 90.1129 1.14365 90.9989 1.69223ZM34.6865 73.5182C39.0641 73.518 43.8926 74.6746 47.6928 73.1932C51.5119 71.7046 54.3078 67.5902 57.5497 64.6239C57.7979 64.3968 58.0729 64.1791 58.2543 63.9037C58.5451 63.4621 58.768 62.9758 59.272 62.0395C49.2097 62.0395 39.5979 62.0395 29.7161 62.0395C29.7161 51.5676 29.7161 41.4542 29.7161 30.6725C25.8922 34.6672 22.4678 38.1093 19.2328 41.721C18.4395 42.6066 17.8881 44.0402 17.8681 45.2327C17.7449 52.5548 17.7988 59.88 17.8166 67.2041C17.8186 68.0384 17.8774 68.8913 18.0572 69.703C18.6711 72.4742 19.9523 73.4938 22.816 73.5113C26.6043 73.5344 30.3927 73.5177 34.6865 73.5182ZM36.1801 24.3007C34.6948 25.8197 33.2095 27.3388 31.7242 28.8578C32.8992 29.5079 33.7071 29.5842 34.5153 29.5872C38.1332 29.6005 41.7926 29.2428 45.3609 29.664C53.4065 30.6135 60.4172 28.6748 66.4355 23.226C66.6821 23.0027 66.966 22.7865 67.2717 22.6705C67.7447 22.4909 68.2515 22.4007 68.744 22.2727C66.8466 25.3405 64.5375 27.8527 62.4073 30.5085C61.7422 31.3376 61.2226 32.5506 61.2107 33.5943C61.1159 41.9231 61.1547 50.2534 61.1698 58.5833C61.1708 59.1826 61.3081 59.7817 61.4447 60.8887C65.4019 56.7178 69.0116 52.9763 72.5198 49.142C73.0044 48.6124 73.1692 47.6238 73.173 46.8462C73.2171 38.0117 73.2047 29.1769 73.1933 20.3423C73.1924 19.6906 73.0822 19.039 73.0047 18.1879C65.3891 18.1879 57.8878 18.5874 50.4519 18.0617C44.4841 17.6398 39.8268 19.0451 36.1801 24.3007Z" fill="#010101"/>
<path d="M34.4339 73.518C30.3928 73.5176 26.6044 73.5342 22.8161 73.5111C19.9524 73.4936 18.6712 72.4741 18.0573 69.7028C17.8775 68.8912 17.8187 68.0383 17.8167 67.204C17.7989 59.8799 17.745 52.5547 17.8682 45.2326C17.8882 44.0401 18.4396 42.6064 19.2329 41.7208C22.4679 38.1091 25.8923 34.6671 29.7162 30.6724C29.7162 41.454 29.7162 51.5674 29.7162 62.0393C39.5979 62.0393 49.2098 62.0393 59.2721 62.0393C58.7681 62.9756 58.5452 63.4619 58.2544 63.9035C58.073 64.179 57.7979 64.3966 57.5498 64.6237C54.3079 67.5901 51.512 71.7044 47.6929 73.1931C43.8927 74.6744 39.0642 73.5179 34.4339 73.518Z" fill="#FDFDFD"/>
<path d="M36.3029 24.1711C39.8267 19.0454 44.484 17.6402 50.4519 18.0621C57.8877 18.5877 65.389 18.1883 73.0046 18.1883C73.0821 19.0394 73.1924 19.6909 73.1932 20.3426C73.2047 29.1773 73.217 38.0121 73.173 46.8465C73.1691 47.6242 73.0043 48.6128 72.5197 49.1424C69.0115 52.9767 65.4018 56.7181 61.4447 60.889C61.308 59.7821 61.1708 59.183 61.1697 58.5836C61.1546 50.2538 61.1158 41.9235 61.2107 33.5947C61.2225 32.5509 61.7422 31.338 62.4073 30.5088C64.5374 27.8531 66.8465 25.3409 68.7439 22.273C68.2515 22.4011 67.7446 22.4913 67.2716 22.6708C66.9659 22.7869 66.6821 23.0031 66.4355 23.2263C60.4171 28.6752 53.4065 30.6139 45.3608 29.6643C41.7925 29.2432 38.1332 29.6009 34.5152 29.5875C33.707 29.5846 32.8991 29.5083 31.7241 28.8582C33.2094 27.3392 34.6947 25.8201 36.3029 24.1711Z" fill="#FBFBFB"/>
</svg>
