<svg width="62" height="59" viewBox="0 0 62 59" fill="none" xmlns="http://www.w3.org/2000/svg">
<rect opacity="0.1" x="0.0944824" y="12.3894" width="58.0864" height="45.6505" rx="4" fill="#276EF1"/>
<path d="M56.1809 4.95337H50.1809V1.95337C50.1809 1.68815 50.0756 1.4338 49.888 1.24626C49.7005 1.05873 49.4461 0.953369 49.1809 0.953369C48.9157 0.953369 48.6613 1.05873 48.4738 1.24626C48.2863 1.4338 48.1809 1.68815 48.1809 1.95337V4.95337H16.1809V1.95337C16.1809 1.68815 16.0756 1.4338 15.888 1.24626C15.7005 1.05873 15.4461 0.953369 15.1809 0.953369C14.9157 0.953369 14.6613 1.05873 14.4738 1.24626C14.2863 1.4338 14.1809 1.68815 14.1809 1.95337V4.95337H8.18091C6.85483 4.95337 5.58306 5.48015 4.64537 6.41784C3.70769 7.35552 3.18091 8.62729 3.18091 9.95337V53.9534C3.18091 55.2795 3.70769 56.5512 4.64537 57.4889C5.58306 58.4266 6.85483 58.9534 8.18091 58.9534H56.1809C57.507 58.9534 58.7788 58.4266 59.7164 57.4889C60.6541 56.5512 61.1809 55.2795 61.1809 53.9534V9.95337C61.1809 8.62729 60.6541 7.35552 59.7164 6.41784C58.7788 5.48015 57.507 4.95337 56.1809 4.95337ZM5.18091 9.95337C5.18091 9.15772 5.49698 8.39466 6.05959 7.83205C6.6222 7.26944 7.38526 6.95337 8.18091 6.95337H14.1809V8.13337C13.5137 8.36927 12.9514 8.83344 12.5933 9.44385C12.2352 10.0543 12.1044 10.7716 12.2241 11.4691C12.3438 12.1666 12.7062 12.7993 13.2472 13.2555C13.7883 13.7116 14.4732 13.9618 15.1809 13.9618C15.8886 13.9618 16.5735 13.7116 17.1146 13.2555C17.6556 12.7993 18.018 12.1666 18.1377 11.4691C18.2574 10.7716 18.1266 10.0543 17.7685 9.44385C17.4105 8.83344 16.8481 8.36927 16.1809 8.13337V6.95337H48.1809V8.13337C47.5137 8.36927 46.9514 8.83344 46.5933 9.44385C46.2352 10.0543 46.1044 10.7716 46.2241 11.4691C46.3438 12.1666 46.7062 12.7993 47.2472 13.2555C47.7883 13.7116 48.4732 13.9618 49.1809 13.9618C49.8886 13.9618 50.5735 13.7116 51.1146 13.2555C51.6556 12.7993 52.018 12.1666 52.1377 11.4691C52.2574 10.7716 52.1266 10.0543 51.7685 9.44385C51.4105 8.83344 50.8481 8.36927 50.1809 8.13337V6.95337H56.1809C56.9766 6.95337 57.7396 7.26944 58.3022 7.83205C58.8648 8.39466 59.1809 9.15772 59.1809 9.95337V20.9534H5.18091V9.95337ZM15.1809 9.95337C15.3787 9.95337 15.572 10.012 15.7365 10.1219C15.9009 10.2318 16.0291 10.388 16.1048 10.5707C16.1805 10.7534 16.2003 10.9545 16.1617 11.1485C16.1231 11.3424 16.0279 11.5206 15.888 11.6605C15.7482 11.8003 15.57 11.8956 15.376 11.9342C15.182 11.9727 14.981 11.9529 14.7982 11.8772C14.6155 11.8016 14.4593 11.6734 14.3494 11.5089C14.2396 11.3445 14.1809 11.1512 14.1809 10.9534C14.1809 10.6882 14.2863 10.4338 14.4738 10.2463C14.6613 10.0587 14.9157 9.95337 15.1809 9.95337ZM49.1809 9.95337C49.3787 9.95337 49.572 10.012 49.7365 10.1219C49.9009 10.2318 50.0291 10.388 50.1048 10.5707C50.1805 10.7534 50.2003 10.9545 50.1617 11.1485C50.1231 11.3424 50.0279 11.5206 49.888 11.6605C49.7482 11.8003 49.57 11.8956 49.376 11.9342C49.182 11.9727 48.981 11.9529 48.7982 11.8772C48.6155 11.8016 48.4593 11.6734 48.3494 11.5089C48.2396 11.3445 48.1809 11.1512 48.1809 10.9534C48.1809 10.6882 48.2863 10.4338 48.4738 10.2463C48.6613 10.0587 48.9157 9.95337 49.1809 9.95337ZM59.1809 53.9534C59.1809 54.749 58.8648 55.5121 58.3022 56.0747C57.7396 56.6373 56.9766 56.9534 56.1809 56.9534H8.18091C7.38526 56.9534 6.6222 56.6373 6.05959 56.0747C5.49698 55.5121 5.18091 54.749 5.18091 53.9534V22.9534H59.1809V53.9534Z" fill="#276EF1"/>
<path d="M40.1809 13.9534H24.1809C23.9157 13.9534 23.6613 14.0587 23.4738 14.2463C23.2863 14.4338 23.1809 14.6882 23.1809 14.9534C23.1809 15.2186 23.2863 15.4729 23.4738 15.6605C23.6613 15.848 23.9157 15.9534 24.1809 15.9534H40.1809C40.4461 15.9534 40.7005 15.848 40.888 15.6605C41.0756 15.4729 41.1809 15.2186 41.1809 14.9534C41.1809 14.6882 41.0756 14.4338 40.888 14.2463C40.7005 14.0587 40.4461 13.9534 40.1809 13.9534Z" fill="#276EF1"/>
<path d="M10.1809 37.9534H20.1809C20.4461 37.9534 20.7005 37.848 20.888 37.6605C21.0756 37.4729 21.1809 37.2186 21.1809 36.9534V26.9534C21.1809 26.6882 21.0756 26.4338 20.888 26.2463C20.7005 26.0587 20.4461 25.9534 20.1809 25.9534H10.1809C9.91569 25.9534 9.66134 26.0587 9.4738 26.2463C9.28627 26.4338 9.18091 26.6882 9.18091 26.9534V36.9534C9.18091 37.2186 9.28627 37.4729 9.4738 37.6605C9.66134 37.848 9.91569 37.9534 10.1809 37.9534ZM11.1809 27.9534H19.1809V35.9534H11.1809V27.9534Z" fill="#276EF1"/>
<path d="M27.1809 37.9534H37.1809C37.4461 37.9534 37.7005 37.848 37.888 37.6605C38.0756 37.4729 38.1809 37.2186 38.1809 36.9534V26.9534C38.1809 26.6882 38.0756 26.4338 37.888 26.2463C37.7005 26.0587 37.4461 25.9534 37.1809 25.9534H27.1809C26.9157 25.9534 26.6613 26.0587 26.4738 26.2463C26.2863 26.4338 26.1809 26.6882 26.1809 26.9534V36.9534C26.1809 37.2186 26.2863 37.4729 26.4738 37.6605C26.6613 37.848 26.9157 37.9534 27.1809 37.9534ZM28.1809 27.9534H36.1809V35.9534H28.1809V27.9534Z" fill="#276EF1"/>
<path d="M44.1809 37.9534H54.1809C54.4461 37.9534 54.7005 37.848 54.888 37.6605C55.0756 37.4729 55.1809 37.2186 55.1809 36.9534V26.9534C55.1809 26.6882 55.0756 26.4338 54.888 26.2463C54.7005 26.0587 54.4461 25.9534 54.1809 25.9534H44.1809C43.9157 25.9534 43.6613 26.0587 43.4738 26.2463C43.2863 26.4338 43.1809 26.6882 43.1809 26.9534V36.9534C43.1809 37.2186 43.2863 37.4729 43.4738 37.6605C43.6613 37.848 43.9157 37.9534 44.1809 37.9534ZM45.1809 27.9534H53.1809V35.9534H45.1809V27.9534Z" fill="#276EF1"/>
<path d="M10.1809 53.9534H20.1809C20.4461 53.9534 20.7005 53.848 20.888 53.6605C21.0756 53.4729 21.1809 53.2186 21.1809 52.9534V42.9534C21.1809 42.6882 21.0756 42.4338 20.888 42.2463C20.7005 42.0587 20.4461 41.9534 20.1809 41.9534H10.1809C9.91569 41.9534 9.66134 42.0587 9.4738 42.2463C9.28627 42.4338 9.18091 42.6882 9.18091 42.9534V52.9534C9.18091 53.2186 9.28627 53.4729 9.4738 53.6605C9.66134 53.848 9.91569 53.9534 10.1809 53.9534ZM11.1809 43.9534H19.1809V51.9534H11.1809V43.9534Z" fill="#276EF1"/>
<path d="M27.1809 53.9534H37.1809C37.4461 53.9534 37.7005 53.848 37.888 53.6605C38.0756 53.4729 38.1809 53.2186 38.1809 52.9534V42.9534C38.1809 42.6882 38.0756 42.4338 37.888 42.2463C37.7005 42.0587 37.4461 41.9534 37.1809 41.9534H27.1809C26.9157 41.9534 26.6613 42.0587 26.4738 42.2463C26.2863 42.4338 26.1809 42.6882 26.1809 42.9534V52.9534C26.1809 53.2186 26.2863 53.4729 26.4738 53.6605C26.6613 53.848 26.9157 53.9534 27.1809 53.9534ZM28.1809 43.9534H36.1809V51.9534H28.1809V43.9534Z" fill="#276EF1"/>
<path d="M49.1808 53.9533C50.7721 53.9533 52.2982 53.3212 53.4234 52.196C54.5486 51.0707 55.1808 49.5446 55.1808 47.9533C55.1837 46.9535 54.9325 45.9694 54.4508 45.0933L55.8908 43.6633C56.0791 43.475 56.1849 43.2196 56.1849 42.9533C56.1849 42.687 56.0791 42.4316 55.8908 42.2433C55.7025 42.055 55.4471 41.9492 55.1808 41.9492C54.9145 41.9492 54.6591 42.055 54.4708 42.2433L53.1808 43.5133C52.4585 42.8568 51.5869 42.3864 50.6416 42.143C49.6963 41.8996 48.7059 41.8904 47.7564 42.1164C46.8068 42.3423 45.9266 42.7966 45.1923 43.4396C44.458 44.0827 43.8917 44.8952 43.5424 45.8067C43.1932 46.7182 43.0716 47.7012 43.1882 48.6703C43.3049 49.6394 43.6562 50.5654 44.2117 51.368C44.7672 52.1706 45.5101 52.8256 46.376 53.2761C47.2419 53.7266 48.2047 53.9591 49.1808 53.9533ZM49.1808 43.9533C50.1403 43.9589 51.0648 44.3145 51.7808 44.9533L49.1808 47.5433L47.8908 46.2433C47.7025 46.055 47.4471 45.9492 47.1808 45.9492C46.9145 45.9492 46.6591 46.055 46.4708 46.2433C46.2825 46.4316 46.1767 46.687 46.1767 46.9533C46.1767 47.2196 46.2825 47.475 46.4708 47.6633L48.4708 49.6633C48.5638 49.757 48.6744 49.8314 48.7962 49.8822C48.9181 49.933 49.0488 49.9591 49.1808 49.9591C49.3128 49.9591 49.4435 49.933 49.5654 49.8822C49.6872 49.8314 49.7978 49.757 49.8908 49.6633L52.8908 46.6133C53.1761 47.416 53.1976 48.2889 52.9523 49.1047C52.707 49.9205 52.2077 50.6367 51.527 51.149C50.8463 51.6612 50.0198 51.9428 49.1679 51.9526C48.3161 51.9624 47.4834 51.7001 46.791 51.2037C46.0987 50.7073 45.5829 50.0028 45.3188 49.1928C45.0547 48.3829 45.0561 47.5098 45.3228 46.7007C45.5895 45.8916 46.1075 45.1888 46.8015 44.6946C47.4954 44.2005 48.329 43.9407 49.1808 43.9533Z" fill="#276EF1"/>
</svg>
