<svg width="62" height="61" viewBox="0 0 62 61" fill="none" xmlns="http://www.w3.org/2000/svg">
<path d="M15.0703 0.00878906C6.95296 0.00878906 0.357666 6.60409 0.357666 14.7214C0.357666 22.8387 6.95296 29.434 15.0703 29.434C23.1875 29.434 29.7828 22.8387 29.7828 14.7214C29.7828 6.60409 23.1875 0.00878906 15.0703 0.00878906ZM24.329 15.9897H27.2462C26.612 21.6972 22.0461 26.1363 16.3386 26.7705V23.9802C16.3386 23.2192 15.8313 22.7118 15.0703 22.7118C14.3093 22.7118 13.8019 23.2192 13.8019 23.9802V26.7705C8.09446 26.1363 3.52848 21.6972 2.89432 15.9897H5.81147C6.57247 15.9897 7.0798 15.4824 7.0798 14.7214C7.0798 13.9604 6.57247 13.4531 5.81147 13.4531H3.02115C3.65531 7.74558 8.22129 3.30644 13.9288 2.67227V5.46259C13.9288 6.22359 14.4361 6.73092 15.1971 6.73092C15.9581 6.73092 16.4654 6.22359 16.4654 5.46259V2.67227C22.1729 3.30644 26.7389 7.74558 27.373 13.4531H24.4559C23.6949 13.4531 23.1875 13.9604 23.1875 14.7214C23.1875 15.4824 23.6949 15.9897 24.329 15.9897Z" fill="#276EF1"/>
<path d="M15.0701 8.63379C14.3091 8.63379 13.8018 9.14112 13.8018 9.90212V14.2144L10.5041 18.2731C10.1236 18.7804 10.1236 19.6682 10.631 20.0487C11.1383 20.4292 12.0261 20.4292 12.4066 19.9219L15.9579 15.6096C16.0848 15.3559 16.2116 15.1023 16.2116 14.8486V9.90212C16.3384 9.26795 15.8311 8.63379 15.0701 8.63379Z" fill="#276EF1"/>
<path d="M36.2513 5.46276C35.6172 5.33592 34.8562 5.71642 34.7294 6.47742C34.6025 7.11158 34.983 7.87258 35.744 7.99941C40.0563 8.88724 43.9881 11.0434 47.0321 14.2142C49.8224 17.0045 51.8518 20.429 52.9933 24.234L50.9639 22.2047C50.4566 21.6973 49.6956 21.6973 49.1883 22.2047C48.681 22.712 48.681 23.473 49.1883 23.9803L53.5006 28.2926C54.0079 28.8 54.7689 28.8 55.2762 28.2926L59.7154 23.9803C60.2227 23.473 60.2227 22.712 59.7154 22.2047C59.2081 21.6973 58.4471 21.6973 57.9397 22.2047L55.6567 24.4877C54.5152 19.9217 52.2323 15.7362 48.8078 12.4386C45.2565 8.88724 40.9442 6.47742 36.2513 5.46276Z" fill="#276EF1"/>
<path d="M25.3437 53.025C21.0314 52.1372 17.0996 49.9811 14.0556 46.8102C11.0116 43.7663 8.98227 40.0881 7.96761 36.0295L10.7579 38.8198C11.2653 39.3271 12.0263 39.3271 12.5336 38.8198C13.0409 38.3125 13.0409 37.5515 12.5336 37.0441L8.22127 32.7318C7.71394 32.2245 6.95295 32.2245 6.44562 32.7318L2.00647 37.0441C1.49914 37.5515 1.49914 38.3125 2.00647 38.8198C2.51381 39.3271 3.2748 39.3271 3.78213 38.8198L5.55779 37.0441C6.69928 41.4833 8.98227 45.4151 12.2799 48.7127C15.7044 52.1372 20.1435 54.547 24.8364 55.5617C25.4705 55.6885 26.2315 55.308 26.3583 54.547C26.4852 53.786 26.1047 53.1519 25.3437 53.025Z" fill="#276EF1"/>
<path d="M46.6514 31.8442C38.661 31.8442 32.0657 38.3127 32.0657 46.3032C32.0657 54.2936 38.661 60.8889 46.6514 60.8889C54.6419 60.8889 61.2372 54.4204 61.2372 46.43C61.2372 38.4395 54.6419 31.8442 46.6514 31.8442ZM46.6514 58.3523C40.0561 58.3523 34.6023 53.0253 34.6023 46.43C34.6023 39.8347 40.0561 34.5077 46.6514 34.5077C53.2467 34.5077 58.7005 39.8347 58.7005 46.43C58.7005 53.0253 53.2467 58.3523 46.6514 58.3523Z" fill="#276EF1"/>
<path d="M47.1591 45.1616C47.0323 45.1616 46.9054 45.1616 46.7786 45.1616H46.6518C46.6518 45.1616 46.6518 45.1616 46.525 45.1616C46.2713 45.1616 46.0176 45.0348 45.8908 44.7811C45.6371 44.5274 45.5103 44.2738 45.5103 43.8933C45.5103 43.5128 45.6371 43.2591 45.8908 43.0054C46.3981 42.4981 47.1591 42.6249 47.6664 43.1323C48.1738 43.6396 48.9348 43.6396 49.4421 43.2591C49.9494 42.8786 49.9494 41.9908 49.5689 41.4834C49.0616 40.9761 48.5543 40.7224 47.9201 40.4688V39.4541C47.9201 38.6931 47.4128 38.1858 46.6518 38.1858C45.8908 38.1858 45.3835 38.6931 45.3835 39.4541V40.4688C45.003 40.5956 44.6225 40.8493 44.242 41.2298C43.481 41.8639 43.1005 42.8786 42.9736 43.7664C42.9736 44.7811 43.2273 45.6689 43.9883 46.4299C44.4956 47.0641 45.2566 47.4446 46.0176 47.5714C46.1445 47.5714 46.1444 47.5714 46.1444 47.5714C46.2713 47.5714 46.2713 47.5714 46.3981 47.5714H46.525C46.525 47.5714 46.5249 47.5714 46.6518 47.5714C46.9054 47.5714 47.2859 47.8251 47.4128 48.0787C47.7933 48.5861 47.6664 49.2202 47.2859 49.6007C47.0323 49.8544 46.7786 49.9812 46.3981 49.9812C46.0176 49.9812 45.764 49.8544 45.5103 49.6007C45.003 49.0934 44.242 49.0934 43.7346 49.4739C43.2273 49.9812 43.2273 50.7422 43.6078 51.2496C43.9883 51.7569 44.6225 52.0106 45.2566 52.2642V53.2789C45.2566 54.0399 45.764 54.5472 46.525 54.5472C47.2859 54.5472 47.7933 54.0399 47.7933 53.2789V52.2642C48.3006 52.0106 48.6811 51.7569 49.0616 51.3764C50.3299 50.1081 50.4568 47.9519 49.4421 46.5567C48.9348 45.7958 48.1738 45.2884 47.1591 45.1616Z" fill="#276EF1"/>
<path opacity="0.1" d="M55.0828 27.5083C55.0828 40.7637 49.1808 45.9063 39.2197 49.4951C24.9129 54.6496 7.08105 40.7637 7.08105 27.5083C7.08105 14.253 8.89784 10.9596 16.3872 5.23378C30.2392 -5.35637 55.0828 14.253 55.0828 27.5083Z" fill="#276EF1"/>
</svg>
