<svg width="44" height="44" viewBox="0 0 44 44" fill="none" xmlns="http://www.w3.org/2000/svg">
<g clip-path="url(#clip0_4376_11594)">
<path d="M2.56014 29.073C0.247191 31.386 -0.576586 34.7658 0.409966 37.8937C0.467708 38.0768 0.616735 38.2165 0.803707 38.2621C0.991779 38.3078 1.18755 38.2528 1.32338 38.1169L5.99273 33.447C6.69277 32.747 7.83275 32.747 8.5328 33.447L10.5532 35.4674C11.2532 36.1675 11.2532 37.3075 10.5532 38.0075L5.88384 42.6774C5.74802 42.8132 5.69302 43.0101 5.73867 43.1971C5.78431 43.3835 5.92399 43.5331 6.10711 43.5908C9.23504 44.5774 12.6148 43.7536 14.9278 41.4406C17.4156 38.9534 18.1564 35.1804 16.8289 31.9408L22.0003 26.7688L27.1717 31.9403C25.8436 35.1798 26.5849 38.9528 29.0728 41.4401C30.7396 43.1069 32.9596 44.0005 35.2412 44C36.1255 44 37.0191 43.8658 37.8934 43.5897C38.0766 43.532 38.2162 43.383 38.2619 43.196C38.3075 43.009 38.2525 42.8121 38.1167 42.6763L33.4468 38.007C32.7468 37.3069 32.7468 36.1669 33.4468 35.4669L35.4672 33.4465C36.1673 32.7465 37.3072 32.7465 38.0073 33.4465L42.6766 38.1164C42.8125 38.2522 43.0088 38.3078 43.1963 38.2616C43.3827 38.2159 43.5323 38.0763 43.59 37.8931C44.5766 34.7652 43.7528 31.386 41.4399 29.0725C39.0032 26.6358 35.4166 25.8664 32.2089 27.0614L26.9578 21.8108L31.94 16.8285C35.1796 18.1566 38.952 17.4153 41.4399 14.9275C43.7528 12.6145 44.5766 9.23473 43.59 6.1068C43.5323 5.92368 43.3833 5.784 43.1963 5.73836C43.0082 5.69216 42.8125 5.7477 42.6766 5.88353L38.0073 10.5534C37.3072 11.2535 36.1673 11.2535 35.4672 10.5534L33.4468 8.53304C32.7468 7.83299 32.7468 6.69301 33.4468 5.99297L38.1167 1.32362C38.2525 1.18779 38.3075 0.990918 38.2619 0.803946C38.2162 0.617524 38.0766 0.467947 37.8934 0.410206C34.7655 -0.576896 31.3857 0.24743 29.0728 2.56038C26.6361 4.99707 25.8662 8.58363 27.0617 11.7913L22.0003 16.8533L16.9388 11.7918C18.1344 8.58418 17.3639 4.99762 14.9278 2.56093C12.6148 0.24798 9.23559 -0.576347 6.10711 0.410755C5.92399 0.468496 5.78431 0.617524 5.73867 0.804496C5.69302 0.991468 5.74802 1.18834 5.88384 1.32417L10.5537 5.99352C11.2538 6.69356 11.2538 7.83354 10.5537 8.53359L8.53335 10.554C7.8333 11.254 6.69332 11.254 5.99328 10.554L1.32338 5.88408C1.18755 5.74825 0.992329 5.69271 0.803707 5.73891C0.617285 5.78455 0.467708 5.92423 0.409966 6.10735C-0.576586 9.23528 0.247191 12.6145 2.56014 14.928C5.04742 17.4159 8.82095 18.1555 12.06 16.8291L17.0422 21.8113L11.7911 27.062C8.58449 25.8664 4.99683 26.6363 2.56014 29.073ZM12.3135 28.0952L18.2086 22.2001C18.4236 21.9851 18.4236 21.6376 18.2086 21.4226L12.573 15.7864C12.4103 15.6237 12.1628 15.5791 11.9533 15.6759C9.05467 17.0183 5.59294 16.4051 3.33773 14.1504C1.5384 12.3511 0.770162 9.81214 1.23099 7.34741L5.21514 11.3316C6.34413 12.4611 8.18195 12.4611 9.31038 11.3316L11.3308 9.31117C12.4598 8.18219 12.4598 6.34491 11.3308 5.21593L7.34663 1.23178C9.81081 0.770401 12.3503 1.53864 14.1497 3.33852C16.3565 5.54588 16.9993 8.83274 15.7873 11.7121C15.7004 11.9183 15.7472 12.1564 15.9055 12.3143L21.6109 18.0197C21.826 18.2347 22.1735 18.2347 22.3885 18.0197L28.0939 12.3143C28.2523 12.1559 28.299 11.9183 28.2121 11.7121C26.9996 8.83274 27.6424 5.54588 29.8498 3.33852C31.6491 1.53974 34.1886 0.771501 36.6528 1.23178L32.6687 5.21593C31.5397 6.34491 31.5397 8.18219 32.6687 9.31117L34.6891 11.3316C35.8181 12.4611 37.6559 12.4611 38.7843 11.3316L42.7685 7.34741C43.2293 9.81214 42.4611 12.3506 40.6617 14.1504C38.4071 16.4051 34.9448 17.0172 32.0462 15.6759C31.8372 15.5791 31.5892 15.6231 31.4264 15.7864L25.792 21.422C25.5769 21.637 25.5769 21.9846 25.792 22.1996L31.6871 28.0947C31.8454 28.2531 32.083 28.2993 32.2892 28.2129C35.1686 27.0009 38.4555 27.6438 40.6628 29.8506C42.4622 31.6499 43.2304 34.1889 42.7696 36.6536L38.7854 32.6695C37.6564 31.5399 35.8186 31.5399 34.6902 32.6695L32.6698 34.6899C31.5408 35.8188 31.5408 37.6561 32.6698 38.7851L36.6539 42.7692C34.1908 43.2295 31.6508 42.4624 29.8509 40.6625C27.5968 38.4079 26.9836 34.9461 28.3254 32.047C28.4222 31.838 28.3782 31.59 28.2149 31.4272L22.3891 25.6025C22.2818 25.4952 22.1411 25.4413 22.0003 25.4413C21.8595 25.4413 21.7187 25.4952 21.6115 25.6025L15.7862 31.4277C15.6234 31.5905 15.5794 31.8385 15.6757 32.0475C17.0175 34.9461 16.4043 38.4084 14.1502 40.6631C12.3514 42.4624 9.81246 43.2306 7.34718 42.7698L11.3313 38.7856C12.4603 37.6567 12.4603 35.8194 11.3313 34.6904L9.31093 32.67C8.18195 31.5405 6.34413 31.5405 5.2157 32.67L1.23154 36.6542C0.770712 34.1894 1.53895 31.651 3.33828 29.8511C5.54509 27.6443 8.83195 27.0015 11.7119 28.2135C11.9175 28.2998 12.1557 28.2536 12.3135 28.0952Z" fill="#266DF1"/>
</g>
<defs>
<clipPath id="clip0_4376_11594">
<rect width="44" height="44" fill="white"/>
</clipPath>
</defs>
</svg>
