<svg width="76" height="77" viewBox="0 0 76 77" fill="none" xmlns="http://www.w3.org/2000/svg">
<circle cx="33.3731" cy="40.9697" r="29.3501" fill="#E9F0FE"/>
<path d="M25.3059 29.0845L23.0733 32.784C22.8942 33.0767 22.7766 33.4028 22.7278 33.7424C22.679 34.082 22.7 34.428 22.7895 34.7593C22.8801 35.0979 23.0387 35.4145 23.2555 35.6898C23.4724 35.9652 23.743 36.1936 24.0508 36.3612L24.906 36.8203C24.8256 37.3848 24.7852 37.9542 24.7849 38.5243C24.7849 39.0882 24.8266 39.6595 24.8594 40.2423L24.0521 40.6875C23.7442 40.8551 23.4736 41.0835 23.2568 41.3588C23.04 41.6342 22.8814 41.9508 22.7908 42.2894C22.7012 42.6204 22.6801 42.9661 22.7287 43.3055C22.7773 43.6449 22.8945 43.9708 23.0733 44.2634L25.3084 47.9642C25.6747 48.5493 26.2507 48.9725 26.9187 49.1472C27.5866 49.3218 28.296 49.2348 28.9019 48.9039L29.7193 48.4536C29.7582 48.4392 29.8004 48.4356 29.8412 48.4431C29.8821 48.4506 29.9201 48.4691 29.9514 48.4964C30.8418 49.1491 31.811 49.6869 32.836 50.0971C32.8798 50.1134 32.9191 50.1397 32.9508 50.174V51.067C32.9598 51.7628 33.2444 52.4265 33.7421 52.9127C34.2399 53.3989 34.9102 53.6678 35.6059 53.6603H40.0736C40.7695 53.6681 41.4401 53.3994 41.9382 52.9132C42.4362 52.4269 42.7209 51.763 42.7299 51.067V50.1841C42.7582 50.1431 42.7996 50.1129 42.8472 50.0983C43.8711 49.688 44.8394 49.1507 45.7294 48.499C45.7607 48.4713 45.7989 48.4526 45.84 48.4448C45.881 48.437 45.9235 48.4405 45.9627 48.4548L46.7801 48.9051C47.386 49.2371 48.0959 49.3246 48.7643 49.1499C49.4327 48.9752 50.0089 48.5514 50.3749 47.9654L52.6074 44.2659C52.7866 43.9733 52.9041 43.6472 52.9529 43.3076C53.0017 42.9679 52.9807 42.6219 52.8912 42.2907C52.8006 41.9521 52.642 41.6355 52.4252 41.3601C52.2084 41.0847 51.9378 40.8563 51.6299 40.6888L50.7747 40.2297C50.8547 39.6648 50.8948 39.0949 50.8945 38.5243C50.8945 37.9605 50.8529 37.3891 50.8201 36.8064L51.6274 36.3612C51.9352 36.1936 52.2058 35.9652 52.4227 35.6898C52.6395 35.4145 52.7981 35.0979 52.8887 34.7593C52.9782 34.4283 52.9993 34.0826 52.9508 33.7432C52.9022 33.4038 52.7849 33.0778 52.6062 32.7853L50.3711 29.0845C50.0052 28.4989 49.4291 28.0753 48.761 27.9006C48.0929 27.7259 47.3833 27.8133 46.7775 28.1448L45.9602 28.5951C45.9213 28.6098 45.8791 28.6136 45.8382 28.606C45.7973 28.5984 45.7592 28.5799 45.7281 28.5522C44.8376 27.8996 43.8684 27.3618 42.8434 26.9516C42.7997 26.9353 42.7604 26.909 42.7287 26.8747V25.9816C42.7197 25.2859 42.4351 24.6222 41.9373 24.136C41.4396 23.6498 40.7693 23.3809 40.0736 23.3883H35.6059C34.9099 23.3806 34.2393 23.6493 33.7413 24.1355C33.2433 24.6217 32.9585 25.2857 32.9495 25.9816V26.8646C32.9212 26.9056 32.8799 26.9358 32.8322 26.9504C31.8083 27.3606 30.84 27.898 29.9501 28.5497C29.9187 28.5773 29.8805 28.5959 29.8395 28.6037C29.7984 28.6115 29.756 28.6081 29.7167 28.5939L28.8994 28.1436C28.2932 27.8134 27.5839 27.7269 26.9161 27.9017C26.2483 28.0766 25.6724 28.4996 25.3059 29.0845ZM27.4653 30.39C27.4915 30.36 27.5273 30.3399 27.5666 30.3332C27.6059 30.3266 27.6463 30.3337 27.681 30.3534L28.4983 30.8037C28.9587 31.0507 29.4799 31.1615 30.001 31.1233C30.522 31.0851 31.0215 30.8995 31.441 30.588C32.1603 30.0605 32.943 29.6253 33.7707 29.2926C34.2645 29.1073 34.691 28.7775 34.9945 28.3462C35.298 27.9148 35.4645 27.402 35.4722 26.8747V25.9816C35.4722 25.964 35.5176 25.911 35.6059 25.911H40.0736C40.1618 25.911 40.2073 25.964 40.2073 25.9816V26.8747C40.215 27.4019 40.3814 27.9145 40.6847 28.3458C40.9879 28.777 41.4141 29.107 41.9075 29.2926C42.736 29.6253 43.5195 30.0605 44.2397 30.588C44.659 30.8995 45.1582 31.0852 45.6791 31.1234C46.2 31.1616 46.721 31.0507 47.1812 30.8037L47.9985 30.3534C48.033 30.3341 48.0729 30.3271 48.1119 30.3335C48.1509 30.3399 48.1865 30.3594 48.2129 30.3887L50.4077 34.1538L49.6017 34.5978C49.1457 34.8437 48.7749 35.2218 48.5378 35.6824C48.3007 36.143 48.2086 36.6646 48.2735 37.1785C48.4047 38.0709 48.4047 38.9778 48.2735 39.8702C48.2086 40.3838 48.3006 40.9051 48.5374 41.3654C48.7742 41.8258 49.1448 42.2038 49.6004 42.4496L50.4468 42.9541L48.2142 46.6536C48.1876 46.6831 48.1518 46.7027 48.1127 46.7094C48.0736 46.716 48.0333 46.7092 47.9985 46.6902L47.1812 46.2399C46.7207 45.9933 46.1995 45.8826 45.6785 45.9208C45.1575 45.959 44.6581 46.1445 44.2385 46.4556C43.5191 46.9831 42.7365 47.4183 41.9088 47.751C41.415 47.9363 40.9885 48.2661 40.685 48.6975C40.3814 49.1288 40.215 49.6416 40.2073 50.169V51.062C40.2073 51.0797 40.1618 51.1326 40.0736 51.1326H35.6059C35.5176 51.1326 35.4722 51.0797 35.4722 51.062V50.169C35.4644 49.6418 35.2981 49.1292 34.9948 48.6979C34.6915 48.2666 34.2654 47.9367 33.7719 47.751C32.9435 47.4184 32.1599 46.9832 31.4397 46.4556C30.9593 46.1034 30.3793 45.9131 29.7836 45.912C29.3342 45.9101 28.8918 46.023 28.4983 46.2399L27.681 46.6902C27.6464 46.7093 27.6065 46.7162 27.5676 46.7098C27.5287 46.7034 27.4931 46.684 27.4665 46.6549L25.2718 42.8898L26.0778 42.4458C26.5337 42.1999 26.9046 41.8218 27.1417 41.3612C27.3787 40.9006 27.4709 40.3791 27.406 39.8651C27.2748 38.9727 27.2748 38.0659 27.406 37.1735C27.4709 36.6598 27.3789 36.1386 27.1421 35.6782C26.9052 35.2178 26.5347 34.8399 26.0791 34.594L25.2327 34.0895L27.4653 30.39Z" fill="#276EF1"/>
<path d="M37.8402 45.4616C39.2122 45.4616 40.5535 45.0547 41.6943 44.2924C42.8352 43.5301 43.7244 42.4467 44.2494 41.1791C44.7745 39.9114 44.9119 38.5166 44.6442 37.1708C44.3765 35.8251 43.7158 34.589 42.7456 33.6188C41.7754 32.6486 40.5393 31.9879 39.1936 31.7202C37.8479 31.4525 36.453 31.5899 35.1854 32.115C33.9177 32.6401 32.8343 33.5292 32.072 34.6701C31.3097 35.8109 30.9028 37.1522 30.9028 38.5242C30.9048 40.3635 31.6364 42.1269 32.9369 43.4275C34.2375 44.728 36.0009 45.4596 37.8402 45.4616ZM37.8402 34.1096C38.7133 34.1096 39.5668 34.3685 40.2928 34.8536C41.0188 35.3387 41.5846 36.0282 41.9188 36.8348C42.2529 37.6415 42.3403 38.5291 42.17 39.3855C41.9997 40.2419 41.5792 41.0285 40.9618 41.6459C40.3444 42.2633 39.5578 42.6837 38.7014 42.8541C37.8451 43.0244 36.9574 42.937 36.1507 42.6029C35.3441 42.2687 34.6546 41.7029 34.1695 40.9769C33.6844 40.2509 33.4255 39.3974 33.4255 38.5242C33.4255 37.3534 33.8906 36.2305 34.7185 35.4026C35.5464 34.5747 36.6693 34.1096 37.8402 34.1096Z" fill="#276EF1"/>
<path d="M1.26133 49.8765H13.8747C14.2092 49.8765 14.53 49.7436 14.7666 49.5071C15.0031 49.2705 15.136 48.9497 15.136 48.6152V38.5245C15.136 37.521 14.7373 36.5585 14.0277 35.8488C13.3181 35.1392 12.3556 34.7405 11.352 34.7405H10.8702C11.648 34.0672 12.2014 33.1722 12.4562 32.1754C12.7109 31.1787 12.6549 30.1279 12.2956 29.1639C11.9364 28.1999 11.291 27.3688 10.446 26.782C9.60097 26.1951 8.59678 25.8806 7.568 25.8806C6.53922 25.8806 5.53503 26.1951 4.69004 26.782C3.84505 27.3688 3.19965 28.1999 2.84036 29.1639C2.48106 30.1279 2.42505 31.1787 2.67983 32.1754C2.93462 33.1722 3.48801 34.0672 4.26583 34.7405H3.784C2.78042 34.7405 1.81795 35.1392 1.10831 35.8488C0.39867 36.5585 0 37.521 0 38.5245V48.6152C0 48.9497 0.13289 49.2705 0.369436 49.5071C0.605982 49.7436 0.926807 49.8765 1.26133 49.8765ZM7.568 28.4339C8.06693 28.4339 8.55467 28.5818 8.96952 28.859C9.38437 29.1362 9.7077 29.5302 9.89864 29.9911C10.0896 30.4521 10.1395 30.9593 10.0422 31.4487C9.94485 31.938 9.70459 32.3875 9.35179 32.7403C8.99899 33.0931 8.5495 33.3334 8.06015 33.4307C7.5708 33.5281 7.06357 33.4781 6.60262 33.2872C6.14166 33.0962 5.74767 32.7729 5.47048 32.3581C5.19328 31.9432 5.04533 31.4555 5.04533 30.9565C5.04533 30.2875 5.31111 29.6458 5.7842 29.1727C6.2573 28.6996 6.89895 28.4339 7.568 28.4339ZM2.52267 38.5245C2.52267 38.19 2.65556 37.8692 2.8921 37.6326C3.12865 37.3961 3.44947 37.2632 3.784 37.2632H11.352C11.6865 37.2632 12.0073 37.3961 12.2439 37.6326C12.4804 37.8692 12.6133 38.19 12.6133 38.5245V47.3539H2.52267V38.5245Z" fill="#276EF1"/>
<path d="M71.8959 34.7405H71.4141C72.1919 34.0672 72.7453 33.1722 73.0001 32.1754C73.2549 31.1787 73.1989 30.1279 72.8396 29.1639C72.4803 28.1999 71.8349 27.3688 70.9899 26.782C70.1449 26.1951 69.1407 25.8806 68.1119 25.8806C67.0832 25.8806 66.079 26.1951 65.234 26.782C64.389 27.3688 63.7436 28.1999 63.3843 29.1639C63.025 30.1279 62.969 31.1787 63.2238 32.1754C63.4786 33.1722 64.032 34.0672 64.8098 34.7405H64.3279C63.3244 34.7405 62.3619 35.1392 61.6523 35.8488C60.9426 36.5585 60.5439 37.521 60.5439 38.5245V48.6152C60.5439 48.9497 60.6768 49.2705 60.9134 49.5071C61.1499 49.7436 61.4708 49.8765 61.8053 49.8765H74.4186C74.7531 49.8765 75.074 49.7436 75.3105 49.5071C75.5471 49.2705 75.6799 48.9497 75.6799 48.6152V38.5245C75.6799 37.521 75.2813 36.5585 74.5716 35.8488C73.862 35.1392 72.8995 34.7405 71.8959 34.7405ZM68.1119 28.4339C68.6109 28.4339 69.0986 28.5818 69.5135 28.859C69.9283 29.1362 70.2516 29.5302 70.4426 29.9911C70.6335 30.4521 70.6835 30.9593 70.5861 31.4487C70.4888 31.938 70.2485 32.3875 69.8957 32.7403C69.5429 33.0931 69.0934 33.3334 68.6041 33.4307C68.1147 33.5281 67.6075 33.4781 67.1466 33.2872C66.6856 33.0962 66.2916 32.7729 66.0144 32.3581C65.7372 31.9432 65.5893 31.4555 65.5893 30.9565C65.5893 30.2875 65.8551 29.6458 66.3281 29.1727C66.8012 28.6996 67.4429 28.4339 68.1119 28.4339ZM73.1573 47.3539H63.0666V38.5245C63.0666 38.19 63.1995 37.8692 63.436 37.6326C63.6726 37.3961 63.9934 37.2632 64.3279 37.2632H71.8959C72.2305 37.2632 72.5513 37.3961 72.7878 37.6326C73.0244 37.8692 73.1573 38.19 73.1573 38.5245V47.3539Z" fill="#276EF1"/>
<path d="M23.1544 12.0577L22.491 14.1805L24.8976 14.9373L26.4881 9.82639C26.5863 9.50858 26.555 9.16486 26.401 8.87004C26.2469 8.57522 25.9827 8.35318 25.6657 8.25224L20.5599 6.65161L19.8031 9.0595L22.0735 9.76837C17.0344 12.5286 12.8085 16.5636 9.81836 21.4698L11.9715 22.7841C14.7067 18.3 18.5603 14.6038 23.1544 12.0577Z" fill="#276EF1"/>
<path d="M52.5686 64.9605L53.2383 62.7948L50.8292 62.0493L49.2487 67.1628C49.1998 67.321 49.1825 67.4874 49.1978 67.6524C49.2131 67.8173 49.2608 67.9777 49.3381 68.1242C49.4154 68.2707 49.5208 68.4006 49.6483 68.5064C49.7759 68.6122 49.9229 68.6918 50.0812 68.7407L55.1947 70.3199L55.9389 67.9095L53.7038 67.2195C59.1361 64.1964 63.6108 59.709 66.6186 54.2682L64.4087 53.0522C61.6475 58.0465 57.5469 62.1707 52.5686 64.9605Z" fill="#276EF1"/>
<path d="M62.0373 20.361L59.5714 19.893L59.0996 22.3715L64.3581 23.3667C64.4359 23.3818 64.5148 23.3894 64.594 23.3894C64.8877 23.3893 65.1722 23.2866 65.3983 23.0992C65.6244 22.9118 65.778 22.6513 65.8326 22.3627L66.8278 17.1055L64.3506 16.6363L63.9495 18.7212C60.2693 13.8701 55.3189 10.1316 49.646 7.91919L48.7378 10.2703C54.0235 12.3309 58.6294 15.8255 62.0373 20.361Z" fill="#276EF1"/>
<path d="M37.84 15.8203C39.3368 15.8203 40.8 15.3765 42.0445 14.5449C43.2891 13.7133 44.2591 12.5313 44.8319 11.1485C45.4047 9.7656 45.5546 8.24393 45.2626 6.77589C44.9705 5.30784 44.2498 3.95935 43.1914 2.90094C42.133 1.84254 40.7845 1.12176 39.3164 0.829747C37.8484 0.537734 36.3267 0.687605 34.9438 1.26041C33.561 1.83321 32.379 2.80322 31.5474 4.04777C30.7158 5.29233 30.272 6.75552 30.272 8.25233C30.274 10.2589 31.072 12.1827 32.4908 13.6015C33.9096 15.0203 35.8334 15.8183 37.84 15.8203ZM37.84 3.207C38.8378 3.207 39.8133 3.5029 40.643 4.05729C41.4727 4.61168 42.1194 5.39965 42.5013 6.32156C42.8831 7.24348 42.983 8.25793 42.7884 9.23662C42.5937 10.2153 42.1132 11.1143 41.4076 11.8199C40.702 12.5255 39.803 13.006 38.8243 13.2007C37.8456 13.3954 36.8311 13.2955 35.9092 12.9136C34.9873 12.5317 34.1993 11.8851 33.6449 11.0554C33.0905 10.2257 32.7946 9.2502 32.7946 8.25233C32.7946 6.91422 33.3262 5.63092 34.2724 4.68474C35.2186 3.73856 36.5019 3.207 37.84 3.207Z" fill="#276EF1"/>
<path d="M45.408 68.7963C45.408 67.2995 44.9641 65.8363 44.1325 64.5917C43.301 63.3472 42.119 62.3772 40.7361 61.8044C39.3533 61.2316 37.8316 61.0817 36.3635 61.3737C34.8955 61.6657 33.547 62.3865 32.4886 63.4449C31.4302 64.5033 30.7094 65.8518 30.4174 67.3198C30.1254 68.7879 30.2753 70.3096 30.8481 71.6924C31.4209 73.0753 32.3909 74.2573 33.6354 75.0888C34.88 75.9204 36.3432 76.3643 37.84 76.3643C39.8465 76.3623 41.7703 75.5643 43.1891 74.1454C44.608 72.7266 45.406 70.8028 45.408 68.7963ZM37.84 73.8416C36.8421 73.8416 35.8666 73.5457 35.0369 72.9913C34.2072 72.4369 33.5606 71.649 33.1787 70.727C32.7968 69.8051 32.6969 68.7907 32.8916 67.812C33.0863 66.8333 33.5668 65.9343 34.2724 65.2287C34.978 64.5231 35.877 64.0426 36.8557 63.8479C37.8344 63.6532 38.8488 63.7531 39.7707 64.135C40.6927 64.5169 41.4806 65.1635 42.035 65.9932C42.5894 66.8229 42.8853 67.7984 42.8853 68.7963C42.8853 70.1344 42.3537 71.4177 41.4076 72.3639C40.4614 73.31 39.1781 73.8416 37.84 73.8416Z" fill="#276EF1"/>
<path d="M16.3393 54.4864L11.0518 53.6603C10.8881 53.6348 10.7209 53.6418 10.5599 53.681C10.3989 53.7201 10.2471 53.7906 10.1134 53.8884C9.97959 53.9862 9.8664 54.1094 9.78027 54.251C9.69413 54.3926 9.63674 54.5497 9.61137 54.7135L8.7915 60.001L11.2839 60.3882L11.6245 58.1922C15.314 63.109 20.3058 66.8954 26.0352 69.123L26.9408 66.7693C21.6245 64.7031 16.9966 61.1833 13.5858 56.6118L15.9521 56.9801L16.3393 54.4864Z" fill="#276EF1"/>
</svg>
