<svg width="70" height="67" viewBox="0 0 70 67" fill="none" xmlns="http://www.w3.org/2000/svg">
<path d="M26.7383 60.3042C26.7383 60.6004 26.8608 60.8845 27.0788 61.0939C27.2968 61.3033 27.5927 61.421 27.9011 61.421H41.8548C42.4969 61.421 43.0176 60.9209 43.0176 60.3042C43.0176 59.6875 42.4969 59.1875 41.8548 59.1875H27.9011C27.259 59.1875 26.7383 59.6875 26.7383 60.3042Z" fill="#276EF1"/>
<path d="M34.2942 21.1457L24.0033 26.852V26.8525C23.6435 27.0519 23.4219 27.4203 23.4219 27.8192V39.2324C23.4219 39.6312 23.6435 40.0001 24.0033 40.1995L34.2942 45.9059C34.6539 46.1058 35.0973 46.1058 35.457 45.9059L45.7479 40.204C46.1077 40.0046 46.3293 39.6357 46.3293 39.2368V27.8192C46.3293 27.4203 46.1077 27.0519 45.7479 26.8525L35.457 21.1462V21.1457C35.0973 20.9462 34.6539 20.9462 34.2942 21.1457V21.1457ZM44.0036 38.5885L36.0383 43.005V34.1739L44.0036 29.7563V38.5885ZM42.8408 27.8199L34.8755 32.2365L26.9102 27.8194L34.8755 23.4029L42.8408 27.8199Z" fill="#276EF1"/>
<path d="M49.9935 0H19.7605C18.8354 0 17.9477 0.352966 17.2937 0.981135C16.6397 1.6093 16.2721 2.46187 16.2721 3.35015V23.6978L0.566866 32.5389C0.214914 32.7428 0 33.1082 0 33.5026C0 33.8969 0.214914 34.2624 0.566866 34.4663L16.2721 43.3074V63.655C16.2721 64.5434 16.6396 65.396 17.2937 66.024C17.9478 66.6521 18.8355 67.0052 19.7605 67.0052H49.9935C50.9185 67.0052 51.8063 66.6522 52.4602 66.024C53.1142 65.3959 53.4818 64.5433 53.4818 63.655V43.3074L69.1871 34.4663C69.5318 34.2693 69.7477 33.9169 69.7591 33.532C69.7711 33.1471 69.5764 32.7832 69.2442 32.5678L51.1563 22.3871C50.8998 22.2226 53.488 24.7227 53.1854 24.7805C52.8832 24.8383 50.7237 23.0165 50.5524 23.2633C50.1963 23.7763 50.6221 24.6359 51.1563 24.9779L66.4072 33.4353L53.4823 40.719V3.35097C53.4823 2.46257 53.1148 1.61001 52.4607 0.981951C51.8067 0.353898 50.9189 0.000816707 49.994 0.000816707L49.9935 0ZM16.272 40.7182L3.45575 33.5018L16.272 26.2864V40.7182ZM51.1563 63.6541C51.1563 63.9502 51.0338 64.2344 50.8158 64.4438C50.5977 64.6532 50.3018 64.7708 49.9935 64.7708H19.7605C19.1183 64.7708 18.5976 64.2708 18.5976 63.6541V44.6159L34.2883 53.4492C34.6511 53.6536 35.1017 53.6541 35.4646 53.4497L51.1552 44.6159L51.1563 63.6541ZM51.1563 42.0277L34.877 51.1928L18.5976 42.0277V24.9779L34.877 15.8128L51.1563 24.9779V42.0277ZM51.1563 22.3871L35.4657 13.5539C35.1023 13.3505 34.6528 13.3505 34.2894 13.5539L18.5988 22.3871V3.35022C18.5988 2.73352 19.1194 2.23348 19.7616 2.23348H25.5756V4.46695C25.5756 5.05922 25.8206 5.62757 26.2567 6.04634C26.6927 6.46511 27.2845 6.70043 27.9012 6.70043H41.8549C42.4716 6.70043 43.0634 6.46511 43.4995 6.04634C43.9355 5.62757 44.1806 5.05922 44.1806 4.46695V2.23348H49.9946C50.3029 2.23348 50.5988 2.35113 50.8169 2.56052C51.0349 2.76991 51.1574 3.05408 51.1574 3.35022L51.1563 22.3871Z" fill="#276EF1"/>
<path d="M48.8295 16.7496C48.8295 17.3662 48.3089 17.8663 47.6667 17.8663C47.0246 17.8663 46.5039 17.3662 46.5039 16.7496C46.5039 16.1329 47.0246 15.6328 47.6667 15.6328C48.3089 15.6328 48.8295 16.1329 48.8295 16.7496Z" fill="#276EF1"/>
<path d="M47.6667 4.46484C47.0246 4.46484 46.5039 4.96489 46.5039 5.58158V12.282C46.5039 12.8987 47.0246 13.3988 47.6667 13.3988C48.3089 13.3988 48.8295 12.8987 48.8295 12.282V5.58158C48.8295 5.28545 48.707 5.00127 48.489 4.79189C48.271 4.5825 47.9751 4.46484 47.6667 4.46484Z" fill="#276EF1"/>
</svg>
