<svg width="95" height="94" viewBox="0 0 95 94" fill="none" xmlns="http://www.w3.org/2000/svg">
<path d="M93.4151 62.73L88.7596 58.9336C87.0586 57.5464 84.546 57.8018 83.1598 59.5028L81.9483 60.9892L73.81 54.3137C74.1129 53.6767 74.308 52.9782 74.3662 52.2506C74.4902 50.7178 74.0192 49.1893 73.076 48.0565C72.5877 47.4701 71.9884 46.9969 71.3233 46.6562C72.3775 44.9381 72.5521 42.7833 71.8245 41.2656C70.8372 39.2047 69.2138 38.4426 67.9257 38.1117C69.272 36.1984 70.5235 33.4378 68.04 30.4542C67.0731 29.2922 65.7807 28.6056 64.4365 28.4234C65.0229 26.7181 64.9033 24.8555 63.6335 23.2645C62.7669 22.1791 61.3914 21.4666 59.8576 21.3103C58.3248 21.1551 56.8696 21.5701 55.7497 22.4755L48.7605 20.1601C46.8461 19.5274 45.129 19.6147 43.6534 20.4232C42.2887 21.1712 41.2076 22.5035 40.4261 24.3953L38.1765 22.4949C37.0555 21.5474 35.6272 21.0925 34.158 21.2187C32.6878 21.3426 31.3566 22.0282 30.4091 23.1492C29.4627 24.2702 29.0089 25.6974 29.1328 27.1666C29.1673 27.5751 29.2492 27.9718 29.3678 28.3533C28.0528 28.556 26.8692 29.2114 26.0069 30.2375C24.5981 31.9126 24.3631 34.1902 25.206 36.069C24.1206 36.3547 23.1515 36.9615 22.4164 37.8389C20.6809 39.9096 20.7294 42.9062 22.3927 44.9273C21.5099 45.2528 20.7219 45.8004 20.1021 46.5431C18.6264 48.3108 18.4443 50.7545 19.451 52.6915L11.5155 59.2991C10.098 57.7964 7.74279 57.6078 6.11946 58.9326L1.46289 62.729C-0.236977 64.1152 -0.493519 66.6267 0.893751 68.3276L20.4772 92.3456C21.1466 93.167 22.0995 93.6801 23.1591 93.7868C23.297 93.8008 23.435 93.8083 23.5719 93.8083C24.4849 93.8083 25.3623 93.4979 26.0759 92.9158L30.7325 89.1194C32.4323 87.7332 32.6899 85.2206 31.3027 83.5208L28.8396 80.4994L42.1863 69.8108C42.8719 69.8852 43.5434 69.966 44.2009 70.0458C46.3611 70.3067 48.4695 70.5567 50.5347 70.4824L64.7222 82.1206L63.5807 83.5208C62.1945 85.2206 62.4499 87.7332 64.1498 89.1194L68.8064 92.9158C69.521 93.499 70.3985 93.8094 71.3114 93.8094C71.4483 93.8094 71.5863 93.8029 71.7243 93.7879C72.7839 93.6801 73.7367 93.1681 74.4061 92.3467L93.9896 68.3276C95.3715 66.6278 95.1149 64.1162 93.4151 62.73ZM45.0331 22.9465C45.7909 22.5315 46.7135 22.5132 47.8551 22.8916L53.1411 24.6432L46.8839 29.8527L42.763 26.3721C43.3181 24.6378 44.0942 23.4607 45.0331 22.9465ZM32.6037 25.0054C33.1243 24.3888 33.8692 24.0708 34.6194 24.0708C35.2209 24.0708 35.8256 24.2745 36.3182 24.6928L45.5408 32.4828C46.0754 32.9345 46.402 33.5715 46.4613 34.2754C46.5217 34.9803 46.305 35.6626 45.8534 36.1984C45.4017 36.733 44.7658 37.0596 44.0608 37.1189C43.3559 37.176 42.6735 36.9626 42.1389 36.5099L32.9163 28.7198C32.3827 28.2682 32.054 27.6322 31.9947 26.9273C31.9354 26.2223 32.1531 25.54 32.6037 25.0054ZM28.2048 32.0905C28.6553 31.5558 29.2891 31.2292 29.9898 31.1699C30.6861 31.1128 31.3706 31.3284 31.9031 31.7789L39.512 38.2356C40.6223 39.1777 40.7635 40.8528 39.8246 41.9673C39.3762 42.502 38.7413 42.8286 38.0407 42.8879C37.3336 42.9493 36.6599 42.7305 36.1274 42.2789L35.7566 41.9641L30.1633 37.1922C30.0512 37.0963 29.9326 37.009 29.8152 36.9227L28.5173 35.8222C27.4082 34.879 27.267 33.205 28.2048 32.0905ZM24.6185 39.6876C25.0659 39.1529 25.6975 38.8263 26.3949 38.7681C26.4693 38.7616 26.5437 38.7595 26.617 38.7595C27.1538 38.7595 27.6647 38.9319 28.1024 39.2402L33.9241 44.1803L34.3693 44.5597C35.4806 45.5072 35.6208 47.1898 34.683 48.3098C34.2357 48.8444 33.604 49.171 32.9066 49.2292C32.2221 49.2874 31.5581 49.0751 31.0321 48.6385L27.8426 45.9017C27.7639 45.8338 27.6798 45.7745 27.5968 45.7109L24.9333 43.4376C23.8209 42.489 23.6797 40.8075 24.6185 39.6876ZM22.3075 48.3874C22.7538 47.8527 23.3811 47.5272 24.0764 47.469C24.7188 47.4151 25.3375 47.608 25.8452 47.9939L29.1371 50.803C29.1576 50.8202 29.1792 50.8353 29.1997 50.8515L30.8295 52.2495C31.9397 53.2024 32.0798 54.8926 31.141 56.0157C30.6947 56.5504 30.0674 56.8759 29.3732 56.9341C28.6812 56.9902 28.0064 56.7735 27.4782 56.3208L22.6201 52.1525C21.5088 51.2007 21.3686 49.5106 22.3075 48.3874ZM28.9119 86.8925L24.2553 90.6889C24.0289 90.8732 23.7379 90.9594 23.4469 90.9282C23.1515 90.898 22.8863 90.7568 22.702 90.5304L3.11963 66.5124C2.73482 66.0403 2.80596 65.3429 3.27809 64.9581L7.93466 61.1617C8.13838 60.9946 8.3863 60.9138 8.63099 60.9138C8.95113 60.9138 9.27019 61.0528 9.48793 61.3201L10.2338 62.2353L10.2349 62.2364L10.236 62.2374L25.6814 81.1817L25.6835 81.1849L25.6868 81.1882L29.0714 85.3392C29.4551 85.8102 29.384 86.5076 28.9119 86.8925ZM44.5426 67.1926C43.6814 67.0891 42.7986 66.9824 41.8888 66.8908C41.5148 66.8509 41.1397 66.9641 40.8465 67.1991L27.0191 78.2724L13.3533 61.5109L21.3503 54.8527L25.607 58.5046C26.6051 59.3616 27.849 59.8208 29.1501 59.8208C29.3031 59.8208 29.4573 59.8143 29.6114 59.8014C31.0785 59.6796 32.4054 58.9908 33.3496 57.8611C34.7725 56.1569 34.9913 53.8254 34.1042 51.9251C35.1875 51.6383 36.1543 51.0326 36.8884 50.1562C37.9469 48.8918 38.3382 47.2836 38.1086 45.7616C38.1668 45.7583 38.225 45.7594 38.2832 45.754C39.7524 45.6301 41.0825 44.9435 42.0268 43.8192C42.9667 42.7025 43.3817 41.3152 43.3073 39.9592C43.482 39.9754 43.6534 40.0045 43.8301 40.0045C43.9875 40.0045 44.146 39.998 44.3044 39.9851C45.7747 39.8611 47.1059 39.1756 48.0523 38.0545C48.9987 36.9335 49.4536 35.5063 49.3296 34.0361C49.2693 33.3247 49.0752 32.6477 48.767 32.029L57.5325 24.7305C58.0532 24.2982 58.7958 24.0956 59.5665 24.1743C60.3243 24.2519 61.0045 24.5828 61.3871 25.0614C62.4909 26.4433 61.6253 28.4256 60.2004 29.6684C59.6075 30.1858 59.5407 31.0848 60.0516 31.6841C60.5614 32.2834 61.4593 32.3599 62.0651 31.8565C63.1894 30.9198 64.8451 31.1117 65.8303 32.2974C67.2671 34.0231 66.5589 35.2875 64.7211 37.5705L64.5971 37.7247C63.9655 38.5116 64.0959 39.2003 64.2296 39.5399C64.6004 40.482 65.5533 40.621 66.2496 40.7224C67.4989 40.9034 68.5865 41.1632 69.2322 42.5117C69.6148 43.3093 69.341 45.3735 67.7684 46.2208C67.1712 46.542 66.8812 47.2362 67.0699 47.8872C67.2585 48.5383 67.8708 48.9716 68.552 48.9209C69.4326 48.8563 70.3047 49.2238 70.8673 49.8997C71.3341 50.4591 71.5647 51.2331 71.5012 52.0221C71.4386 52.8057 71.0894 53.515 70.544 53.9699L57.0852 65.1704C53.3761 68.2597 49.4773 67.7887 44.5426 67.1926ZM54.3354 69.8852C55.8898 69.4152 57.4193 68.6327 58.9252 67.3791L71.9668 56.5213L80.1298 63.2173L66.5352 79.8925L54.3354 69.8852ZM91.7562 66.5124L72.1738 90.5315C71.9894 90.7578 71.7254 90.8991 71.4289 90.9292C71.1357 90.9605 70.8458 90.8743 70.6194 90.6899L65.9629 86.8935C65.4907 86.5087 65.4207 85.8113 65.8055 85.3392L85.3868 61.3212C85.7738 60.848 86.4701 60.7779 86.9422 61.1628L91.5977 64.9592C92.0698 65.3429 92.141 66.0403 91.7562 66.5124ZM44.9716 8.59418V1.43793C44.9716 0.643512 45.6152 0 46.4096 0C47.204 0 47.8475 0.643512 47.8475 1.43793V8.59418C47.8475 9.38859 47.204 10.0321 46.4096 10.0321C45.6152 10.0321 44.9716 9.38752 44.9716 8.59418ZM22.1135 9.30559C21.7168 8.61789 21.9529 7.73831 22.6395 7.34164C23.3283 6.94282 24.2057 7.17996 24.6035 7.86766L28.181 14.0656C28.5777 14.7534 28.3416 15.6329 27.655 16.0296C27.4287 16.16 27.1807 16.2225 26.9382 16.2225C26.4413 16.2225 25.9584 15.9649 25.6911 15.5036L22.1135 9.30559ZM5.72494 25.5853C6.12161 24.8976 6.99903 24.6604 7.68889 25.0592L13.8869 28.6368C14.5746 29.0335 14.8096 29.9131 14.4129 30.6008C14.1456 31.0621 13.6637 31.3197 13.1658 31.3197C12.9221 31.3197 12.6753 31.2572 12.4489 31.1268L6.25096 27.5492C5.56433 27.1515 5.32935 26.273 5.72494 25.5853ZM80.2204 27.4565C79.8237 26.7688 80.0598 25.8903 80.7464 25.4926L86.9444 21.9139C87.6332 21.5162 88.5106 21.7522 88.9083 22.4399C89.305 23.1276 89.0689 24.0061 88.3823 24.4039L82.1843 27.9825C81.958 28.113 81.71 28.1755 81.4675 28.1755C80.9706 28.1755 80.4877 27.9179 80.2204 27.4565ZM65.1232 12.2504L68.7007 6.05246C69.0974 5.36476 69.9748 5.12762 70.6647 5.52644C71.3524 5.92311 71.5874 6.80269 71.1907 7.4904L67.6131 13.6884C67.3469 14.1497 66.864 14.4073 66.366 14.4073C66.1224 14.4073 65.8755 14.3448 65.6492 14.2144C64.9625 13.8177 64.7265 12.9382 65.1232 12.2504Z" fill="#276EF1"/>
</svg>
