<svg width="71" height="49" viewBox="0 0 71 49" fill="none" xmlns="http://www.w3.org/2000/svg">
<path d="M69.9226 41.4738H65.605V6.00926C65.605 3.15192 63.2345 0.798828 60.3561 0.798828H11.3388C8.4604 0.798828 6.08996 3.15192 6.08996 6.00926V41.4738H1.77237C1.26442 41.4738 0.925781 41.8099 0.925781 42.3142V44.163C0.925781 46.6842 3.04225 48.7852 5.58201 48.7852H66.1129C68.6527 48.7852 70.7691 46.6842 70.7691 44.163V42.3142C70.7691 41.8099 70.3459 41.4738 69.9226 41.4738ZM7.78313 6.00926C7.78313 4.07635 9.39164 2.47961 11.3388 2.47961H60.2715C62.2186 2.47961 63.8271 4.07635 63.8271 6.00926V41.4738H7.78313V6.00926ZM69.076 44.163C69.076 45.7598 67.7214 47.1044 66.1129 47.1044H5.58201C3.97349 47.1044 2.61895 45.7598 2.61895 44.163V43.1546H69.076V44.163Z" fill="#F5F5F5"/>
<path d="M48.0835 11.8934C48.0835 11.8934 48.0835 11.8093 47.9989 11.8093C47.9989 11.8093 47.9989 11.7253 47.9142 11.7253L43.6813 5.75851C43.3427 5.33831 42.5807 5.33831 42.3268 5.75851L38.0938 11.7253C38.0938 11.7253 38.0938 11.8093 38.0092 11.8093C38.0092 11.8093 38.0092 11.8934 37.9245 11.8934C37.9245 11.9774 37.8398 12.0614 37.8398 12.2295V37.1051C37.8398 37.6093 38.1785 37.9455 38.6864 37.9455H47.1523C47.6602 37.9455 47.9989 37.6093 47.9989 37.1051V33.6595V12.2295C48.0835 12.0614 48.0835 11.9774 48.0835 11.8934ZM39.6177 32.8191V13.0699H42.1574V32.8191H39.6177ZM43.8506 13.0699H46.3904V32.8191H43.8506V13.0699ZM43.004 7.69141L45.6284 11.3891H40.3796L43.004 7.69141ZM39.6177 36.2647V34.4999H46.3904V36.2647H39.6177Z" fill="#F5F5F5"/>
<path d="M33.7788 5.33594H24.3817C23.8738 5.33594 23.5352 5.67209 23.5352 6.17633V37.0187C23.5352 37.5229 23.8738 37.8591 24.3817 37.8591H33.7788C34.2868 37.8591 34.6254 37.5229 34.6254 37.0187V6.17633C34.6254 5.75613 34.2868 5.33594 33.7788 5.33594ZM32.9323 36.2624H25.2283V32.4806H29.1226C29.6306 32.4806 29.9692 32.1444 29.9692 31.6402C29.9692 31.136 29.6306 30.7998 29.1226 30.7998H25.2283V28.4467H27.6834C28.1914 28.4467 28.53 28.1105 28.53 27.6063C28.53 27.1021 28.1914 26.7659 27.6834 26.7659H25.2283V24.4128H29.1226C29.6306 24.4128 29.9692 24.0767 29.9692 23.5724C29.9692 23.0682 29.6306 22.732 29.1226 22.732H25.2283V20.3789H27.6834C28.1914 20.3789 28.53 20.0428 28.53 19.5386C28.53 19.0343 28.1914 18.6982 27.6834 18.6982H25.2283V16.177H29.1226C29.6306 16.177 29.9692 15.8408 29.9692 15.3366C29.9692 14.8324 29.6306 14.4962 29.1226 14.4962H25.2283V12.1431H27.6834C28.1914 12.1431 28.53 11.807 28.53 11.3027C28.53 10.7985 28.1914 10.4623 27.6834 10.4623H25.2283V7.10076H32.9323V36.2624Z" fill="#F5F5F5"/>
</svg>
