<svg width="110" height="106" viewBox="0 0 110 106" fill="none" xmlns="http://www.w3.org/2000/svg">
<path d="M60.9682 48.8027H39.5587C38.0812 48.8027 36.8828 50.0012 36.8828 51.4786V102.325C36.8828 103.034 37.1647 103.716 37.6668 104.217C38.169 104.719 38.8494 105.001 39.5587 105.001H60.9682C61.6776 105.001 62.3589 104.719 62.8601 104.217C63.3623 103.716 63.6441 103.034 63.6441 102.325V51.4786C63.6441 50.0011 62.4457 48.8027 60.9683 48.8027H60.9682ZM58.2923 99.6491H42.2358V54.155H58.2923V99.6491Z" fill="black"/>
<path d="M24.8393 67.5352H3.42979C1.95228 67.5352 0.753906 68.7336 0.753906 70.212V102.325C0.753906 103.035 1.03578 103.716 1.53791 104.217C2.03914 104.72 2.72047 105.001 3.42984 105.001H24.8393C25.5487 105.001 26.2291 104.72 26.7312 104.217C27.2334 103.716 27.5152 103.035 27.5152 102.325V70.212C27.5152 68.7336 26.3168 67.5352 24.8393 67.5352H24.8393ZM22.1634 99.6486H6.10687V72.8874H22.1634V99.6486Z" fill="black"/>
<path d="M108.87 26.3491L87.8084 0.925891C87.2848 0.336953 86.5353 0 85.7476 0C84.9598 0 84.2103 0.336953 83.6867 0.925891L62.6254 26.3491C61.9608 27.148 61.818 28.2587 62.2595 29.1996C62.701 30.1395 63.6474 30.7396 64.6862 30.7378H73.0089V102.324C73.0089 103.033 73.2908 103.715 73.7929 104.216C74.2951 104.718 74.9755 105 75.6849 105H97.0943C97.8037 105 98.485 104.718 98.9863 104.216C99.4884 103.715 99.7703 103.033 99.7703 102.324V30.7378H106.809C107.848 30.7396 108.794 30.1395 109.235 29.1996C109.677 28.2588 109.534 27.1481 108.87 26.3491H108.87ZM97.0946 25.3858C95.6171 25.3858 94.4187 26.5843 94.4187 28.0617V99.648H78.3622V28.0617C78.3622 27.3524 78.0803 26.671 77.5782 26.1698C77.076 25.6677 76.3956 25.3858 75.6853 25.3858H70.3336L85.748 6.81374L101.122 25.3858L97.0946 25.3858Z" fill="black"/>
</svg>
