<svg width="66" height="103" viewBox="0 0 66 103" fill="none" xmlns="http://www.w3.org/2000/svg">
<path d="M59.8006 92.0768V91.8016C59.8006 73.0393 53.8298 61.7091 43.7199 51.5997H43.7206C53.9008 41.4188 59.7998 30.1597 59.7998 11.3997V11.0827C63.1843 10.0216 65.1598 8.74897 65.1598 7.37969C65.1598 3.67899 50.7608 0.679688 32.9998 0.679688C15.2389 0.679688 0.839844 3.67899 0.839844 7.37969C0.839844 8.74884 2.81539 10.0208 6.19984 11.0827V11.3997C6.19984 30.1597 12.1722 41.4904 22.2806 51.5997C22.2799 51.5997 22.2799 51.6005 22.2806 51.6005H22.2799C12.1005 61.7806 6.20063 73.0405 6.20063 91.8005V92.1175C6.13108 92.1399 6.06977 92.1624 6.00022 92.1848C5.7183 92.2745 5.44613 92.3673 5.18441 92.4615C5.08496 92.4966 4.98475 92.5325 4.88829 92.5684C4.56749 92.6873 4.26241 92.8099 3.97602 92.9341C3.92218 92.9565 3.87432 92.9812 3.82197 93.0036C3.5797 93.1128 3.35238 93.222 3.13777 93.3349C3.07047 93.3693 3.00243 93.4037 2.93811 93.4396C2.69584 93.5727 2.46852 93.7065 2.26587 93.8426C2.24194 93.8591 2.22325 93.8748 2.19932 93.8912C2.0206 94.0153 1.86133 94.141 1.71552 94.2689C1.67365 94.3055 1.63327 94.3406 1.59439 94.378C1.44408 94.5209 1.30799 94.6644 1.2033 94.8087C1.19657 94.8185 1.19283 94.8267 1.1861 94.8357C1.08889 94.974 1.01635 95.1131 0.960269 95.2537C0.943819 95.2911 0.930359 95.3299 0.918394 95.3673C0.872781 95.5169 0.839876 95.6672 0.839876 95.8205C0.839876 99.5196 15.2389 102.52 32.9999 102.52H33.0328H33.0657C50.8647 102.52 65.2927 99.5212 65.2927 95.8205C65.2934 94.4341 63.2685 93.1472 59.8004 92.0779L59.8006 92.0768ZM11.5798 90.8235C11.6246 87.075 11.9185 83.6097 12.4973 80.3758C14.2373 70.6615 18.5034 62.9565 26.07 55.3905L29.8604 51.5993L26.07 47.8088C15.9826 37.7215 11.7524 27.3891 11.5752 12.3754C17.265 13.4342 24.7696 14.0795 32.9999 14.0795C41.2305 14.0795 48.7343 13.4342 54.4226 12.3754C54.2454 27.392 50.0154 37.7243 39.9294 47.8107L36.1397 51.5996L39.9302 55.3901C47.4975 62.9575 51.7643 70.6625 53.5036 80.3773C54.0816 83.6053 54.3755 87.0623 54.4204 90.8034C53.5649 90.6472 52.6676 90.4991 51.7352 90.3608C51.6784 87.3324 51.4563 84.5266 51.0383 81.8788L32.9984 68.3501L14.9615 81.8772C14.542 84.5295 14.3191 87.3412 14.2645 90.3801C13.3321 90.5192 12.4347 90.6687 11.5801 90.8272V90.8235L11.5798 90.8235Z" fill="black"/>
<path d="M38.0345 45.9131C39.7154 44.2321 42.5315 40.7857 42.5315 40.7394C42.5315 39.9871 38.2625 39.377 32.9982 39.377C27.7324 39.377 23.4648 39.9871 23.4648 40.7394C23.4648 40.7857 26.2825 44.2307 27.9642 45.9131L32.9989 50.9471L38.0345 45.9131Z" fill="black"/>
</svg>
