<svg width="104" height="104" viewBox="0 0 104 104" fill="none" xmlns="http://www.w3.org/2000/svg">
<path fill-rule="evenodd" clip-rule="evenodd" d="M58.9181 13.4436C61.8198 11.3999 65.2392 10.3201 68.8046 10.3201C78.2889 10.3201 86.0044 18.0342 86.0044 27.5199C86.0044 28.4694 86.7732 29.2404 87.7249 29.2404C88.6758 29.2404 89.4446 28.4694 89.4446 27.5199C89.4446 16.1388 80.1843 6.8799 68.8046 6.8799C64.5249 6.8799 60.4233 8.1771 56.9383 10.631C56.1594 11.1781 55.9751 12.2515 56.5222 13.0275C57.0693 13.8049 58.1426 13.9921 58.9179 13.4436L58.9181 13.4436ZM18.3492 30.7707C19.1943 30.3373 19.5291 29.3021 19.0957 28.4557C17.8403 26.0017 17.2039 23.3712 17.2039 20.6401C17.2039 11.1544 24.9179 3.44036 34.4036 3.44036C43.8879 3.44036 51.6041 11.1544 51.6041 20.6401C51.6041 23.3712 50.9656 26.0017 49.7102 28.4557C49.2783 29.3022 49.6123 30.3374 50.4581 30.7707C50.7094 30.8981 50.9765 30.96 51.2392 30.96C51.8655 30.96 52.4673 30.6173 52.7732 30.0227C54.2785 27.0799 55.0436 23.9219 55.0436 20.64C55.0436 9.25888 45.7833 0 34.4036 0C23.0225 0 13.7636 9.25888 13.7636 20.64C13.7636 23.9219 14.5274 27.0799 16.034 30.0227C16.466 30.8685 17.5011 31.204 18.349 30.7707H18.3492ZM61.9234 63.6398C61.9234 62.6903 61.151 61.9201 60.2029 61.9201C59.2534 61.9201 58.4832 62.6903 58.4832 63.6398C58.4832 64.5879 59.2534 65.3603 60.2029 65.3603C61.151 65.3603 61.9234 64.5879 61.9234 63.6398ZM60.2029 68.7998C57.3579 68.7998 55.0429 66.4848 55.0429 63.6398C55.0429 60.7935 57.3579 58.4798 60.2029 58.4798C63.0479 58.4798 65.3629 60.7935 65.3629 63.6398C65.3629 66.4848 63.0479 68.7998 60.2029 68.7998ZM49.8829 80.8403C50.831 80.8403 51.6034 80.0679 51.6034 79.1199C51.6034 78.1704 50.831 77.4001 49.8829 77.4001C48.9334 77.4001 48.1632 78.1704 48.1632 79.1199C48.1632 80.0679 48.9334 80.8403 49.8829 80.8403ZM49.8829 84.2798C47.0366 84.2798 44.7229 81.9648 44.7229 79.1198C44.7229 76.2735 47.0366 73.9598 49.8829 73.9598C52.7279 73.9598 55.0429 76.2735 55.0429 79.1198C55.0429 81.9648 52.7279 84.2798 49.8829 84.2798ZM55.0429 98.0401C55.0429 97.0906 54.2712 96.3203 53.3232 96.3203C52.3737 96.3203 51.6034 97.0906 51.6034 98.0401C51.6034 98.9874 52.3737 99.7598 53.3232 99.7598C54.2712 99.7598 55.0429 98.9874 55.0429 98.0401ZM58.4832 98.0401C58.4832 100.885 56.1682 103.2 53.3232 103.2C50.4769 103.2 48.1632 100.885 48.1632 98.0401C48.1632 95.1938 50.4769 92.8801 53.3232 92.8801C56.1682 92.8801 58.4832 95.1938 58.4832 98.0401ZM68.8032 18.9226C70.7008 18.9226 72.2434 20.4652 72.2434 22.3628C72.2434 23.3123 73.0122 24.0826 73.9632 24.0826C74.9127 24.0826 75.6829 23.3123 75.6829 22.3628C75.6829 19.1651 73.4816 16.4959 70.5229 15.727V15.4823C70.5229 14.5313 69.7527 13.7625 68.8032 13.7625C67.8522 13.7625 67.0834 14.5314 67.0834 15.4823V15.727C64.1234 16.4959 61.9234 19.1651 61.9234 22.3628C61.9234 26.155 65.0087 29.2426 68.8032 29.2426C69.7764 29.2426 70.7109 29.6586 71.3623 30.3864C71.7028 30.7651 72.1729 30.9594 72.6437 30.9594C73.0533 30.9594 73.4629 30.8126 73.7912 30.5189C74.5003 29.8861 74.5586 28.797 73.9258 28.09C72.6214 26.6352 70.7555 25.8023 68.8032 25.8023C66.9063 25.8023 65.363 24.2596 65.363 22.3628C65.363 20.4652 66.9063 18.9225 68.8032 18.9225L68.8032 18.9226ZM39.5626 24.081C38.6116 24.081 37.8428 24.8499 37.8428 25.8008C37.8428 26.7503 38.6116 27.5206 39.5626 27.5206C42.7588 27.5206 45.428 25.3193 46.1969 22.3606H46.4431C47.3925 22.3606 48.1628 21.5903 48.1628 20.6408C48.1628 19.6899 47.3925 18.9211 46.4431 18.9211H46.1969C45.428 15.9611 42.7588 13.7611 39.5626 13.7611C35.7689 13.7611 32.6828 16.8464 32.6828 20.6408C32.6828 22.5377 31.1401 24.081 29.2426 24.081C27.3457 24.081 25.8031 22.5377 25.8031 20.6408C25.8031 18.744 27.3457 17.2006 29.2426 17.2006C30.1921 17.2006 30.9631 16.4303 30.9631 15.4808C30.9631 14.5299 30.1921 13.7611 29.2426 13.7611C26.0456 13.7611 23.3757 15.9611 22.6068 18.9211H22.3628C21.4118 18.9211 20.643 19.6899 20.643 20.6408C20.643 21.5903 21.4119 22.3606 22.3628 22.3606H22.6068C23.3756 25.3193 26.0456 27.5206 29.2426 27.5206C33.0355 27.5206 36.1231 24.433 36.1231 20.6408C36.1231 18.744 37.6657 17.2006 39.5626 17.2006C41.4602 17.2006 43.0028 18.744 43.0028 20.6408C43.0028 22.5377 41.4602 24.081 39.5626 24.081ZM99.2491 49.3779L65.3626 83.2736V98.0417C65.3626 98.9912 64.5923 99.7615 63.6428 99.7615C62.6919 99.7615 61.9231 98.9912 61.9231 98.0417V82.5617C61.9231 82.1039 62.1052 81.6676 62.427 81.3458L96.8166 46.9452C99.3929 44.3689 100.214 41.1006 99.5204 39.4269C99.0856 38.3745 98.0072 37.8411 96.3127 37.8411H6.88436C5.19555 37.8411 4.1186 38.373 3.68387 39.4205C2.89058 41.3346 4.0762 44.6387 6.38053 46.9452L40.7793 81.3458C41.1004 81.6676 41.2832 82.1038 41.2832 82.5617V101.482C41.2832 102.432 40.5122 103.202 39.5627 103.202C38.6118 103.202 37.843 102.432 37.843 101.482V83.2739L3.94915 49.3783C0.573038 45.9999 -0.844488 41.3648 0.507432 38.1052C1.07973 36.7223 2.6691 34.4021 6.88464 34.4021H96.313C100.532 34.4021 102.125 36.7258 102.7 38.1101C104.046 41.3661 102.629 45.9985 99.2492 49.3783" fill="black"/>
</svg>
