<svg width="83" height="132" viewBox="0 0 83 132" fill="none" xmlns="http://www.w3.org/2000/svg">
<path d="M16.2481 69.5193V76.999C10.5393 80.5194 6.58606 86.8987 6.58606 93.9396V99.6593H16.2481V106.26H3.29311C1.53625 106.26 2.58419e-07 104.719 2.58419e-07 102.96V93.9398C-0.00153133 82.9397 6.80508 73.4788 16.2483 69.5195L16.2481 69.5193ZM66.7519 69.5193V76.999C72.4607 80.5194 76.4139 86.8987 76.4139 93.9396V99.6593H66.7519V106.26H79.7069C81.4637 106.26 83 104.719 83 102.96V93.9398C83.0015 82.9397 76.1949 73.4788 66.7517 69.5195L66.7519 69.5193ZM62.3607 38.7181V113.299C62.3607 115.059 60.8229 116.598 59.0676 116.598H58.628V128.699C58.628 130.459 57.0902 131.998 55.3349 131.998L27.6668 132C25.9099 132 24.3737 130.459 24.3737 128.701V116.6H23.9341C22.1772 116.6 20.641 115.059 20.641 113.301V38.7196C20.641 23.7602 27.6684 9.67845 39.525 0.659508C40.6232 -0.219836 42.3801 -0.219836 43.4767 0.659508C55.3349 9.68002 62.3608 23.9794 62.3608 38.7196L62.3607 38.7181ZM52.0403 116.599H30.9597V125.398H52.0403V116.599ZM55.773 42.0181H27.2285V109.999H55.7746L55.773 42.0181ZM55.554 35.4177C54.6763 24.6371 49.6249 14.5178 41.5008 7.47688C33.3766 14.5178 28.325 24.6371 27.4475 35.4177H55.554ZM51.3815 54.3379C52.0402 55.6577 52.4798 57.1984 52.4798 58.7376C52.4798 60.2783 52.0402 61.8175 51.3815 63.1372C49.6247 66.8771 45.892 69.2973 41.7195 69.2973C37.1075 69.2973 33.1558 66.2174 31.618 62.2564C31.1784 61.1561 30.9594 59.8363 30.9594 58.736C30.9594 57.6357 31.1784 56.3159 31.618 55.2156C33.1558 51.0352 37.1075 48.1748 41.7195 48.1748C45.892 48.1778 49.6245 50.5979 51.3815 54.338V54.3379ZM45.892 58.7376C45.892 56.5369 44.1351 54.5571 41.7195 54.5571C39.3039 54.5571 37.5471 56.3173 37.5471 58.7376C37.5471 61.1577 39.3039 62.918 41.7195 62.918C44.1351 62.918 45.892 61.1578 45.892 58.7376Z" fill="black"/>
</svg>
