<svg width="90" height="78" viewBox="0 0 90 78" fill="none" xmlns="http://www.w3.org/2000/svg">
<path d="M77.3732 45.06C84.1925 45.06 89.7429 39.5111 89.7429 32.6904C89.7429 32.4937 89.7072 32.3005 89.6325 32.1196L77.2197 1.15161C76.9868 0.569855 76.4214 0.1875 75.7952 0.1875L13.903 0.188185C13.2767 0.188185 12.7107 0.57054 12.4785 1.15366L0.107579 32.1234C0.0356308 32.3043 0 32.4982 0 32.6928C0 39.5121 5.54894 45.0625 12.3697 45.0625V74.4973L6.92964 74.498C6.08066 74.498 5.39475 75.1839 5.39475 76.0329C5.39475 76.8798 6.08066 77.5678 6.92964 77.5678H82.813C83.6619 77.5678 84.3478 76.8798 84.3478 76.0329C84.3478 75.1839 83.6619 74.498 82.813 74.498H77.3305L77.3312 45.0579C77.3463 45.0579 77.3586 45.0613 77.3737 45.0613L77.3732 45.06ZM54.127 74.4949H35.6171V51.8171H54.1305V74.4949H54.127ZM74.2613 74.4949H57.1973V50.2822C57.1973 49.4332 56.5114 48.7473 55.6625 48.7473H34.0827C33.2338 48.7473 32.5479 49.4332 32.5479 50.2822V74.4949H15.4386V44.6583C15.8162 44.5617 16.1814 44.437 16.5453 44.3068C16.611 44.2821 16.6741 44.2623 16.7399 44.2362C17.0962 44.1012 17.4443 43.9505 17.7835 43.7847C17.8342 43.7586 17.8849 43.7326 17.9342 43.7066C19.0223 43.1557 20.0138 42.454 20.8875 41.6207C20.8998 41.6118 20.9088 41.6022 20.9197 41.5912C21.1931 41.3274 21.4507 41.0513 21.7022 40.7642C21.7495 40.7073 21.7988 40.6491 21.8495 40.5908C22.086 40.3037 22.3176 40.0125 22.5293 39.7055C22.5382 39.6966 22.5444 39.6843 22.5505 39.6747C22.778 39.3417 23.0096 39.0086 23.2042 38.6557C23.3872 38.986 23.603 39.2944 23.8155 39.6061C23.9059 39.7411 23.9826 39.8871 24.0793 40.0173C24.3033 40.3243 24.561 40.608 24.8159 40.8923C24.92 41.0122 25.0139 41.1438 25.1242 41.2575C25.3791 41.5234 25.6614 41.7612 25.9389 42.0017C26.0712 42.1154 26.1877 42.2443 26.3227 42.3532C26.6125 42.5862 26.9304 42.7876 27.2436 42.9946C27.3848 43.0898 27.5136 43.1974 27.6582 43.2844C27.9973 43.4886 28.3564 43.6572 28.7141 43.8292C28.8491 43.8936 28.9779 43.9765 29.1163 44.0361C29.5322 44.217 29.9715 44.3629 30.4086 44.4993C30.4991 44.5267 30.582 44.5685 30.6759 44.5945C31.0623 44.7035 31.4645 44.7727 31.8654 44.8447C32.0189 44.8721 32.1648 44.9187 32.3211 44.9413C32.8843 45.0194 33.4572 45.0591 34.0389 45.0591C38.7004 45.0591 42.7666 42.4682 44.8737 38.6536C46.9841 42.4675 51.0489 45.0591 55.7084 45.0591C56.2929 45.0591 56.8658 45.0194 57.4263 44.9413C57.6538 44.9091 57.8669 44.8447 58.0896 44.8015C58.4199 44.7371 58.7556 44.685 59.0736 44.5945C59.2901 44.5349 59.4881 44.4424 59.6964 44.3719C60.0109 44.2643 60.3289 44.1677 60.6311 44.0354C60.8675 43.934 61.0867 43.8004 61.317 43.6825C61.5719 43.5523 61.8391 43.4338 62.0844 43.2851C62.3359 43.133 62.5648 42.9521 62.8046 42.7835C63.0088 42.6389 63.2239 42.5101 63.4186 42.3553C63.67 42.1545 63.8989 41.9243 64.1353 41.7029C64.2949 41.5542 64.4683 41.4192 64.617 41.261C64.8561 41.0136 65.0665 40.7409 65.283 40.4736C65.4091 40.3201 65.5468 40.1804 65.664 40.0207C65.8806 39.7288 66.0628 39.4143 66.2547 39.1046C66.3486 38.9511 66.4554 38.8099 66.5432 38.653C66.6843 38.9031 66.8515 39.1333 67.0084 39.3745C67.0899 39.502 67.1681 39.6322 67.2537 39.7569C67.4243 40.0022 67.61 40.2359 67.7971 40.4661C67.9074 40.6025 68.0212 40.7375 68.1397 40.8697C68.3316 41.089 68.5296 41.3007 68.74 41.507C68.8688 41.6344 69.0072 41.7523 69.1449 41.8756C69.5136 42.2073 69.9 42.5142 70.3084 42.7993C70.479 42.9206 70.6476 43.0494 70.8271 43.1618C71.0498 43.3015 71.2828 43.4242 71.513 43.5503C71.7077 43.6544 71.8995 43.7593 72.101 43.8525C72.3435 43.9676 72.5888 44.0752 72.841 44.1745C73.0329 44.2499 73.2275 44.317 73.4255 44.3835C73.7016 44.4774 73.9703 44.5706 74.256 44.6459C74.2587 44.6459 74.2622 44.6473 74.2683 44.6487L74.2697 74.494L74.2613 74.4949ZM76.0402 41.885C76.0313 41.8836 76.0251 41.8775 76.0128 41.8761C73.1917 41.4725 70.8017 39.7841 69.4052 37.4584C69.3991 37.4474 69.3929 37.4385 69.3867 37.4289C69.1167 36.9774 68.8893 36.5018 68.6974 36.0092C68.685 35.977 68.6761 35.9475 68.6652 35.9153C68.4822 35.4315 68.3411 34.9299 68.2431 34.414C68.2342 34.3742 68.2308 34.3297 68.2219 34.2879C68.1314 33.7657 68.0745 33.232 68.0745 32.6886C68.0745 31.8396 67.3886 31.1537 66.5396 31.1537C65.6907 31.1537 65.0047 31.8396 65.0047 32.6886C65.0047 37.8167 60.8346 41.9884 55.7049 41.9884C50.578 41.9884 46.405 37.8169 46.405 32.6886C46.405 31.8396 45.7191 31.1537 44.8701 31.1537C44.0211 31.1537 43.3352 31.8396 43.3352 32.6886C43.3352 37.8167 39.1651 41.9884 34.0354 41.9884C28.9085 41.9884 24.7355 37.8169 24.7355 32.6886C24.7355 31.8396 24.0496 31.1537 23.2006 31.1537C22.3516 31.1537 21.6657 31.8396 21.6657 32.6886C21.6657 33.2368 21.6123 33.7753 21.515 34.3002C21.5088 34.3358 21.506 34.3742 21.4999 34.4078C21.3985 34.9375 21.2546 35.4528 21.0654 35.9489C21.0593 35.9612 21.0565 35.9722 21.0504 35.9824C19.8684 39.0522 17.0932 41.3868 13.6843 41.8705C13.6596 41.8753 13.6432 41.889 13.6185 41.8938C13.2074 41.9493 12.7915 41.989 12.3659 41.989C7.33306 41.989 3.22236 37.9709 3.06887 32.9742L14.9396 3.25516H74.7531L86.667 32.9742C86.5135 37.9714 82.4049 41.989 77.3699 41.989C76.9204 41.9911 76.4771 41.9479 76.0399 41.8849L76.0402 41.885ZM82.815 29.4017C82.815 28.5527 82.129 27.8668 81.2801 27.8668H7.45438C6.6054 27.8668 5.91949 28.5527 5.91949 29.4017C5.91949 30.2486 6.6054 30.9366 7.45438 30.9366H81.2801C82.127 30.9366 82.8143 30.2493 82.8143 29.4017H82.815Z" fill="#276EF1"/>
</svg>
