<svg width="77" height="60" viewBox="0 0 77 60" fill="none" xmlns="http://www.w3.org/2000/svg">
<path d="M27.0351 16.7776C26.3161 16.0585 25.1177 16.0585 24.3187 16.7776L16.1696 24.9267L12.7342 21.4913C12.0151 20.7722 10.8167 20.7722 10.0178 21.4913C9.29876 22.2103 9.29876 23.4087 10.0178 24.2077L14.7315 28.9214C15.131 29.3208 15.6103 29.4806 16.0897 29.4806C16.5691 29.4806 17.0484 29.3208 17.4479 28.9214L26.9552 19.414C27.834 18.695 27.834 17.4966 27.0351 16.7776Z" fill="#276EF1"/>
<path d="M74.3316 37.7097C75.4501 36.751 76.0892 35.3129 76.0892 33.715C76.0892 30.759 73.6924 28.3622 70.7364 28.3622C69.8575 28.3622 67.5406 28.3622 65.1438 28.4421C62.6671 28.4421 60.0306 28.522 58.992 28.522C58.7523 28.522 58.5926 28.522 58.5127 28.4421C58.4328 28.3622 58.4328 28.2823 58.4328 28.2024C59.3116 24.5273 60.3502 19.7337 60.6698 18.1358C61.229 15.3395 59.6312 12.8629 56.6751 12.0639C53.7191 11.1851 50.8429 12.4634 49.8043 14.8602C48.3662 18.4554 43.5726 27.2437 38.5393 30.3595C38.4594 30.3595 38.4594 30.4394 38.3795 30.4394C37.6605 29.8802 36.7017 29.5606 35.743 29.5606H35.5832C36.3822 27.4834 36.9414 25.2463 36.9414 22.8495V11.0253C36.9414 10.0666 36.2224 9.26764 35.2637 9.10786C23.759 7.90945 20.4035 1.35819 20.3236 1.03862C20.004 0.399468 19.3649 0 18.6458 0C17.9268 0 17.2876 0.399468 16.9681 1.03862C16.8083 1.35819 13.4527 7.90945 2.02798 9.10786C0.909471 9.26764 0.19043 10.0666 0.19043 11.0253V22.8495C0.19043 36.8309 16.9681 45.6192 17.6871 46.0186C17.9268 46.1784 18.2464 46.2583 18.5659 46.2583C18.8855 46.2583 19.1252 46.1784 19.4448 46.0186C19.6844 45.8589 21.7617 44.7403 24.3982 42.8229V53.8482C24.3982 56.3249 26.3955 58.3222 28.8722 58.3222H35.8229C37.1012 58.3222 38.2197 57.8429 39.0187 56.964C41.3356 58.5619 45.2504 60 49.6445 60H68.0999C71.0559 60 73.4527 57.6032 73.4527 54.6471C73.4527 53.5286 73.1332 52.49 72.5739 51.6911C73.6924 50.7324 74.3316 49.2943 74.3316 47.6964C74.3316 46.5779 74.012 45.5393 73.4527 44.7403C74.5713 43.7816 75.2104 42.3435 75.2104 40.7457C75.2104 39.5473 74.8908 38.5087 74.3316 37.7097ZM18.5659 42.1039C15.2903 40.1864 4.02532 32.8362 4.02532 22.8495V12.7031C12.0946 11.5047 16.4887 7.74967 18.6458 5.27297C20.8029 7.82956 25.1971 11.5047 33.2663 12.7031V22.8495C33.2663 25.2463 32.6272 27.4834 31.5886 29.5606H29.032C26.5553 29.5606 24.5579 31.5579 24.5579 34.0346V38.0293C22.0812 39.9467 19.7643 41.3848 18.5659 42.1039ZM36.542 53.8482C36.542 54.2477 36.2224 54.5672 35.8229 54.5672H28.8722C28.4727 54.5672 28.1531 54.2477 28.1531 53.8482V33.9547C28.1531 33.5553 28.4727 33.2357 28.8722 33.2357H35.8229C36.2224 33.2357 36.542 33.5553 36.542 33.9547V53.8482ZM70.7364 35.3129H68.4994C67.4607 35.3129 66.6618 36.1119 66.6618 37.1505C66.6618 38.1891 67.4607 38.988 68.4994 38.988H69.8575C70.7364 38.988 71.4554 39.7071 71.4554 40.5859C71.4554 41.4647 70.7364 42.1838 69.8575 42.1838H67.7004C66.6618 42.1838 65.8629 42.9827 65.8629 44.0213C65.8629 45.0599 66.6618 45.8589 67.7004 45.8589H69.0586C69.9374 45.8589 70.6565 46.5779 70.6565 47.4567C70.6565 48.3356 69.9374 49.0546 69.0586 49.0546H66.9015C65.8629 49.0546 65.0639 49.8535 65.0639 50.8921C65.0639 51.9308 65.8629 52.7297 66.9015 52.7297H68.2597C69.1385 52.7297 69.8575 53.4487 69.8575 54.3276C69.8575 55.2064 69.1385 55.9254 68.2597 55.9254H49.6445C44.5313 55.9254 41.016 53.6884 40.297 52.8895V33.4754C40.297 33.3156 40.3768 33.1558 40.5366 33.0759C46.9281 29.1611 52.0413 19.0146 53.3196 15.739C53.6392 15.02 54.7577 14.8602 55.6365 15.0999C56.1958 15.2597 57.2344 15.739 56.9947 16.9374C56.755 18.1358 55.9561 21.6511 54.8376 26.8442C54.5979 28.0426 54.8376 29.241 55.6365 30.1997C56.4354 31.1585 57.5539 31.7177 58.7523 31.7177C59.6312 31.7177 62.4274 31.7177 65.2237 31.6378C67.5406 31.6378 69.8575 31.5579 70.7364 31.5579C71.6152 31.5579 72.3342 32.277 72.3342 33.1558C72.3342 34.5939 71.6152 35.3129 70.7364 35.3129Z" fill="#276EF1"/>
</svg>
