<svg width="78" height="91" viewBox="0 0 78 91" fill="none" xmlns="http://www.w3.org/2000/svg">
<path d="M57.5392 73.0093V5.35908C57.5392 2.40355 55.135 0 52.1801 0H22.6965C21.8339 0.0846311 21.5227 0.395815 21.3671 0.551408L0.551408 21.3671C0.395817 21.5227 0.0566307 22.0031 0 22.6965V72.9941C0 75.9497 2.40422 78.3532 5.35908 78.3532H52.1936C55.1348 78.3532 57.539 75.9497 57.539 73.0085L57.5392 73.0093ZM20.8159 6.43403V19.2316C20.8159 20.1085 20.1089 20.8155 19.232 20.8155H6.43442L20.8159 6.43403ZM3.76169 73.0093V24.5915H19.2173C22.1728 24.5915 24.5764 22.1873 24.5764 19.2324V3.77682H52.1784C53.0553 3.77682 53.7623 4.48382 53.7623 5.36073V73.0093C53.7623 73.8862 53.0553 74.5932 52.1784 74.5932H5.34395C4.48136 74.5932 3.76004 73.8718 3.76004 73.0093L3.76169 73.0093Z" fill="#276EF1"/>
<path d="M72.4025 12.6835L62.4473 11.4674C61.3868 11.3118 60.4676 12.0755 60.3406 13.108C60.2136 14.1405 60.9486 15.0877 61.9811 15.2147L71.9363 16.4308C73.2657 16.6997 73.3647 17.7745 73.3223 18.1982L65.0786 85.3384C64.9653 86.201 64.2017 86.8091 63.3111 86.7244L16.83 81.0119C15.7695 80.8706 14.8502 81.6199 14.7232 82.6524C14.5963 83.6849 15.3313 84.6322 16.3638 84.7592C16.3638 84.7592 63.2833 90.5147 63.5099 90.5147C66.1686 90.5147 68.4875 88.5206 68.8267 85.8203L77.0705 18.6801C77.2951 16.9685 76.5601 13.3907 72.4027 12.6837L72.4025 12.6835Z" fill="#276EF1"/>
<path d="M32.0448 30.1604H47.1333C48.1794 30.1604 49.014 29.3121 49.014 28.2796V11.3104C49.014 10.2643 48.1658 9.42969 47.1333 9.42969H32.0448C30.9986 9.42969 30.1641 10.2779 30.1641 11.3104V28.2796C30.1641 29.3265 31.013 30.1604 32.0448 30.1604ZM33.9399 13.1912H45.2525V26.3846H33.9399V13.1912Z" fill="#276EF1"/>
<path d="M49.0149 35.8203H9.42176C8.37559 35.8203 7.54102 36.6686 7.54102 37.7011C7.54036 38.7336 8.38928 39.5961 9.4211 39.5961H49.0142C50.0604 39.5961 50.895 38.7479 50.895 37.7154C50.8956 36.6829 50.061 35.8203 49.0149 35.8203V35.8203Z" fill="#276EF1"/>
<path d="M49.0149 45.252H9.42176C8.37559 45.252 7.54102 46.1002 7.54102 47.1327C7.54102 48.1789 8.38928 49.0134 9.42176 49.0134H49.0149C50.0611 49.0134 50.8957 48.1652 50.8957 47.1327C50.9093 46.1002 50.0611 45.252 49.0149 45.252Z" fill="#276EF1"/>
<path d="M49.0149 54.6836H9.42176C8.37559 54.6836 7.54102 55.5319 7.54102 56.5643C7.54102 57.6105 8.38928 58.4451 9.42176 58.4451H49.0149C50.0611 58.4451 50.8957 57.5968 50.8957 56.5643C50.9093 55.5182 50.0611 54.6836 49.0149 54.6836Z" fill="#276EF1"/>
<path d="M49.0149 64.0996H9.42176C8.37559 64.0996 7.54102 64.9479 7.54102 65.9804C7.54102 67.0265 8.38928 67.8611 9.42176 67.8611H49.0149C50.0611 67.8611 50.8957 67.0128 50.8957 65.9804C50.9093 64.9485 50.0611 64.0996 49.0149 64.0996Z" fill="#276EF1"/>
</svg>
