<svg width="44" height="47" viewBox="0 0 44 47" fill="none" xmlns="http://www.w3.org/2000/svg">
<g clip-path="url(#clip0_4376_11603)">
<path d="M7.79139 16.0977C11.7561 16.0977 14.9793 19.3208 14.9793 23.2855C14.9793 27.2502 11.7561 30.4734 7.79139 30.4734C3.82669 30.4734 0.603516 27.2502 0.603516 23.2855C0.603516 19.3208 3.82669 16.0977 7.79139 16.0977ZM0.640486 23.2855C0.640486 27.2304 3.84652 30.4364 7.79139 30.4364C11.7363 30.4364 14.9423 27.2304 14.9423 23.2855C14.9423 19.3407 11.7363 16.1346 7.79139 16.1346C3.84652 16.1346 0.640486 19.3407 0.640486 23.2855Z" fill="#266DF1" stroke="#266DF1"/>
<path d="M7.8128 19.7448V20.1299L8.18517 20.2282C8.86985 20.409 9.36468 21.0191 9.36468 21.74C9.36468 21.743 9.36376 21.7484 9.35736 21.7548C9.35097 21.7612 9.34558 21.7621 9.34261 21.7621C9.33965 21.7621 9.33426 21.7612 9.32787 21.7548C9.32147 21.7484 9.32055 21.743 9.32055 21.74C9.32055 20.8989 8.63185 20.2102 7.79074 20.2102C6.95189 20.2102 6.26092 20.8895 6.26092 21.74C6.26092 22.5906 6.95189 23.2699 7.79074 23.2699C8.65168 23.2699 9.35752 23.9757 9.35752 24.8366C9.35752 25.5647 8.85595 26.1735 8.18071 26.3478L7.80565 26.4446V26.8319V27.2539C7.80565 27.2568 7.80473 27.2622 7.79833 27.2686C7.79194 27.275 7.78655 27.2759 7.78358 27.2759C7.78062 27.2759 7.77523 27.275 7.76883 27.2686C7.76244 27.2622 7.76152 27.2568 7.76152 27.2539V26.8319V26.4476L7.39011 26.3487C6.71261 26.1684 6.2168 25.5584 6.2168 24.8366C6.2168 24.8337 6.21771 24.8283 6.22411 24.8219C6.2305 24.8155 6.23589 24.8146 6.23886 24.8146C6.24183 24.8146 6.24721 24.8155 6.25361 24.8219C6.26 24.8283 6.26092 24.8337 6.26092 24.8366C6.26092 25.6872 6.95189 26.3665 7.79074 26.3665C8.62958 26.3665 9.32055 25.6872 9.32055 24.8366C9.32055 23.9861 8.62958 23.3068 7.79074 23.3068C6.92979 23.3068 6.22395 22.601 6.22395 21.74C6.22395 21.0155 6.722 20.4022 7.39361 20.2289L7.76868 20.1321V19.7448V19.3228C7.76868 19.3199 7.76959 19.3145 7.77599 19.3081C7.78238 19.3017 7.78777 19.3008 7.79074 19.3008C7.7937 19.3008 7.79909 19.3017 7.80549 19.3081C7.81188 19.3145 7.8128 19.3199 7.8128 19.3228V19.7448Z" fill="#266DF1" stroke="#266DF1"/>
<path d="M34.0375 14.2822L34.891 15.1357L36.028 16.2727C36.0282 16.2729 36.0294 16.2738 36.0319 16.2748C36.0335 16.2754 36.0353 16.2759 36.0369 16.2763C36.0383 16.2765 36.0392 16.2766 36.0393 16.2766L34.0375 14.2822ZM34.0375 14.2822V15.4893V18.8148C34.0375 20.3353 35.2697 21.5675 36.7902 21.5675H38.8356C40.3752 21.5675 41.6258 22.8164 41.6324 24.3582V29.2417C41.6324 29.2446 41.6315 29.25 41.6251 29.2564C41.6187 29.2628 41.6133 29.2637 41.6103 29.2637C41.6074 29.2637 41.602 29.2628 41.5956 29.2564C41.5892 29.25 41.5883 29.2446 41.5883 29.2417V24.3572C41.5883 22.8367 40.3561 21.6045 38.8356 21.6045H36.7902C35.2499 21.6045 34.0005 20.3551 34.0005 18.8148V15.4893V14.2822L33.147 15.1357L32.0147 16.268C32.0079 16.274 32.0002 16.2766 31.9924 16.2766C31.9883 16.2766 31.9854 16.2758 31.9838 16.2751C31.9835 16.275 31.9841 16.2753 31.9838 16.2751C31.9795 16.2691 31.9766 16.2621 31.9766 16.2554C31.9766 16.2513 31.9774 16.2484 31.9781 16.2467C31.9786 16.2455 31.9791 16.2446 31.9804 16.2433L34.0043 14.2195L34.0128 14.2109L34.0375 14.2822Z" fill="#266DF1"/>
<path d="M34.0375 14.2822L34.891 15.1357L36.028 16.2727C36.0282 16.2729 36.0294 16.2738 36.0319 16.2748C36.0335 16.2754 36.0353 16.2759 36.0369 16.2763C36.0383 16.2765 36.0392 16.2766 36.0393 16.2766L34.0375 14.2822ZM34.0375 14.2822V15.4893V18.8148C34.0375 20.3353 35.2697 21.5675 36.7902 21.5675H38.8356C40.3752 21.5675 41.6258 22.8164 41.6324 24.3582V29.2417C41.6324 29.2446 41.6315 29.25 41.6251 29.2564C41.6187 29.2628 41.6133 29.2637 41.6103 29.2637C41.6074 29.2637 41.602 29.2628 41.5956 29.2564C41.5892 29.25 41.5883 29.2446 41.5883 29.2417V24.3572C41.5883 22.8367 40.3561 21.6045 38.8356 21.6045H36.7902C35.2499 21.6045 34.0005 20.3551 34.0005 18.8148V15.4893V14.2822L33.147 15.1357L32.0147 16.268C32.0079 16.274 32.0002 16.2766 31.9924 16.2766C31.9883 16.2766 31.9854 16.2758 31.9838 16.2751M34.0375 14.2822L34.0128 14.2109L34.0043 14.2195L31.9804 16.2433C31.9791 16.2446 31.9786 16.2455 31.9781 16.2467C31.9774 16.2484 31.9766 16.2513 31.9766 16.2554C31.9766 16.2621 31.9795 16.2691 31.9838 16.2751M31.9838 16.2751C31.9835 16.275 31.9841 16.2753 31.9838 16.2751Z" stroke="#266DF1"/>
<path d="M42.5602 16.0152L42.5603 16.0066C42.5603 15.3156 42.0003 14.7557 41.3094 14.7557C40.6184 14.7557 40.0585 15.3156 40.0585 16.0066C40.0585 16.6975 40.6184 17.2575 41.3094 17.2575C42.008 17.2575 42.5486 16.6915 42.5602 16.0152ZM40.0215 16.0066C40.0215 15.2958 40.5986 14.7188 41.3094 14.7188C42.0201 14.7188 42.5973 15.2958 42.5973 16.0066C42.5973 16.7173 42.0201 17.2944 41.3094 17.2944C40.5986 17.2944 40.0215 16.7173 40.0215 16.0066Z" fill="#266DF1" stroke="#266DF1"/>
<path d="M34.0146 27.3625L34.3682 27.716L35.1905 28.5384C35.1907 28.5385 35.1919 28.5394 35.1944 28.5404C35.196 28.5411 35.1978 28.5416 35.1994 28.5419C35.2008 28.5422 35.2017 28.5422 35.2018 28.5422L34.0146 27.3625ZM34.0146 27.3625L33.6611 27.716L32.8388 28.5384C32.8386 28.5385 32.8374 28.5394 32.8349 28.5404C32.8332 28.5411 32.8315 28.5416 32.8299 28.5419C32.8285 28.5422 32.8276 28.5422 32.8275 28.5422C32.8276 28.5422 32.8267 28.5422 32.8251 28.5419C32.8235 28.5416 32.8217 28.5411 32.8201 28.5404C32.8167 28.5391 32.8158 28.5379 32.8163 28.5385C32.8153 28.5375 32.8109 28.5328 32.8107 28.5197C32.8106 28.5086 32.8137 28.4997 32.8174 28.4937L33.6229 27.6952L33.9811 27.3401L33.6229 26.985L32.8066 26.1758L34.0146 27.3625Z" fill="#266DF1"/>
<path d="M34.0146 27.3625L34.3682 27.716L35.1905 28.5384C35.1907 28.5385 35.1919 28.5394 35.1944 28.5404C35.196 28.5411 35.1978 28.5416 35.1994 28.5419C35.2008 28.5422 35.2017 28.5422 35.2018 28.5422L34.0146 27.3625ZM34.0146 27.3625L33.6611 27.716L32.8388 28.5384C32.8386 28.5385 32.8374 28.5394 32.8349 28.5404C32.8332 28.5411 32.8315 28.5416 32.8299 28.5419C32.8285 28.5422 32.8276 28.5422 32.8275 28.5422C32.8276 28.5422 32.8267 28.5422 32.8251 28.5419C32.8235 28.5416 32.8217 28.5411 32.8201 28.5404C32.8167 28.5391 32.8158 28.5379 32.8163 28.5385C32.8153 28.5375 32.8109 28.5328 32.8107 28.5197C32.8106 28.5086 32.8137 28.4997 32.8174 28.4937L33.6229 27.6952L33.9811 27.3401L33.6229 26.985L32.8066 26.1758L34.0146 27.3625Z" stroke="#266DF1"/>
<path d="M34.2711 41.7519L34.3936 42.0717L34.736 42.0731C36.2111 42.0791 37.4139 43.2845 37.4204 44.771V45.7424C37.4204 45.7454 37.4195 45.7508 37.4131 45.7572C37.4067 45.7636 37.4014 45.7645 37.3984 45.7645H8.84237C8.8394 45.7645 8.83401 45.7636 8.82762 45.7572C8.82122 45.7508 8.82031 45.7454 8.82031 45.7424V44.7698C8.82031 43.2928 10.0211 42.0863 11.4976 42.0803L11.8401 42.0789L11.9625 41.7591L12.0913 41.423L12.0926 41.4193C13.087 38.7608 14.8659 36.5176 17.1023 35.0702L17.2316 34.9865L17.2914 34.8445C18.3411 32.3525 18.969 29.2147 19.2435 26.1499C19.518 23.0834 19.4421 20.0521 19.0617 17.7624L18.9945 17.358L18.5848 17.3446C17.7588 17.3177 17.0946 16.6363 17.0946 15.8062C17.0946 15.0308 17.6713 14.3857 18.4251 14.2772L19.0804 14.1829L18.8104 13.5784L17.3444 10.2959C16.949 9.41395 17.0276 8.40523 17.5509 7.59595C18.073 6.78842 18.9584 6.30834 19.9272 6.30834H20.2705H21.1289L20.7054 5.56167C20.4754 5.15614 20.3486 4.69024 20.3486 4.21355C20.3486 2.68751 21.5908 1.44531 23.1168 1.44531C24.6428 1.44531 25.8851 2.68751 25.8851 4.21355C25.8851 4.69024 25.7582 5.15614 25.5282 5.56167L25.1047 6.30834H25.9631H26.3064C27.2748 6.30834 28.1599 6.78802 28.6821 7.59494C29.2067 8.41266 29.2845 9.41411 28.8895 10.2952L27.4232 13.5784L27.1512 14.1874L27.812 14.2777C28.5622 14.3803 29.139 15.023 29.139 15.799C29.139 16.6263 28.477 17.305 27.6456 17.3376L27.2387 17.3536L27.1719 17.7553C26.7915 20.0449 26.7156 23.0763 26.9902 26.1427C27.2646 29.2076 27.8925 32.3453 28.9422 34.8374L29.002 34.9793L29.1313 35.063C31.3677 36.5105 33.1466 38.7537 34.141 41.4121L34.1424 41.4158L34.2711 41.7519ZM24.6758 6.31549H24.878L25.0233 6.17498C25.5507 5.66525 25.8481 4.96306 25.8481 4.2207C25.8481 2.7145 24.623 1.48943 23.1168 1.48943C21.6106 1.48943 20.3855 2.7145 20.3855 4.2207C20.3855 4.9555 20.6828 5.66668 21.2204 6.17784L21.3652 6.31549H21.5649H24.6758ZM28.651 7.62666L28.6497 7.62457C28.1355 6.83151 27.2552 6.35246 26.3064 6.35246H19.9272C18.981 6.35246 18.0984 6.82234 17.5826 7.62666C17.0709 8.42452 16.9912 9.41739 17.3749 10.2809L17.3754 10.2821L19.0203 13.9579L19.1526 14.2537H19.4767H26.7569H27.081L27.2133 13.9579L28.8582 10.2821L28.8587 10.2809C29.2425 9.41739 29.1627 8.42452 28.651 7.62666ZM19.6197 17.3515H19.0352L19.1258 17.929C19.8154 22.3271 19.4098 29.4386 17.5508 34.3002L17.2913 34.9788H18.0178H28.2087H28.9342L28.6759 34.3008C26.8236 29.4385 26.4112 22.3266 27.1007 17.929L27.1913 17.3515H26.6067H19.6197ZM17.3813 35.0158H17.2335L17.1095 35.0961C14.8828 36.5382 13.1227 38.7717 12.1293 41.3961L11.873 42.0731H12.5969H33.6224H34.3444L34.0904 41.3973C33.1041 38.7719 31.3436 36.5382 29.117 35.0961L28.9929 35.0158H28.8452H17.3813ZM8.85728 45.2132V45.7132H9.35728H36.3692H36.8692H36.8763V45.2132H37.3692V44.7627C37.3692 43.2994 36.1799 42.1101 34.7166 42.1101H34.3733H11.8532H11.5099C10.0466 42.1101 8.85728 43.2994 8.85728 44.7627V45.2132ZM18.64 14.2978C17.806 14.2978 17.1316 14.9722 17.1316 15.8062C17.1316 16.6402 17.806 17.3146 18.64 17.3146H27.5937C28.4276 17.3146 29.102 16.6402 29.102 15.8062C29.102 14.9722 28.4276 14.2978 27.5937 14.2978H18.64Z" fill="#266DF1" stroke="#266DF1"/>
</g>
<defs>
<clipPath id="clip0_4376_11603">
<rect width="44" height="47" fill="white"/>
</clipPath>
</defs>
</svg>
