<svg width="48" height="59" viewBox="0 0 48 59" fill="none" xmlns="http://www.w3.org/2000/svg">
<path d="M9.79042 16.0977C13.7551 16.0977 16.9783 19.3208 16.9783 23.2855C16.9783 27.2502 13.7551 30.4734 9.79042 30.4734C5.82571 30.4734 2.60254 27.2502 2.60254 23.2855C2.60254 19.3208 5.82571 16.0977 9.79042 16.0977ZM2.63951 23.2855C2.63951 27.2304 5.84555 30.4364 9.79042 30.4364C13.7353 30.4364 16.9413 27.2304 16.9413 23.2855C16.9413 19.3407 13.7353 16.1346 9.79042 16.1346C5.84555 16.1346 2.63951 19.3407 2.63951 23.2855Z" fill="black" stroke="black"/>
<path d="M9.81249 19.7453V20.1304L10.1849 20.2287C10.8695 20.4095 11.3644 21.0196 11.3644 21.7405C11.3644 21.7435 11.3635 21.7489 11.3571 21.7553C11.3507 21.7617 11.3453 21.7626 11.3423 21.7626C11.3393 21.7626 11.334 21.7617 11.3276 21.7553C11.3212 21.7489 11.3202 21.7435 11.3202 21.7405C11.3202 20.8994 10.6315 20.2107 9.79043 20.2107C8.95158 20.2107 8.26061 20.89 8.26061 21.7405C8.26061 22.5911 8.95158 23.2704 9.79043 23.2704C10.6514 23.2704 11.3572 23.9762 11.3572 24.8371C11.3572 25.5652 10.8556 26.174 10.1804 26.3483L9.80534 26.4451V26.8324V27.2544C9.80534 27.2573 9.80442 27.2627 9.79803 27.2691C9.79164 27.2755 9.78625 27.2764 9.78328 27.2764C9.78031 27.2764 9.77492 27.2755 9.76853 27.2691C9.76214 27.2627 9.76122 27.2573 9.76122 27.2544V26.8324V26.4481L9.38981 26.3492C8.7123 26.1689 8.21649 25.5589 8.21649 24.8371C8.21649 24.8342 8.21741 24.8288 8.2238 24.8224C8.2302 24.816 8.23558 24.8151 8.23855 24.8151C8.24152 24.8151 8.24691 24.816 8.2533 24.8224C8.2597 24.8288 8.26061 24.8342 8.26061 24.8371C8.26061 25.6877 8.95158 26.367 9.79043 26.367C10.6293 26.367 11.3202 25.6877 11.3202 24.8371C11.3202 23.9866 10.6293 23.3073 9.79043 23.3073C8.92948 23.3073 8.22364 22.6015 8.22364 21.7405C8.22364 21.016 8.72169 20.4027 9.39331 20.2294L9.76837 20.1326V19.7453V19.3233C9.76837 19.3204 9.76929 19.315 9.77568 19.3086C9.78208 19.3022 9.78746 19.3013 9.79043 19.3013C9.7934 19.3013 9.79879 19.3022 9.80518 19.3086C9.81158 19.315 9.81249 19.3204 9.81249 19.3233V19.7453Z" fill="black" stroke="black"/>
<path d="M36.0371 14.2831L36.8907 15.1366L38.0276 16.2736C38.0276 16.2736 38.0276 16.2736 38.0276 16.2736C38.0278 16.2738 38.029 16.2747 38.0315 16.2757C38.0332 16.2763 38.0349 16.2768 38.0365 16.2772C38.038 16.2774 38.0388 16.2775 38.0389 16.2775L36.0371 14.2831ZM36.0371 14.2831V15.4902V18.8157C36.0371 20.3362 37.2693 21.5684 38.7898 21.5684H40.8352C42.3748 21.5684 43.6254 22.8173 43.632 24.3591V29.2426C43.632 29.2455 43.6311 29.2509 43.6247 29.2573C43.6183 29.2637 43.6129 29.2646 43.61 29.2646C43.607 29.2646 43.6016 29.2637 43.5952 29.2573C43.5888 29.2509 43.5879 29.2455 43.5879 29.2426V24.3581C43.5879 22.8376 42.3557 21.6054 40.8352 21.6054H38.7898C37.2495 21.6054 36.0001 20.356 36.0001 18.8157V15.4902V14.2831L35.1466 15.1366L34.0144 16.2689C34.0075 16.2749 33.9998 16.2775 33.9921 16.2775C33.988 16.2775 33.985 16.2767 33.9834 16.276C33.9831 16.2759 33.9828 16.2758 33.9825 16.2756C33.9782 16.2696 33.9763 16.263 33.9763 16.2563C33.9763 16.2522 33.977 16.2493 33.9777 16.2476C33.9782 16.2464 33.9788 16.2455 33.98 16.2442L36.0039 14.2204L36.0125 14.2118L36.0371 14.2831Z" fill="black" stroke="black"/>
<path d="M44.5604 16.0138L44.5605 16.0138V16.0052C44.5605 15.3142 44.0005 14.7543 43.3095 14.7543C42.6186 14.7543 42.0586 15.3142 42.0586 16.0052C42.0586 16.6961 42.6186 17.2561 43.3095 17.2561C44.0082 17.2561 44.5487 16.6901 44.5604 16.0138ZM42.0217 16.0052C42.0217 15.2944 42.5988 14.7173 43.3095 14.7173C44.0203 14.7173 44.5974 15.2944 44.5974 16.0052C44.5974 16.7159 44.0203 17.293 43.3095 17.293C42.5988 17.293 42.0217 16.7159 42.0217 16.0052Z" fill="black" stroke="black"/>
<path d="M36.0151 27.3626L36.3686 27.7161L37.1909 28.5385C37.1911 28.5386 37.1923 28.5395 37.1948 28.5405C37.1965 28.5412 37.1982 28.5417 37.1998 28.542C37.2013 28.5423 37.2021 28.5423 37.2022 28.5423L36.0151 27.3626ZM36.0151 27.3626L35.6615 27.7161L34.8392 28.5385C34.839 28.5386 34.8378 28.5395 34.8353 28.5405C34.8337 28.5412 34.8319 28.5417 34.8303 28.542C34.8289 28.5423 34.828 28.5423 34.8279 28.5423C34.828 28.5423 34.8271 28.5423 34.8255 28.542C34.8239 28.5417 34.8222 28.5412 34.8205 28.5405C34.8171 28.5392 34.8162 28.538 34.8167 28.5386C34.8157 28.5376 34.8114 28.5329 34.8112 28.5198C34.811 28.5087 34.8142 28.4998 34.8178 28.4938L35.6233 27.6953L35.9815 27.3402L35.6233 26.9851L34.807 26.1759L36.0151 27.3626Z" fill="black" stroke="black"/>
<path d="M36.2704 41.7504L36.3929 42.0702L36.7353 42.0716C38.2104 42.0776 39.4132 43.283 39.4198 44.7695V45.7409C39.4198 45.7439 39.4188 45.7493 39.4124 45.7557C39.4061 45.7621 39.4007 45.763 39.3977 45.763H10.8417C10.8387 45.763 10.8333 45.7621 10.827 45.7557C10.8206 45.7493 10.8196 45.7439 10.8196 45.7409V44.7683C10.8196 43.2913 12.0204 42.0848 13.497 42.0788L13.8394 42.0774L13.9618 41.7576L14.0906 41.4215L14.092 41.4178C15.0863 38.7593 16.8653 36.5161 19.1016 35.0687L19.2309 34.985L19.2907 34.843C20.3404 32.351 20.9683 29.2132 21.2428 26.1484C21.5173 23.0819 21.4414 20.0506 21.061 17.7609L20.9938 17.3565L20.5841 17.3431C19.7581 17.3162 19.0939 16.6348 19.0939 15.8047C19.0939 15.0293 19.6706 14.3842 20.4244 14.2757L21.0797 14.1814L20.8098 13.5769L19.3437 10.2944L19.3434 10.2937C18.9481 9.41179 19.0269 8.40377 19.5502 7.59449C20.0723 6.78696 20.9578 6.30688 21.9265 6.30688H22.2698H23.1282L22.7047 5.56021C22.4747 5.15468 22.3479 4.68878 22.3479 4.21209C22.3479 2.68605 23.5901 1.44385 25.1161 1.44385C26.6422 1.44385 27.8844 2.68605 27.8844 4.21209C27.8844 4.68878 27.7575 5.15468 27.5275 5.56021L27.104 6.30688H27.9624H28.3057C29.2741 6.30688 30.1592 6.78656 30.6814 7.59348C31.206 8.4112 31.2838 9.41265 30.8888 10.2937L30.8886 10.2944L29.4225 13.5769L29.1505 14.1859L29.8113 14.2762C30.5615 14.3788 31.1383 15.0215 31.1383 15.7975C31.1383 16.6248 30.4763 17.3035 29.6449 17.3361L29.238 17.3521L29.1712 17.7538C28.7909 20.0434 28.7149 23.0748 28.9895 26.1412C29.2639 29.2061 29.8918 32.3438 30.9415 34.8359L31.0013 34.9778L31.1306 35.0615C33.367 36.509 35.146 38.7522 36.1403 41.4106L36.1417 41.4143L36.2704 41.7504ZM26.6752 6.31403H26.8773L27.0227 6.17352C27.55 5.66379 27.8474 4.9616 27.8474 4.21924C27.8474 2.71304 26.6223 1.48797 25.1161 1.48797C23.6099 1.48797 22.3849 2.71304 22.3849 4.21924C22.3849 4.95404 22.6821 5.66522 23.2197 6.17638L23.3645 6.31403H23.5642H26.6752ZM30.6504 7.6252L30.649 7.62311C30.1348 6.83005 29.2545 6.351 28.3057 6.351H21.9265C20.9803 6.351 20.0977 6.82088 19.5819 7.6252C19.0702 8.42306 18.9905 9.41593 19.3742 10.2794L19.3748 10.2806L21.0196 13.9564L21.152 14.2522H21.476H28.7562H29.0803L29.2126 13.9564L30.8575 10.2806L30.858 10.2794C31.2418 9.41593 31.162 8.42306 30.6504 7.6252ZM21.619 17.35H21.0345L21.1251 17.9275C21.8147 22.3256 21.4091 29.4371 19.5501 34.2987L19.2906 34.9773H20.0171H30.208H30.9335L30.6752 34.2993C28.8229 29.437 28.4105 22.3251 29.1 17.9275L29.1906 17.35H28.6061H21.619ZM19.3806 35.0143H19.2328L19.1088 35.0946C16.8821 36.5367 15.122 38.7702 14.1286 41.3946L13.8724 42.0716H14.5962H35.6217H36.3437L36.0898 41.3958C35.1034 38.7704 33.3429 36.5367 31.1163 35.0946L30.9923 35.0143H30.8445H19.3806ZM10.8566 45.2117V45.7117H11.3566H38.3685H38.8685H38.8756V45.2117H39.3685V44.7612C39.3685 43.2979 38.1792 42.1086 36.7159 42.1086H36.3726H13.8525H13.5092C12.0459 42.1086 10.8566 43.2979 10.8566 44.7612V45.2117ZM20.6393 14.2963C19.8053 14.2963 19.1309 14.9707 19.1309 15.8047C19.1309 16.6387 19.8053 17.3131 20.6393 17.3131H29.593C30.4269 17.3131 31.1013 16.6387 31.1013 15.8047C31.1013 14.9707 30.4269 14.2963 29.593 14.2963H20.6393Z" fill="black" stroke="black"/>
</svg>
