<svg width="44" height="47" viewBox="0 0 44 47" fill="none" xmlns="http://www.w3.org/2000/svg">
<path d="M7.79043 16.0977C11.7551 16.0977 14.9783 19.3208 14.9783 23.2855C14.9783 27.2502 11.7551 30.4734 7.79043 30.4734C3.82573 30.4734 0.602554 27.2502 0.602554 23.2855C0.602554 19.3208 3.82573 16.0977 7.79043 16.0977ZM0.639524 23.2855C0.639524 27.2304 3.84556 30.4364 7.79043 30.4364C11.7353 30.4364 14.9413 27.2304 14.9413 23.2855C14.9413 19.3407 11.7353 16.1346 7.79043 16.1346C3.84556 16.1346 0.639524 19.3407 0.639524 23.2855Z" fill="black" stroke="black"/>
<path d="M7.81248 19.7453V20.1304L8.18485 20.2287C8.86953 20.4095 9.36436 21.0196 9.36436 21.7405C9.36436 21.7435 9.36344 21.7489 9.35704 21.7553C9.35065 21.7617 9.34526 21.7626 9.34229 21.7626C9.33933 21.7626 9.33394 21.7617 9.32755 21.7553C9.32115 21.7489 9.32023 21.7435 9.32023 21.7405C9.32023 20.8994 8.63153 20.2107 7.79042 20.2107C6.95157 20.2107 6.2606 20.89 6.2606 21.7405C6.2606 22.5911 6.95157 23.2704 7.79042 23.2704C8.65136 23.2704 9.3572 23.9762 9.3572 24.8371C9.3572 25.5652 8.85563 26.174 8.18039 26.3483L7.80533 26.4451V26.8324V27.2544C7.80533 27.2573 7.80441 27.2627 7.79801 27.2691C7.79162 27.2755 7.78623 27.2764 7.78326 27.2764C7.7803 27.2764 7.77491 27.2755 7.76851 27.2691C7.76212 27.2627 7.7612 27.2573 7.7612 27.2544V26.8324V26.4481L7.38979 26.3492C6.71229 26.1689 6.21648 25.5589 6.21648 24.8371C6.21648 24.8342 6.21739 24.8288 6.22379 24.8224C6.23018 24.816 6.23557 24.8151 6.23854 24.8151C6.24151 24.8151 6.24689 24.816 6.25329 24.8224C6.25968 24.8288 6.2606 24.8342 6.2606 24.8371C6.2606 25.6877 6.95157 26.367 7.79042 26.367C8.62926 26.367 9.32023 25.6877 9.32023 24.8371C9.32023 23.9866 8.62926 23.3073 7.79042 23.3073C6.92947 23.3073 6.22363 22.6015 6.22363 21.7405C6.22363 21.016 6.72168 20.4027 7.39329 20.2294L7.76836 20.1326V19.7453V19.3233C7.76836 19.3204 7.76927 19.315 7.77567 19.3086C7.78206 19.3022 7.78745 19.3013 7.79042 19.3013C7.79338 19.3013 7.79877 19.3022 7.80517 19.3086C7.81156 19.315 7.81248 19.3204 7.81248 19.3233V19.7453Z" fill="black" stroke="black"/>
<path d="M34.0371 14.2831L34.8906 15.1366L36.0276 16.2736C36.0276 16.2736 36.0276 16.2736 36.0276 16.2736C36.0278 16.2738 36.029 16.2747 36.0315 16.2757C36.0331 16.2763 36.0349 16.2768 36.0365 16.2772C36.0379 16.2774 36.0388 16.2775 36.0389 16.2775L34.0371 14.2831ZM34.0371 14.2831V15.4902V18.8157C34.0371 20.3362 35.2693 21.5684 36.7898 21.5684H38.8352C40.3748 21.5684 41.6254 22.8173 41.632 24.3591V29.2426C41.632 29.2455 41.6311 29.2509 41.6247 29.2573C41.6183 29.2637 41.6129 29.2646 41.6099 29.2646C41.607 29.2646 41.6016 29.2637 41.5952 29.2573C41.5888 29.2509 41.5879 29.2455 41.5879 29.2426V24.3581C41.5879 22.8376 40.3557 21.6054 38.8352 21.6054H36.7898C35.2495 21.6054 34.0001 20.356 34.0001 18.8157V15.4902V14.2831L33.1466 15.1366L32.0143 16.2689C32.0075 16.2749 31.9998 16.2775 31.992 16.2775C31.9879 16.2775 31.985 16.2767 31.9834 16.276C31.9831 16.2759 31.9828 16.2758 31.9825 16.2756C31.9782 16.2696 31.9762 16.263 31.9762 16.2563C31.9762 16.2522 31.977 16.2493 31.9777 16.2476C31.9782 16.2464 31.9787 16.2455 31.98 16.2442L34.0039 14.2204L34.0124 14.2118L34.0371 14.2831Z" fill="black" stroke="black"/>
<path d="M42.5604 16.0138L42.5605 16.0138V16.0052C42.5605 15.3142 42.0005 14.7543 41.3096 14.7543C40.6186 14.7543 40.0587 15.3142 40.0587 16.0052C40.0587 16.6961 40.6186 17.2561 41.3096 17.2561C42.0082 17.2561 42.5488 16.6901 42.5604 16.0138ZM40.0217 16.0052C40.0217 15.2944 40.5988 14.7173 41.3096 14.7173C42.0203 14.7173 42.5975 15.2944 42.5975 16.0052C42.5975 16.7159 42.0203 17.293 41.3096 17.293C40.5988 17.293 40.0217 16.7159 40.0217 16.0052Z" fill="black" stroke="black"/>
<path d="M34.015 27.3626L34.3686 27.7161L35.1909 28.5385C35.1911 28.5386 35.1923 28.5395 35.1948 28.5405C35.1964 28.5412 35.1982 28.5417 35.1998 28.542C35.2012 28.5423 35.2021 28.5423 35.2022 28.5423L34.015 27.3626ZM34.015 27.3626L33.6615 27.7161L32.8392 28.5385C32.839 28.5386 32.8378 28.5395 32.8353 28.5405C32.8336 28.5412 32.8319 28.5417 32.8303 28.542C32.8289 28.5423 32.828 28.5423 32.8279 28.5423C32.828 28.5423 32.8271 28.5423 32.8255 28.542C32.8239 28.5417 32.8221 28.5412 32.8205 28.5405C32.8171 28.5392 32.8162 28.538 32.8167 28.5386C32.8157 28.5376 32.8113 28.5329 32.8111 28.5198C32.811 28.5087 32.8141 28.4998 32.8178 28.4938L33.6233 27.6953L33.9815 27.3402L33.6233 26.9851L32.807 26.1759L34.015 27.3626Z" fill="black" stroke="black"/>
<path d="M34.2704 41.7504L34.3929 42.0702L34.7353 42.0716C36.2104 42.0776 37.4132 43.283 37.4197 44.7695V45.7409C37.4197 45.7439 37.4188 45.7493 37.4124 45.7557C37.406 45.7621 37.4007 45.763 37.3977 45.763H8.84169C8.83872 45.763 8.83333 45.7621 8.82694 45.7557C8.82054 45.7493 8.81963 45.7439 8.81963 45.7409V44.7683C8.81963 43.2913 10.0204 42.0848 11.4969 42.0788L11.8394 42.0774L11.9618 41.7576L12.0906 41.4215L12.0919 41.4178C13.0863 38.7593 14.8652 36.5161 17.1016 35.0687L17.2309 34.985L17.2907 34.843C18.3404 32.351 18.9683 29.2132 19.2428 26.1484C19.5173 23.0819 19.4414 20.0506 19.061 17.7609L18.9938 17.3565L18.5841 17.3431C17.7581 17.3162 17.0939 16.6348 17.0939 15.8047C17.0939 15.0293 17.6706 14.3842 18.4244 14.2757L19.0797 14.1814L18.8097 13.5769L17.3437 10.2944L17.3434 10.2937C16.948 9.41179 17.0269 8.40377 17.5502 7.59449C18.0723 6.78696 18.9577 6.30688 19.9265 6.30688H20.2698H21.1282L20.7047 5.56021C20.4747 5.15468 20.3479 4.68878 20.3479 4.21209C20.3479 2.68605 21.5901 1.44385 23.1161 1.44385C24.6421 1.44385 25.8844 2.68605 25.8844 4.21209C25.8844 4.68878 25.7575 5.15468 25.5275 5.56021L25.104 6.30688H25.9624H26.3057C27.2741 6.30688 28.1592 6.78656 28.6814 7.59348C29.206 8.4112 29.2838 9.41265 28.8888 10.2937L28.8885 10.2944L27.4225 13.5769L27.1505 14.1859L27.8113 14.2762C28.5615 14.3788 29.1383 15.0215 29.1383 15.7975C29.1383 16.6248 28.4763 17.3035 27.6449 17.3361L27.238 17.3521L27.1712 17.7538C26.7908 20.0434 26.7149 23.0748 26.9895 26.1412C27.2639 29.2061 27.8918 32.3438 28.9415 34.8359L29.0013 34.9778L29.1306 35.0615C31.367 36.509 33.1459 38.7522 34.1403 41.4106L34.1417 41.4143L34.2704 41.7504ZM24.6751 6.31403H24.8773L25.0226 6.17352C25.55 5.66379 25.8474 4.9616 25.8474 4.21924C25.8474 2.71304 24.6223 1.48797 23.1161 1.48797C21.6099 1.48797 20.3848 2.71304 20.3848 4.21924C20.3848 4.95404 20.6821 5.66522 21.2197 6.17638L21.3645 6.31403H21.5642H24.6751ZM28.6503 7.6252L28.649 7.62311C28.1348 6.83005 27.2545 6.351 26.3057 6.351H19.9265C18.9803 6.351 18.0977 6.82088 17.5819 7.6252C17.0702 8.42306 16.9905 9.41593 17.3742 10.2794L17.3747 10.2806L19.0196 13.9564L19.1519 14.2522H19.476H26.7562H27.0803L27.2126 13.9564L28.8575 10.2806L28.858 10.2794C29.2418 9.41593 29.162 8.42306 28.6503 7.6252ZM19.619 17.35H19.0345L19.1251 17.9275C19.8147 22.3256 19.4091 29.4371 17.5501 34.2987L17.2906 34.9773H18.0171H28.208H28.9335L28.6752 34.2993C26.8229 29.437 26.4105 22.3251 27.1 17.9275L27.1906 17.35H26.606H19.619ZM17.3806 35.0143H17.2328L17.1088 35.0946C14.8821 36.5367 13.122 38.7702 12.1286 41.3946L11.8723 42.0716H12.5962H33.6217H34.3437L34.0897 41.3958C33.1034 38.7704 31.3429 36.5367 29.1163 35.0946L28.9922 35.0143H28.8445H17.3806ZM8.8566 45.2117V45.7117H9.3566H36.3685H36.8685H36.8756V45.2117H37.3685V44.7612C37.3685 43.2979 36.1792 42.1086 34.7159 42.1086H34.3726H11.8525H11.5092C10.0459 42.1086 8.8566 43.2979 8.8566 44.7612V45.2117ZM18.6393 14.2963C17.8053 14.2963 17.1309 14.9707 17.1309 15.8047C17.1309 16.6387 17.8053 17.3131 18.6393 17.3131H27.593C28.4269 17.3131 29.1013 16.6387 29.1013 15.8047C29.1013 14.9707 28.4269 14.2963 27.593 14.2963H18.6393Z" fill="black" stroke="black"/>
</svg>
