<svg width="66" height="82" viewBox="0 0 66 82" fill="none" xmlns="http://www.w3.org/2000/svg">
<g clip-path="url(#clip0_82_163)">
<path fill-rule="evenodd" clip-rule="evenodd" d="M30.1233 39.4455L31.6449 33.5763L1.92489 49.8174C1.70192 49.9287 1.44445 49.9492 1.20669 49.8745C0.968938 49.7998 0.76946 49.6357 0.65027 49.4168C0.531079 49.198 0.50148 48.9414 0.567706 48.7011C0.633931 48.4609 0.790812 48.2557 1.00531 48.1288L30.5427 31.9876L24.876 30.5179C24.7517 30.4883 24.6345 30.4343 24.5313 30.3589C24.4281 30.2835 24.3409 30.1884 24.2749 30.0789C24.2089 29.9695 24.1653 29.848 24.1468 29.7216C24.1282 29.5951 24.135 29.4662 24.1669 29.3425C24.1987 29.2187 24.2549 29.1025 24.3321 29.0007C24.4093 28.8988 24.5061 28.8134 24.6167 28.7494C24.7273 28.6854 24.8495 28.644 24.9763 28.6278C25.1031 28.6115 25.2318 28.6207 25.355 28.6548L33.3753 30.7361C33.4977 30.7678 33.6127 30.8232 33.7137 30.8994C33.8147 30.9755 33.8996 31.0707 33.9638 31.1797C34.0279 31.2887 34.0699 31.4093 34.0874 31.5345C34.1049 31.6597 34.0975 31.7872 34.0657 31.9096L31.985 39.9285C31.9559 40.0536 31.9021 40.1715 31.8267 40.2754C31.7513 40.3794 31.6559 40.4671 31.5461 40.5336C31.4362 40.6001 31.3142 40.6439 31.1872 40.6624C31.0601 40.681 30.9307 40.674 30.8064 40.6417C30.6821 40.6095 30.5656 40.5527 30.4636 40.4747C30.3616 40.3967 30.2763 40.2991 30.2126 40.1876C30.149 40.0761 30.1083 39.953 30.0929 39.8256C30.0776 39.6981 30.0879 39.5689 30.1233 39.4455ZM49.6027 24.2225C49.4664 24.3382 49.3649 24.4896 49.3095 24.6597C49.2542 24.8298 49.2472 25.012 49.2894 25.1858L50.3205 29.391L46.6422 27.1098C46.4902 27.0152 46.3148 26.9651 46.1358 26.9651C45.9569 26.9651 45.7815 27.0152 45.6295 27.1098L41.9485 29.3896L42.9789 25.1845C43.022 25.0107 43.0156 24.8283 42.9603 24.6581C42.905 24.4878 42.8031 24.3364 42.6662 24.2211L39.3608 21.4247L43.6788 21.1059C43.8576 21.0924 44.029 21.0294 44.174 20.9241C44.319 20.8187 44.4318 20.6751 44.4999 20.5093L46.1338 16.5046L47.7704 20.512C47.8385 20.6778 47.9513 20.8214 48.0963 20.9268C48.2413 21.0322 48.4127 21.0951 48.5915 21.1086L52.9088 21.4275L49.6027 24.2225ZM55.4 19.68L49.3284 19.2311L47.0239 13.5967C46.9516 13.4202 46.8284 13.2692 46.67 13.163C46.5116 13.0567 46.3252 13 46.1345 13C45.9437 13 45.7573 13.0567 45.5989 13.163C45.4405 13.2692 45.3173 13.4202 45.245 13.5967L42.9419 19.2311L36.8703 19.68C36.6799 19.6947 36.4983 19.7657 36.3484 19.8839C36.1986 20.0022 36.0872 20.1623 36.0285 20.3439C35.9699 20.5256 35.9665 20.7206 36.0189 20.9041C36.0714 21.0877 36.1772 21.2515 36.3229 21.3748L40.9632 25.3063L39.514 31.2185C39.4685 31.4043 39.4793 31.5994 39.545 31.7789C39.6108 31.9585 39.7285 32.1144 39.8833 32.2268C40.038 32.3392 40.2227 32.403 40.4138 32.4099C40.605 32.4169 40.7938 32.3668 40.9564 32.266L46.131 29.0612L51.3064 32.266C51.4688 32.3658 51.6571 32.415 51.8475 32.4074C52.0379 32.3999 52.2218 32.3359 52.3758 32.2236C52.5297 32.1114 52.6469 31.9559 52.7123 31.7769C52.7777 31.598 52.7885 31.4036 52.7433 31.2185L51.2948 25.3063L55.9474 21.3748C56.0933 21.2513 56.1991 21.0872 56.2514 20.9033C56.3036 20.7195 56.3 20.5243 56.2409 20.3425C56.1819 20.1607 56.07 20.0007 55.9197 19.8827C55.7693 19.7647 55.5872 19.6941 55.3966 19.68H55.4ZM52.3799 69.5398H39.8869V37.0028H52.3799V69.5398ZM25.4699 69.5398H37.9623V44.8815H25.4699V69.5398ZM-3.36474 60.6396H9.12826V69.5398H-3.36474V60.6396ZM23.5459 52.7602V69.5398H11.0523V52.7602H23.5459ZM53.3419 35.0781H38.9243C38.6691 35.0781 38.4244 35.1795 38.244 35.3599C38.0636 35.5403 37.9623 35.785 37.9623 36.0401V42.9575H24.5079C24.3816 42.9574 24.2564 42.9822 24.1397 43.0306C24.0229 43.0789 23.9169 43.1497 23.8275 43.2391C23.7382 43.3284 23.6673 43.4345 23.619 43.5513C23.5707 43.668 23.5459 43.7932 23.5459 43.9195V50.8362H10.0896C9.83455 50.8364 9.59004 50.9378 9.40978 51.1182C9.22952 51.2986 9.12826 51.5432 9.12826 51.7982V58.7149H-4.32743C-4.45387 58.7149 -4.57908 58.7398 -4.69589 58.7882C-4.81269 58.8367 -4.9188 58.9077 -5.00815 58.9971C-5.0975 59.0866 -5.16833 59.1928 -5.21659 59.3097C-5.26486 59.4266 -5.28961 59.5518 -5.28943 59.6783V70.5025C-5.28925 70.7575 -5.18784 71.0021 -5.00746 71.1825C-4.82709 71.3629 -4.58251 71.4643 -4.32743 71.4645H53.3419C53.4684 71.4646 53.5937 71.4397 53.7106 71.3914C53.8274 71.343 53.9336 71.2721 54.0231 71.1827C54.1126 71.0933 54.1835 70.9872 54.232 70.8703C54.2804 70.7535 54.3053 70.6283 54.3053 70.5018V36.0401C54.3054 35.9137 54.2805 35.7884 54.2321 35.6716C54.1837 35.5547 54.1128 35.4486 54.0233 35.3592C53.9338 35.2699 53.8275 35.199 53.7106 35.1508C53.5937 35.1026 53.4684 35.0779 53.3419 35.0781Z" fill="#276EF1"/>
</g>
<defs>
<clipPath id="clip0_82_163">
<rect width="65" height="81.25" fill="white" transform="translate(0.710571)"/>
</clipPath>
</defs>
</svg>
