<svg width="84" height="84" viewBox="0 0 84 84" fill="none" xmlns="http://www.w3.org/2000/svg">
<path fill-rule="evenodd" clip-rule="evenodd" d="M48.3077 37.9961L50.3834 29.5634L9.8413 52.8982C9.53714 53.0581 9.18591 53.0875 8.86158 52.9802C8.53725 52.8728 8.26514 52.6371 8.10255 52.3226C7.93996 52.0081 7.89958 51.6395 7.98992 51.2943C8.08026 50.9491 8.29427 50.6543 8.58687 50.472L48.8798 27.2808L41.1498 25.1692C40.9802 25.1267 40.8203 25.049 40.6795 24.9408C40.5387 24.8325 40.4198 24.6957 40.3297 24.5385C40.2396 24.3813 40.1802 24.2067 40.1549 24.0251C40.1296 23.8434 40.1389 23.6582 40.1823 23.4804C40.2258 23.3025 40.3024 23.1356 40.4077 22.9893C40.5131 22.843 40.6451 22.7202 40.7959 22.6282C40.9468 22.5363 41.1136 22.4769 41.2865 22.4535C41.4595 22.4302 41.6351 22.4434 41.8031 22.4923L52.7439 25.4828C52.9109 25.5282 53.0678 25.6079 53.2055 25.7173C53.3432 25.8266 53.4592 25.9635 53.5466 26.1201C53.6341 26.2767 53.6914 26.4499 53.7153 26.6298C53.7391 26.8098 53.7291 26.9929 53.6857 27.1687L50.8473 38.6901C50.8076 38.8697 50.7342 39.0392 50.6314 39.1885C50.5286 39.3378 50.3984 39.464 50.2486 39.5595C50.0987 39.6549 49.9323 39.7179 49.759 39.7446C49.5857 39.7713 49.4091 39.7611 49.2396 39.7148C49.0701 39.6685 48.9111 39.5869 48.7719 39.4748C48.6328 39.3628 48.5164 39.2225 48.4296 39.0624C48.3427 38.9022 48.2872 38.7253 48.2663 38.5422C48.2453 38.3591 48.2594 38.1734 48.3077 37.9961ZM74.8803 16.1241C74.6943 16.2905 74.5558 16.508 74.4803 16.7524C74.4048 16.9968 74.3953 17.2585 74.4528 17.5082L75.8594 23.5501L70.8417 20.2726C70.6344 20.1367 70.3951 20.0646 70.151 20.0646C69.9068 20.0646 69.6675 20.1367 69.4603 20.2726L64.4388 23.5481L65.8445 17.5063C65.9033 17.2566 65.8945 16.9946 65.8191 16.75C65.7437 16.5053 65.6047 16.2878 65.4179 16.1221L60.9089 12.1044L66.7993 11.6463C67.0431 11.6269 67.277 11.5365 67.4748 11.3851C67.6726 11.2337 67.8265 11.0273 67.9193 10.7891L70.1482 5.03526L72.3808 10.793C72.4736 11.0313 72.6275 11.2376 72.8253 11.389C73.0231 11.5404 73.257 11.6308 73.5008 11.6502L79.3903 12.1083L74.8803 16.1241ZM82.7886 9.59761L74.506 8.95273L71.3625 0.857282C71.2638 0.603731 71.0957 0.386829 70.8796 0.234171C70.6636 0.0815138 70.4093 0 70.1491 0C69.8889 0 69.6346 0.0815138 69.4186 0.234171C69.2025 0.386829 69.0344 0.603731 68.9357 0.857282L65.7941 8.95273L57.5115 9.59761C57.2519 9.6188 57.0041 9.7208 56.7996 9.89065C56.5952 10.0605 56.4433 10.2905 56.3633 10.5515C56.2832 10.8125 56.2787 11.0927 56.3502 11.3564C56.4217 11.6201 56.566 11.8555 56.7648 12.0326L63.0948 17.6813L61.118 26.1758C61.0558 26.4427 61.0705 26.723 61.1602 26.981C61.2499 27.239 61.4106 27.4631 61.6216 27.6245C61.8327 27.786 62.0847 27.8776 62.3454 27.8876C62.6061 27.8977 62.8638 27.8257 63.0855 27.6809L70.1444 23.0763L77.2043 27.6809C77.4258 27.8241 77.6828 27.8948 77.9425 27.884C78.2022 27.8731 78.453 27.7812 78.6631 27.62C78.8731 27.4587 79.0329 27.2353 79.1222 26.9782C79.2114 26.721 79.2261 26.4418 79.1644 26.1758L77.1885 17.6813L83.5353 12.0326C83.7343 11.8552 83.8786 11.6194 83.9499 11.3553C84.0212 11.0911 84.0163 10.8106 83.9357 10.5495C83.8551 10.2883 83.7025 10.0583 83.4974 9.88882C83.2923 9.7193 83.0439 9.61793 82.7839 9.59761H82.7886ZM78.6688 81.2347H61.6266V34.4866H78.6688V81.2347ZM41.9599 81.2347H59.0011V45.8064H41.9599V81.2347ZM2.62553 68.4471H19.6677V81.2347H2.62553V68.4471ZM39.3353 57.1263V81.2347H22.2923V57.1263H39.3353ZM79.9811 31.7212H60.3134C59.9654 31.7212 59.6316 31.8668 59.3855 32.1261C59.1394 32.3853 59.0011 32.7368 59.0011 33.1034V43.0421H40.6476C40.4752 43.0419 40.3045 43.0776 40.1453 43.147C39.986 43.2164 39.8413 43.3182 39.7194 43.4466C39.5975 43.575 39.5009 43.7274 39.435 43.8952C39.3691 44.0629 39.3352 44.2427 39.3353 44.4242V54.3619H20.979C20.6311 54.3622 20.2976 54.5079 20.0517 54.7671C19.8058 55.0263 19.6677 55.3777 19.6677 55.7441V65.6818H1.3123C1.13981 65.6818 0.96901 65.7176 0.809673 65.7872C0.650336 65.8568 0.505586 65.9588 0.383704 66.0873C0.261821 66.2159 0.165197 66.3685 0.0993577 66.5364C0.0335185 66.7043 -0.000244036 66.8842 1.3278e-06 67.0659V82.6178C0.000248551 82.9843 0.138587 83.3357 0.384637 83.5949C0.630687 83.854 0.964332 83.9997 1.3123 84H79.9811C80.1536 84.0001 80.3245 83.9644 80.4839 83.895C80.6433 83.8255 80.7882 83.7237 80.9103 83.5952C81.0323 83.4668 81.1291 83.3143 81.1952 83.1464C81.2612 82.9785 81.2952 82.7986 81.2952 82.6168V33.1034C81.2954 32.9217 81.2614 32.7417 81.1954 32.5739C81.1294 32.406 81.0326 32.2535 80.9105 32.1251C80.7884 31.9967 80.6435 31.8949 80.484 31.8256C80.3245 31.7563 80.1536 31.7208 79.9811 31.7212Z" fill="#276EF1"/>
</svg>
