<svg width="66" height="83" viewBox="0 0 66 83" fill="none" xmlns="http://www.w3.org/2000/svg">
<path d="M23.0611 41.5304C26.5703 40.45 34.3299 38.2456 37.5025 37.3487C38.4404 37.0867 39.404 37.15 40.2897 37.5388C42.2453 38.3948 45.2985 39.763 46.5591 40.3299C47.0204 40.5358 47.5062 40.7081 48.0031 40.7978H48.1081H60.9741C61.5721 40.7879 62.0493 40.0982 62.04 39.5003C62.0308 38.9036 61.5397 38.5974 60.9405 38.6284H48.2949C48.0025 38.5664 47.7167 38.4746 47.4454 38.3532C46.1822 37.7849 43.1198 36.4108 41.1589 35.5535C39.8277 34.9694 38.3196 34.8651 36.9138 35.2631C33.7333 36.1627 25.9545 38.3717 22.4235 39.4587C19.2304 40.4434 18.8041 42.4201 18.8338 43.5104C18.8509 44.1097 19.0113 44.6707 19.2648 45.1783C19.1407 45.1987 4.87675 47.4091 4.87675 47.4091C4.28605 47.5008 3.88081 48.0552 3.97321 48.6459C4.06495 49.2366 4.62067 49.6359 5.21005 49.5501L19.2984 47.3543C19.8205 47.2328 20.3518 47.2091 20.8778 47.2863L30.2043 48.6446C30.7032 48.7192 31.0814 48.9396 31.3698 49.333C31.6582 49.7138 31.7784 50.2101 31.6985 50.715C31.614 51.3123 31.2451 51.7855 30.692 52.0456L25.0259 51.6304C24.4246 51.5869 23.9105 52.035 23.8663 52.6316C23.8227 53.2283 24.2709 53.747 24.8675 53.7913L31.3203 54.2638C31.7091 54.2922 32.0971 54.2579 32.4733 54.1668C38.4424 52.6943 42.8928 51.6958 43.4491 51.6733C44.323 51.806 44.9751 52.5432 44.9988 53.4276C45.0219 54.275 44.3289 54.9225 42.937 55.3502C39.4225 56.4319 31.6668 58.635 28.4949 59.5319C27.5603 59.7986 26.5967 59.7319 25.709 59.3432C23.7534 58.4872 20.7009 57.1177 19.441 56.5507C18.979 56.3448 18.4932 56.3699 17.9969 56.2801H5.02657C4.42861 56.29 3.95077 56.7824 3.96067 57.3803C3.96925 57.9796 4.46755 58.5202 5.06023 58.4462H17.7045C17.9969 58.5083 18.2827 58.4053 18.5553 58.5268C19.8185 59.095 22.8809 60.4705 24.8424 61.3291C25.6423 61.6789 26.5036 61.8551 27.3682 61.8551C27.9457 61.8551 28.5246 61.7759 29.0862 61.6169C32.2654 60.7186 40.0396 58.5096 43.5765 57.4213C46.7703 56.4398 47.1966 54.4612 47.1663 53.3695C47.1498 52.7676 46.9874 52.2046 46.7313 51.6951C46.8561 51.6746 61.1239 49.4716 61.1239 49.4716C61.7146 49.3798 62.1199 48.8254 62.0275 48.2347C61.9351 47.644 61.3794 47.2434 60.7906 47.3305L46.6996 49.5263C46.1822 49.6491 45.6509 49.6702 45.1222 49.5943L35.7964 48.2374C35.2975 48.1628 34.9186 47.9423 34.6302 47.549C34.3425 47.1682 34.2217 46.6718 34.3022 46.1656C34.386 45.5716 34.7543 45.0984 35.3054 44.8364L40.9741 45.2502C41.5734 45.2971 42.0895 44.8456 42.1338 44.249C42.1767 43.6523 41.7292 43.1336 41.1319 43.0894L34.6797 42.6181C34.287 42.5884 33.8989 42.6221 33.5267 42.7138C27.5563 44.1863 23.1073 45.1849 22.5489 45.206C21.6757 45.076 21.0243 44.3387 20.9999 43.453C20.9755 42.6069 21.6698 41.9594 23.0611 41.5304ZM30.5211 46.5022L28.3576 46.1874C29.4618 45.9307 30.7738 45.6178 32.3281 45.239C32.2661 45.4383 32.1895 45.6323 32.1592 45.8435C32.0886 46.2871 32.111 46.7326 32.1876 47.1655C31.7025 46.8302 31.1474 46.5959 30.5211 46.5022ZM35.479 50.3804L37.6425 50.6952C36.5356 50.9526 35.2335 51.2628 33.6719 51.643C33.7339 51.4436 33.8105 51.2503 33.8402 51.0397C33.9108 50.5962 33.8884 50.1507 33.8118 49.7177C34.2969 50.0524 34.8526 50.2867 35.479 50.3804Z" fill="#276EF1"/>
<path d="M31.4008 26.0647C31.8958 26.4937 32.5037 26.7062 33.1116 26.7062C33.7188 26.7062 34.326 26.493 34.8216 26.066C37.9738 23.3442 42.31 19.5505 43.564 18.0351C45.3387 15.8954 46.1301 13.9623 46.1301 11.7691C46.1301 9.67492 45.4159 7.74508 44.1184 6.33664C42.8142 4.92358 41.0243 4.14478 39.0786 4.14478C37.6319 4.14478 36.306 4.60282 35.1371 5.5057C34.5972 5.92348 33.8118 6.84946 33.1069 7.7497C32.4133 6.85408 31.6358 5.92876 31.0893 5.5057C29.9211 4.60282 28.5945 4.14478 27.1478 4.14478C25.2015 4.14478 23.4109 4.92358 22.1074 6.33796C20.8098 7.74574 20.0957 9.67492 20.0957 11.7691C20.0957 13.9623 20.8877 15.8961 22.6618 18.0351C23.9164 19.5485 28.2493 23.3429 31.4008 26.0647ZM23.7006 7.8058C24.589 6.84088 25.8139 6.3109 27.1485 6.3109C28.1041 6.3109 28.9846 6.61714 29.7647 7.22038C30.1449 7.51342 31.0095 8.53906 31.9678 9.83266C32.2338 10.191 32.6575 10.4055 33.101 10.4055H33.1036C33.5458 10.4055 33.9689 10.1937 34.2349 9.83859C35.2269 8.51859 36.0802 7.51606 36.4624 7.22104C38.3315 5.77432 41.0012 6.15184 42.5258 7.80514C43.4538 8.8123 43.9646 10.2194 43.9646 11.7698C43.9646 13.4224 43.327 14.9292 41.8968 16.6538C41.0448 17.6834 38.1883 20.2983 33.4079 24.4259C33.2343 24.5757 32.9914 24.5757 32.8179 24.4259C28.0381 20.2963 25.183 17.6814 24.3303 16.6538C22.9 14.9292 22.2625 13.4224 22.2625 11.7698C22.2618 10.2207 22.7733 8.81164 23.7006 7.8058Z" fill="#276EF1"/>
<path d="M17.7765 35.3514C18.2108 35.7237 18.7427 35.9098 19.276 35.9098C19.8099 35.9098 20.3445 35.7224 20.7808 35.3488C24.6167 32.0356 26.9518 29.8893 27.7154 28.9739C28.0514 28.5759 28.3246 28.1924 28.5728 27.8063C28.8955 27.3041 28.7503 26.6342 28.2474 26.3101C27.7431 25.9841 27.0739 26.1312 26.7505 26.6361C26.5505 26.9463 26.3307 27.2565 26.0568 27.5813C25.6661 28.0492 24.2781 29.4669 19.3684 33.708C19.3143 33.7516 19.239 33.7529 19.1895 33.7107C14.2765 29.4669 12.8879 28.0492 12.5018 27.5852C11.387 26.2342 10.9112 25.1188 10.9112 23.8589C10.9112 22.6827 11.294 21.6221 11.9942 20.8691C13.1103 19.6494 15.0678 19.3431 16.4895 20.4374C16.7244 20.6163 17.3435 21.3106 18.1718 22.422C18.4173 22.7758 18.8206 22.9929 19.2516 23.0015C19.6812 23.0385 20.0924 22.8095 20.3406 22.4755C20.5478 22.2036 20.8758 21.7772 21.225 21.3515C21.6045 20.8889 21.5365 20.2064 21.0738 19.8269C20.6112 19.4461 19.9287 19.5154 19.5499 19.9781C19.4582 20.0896 19.3677 20.2011 19.2806 20.3107C18.7652 19.6632 18.2134 19.029 17.8082 18.7181C15.5259 16.9652 12.2477 17.3856 10.4016 19.3992C9.33311 20.5503 8.74438 22.1336 8.74438 23.8589C8.74438 25.6402 9.38789 27.2143 10.8346 28.9686C11.6015 29.8893 13.9366 32.0356 17.7765 35.3514Z" fill="#276EF1"/>
<path d="M46.9155 33.7074C46.8613 33.751 46.7854 33.7523 46.7366 33.7101C41.8229 29.4663 40.4349 28.0486 40.0402 27.5747C39.7703 27.2559 39.5499 26.9457 39.3499 26.6342C39.0265 26.1306 38.3566 25.9854 37.853 26.3101C37.3501 26.6342 37.2049 27.3048 37.5289 27.8077C37.7771 28.1925 38.051 28.5766 38.3817 28.9686C39.1506 29.8893 41.485 32.0363 45.3242 35.3521C45.7585 35.7244 46.2911 35.9105 46.8237 35.9105C47.3583 35.9105 47.8923 35.7231 48.3292 35.3495C52.1658 32.0363 54.5002 29.8887 55.2717 28.9647C56.7145 27.2143 57.3573 25.6402 57.3573 23.8589C57.3573 22.1343 56.7693 20.5503 55.706 19.4052C53.8507 17.3797 50.5732 16.9678 48.2962 18.7168C47.8929 19.027 47.3445 19.656 46.8231 20.3121C46.7346 20.2018 46.6449 20.089 46.5531 19.9781C46.1736 19.5154 45.4912 19.4494 45.0285 19.827C44.5659 20.2065 44.4992 20.8889 44.878 21.3516C45.2272 21.7773 45.5545 22.2036 45.7545 22.4656C46.0106 22.8095 46.4158 22.9679 46.8521 23.0016C47.2831 22.993 47.6863 22.7758 47.9061 22.4544C48.7602 21.3106 49.3786 20.617 49.6155 20.4361C51.0325 19.3445 52.9881 19.6448 54.1141 20.875C54.8091 21.6228 55.1919 22.6834 55.1919 23.8596C55.1919 25.1188 54.7167 26.2349 53.6052 27.5813C53.2145 28.0473 51.8265 29.4649 46.9155 33.7074Z" fill="#276EF1"/>
</svg>
