<svg width="84" height="84" viewBox="0 0 84 84" fill="none" xmlns="http://www.w3.org/2000/svg">
<path d="M34.3556 28.6183C35.4041 28.6183 36.3381 29.0189 37.0182 29.7274C36.163 30.1527 35.3693 30.7154 34.6736 31.4111C31.1522 34.9336 31.1522 40.664 34.6736 44.1855C36.4343 45.9463 38.7477 46.8271 41.0611 46.8271C43.3735 46.8271 45.6878 45.9463 47.4485 44.1855C48.1451 43.4889 48.7088 42.6952 49.1359 41.84C49.8416 42.5201 50.2413 43.4541 50.2413 44.5036C50.2413 45.9646 51.43 47.1534 52.891 47.1534H57.3335C58.7945 47.1534 59.9833 45.9646 59.9833 44.5036C59.9833 42.6713 61.1721 41.5256 62.2848 41.0646C63.3975 40.6035 65.0482 40.5724 66.3442 41.8684C66.8446 42.3689 67.51 42.6448 68.2176 42.6448C68.9252 42.6448 69.5906 42.3689 70.091 41.8684L73.233 38.7264C73.7334 38.2259 74.0093 37.5605 74.0093 36.8529C74.0093 36.1453 73.7334 35.4798 73.233 34.9794C71.937 33.6833 71.9681 32.0326 72.4292 30.9198C72.8874 29.8071 74.0331 28.6183 75.8653 28.6183C77.3263 28.6183 78.5151 27.4295 78.5151 25.9685V21.5258C78.5151 20.0648 77.3263 18.876 75.8653 18.876C75.1137 18.876 74.4135 18.6652 73.8241 18.2784C74.6105 17.843 75.3447 17.293 76.0037 16.634C78.4949 14.1427 79.4481 10.4865 78.4912 7.09148C78.3767 6.68452 78.0549 6.36921 77.6462 6.26289C77.2374 6.15657 76.8029 6.27389 76.5041 6.57269L72.2477 10.8293L68.3368 10.5204L68.0279 6.60936L72.2843 2.35275C72.5831 2.05395 72.7014 1.61949 72.5941 1.21069C72.4878 0.801896 72.1725 0.480176 71.7656 0.365604C68.3707 -0.591307 64.7145 0.361937 62.2234 2.85321C61.5644 3.51223 61.0172 4.24916 60.5818 5.03742C60.1932 4.44622 59.9815 3.74504 59.9815 2.99161C59.9815 1.53058 58.7927 0.341772 57.3317 0.341772H52.8892C51.4282 0.341772 50.2394 1.53058 50.2394 2.99161C50.2394 4.82386 49.0507 5.96958 47.938 6.43062C46.8253 6.89166 45.1746 6.92191 43.8786 5.62678C43.3781 5.12633 42.7127 4.85044 42.0051 4.85044C41.2976 4.85044 40.6321 5.12633 40.1317 5.62678L36.9898 8.76882C35.9568 9.80181 35.9568 11.4828 36.9898 12.5158C38.2858 13.8119 38.2546 15.4626 37.7936 16.5753C37.3325 17.6881 36.1869 18.8769 34.3547 18.8769C32.8937 18.8769 31.7049 20.0657 31.7049 21.5267V25.9694C31.7058 27.4295 32.8946 28.6183 34.3556 28.6183ZM64.1784 20.9594C64.4542 21.8549 64.5936 22.787 64.5936 23.7476C64.5936 28.9767 60.3398 33.2315 55.11 33.2315C54.1485 33.2315 53.2146 33.0912 52.3182 32.8153L64.1784 20.9594ZM75.8653 21.2572C76.0138 21.2572 76.1339 21.3782 76.1339 21.5258V25.9685C76.1339 26.117 76.0129 26.237 75.8653 26.237C73.3512 26.237 71.1909 27.6825 70.2267 30.0078C69.2634 32.3341 69.7693 34.8841 71.5465 36.6613C71.651 36.7658 71.651 36.9372 71.5465 37.0417L68.4046 40.1837C68.3395 40.2488 68.2653 40.2626 68.2139 40.2626C68.1635 40.2626 68.0893 40.2488 68.0233 40.1837C66.2452 38.4056 63.6953 37.8996 61.37 38.8639C59.0438 39.8272 57.5993 41.9876 57.5993 44.5027C57.5993 44.6512 57.4784 44.7712 57.3308 44.7712H52.8883C52.7398 44.7712 52.6197 44.6502 52.6197 44.5027C52.6197 42.4266 51.6115 40.566 49.937 39.445C50.1854 38.1077 50.1359 36.7136 49.7619 35.3698L50.4667 34.665C51.9268 35.2846 53.5152 35.6109 55.11 35.6109C61.6514 35.6109 66.9738 30.2883 66.9738 23.7467C66.9738 22.1537 66.6485 20.5671 66.0298 19.1079L66.1187 19.019C67.8345 19.5744 69.6318 19.6358 71.3265 19.2398C72.4695 20.5304 74.0799 21.2572 75.8653 21.2572ZM63.9061 4.53697C65.2489 3.19417 67.0389 2.44349 68.8867 2.38483L65.9565 5.31514C65.7099 5.5617 65.5843 5.90359 65.6118 6.25006L66.0435 11.7211C66.0894 12.305 66.5531 12.7679 67.1361 12.8137L72.607 13.2454C72.9543 13.2729 73.2962 13.1464 73.5419 12.9008L76.4721 9.97046C76.4134 11.8183 75.6628 13.6084 74.32 14.9512C72.2 17.0712 69.0416 17.6954 66.2736 16.5405C65.8282 16.3554 65.3149 16.4562 64.9739 16.7972L47.564 34.2021C47.2341 34.5321 47.1268 35.0243 47.2909 35.4615C48.2029 37.8996 47.6043 40.6631 45.7648 42.5027C43.171 45.0966 38.9512 45.0966 36.3573 42.5027C33.7635 39.9088 33.7635 35.6888 36.3573 33.0949C37.6268 31.8254 39.3435 31.1517 41.0794 31.1517C41.9969 31.1517 42.9208 31.3406 43.786 31.7283C44.2369 31.9299 44.7649 31.8328 45.115 31.4835L62.2646 14.3334C62.6239 13.9741 62.7155 13.4269 62.4928 12.9704C61.1162 10.1474 61.6853 6.75784 63.9061 4.53697ZM45.6273 23.7476C45.6273 18.5185 49.8811 14.2637 55.1109 14.2637C56.2328 14.2637 57.3418 14.4626 58.3848 14.8458L46.2094 27.0216C45.8262 25.9786 45.6273 24.8695 45.6273 23.7476ZM34.0861 21.5258C34.0861 21.3773 34.2071 21.2572 34.3547 21.2572C36.8688 21.2572 39.0291 19.8118 39.9933 17.4855C40.9566 15.1592 40.4507 12.6093 38.6735 10.832C38.569 10.7276 38.569 10.5562 38.6735 10.4517L41.8154 7.30963C41.9208 7.20514 42.0913 7.20514 42.1958 7.30963C43.9739 9.08779 46.5237 9.59375 48.849 8.6295C51.1752 7.66618 52.6197 5.50579 52.6197 2.99161C52.6197 2.84312 52.7407 2.72305 52.8883 2.72305H57.3308C57.4793 2.72305 57.5993 2.84404 57.5993 2.99161C57.5993 4.78078 58.328 6.39304 59.6222 7.53602C59.2152 9.28486 59.2904 11.1391 59.8861 12.887C58.3885 12.2289 56.7589 11.8834 55.1091 11.8834C48.5676 11.8834 43.2452 17.206 43.2452 23.7476C43.2452 25.5129 43.6403 27.2544 44.3918 28.8374L43.9794 29.2498C42.4937 28.7448 40.9172 28.6476 39.4113 28.9281C38.2913 27.2489 36.4297 26.2389 34.3538 26.2389C34.2053 26.2389 34.0852 26.1179 34.0852 25.9703L34.0861 21.5258ZM37.9146 34.6512C36.1795 36.3863 36.1795 39.2094 37.9146 40.9445C38.7816 41.8116 39.9218 42.246 41.0611 42.246C42.2004 42.246 43.3396 41.8125 44.2076 40.9445C45.9426 39.2094 45.9426 36.3863 44.2076 34.6512C42.4717 32.9162 39.6487 32.9162 37.9146 34.6512ZM42.5239 39.2607C41.7173 40.0673 40.4048 40.0673 39.5974 39.2607C38.7908 38.4541 38.7908 37.1416 39.5974 36.3341C40.0006 35.9308 40.5304 35.7292 41.0602 35.7292C41.5899 35.7292 42.1197 35.9308 42.523 36.3341C43.3305 37.1416 43.3305 38.4541 42.5239 39.2607ZM83.6807 55.4017C83.0804 53.6291 81.646 52.3413 79.6415 51.7757C77.4849 51.1681 74.6811 51.3614 71.3055 52.3514L55.9431 56.8582C55.879 56.7271 55.8093 56.597 55.7351 56.4686C54.8772 54.9829 53.4969 53.9215 51.8489 53.4797L40.9346 50.5549C32.9698 44.9729 28.7014 46.5769 22.4248 49.6465C19.4277 51.1121 16.4425 52.5328 13.6186 53.8674L13.0274 52.4467C12.2419 50.5622 10.0697 49.6658 8.18437 50.4485L2.28911 52.8967C1.36981 53.278 0.65673 53.9911 0.280027 54.905C-0.0966759 55.8179 -0.0930097 56.827 0.289192 57.7454L10.2723 81.7186C10.8644 83.1412 12.2465 84 13.6993 84C14.1722 84 14.6525 83.9093 15.1153 83.7168L21.0106 81.2686C21.9299 80.8873 22.643 80.1742 23.0197 79.2604C23.3964 78.3474 23.3927 77.3383 23.0105 76.4199L22.3414 74.814L26.1836 72.946C27.5869 72.2632 28.9983 72.144 30.4969 72.5785L42.7595 76.1394C43.6623 76.4015 44.5953 76.5134 45.5421 76.5134C48.8014 76.5134 52.2192 75.1834 55.0917 74.0652C55.3446 73.9662 55.593 73.8699 55.8359 73.7764L78.8505 64.9076C82.5781 63.4722 84.8796 58.9416 83.6807 55.4017ZM20.82 78.3539C20.6861 78.6783 20.4295 78.9331 20.0986 79.0706L14.2034 81.5188C13.5288 81.7984 12.7515 81.4785 12.4711 80.8039L2.48617 56.8307C2.34868 56.4998 2.34593 56.1378 2.47975 55.8133C2.61357 55.4888 2.8702 55.234 3.20108 55.0965L9.09634 52.6483C9.26223 52.5796 9.43363 52.5466 9.60319 52.5466C10.1229 52.5466 10.6178 52.8536 10.8295 53.3623L20.8126 77.3355C20.951 77.6673 20.9538 78.0285 20.82 78.3539ZM77.9963 62.6867L54.9817 71.5556C54.736 71.65 54.4858 71.7481 54.2301 71.847C50.8581 73.1596 46.6603 74.7929 43.4249 73.8534L31.1623 70.2925C29.101 69.694 27.0754 69.8663 25.1442 70.8049L21.4258 72.6142L14.5361 56.069C17.3975 54.7171 20.4268 53.2753 23.4725 51.7867C29.3393 48.9178 32.7269 47.652 39.7357 52.6227C39.8512 52.7042 39.9796 52.7647 40.1161 52.8014L51.2348 55.7812C52.2687 56.058 53.1348 56.7253 53.6756 57.6611C54.2154 58.596 54.3602 59.6813 54.0834 60.7142C53.8067 61.7481 53.1385 62.6143 52.2036 63.1551C51.2687 63.695 50.1844 63.8398 49.1506 63.563L34.3739 59.6034C33.7388 59.4329 33.0862 59.8096 32.9166 60.4448C32.7461 61.08 33.1228 61.7326 33.758 61.9021L48.5346 65.8618C50.1826 66.3036 51.9085 66.0744 53.3942 65.2165C54.8799 64.3586 55.9422 62.9782 56.3831 61.3302C56.5756 60.6107 56.6406 59.8765 56.5811 59.1542L71.9773 54.6373C77.0642 53.1451 80.5975 53.7171 81.4269 56.1671C82.2115 58.487 80.5131 61.717 77.9963 62.6867Z" fill="#276EF1"/>
</svg>
