<svg width="81" height="91" viewBox="0 0 81 91" fill="none" xmlns="http://www.w3.org/2000/svg">
<path fill-rule="evenodd" clip-rule="evenodd" d="M60.2722 25.443C59.9442 25.717 59.4562 25.674 59.1812 25.346C58.9062 25.018 58.9512 24.53 59.2782 24.255L60.0182 23.638L61.0142 22.807C60.3872 22.644 59.2062 22.563 57.9932 22.563C56.7802 22.563 55.5992 22.645 54.9732 22.807L55.9692 23.638L56.7252 24.269C57.0532 24.543 57.0962 25.032 56.8222 25.36C56.5482 25.688 56.0592 25.731 55.7312 25.457L54.9752 24.826L54.1212 24.114H54.1182C53.4622 24.114 52.4662 24.197 51.8122 24.43C51.7352 24.458 51.6672 24.485 51.6122 24.511C51.6492 24.549 51.6972 24.593 51.7552 24.644L53.8172 26.437L54.0382 26.629C55.2882 27.219 56.6402 27.514 57.9932 27.514C59.3462 27.514 60.6982 27.219 61.9492 26.629L64.2302 24.644C64.3012 24.581 64.3592 24.528 64.4022 24.482C64.3472 24.458 64.2812 24.432 64.2062 24.407C63.5382 24.18 62.5102 24.114 61.8672 24.114H61.8642L61.0102 24.826L60.2722 25.443ZM36.0792 57.635L37.3402 58.666L39.5322 55.988L38.2722 54.957L36.0792 57.635ZM18.7922 78.576L18.8732 78.478C19.1952 78.083 19.7752 78.026 20.1692 78.348C20.5632 78.67 20.6212 79.25 20.2992 79.644L20.2182 79.744L20.3452 79.73C20.8502 79.681 21.3002 80.05 21.3492 80.555C21.3992 81.06 21.0302 81.509 20.5252 81.559L20.4002 81.572L20.4992 81.653C20.8932 81.975 20.9502 82.555 20.6292 82.949C20.3072 83.343 19.7272 83.401 19.3332 83.079L19.2332 82.998L19.2462 83.125C19.2962 83.63 18.9272 84.079 18.4222 84.129C17.9172 84.179 17.4672 83.81 17.4172 83.305L17.4042 83.18L17.3242 83.279C17.0022 83.673 16.4212 83.73 16.0282 83.409C15.6332 83.087 15.5762 82.507 15.8982 82.112L15.9792 82.013L15.8522 82.026C15.3472 82.076 14.8972 81.707 14.8472 81.201C14.7972 80.697 15.1662 80.247 15.6712 80.197L15.7972 80.184L15.6982 80.104C15.3032 79.782 15.2462 79.201 15.5682 78.808C15.8902 78.413 16.4702 78.356 16.8642 78.678L16.9642 78.759L16.9512 78.631C16.9012 78.127 17.2702 77.677 17.7752 77.627C18.2802 77.577 18.7302 77.946 18.7792 78.451L18.7922 78.576ZM23.6132 72.689L23.6002 72.564C23.5502 72.059 23.1012 71.69 22.5962 71.74C22.0912 71.79 21.7222 72.239 21.7712 72.744L21.7852 72.872L21.6852 72.79C21.2912 72.469 20.7112 72.526 20.3892 72.92C20.0672 73.314 20.1242 73.894 20.5182 74.216L20.6182 74.297L20.4922 74.31C19.9872 74.36 19.6182 74.809 19.6682 75.314C19.7182 75.819 20.1672 76.188 20.6732 76.138L20.8002 76.126L20.7192 76.225C20.3972 76.619 20.4542 77.2 20.8482 77.521C21.2422 77.843 21.8232 77.786 22.1442 77.392L22.2252 77.293L22.2382 77.418C22.2882 77.923 22.7372 78.292 23.2432 78.242C23.7482 78.192 24.1162 77.743 24.0672 77.238L24.0542 77.11L24.1532 77.191C24.5472 77.513 25.1282 77.456 25.4502 77.062C25.7712 76.667 25.7142 76.087 25.3202 75.766L25.2212 75.685L25.3462 75.672C25.8512 75.622 26.2202 75.173 26.1702 74.668C26.1212 74.162 25.6712 73.793 25.1662 73.844L25.0382 73.856L25.1202 73.757C25.4412 73.362 25.3842 72.782 24.9902 72.461C24.5962 72.139 24.0152 72.196 23.6942 72.59L23.6132 72.689ZM28.4352 66.802L28.5152 66.703C28.8372 66.309 29.4182 66.252 29.8112 66.573C30.2062 66.895 30.2632 67.475 29.9412 67.869L29.8602 67.969L29.9872 67.956C30.4922 67.906 30.9422 68.275 30.9922 68.78C31.0422 69.285 30.6732 69.735 30.1682 69.785L30.0432 69.798L30.1412 69.878C30.5362 70.2 30.5932 70.78 30.2712 71.174C29.9492 71.568 29.3692 71.626 28.9752 71.304L28.8752 71.223L28.8882 71.35C28.9382 71.855 28.5692 72.305 28.0642 72.355C27.5592 72.404 27.1092 72.036 27.0602 71.531L27.0472 71.405L26.9662 71.504C26.6442 71.898 26.0642 71.956 25.6702 71.634C25.2762 71.312 25.2182 70.732 25.5402 70.338L25.6212 70.238L25.4932 70.251C24.9882 70.301 24.5392 69.932 24.4892 69.427C24.4392 68.922 24.8082 68.472 25.3132 68.422L25.4382 68.41L25.3392 68.329C24.9452 68.007 24.8882 67.427 25.2092 67.033C25.5312 66.639 26.1112 66.581 26.5062 66.903L26.6052 66.984L26.5922 66.857C26.5422 66.352 26.9112 65.902 27.4162 65.853C27.9212 65.802 28.3712 66.171 28.4212 66.677L28.4352 66.802ZM33.2562 60.916L33.2432 60.79C33.1932 60.285 32.7432 59.916 32.2382 59.966C31.7332 60.016 31.3642 60.465 31.4142 60.971L31.4272 61.098L31.3272 61.017C30.9332 60.695 30.3532 60.752 30.0312 61.146C29.7092 61.54 29.7672 62.121 30.1612 62.442L30.2602 62.523L30.1352 62.536C29.6292 62.586 29.2602 63.035 29.3102 63.541C29.3602 64.046 29.8102 64.415 30.3152 64.365L30.4422 64.352L30.3612 64.452C30.0392 64.846 30.0972 65.426 30.4912 65.748C30.8852 66.069 31.4652 66.012 31.7872 65.618L31.8682 65.519L31.8812 65.644C31.9302 66.149 32.3802 66.518 32.8852 66.468C33.3902 66.418 33.7592 65.969 33.7092 65.464L33.6962 65.336L33.7962 65.418C34.1902 65.739 34.7702 65.682 35.0922 65.288C35.4142 64.894 35.3562 64.314 34.9622 63.992L34.8632 63.911L34.9892 63.898C35.4942 63.848 35.8622 63.399 35.8132 62.894C35.7632 62.389 35.3132 62.02 34.8082 62.07L34.6812 62.083L34.7622 61.983C35.0842 61.589 35.0272 61.009 34.6322 60.687C34.2382 60.365 33.6582 60.423 33.3362 60.817L33.2562 60.916ZM54.5532 38.243C54.5852 37.736 55.0222 37.35 55.5302 37.383C56.0372 37.414 56.4222 37.852 56.3902 38.359L56.3882 38.379L56.3872 38.4C56.3832 38.648 56.5172 38.894 56.7402 39.094C57.0202 39.347 57.4262 39.518 57.8882 39.548C57.9332 39.551 57.9792 39.552 58.0242 39.552C58.0782 39.542 58.1322 39.537 58.1892 39.537C58.2122 39.537 58.2362 39.538 58.2582 39.54C58.4382 39.52 58.6062 39.477 58.7562 39.416C58.9892 39.32 59.1792 39.181 59.3032 39.014C59.4202 38.855 59.4722 38.621 59.4592 38.384C59.4482 38.162 59.3822 37.957 59.2622 37.834C59.0062 37.569 58.3972 37.457 57.7922 37.346C56.4792 37.105 55.1822 36.867 54.8032 35.259C54.7082 34.855 54.6962 34.441 54.7692 34.042C54.8432 33.639 55.0032 33.259 55.2532 32.928C55.5792 32.496 56.0392 32.153 56.5792 31.933C56.7962 31.846 57.0262 31.778 57.2672 31.732V31.475C57.2672 30.966 57.6802 30.554 58.1892 30.554C58.6982 30.554 59.1112 30.967 59.1112 31.475V31.826C59.6512 31.985 60.1312 32.253 60.5112 32.596C61.1372 33.16 61.5052 33.925 61.4672 34.758L61.4662 34.772L61.4652 34.81C61.4362 35.317 61.0002 35.704 60.4932 35.673C59.9862 35.644 59.5992 35.208 59.6292 34.701L59.6312 34.663C59.6372 34.413 59.5032 34.164 59.2792 33.963C59.0082 33.719 58.6202 33.551 58.1762 33.513C58.1442 33.513 58.1132 33.511 58.0812 33.507C57.7842 33.494 57.5082 33.544 57.2692 33.64C57.0362 33.735 56.8452 33.872 56.7212 34.036C56.6452 34.136 56.5962 34.251 56.5752 34.372C56.5492 34.515 56.5552 34.674 56.5952 34.84C56.6982 35.277 57.4062 35.406 58.1222 35.538C59.0162 35.702 59.9182 35.867 60.5862 36.559C61.0242 37.012 61.2622 37.652 61.2942 38.296C61.3262 38.931 61.1582 39.593 60.7842 40.1C60.4612 40.539 59.9992 40.891 59.4532 41.115C59.3422 41.161 59.2262 41.201 59.1092 41.236V41.575C59.1092 42.084 58.6962 42.496 58.1872 42.496C57.6782 42.496 57.2652 42.084 57.2652 41.575V41.318C56.5782 41.185 55.9692 40.879 55.5062 40.462C54.8872 39.904 54.5202 39.149 54.5482 38.327V38.313C54.5492 38.296 54.5492 38.28 54.5502 38.262L54.5532 38.243ZM40.9412 85.597C40.9162 85.612 40.8892 85.626 40.8632 85.639L40.8462 85.647L40.8452 85.648C40.8312 85.654 40.8192 85.659 40.8062 85.665C40.7022 85.707 40.5932 85.728 40.4852 85.73H40.4782H40.4642H40.4502H40.4432C40.3362 85.728 40.2262 85.707 40.1232 85.665C40.1102 85.659 40.0972 85.654 40.0832 85.648L40.0822 85.647L40.0652 85.639C40.0402 85.627 40.0152 85.614 39.9912 85.599C38.1582 84.538 36.3662 83.403 34.6192 82.198C33.1192 81.163 31.6562 80.078 30.2322 78.945L21.5182 89.587C21.1732 90.007 20.6882 90.248 20.1832 90.298C19.6782 90.349 19.1562 90.208 18.7362 89.864L9.16318 82.024C8.74318 81.68 8.50218 81.194 8.45118 80.688C8.40118 80.184 8.54218 79.662 8.88618 79.242V79.241L18.5122 67.487C12.7062 60.52 8.06218 52.55 4.87718 43.877C1.72418 35.289 0.00217729 26.006 0.00017729 16.317C-0.00182271 16.219 0.0131777 16.123 0.0411777 16.033L0.0431775 16.025L0.0481776 16.012C0.0521776 16 0.0561776 15.988 0.0611776 15.976L0.0631775 15.971L0.0691775 15.956L0.0711774 15.951C0.0771774 15.938 0.0831775 15.925 0.0891775 15.912C0.0991775 15.892 0.109178 15.873 0.119178 15.854L0.120178 15.853L0.129177 15.837L0.132178 15.833C0.139178 15.822 0.146178 15.811 0.153178 15.8L0.157177 15.795L0.163177 15.786L0.169177 15.777L0.177177 15.767L0.183177 15.76L0.189177 15.752L0.197177 15.741L0.201178 15.737L0.211178 15.724L0.215177 15.72C0.317177 15.598 0.450177 15.501 0.605177 15.445L0.616178 15.441L0.626177 15.438L0.646178 15.432H0.648178L0.667178 15.426H0.670178C0.716178 15.413 0.762177 15.404 0.810177 15.398C7.32418 14.56 14.1302 13.161 20.7952 10.768C27.4352 8.384 33.9402 5.009 39.8802 0.211C39.9432 0.159 40.0122 0.116 40.0842 0.0829999L40.0902 0.0810001L40.0932 0.0799999L40.0972 0.0780001C40.2052 0.0300001 40.3212 0.004 40.4362 0H40.4572H40.4792H40.5012C40.6162 0.004 40.7312 0.0300001 40.8402 0.0780001L40.8442 0.0799999L40.8472 0.0810001L40.8532 0.0829999C40.9252 0.116 40.9942 0.159 41.0562 0.211C46.9972 5.009 53.5022 8.384 60.1422 10.768C66.8072 13.161 73.6142 14.56 80.1272 15.398C80.1752 15.404 80.2212 15.413 80.2672 15.426H80.2692L80.2892 15.432H80.2912L80.3112 15.438L80.3212 15.441L80.3322 15.445C80.4862 15.501 80.6202 15.598 80.7222 15.72L80.7252 15.724L80.7362 15.737L80.7392 15.741L80.7482 15.752L80.7542 15.76L80.7602 15.767L80.7672 15.777L80.7742 15.786L80.7802 15.795L80.7842 15.8C80.7912 15.811 80.7982 15.822 80.8052 15.833L80.8072 15.837L80.8172 15.853L80.8182 15.854C80.8282 15.873 80.8392 15.893 80.8472 15.912C80.8532 15.925 80.8602 15.938 80.8662 15.951L80.8682 15.956L80.8742 15.971L80.8762 15.976C80.8812 15.988 80.8852 16 80.8892 16.012L80.8942 16.025L80.8962 16.033C80.9242 16.124 80.9392 16.221 80.9372 16.319C80.9342 30.859 77.0522 44.492 70.2702 56.241C63.2352 68.412 53.0992 78.56 40.9412 85.597ZM31.3982 77.523L41.7742 64.853C42.1182 64.433 42.2582 63.91 42.2092 63.406C42.1582 62.9 41.9172 62.415 41.4972 62.071L38.7662 59.834L40.6582 57.525C41.5722 57.712 42.5192 57.67 43.4112 57.409C44.4822 57.096 45.4712 56.471 46.2252 55.549C47.2232 54.33 47.6322 52.82 47.4882 51.365C47.3912 50.396 47.0502 49.451 46.4712 48.634L48.0192 46.89C48.3562 46.51 48.3202 45.93 47.9402 45.594C47.5602 45.258 46.9802 45.293 46.6442 45.673L45.1812 47.322C44.0082 46.462 42.6012 46.113 41.2412 46.248C39.7852 46.394 38.3852 47.092 37.3872 48.311C36.6302 49.236 36.2112 50.327 36.1162 51.433C36.0362 52.356 36.1832 53.293 36.5502 54.157L34.6572 56.469L31.9262 54.232C31.5062 53.888 30.9842 53.747 30.4792 53.797C29.9742 53.847 29.4882 54.089 29.1442 54.509L19.7032 66.038C14.1372 59.296 9.67918 51.605 6.60818 43.244C3.61118 35.08 1.93618 26.282 1.84318 17.109C8.22918 16.245 14.8812 14.837 21.4122 12.492C28.0252 10.116 34.5102 6.784 40.4642 2.089C46.4182 6.784 52.9032 10.116 59.5192 12.491C66.0502 14.836 72.7022 16.244 79.0872 17.108C78.9462 31.019 75.1732 44.059 68.6702 55.325C61.8942 67.064 52.1502 76.878 40.4632 83.745C38.8192 82.78 37.2192 81.759 35.6632 80.685C34.2042 79.679 32.7812 78.625 31.3982 77.523ZM40.3292 63.496C40.3582 63.52 40.3752 63.553 40.3792 63.586C40.3822 63.621 40.3722 63.657 40.3482 63.687L20.1132 88.397C20.1042 88.408 20.0942 88.418 20.0862 88.429C20.0642 88.452 20.0342 88.467 20.0042 88.47C19.9742 88.473 19.9412 88.465 19.9132 88.446C19.9012 88.436 19.8912 88.427 19.8792 88.419L10.3552 80.619C10.3442 80.609 10.3342 80.6 10.3232 80.592C10.2992 80.57 10.2852 80.539 10.2822 80.51C10.2792 80.479 10.2872 80.447 10.3062 80.418C10.3152 80.407 10.3252 80.396 10.3332 80.385L30.5662 55.676C30.5902 55.647 30.6242 55.63 30.6562 55.627C30.6912 55.623 30.7272 55.634 30.7572 55.658L34.2002 58.477L36.8872 60.676L40.3292 63.496ZM41.7472 55.801C41.7312 55.555 41.6172 55.316 41.4122 55.147L38.7262 52.949C38.5202 52.78 38.2642 52.716 38.0202 52.749C37.9392 52.371 37.9152 51.98 37.9492 51.592C38.0132 50.843 38.2982 50.104 38.8102 49.478C39.4882 48.65 40.4362 48.175 41.4192 48.078C42.2852 47.992 43.1822 48.197 43.9482 48.71L41.7382 51.201L40.5842 50.14C40.2102 49.795 39.6282 49.82 39.2842 50.194C38.9392 50.567 38.9642 51.149 39.3382 51.494L41.1812 53.187L41.1822 53.186L41.1962 53.198C41.5752 53.534 42.1562 53.499 42.4922 53.119L45.1992 50.068C45.4522 50.529 45.6062 51.033 45.6572 51.547C45.7552 52.531 45.4762 53.555 44.7982 54.384C44.2832 55.012 43.6162 55.437 42.8992 55.647C42.5252 55.755 42.1372 55.806 41.7472 55.801ZM14.2902 31.146H14.3142H14.3372L14.3602 31.147L14.3852 31.151L14.4072 31.154L14.4302 31.157L14.4522 31.16C14.4602 31.161 14.4682 31.162 14.4752 31.164L14.4962 31.169C14.5042 31.171 14.5122 31.172 14.5182 31.174L14.5402 31.18L14.5612 31.187L14.5822 31.194L14.6032 31.201L14.6242 31.209L14.6452 31.217L14.6662 31.226L14.6862 31.235L14.7072 31.245L14.7272 31.256L14.7472 31.267L14.7672 31.278L14.7862 31.29L14.8052 31.302L14.8242 31.315L14.8422 31.328L14.8602 31.341L14.8782 31.355L14.8952 31.369L14.9122 31.383L14.9292 31.398L14.9452 31.414L14.9602 31.43L14.9762 31.446L14.9912 31.463L15.0052 31.48L15.0202 31.497L15.0342 31.515L15.0472 31.533L15.0602 31.551L15.0732 31.57L15.0842 31.589L15.0962 31.608L15.1072 31.628L15.1182 31.648L15.1282 31.668L15.1382 31.689L15.1472 31.709L15.1552 31.73L15.1642 31.751L15.1712 31.772L15.1792 31.793L15.1852 31.815L15.1912 31.837L15.1972 31.859L15.2022 31.881L15.2062 31.903L15.2102 31.925L15.2142 31.948L15.2162 31.971L15.2182 31.994L15.2202 32.017L15.2212 32.04V32.063V43.341H32.4242V32.068V32.045L32.4252 32.022L32.4272 31.999L32.4292 31.976L32.4322 31.953L32.4352 31.93L32.4392 31.908L32.4432 31.886L32.4482 31.864L32.4542 31.842L32.4602 31.82L32.4672 31.798L32.4742 31.777L32.4812 31.756L32.4892 31.735L32.4982 31.714L32.5072 31.694L32.5172 31.673L32.5272 31.653L32.5382 31.633L32.5492 31.613L32.5612 31.594L32.5732 31.575L32.5852 31.556L32.5982 31.538L32.6112 31.52L32.6252 31.502L32.6402 31.485L32.6542 31.468L32.6692 31.451L32.6842 31.435L32.7002 31.419L32.7172 31.403L32.7332 31.388L32.7502 31.374L32.7682 31.36L32.7852 31.346L32.8032 31.333L32.8212 31.32L32.8402 31.307L32.8592 31.295L32.8782 31.283L32.8982 31.272L32.9182 31.261L32.9382 31.25L32.9592 31.24L32.9792 31.231L33.0002 31.222L33.0212 31.214L33.0422 31.206L33.0632 31.199L33.0842 31.192L33.1052 31.185L33.1272 31.179L33.1492 31.174L33.1712 31.169L33.1932 31.165L33.2152 31.162L33.2382 31.159L33.2512 31.151L33.2742 31.149L33.2972 31.148H33.3202H33.3442H36.1112L23.8352 22.801L11.5582 31.146H14.2902ZM13.3682 32.989V44.262C13.3682 44.771 13.7812 45.184 14.2902 45.184H33.3462C33.8552 45.184 34.2682 44.771 34.2682 44.262V32.989H39.1012V32.985C39.3952 32.985 39.6842 32.843 39.8612 32.582C40.1452 32.163 40.0362 31.592 39.6162 31.308L24.3672 20.943C24.0632 20.728 23.6462 20.711 23.3202 20.932L8.12618 31.26C7.84118 31.417 7.64818 31.719 7.64818 32.068C7.64818 32.577 8.06018 32.99 8.56918 32.99L13.3682 32.989ZM62.2872 28.223C62.2692 28.215 62.2522 28.207 62.2352 28.199C60.8802 28.778 59.4352 29.068 57.9932 29.068C56.5562 29.068 55.1192 28.781 53.7672 28.206C51.0492 29.396 49.3112 31.731 48.5472 34.261C48.1092 35.716 47.9912 37.228 48.1942 38.622C48.3932 39.985 48.8952 41.225 49.6982 42.167C50.6622 43.301 52.0932 44.021 53.9912 44.021H58.0082H62.0262C63.9122 44.021 65.3362 43.308 66.3002 42.185C67.1102 41.243 67.6162 40.003 67.8192 38.643C68.0262 37.247 67.9122 35.73 67.4742 34.273C66.7162 31.75 64.9882 29.419 62.2872 28.223ZM63.9122 26.978C66.6482 28.499 68.4222 31.032 69.2382 33.748C69.7532 35.461 69.8862 37.252 69.6402 38.91C69.3892 40.603 68.7412 42.166 67.6972 43.381C66.3922 44.9 64.5002 45.864 62.0262 45.864H58.0082H53.9912C51.5062 45.864 49.6062 44.888 48.3012 43.355C47.2632 42.135 46.6192 40.575 46.3732 38.888C46.1312 37.232 46.2672 35.444 46.7822 33.735C47.5982 31.03 49.3652 28.508 52.0872 26.99L50.7372 25.815C50.3812 25.505 50.1622 25.197 50.0532 24.898C49.8652 24.372 49.9882 23.929 50.3262 23.559C50.5592 23.304 50.8972 23.112 51.2902 22.972C51.8052 22.788 52.4552 22.677 53.0612 22.618C53.0862 22.433 53.1712 22.25 53.3102 22.07C53.3242 22.05 53.3382 22.031 53.3542 22.012C53.9102 21.346 55.9792 21.014 57.9912 21.014C60.0042 21.014 62.0722 21.347 62.6282 22.012L62.6262 22.013L62.6282 22.014C62.7912 22.21 62.8922 22.409 62.9212 22.611C63.5242 22.663 64.1792 22.765 64.7012 22.942C65.0972 23.076 65.4392 23.264 65.6802 23.52C66.0282 23.891 66.1542 24.337 65.9582 24.87C65.8472 25.175 65.6192 25.492 65.2462 25.815L63.9122 26.978Z" fill="#286FF1"/>
</svg>
