<svg width="115" height="60" viewBox="0 0 115 60" fill="none" xmlns="http://www.w3.org/2000/svg">
<path d="M0.693359 51.303C0.693359 43.4343 7.07219 37.0554 14.9409 37.0554H65.8032C73.6719 37.0554 80.0507 43.4343 80.0507 51.3029V59.0636H0.693359V51.303Z" fill="#E9F0FE"/>
<circle cx="22.7266" cy="23.7791" r="11.7891" fill="#E9F0FE"/>
<circle cx="55.5928" cy="19.9331" r="13.5576" fill="#E9F0FE"/>
<path d="M59.2939 34.6105C68.7791 34.6105 76.4979 26.8917 76.4979 17.4064C76.4979 7.92118 68.7791 0.202393 59.2939 0.202393C49.8086 0.202393 42.0898 7.92118 42.0898 17.4077C42.0898 26.8942 49.8074 34.6105 59.2939 34.6105ZM59.2939 5.5736C65.8184 5.5736 71.1267 10.882 71.1267 17.4064C71.1267 23.9309 65.8184 29.2393 59.2939 29.2393C52.7694 29.2393 47.4611 23.9309 47.4611 17.4064C47.4598 10.882 52.7681 5.5736 59.2939 5.5736Z" fill="#276EF1"/>
<path d="M59.2939 34.6105C68.7791 34.6105 76.4979 26.8917 76.4979 17.4064C76.4979 7.92118 68.7791 0.202393 59.2939 0.202393C49.8086 0.202393 42.0898 7.92118 42.0898 17.4077C42.0898 26.8942 49.8074 34.6105 59.2939 34.6105ZM59.2939 5.5736C65.8184 5.5736 71.1267 10.882 71.1267 17.4064C71.1267 23.9309 65.8184 29.2393 59.2939 29.2393C52.7694 29.2393 47.4611 23.9309 47.4611 17.4064C47.4598 10.882 52.7681 5.5736 59.2939 5.5736Z" stroke="white"/>
<path d="M67.8124 36.2141H50.0105C38.8909 36.2141 29.8457 45.2593 29.8457 56.3789C29.8457 57.8632 31.0464 59.0639 32.5307 59.0639C34.0149 59.0639 35.2156 57.8632 35.2156 56.3789C35.2156 48.2227 41.853 41.5853 50.0092 41.5853H67.8111C75.9673 41.5853 82.6047 48.2227 82.6047 56.3789C82.6047 57.8632 83.8054 59.0639 85.2896 59.0639C86.7739 59.0639 87.9746 57.8632 87.9746 56.3789C87.9772 45.2593 78.9319 36.2141 67.8124 36.2141Z" fill="#276EF1"/>
<path d="M67.8124 36.2141H50.0105C38.8909 36.2141 29.8457 45.2593 29.8457 56.3789C29.8457 57.8632 31.0464 59.0639 32.5307 59.0639C34.0149 59.0639 35.2156 57.8632 35.2156 56.3789C35.2156 48.2227 41.853 41.5853 50.0092 41.5853H67.8111C75.9673 41.5853 82.6047 48.2227 82.6047 56.3789C82.6047 57.8632 83.8054 59.0639 85.2896 59.0639C86.7739 59.0639 87.9746 57.8632 87.9746 56.3789C87.9772 45.2593 78.9319 36.2141 67.8124 36.2141Z" stroke="white"/>
<path d="M26.5264 33.9023C33.8693 33.9023 39.8435 27.9282 39.8435 20.5852C39.8435 13.2449 33.8693 7.27075 26.5264 7.27075C19.1861 7.27075 13.2119 13.2449 13.2119 20.5852C13.2119 27.9282 19.1861 33.9023 26.5264 33.9023ZM26.5264 12.642C30.9086 12.642 34.4723 16.2057 34.4723 20.5852C34.4723 24.9674 30.9086 28.5311 26.5264 28.5311C22.1468 28.5311 18.5831 24.9674 18.5831 20.5852C18.5831 16.2057 22.1468 12.642 26.5264 12.642Z" fill="#276EF1"/>
<path d="M26.5264 33.9023C33.8693 33.9023 39.8435 27.9282 39.8435 20.5852C39.8435 13.2449 33.8693 7.27075 26.5264 7.27075C19.1861 7.27075 13.2119 13.2449 13.2119 20.5852C13.2119 27.9282 19.1861 33.9023 26.5264 33.9023ZM26.5264 12.642C30.9086 12.642 34.4723 16.2057 34.4723 20.5852C34.4723 24.9674 30.9086 28.5311 26.5264 28.5311C22.1468 28.5311 18.5831 24.9674 18.5831 20.5852C18.5831 16.2057 22.1468 12.642 26.5264 12.642Z" stroke="white"/>
<path d="M35.4468 38.6154C35.4468 37.1311 34.2461 35.9304 32.7618 35.9304H19.7308C11.1949 35.9304 4.24707 42.8769 4.24707 51.4142C4.24707 52.8984 5.4478 54.0991 6.93203 54.0991C8.41627 54.0991 9.617 52.8984 9.617 51.4142C9.617 45.839 14.1544 41.3016 19.7296 41.3016H32.7618C34.2461 41.3016 35.4468 40.0996 35.4468 38.6154Z" fill="#276EF1"/>
<path d="M35.4468 38.6154C35.4468 37.1311 34.2461 35.9304 32.7618 35.9304H19.7308C11.1949 35.9304 4.24707 42.8769 4.24707 51.4142C4.24707 52.8984 5.4478 54.0991 6.93203 54.0991C8.41627 54.0991 9.617 52.8984 9.617 51.4142C9.617 45.839 14.1544 41.3016 19.7296 41.3016H32.7618C34.2461 41.3016 35.4468 40.0996 35.4468 38.6154Z" stroke="white"/>
<path d="M91.8776 33.9023C99.218 33.9023 105.192 27.9282 105.192 20.5852C105.192 13.2449 99.218 7.27075 91.8776 7.27075C84.5347 7.27075 78.5605 13.2449 78.5605 20.5852C78.5593 27.9282 84.5334 33.9023 91.8776 33.9023ZM91.8776 12.642C96.2572 12.642 99.8209 16.2057 99.8209 20.5852C99.8209 24.9674 96.2572 28.5311 91.8776 28.5311C87.4955 28.5311 83.9318 24.9674 83.9318 20.5852C83.9305 16.2057 87.4942 12.642 91.8776 12.642Z" fill="#276EF1"/>
<path d="M91.8776 33.9023C99.218 33.9023 105.192 27.9282 105.192 20.5852C105.192 13.2449 99.218 7.27075 91.8776 7.27075C84.5347 7.27075 78.5605 13.2449 78.5605 20.5852C78.5593 27.9282 84.5334 33.9023 91.8776 33.9023ZM91.8776 12.642C96.2572 12.642 99.8209 16.2057 99.8209 20.5852C99.8209 24.9674 96.2572 28.5311 91.8776 28.5311C87.4955 28.5311 83.9318 24.9674 83.9318 20.5852C83.9305 16.2057 87.4942 12.642 91.8776 12.642Z" stroke="white"/>
<path d="M59.3229 26.1929C59.4781 26.1929 59.632 26.1852 59.7898 26.1724C61.5422 26.0197 63.1098 25.0217 63.9885 23.5002C64.3605 22.8575 64.1412 22.0365 63.4985 21.6671C62.8583 21.2976 62.0348 21.5144 61.6653 22.1571C61.2253 22.9204 60.4376 23.4207 59.5589 23.4977C58.5673 23.5605 57.5975 23.109 57.0599 22.2546C56.6584 21.6247 55.8271 21.4464 55.2063 21.8377C54.579 22.2366 54.3929 23.0653 54.7893 23.6914C55.7848 25.2615 57.4897 26.1929 59.3229 26.1929Z" fill="#276EF1"/>
<path d="M59.3229 26.1929C59.4781 26.1929 59.632 26.1852 59.7898 26.1724C61.5422 26.0197 63.1098 25.0217 63.9885 23.5002C64.3605 22.8575 64.1412 22.0365 63.4985 21.6671C62.8583 21.2976 62.0348 21.5144 61.6653 22.1571C61.2253 22.9204 60.4376 23.4207 59.5589 23.4977C58.5673 23.5605 57.5975 23.109 57.0599 22.2546C56.6584 21.6247 55.8271 21.4464 55.2063 21.8377C54.579 22.2366 54.3929 23.0653 54.7893 23.6914C55.7848 25.2615 57.4897 26.1929 59.3229 26.1929Z" stroke="white"/>
<path d="M91.6086 26.1929C91.7639 26.1929 91.9178 26.1852 92.0756 26.1724C93.8254 26.0197 95.393 25.0242 96.2717 23.5002C96.6437 22.8575 96.4244 22.0365 95.7817 21.6671C95.139 21.2976 94.3154 21.5144 93.9485 22.1571C93.5072 22.9204 92.7208 23.4207 91.8447 23.4977C90.8428 23.5682 89.8807 23.109 89.3431 22.2546C88.9416 21.6247 88.1078 21.4464 87.4895 21.8377C86.8622 22.2366 86.6761 23.0653 87.0725 23.6914C88.068 25.2615 89.7755 26.1929 91.6086 26.1929Z" fill="#276EF1"/>
<path d="M91.6086 26.1929C91.7639 26.1929 91.9178 26.1852 92.0756 26.1724C93.8254 26.0197 95.393 25.0242 96.2717 23.5002C96.6437 22.8575 96.4244 22.0365 95.7817 21.6671C95.139 21.2976 94.3154 21.5144 93.9485 22.1571C93.5072 22.9204 92.7208 23.4207 91.8447 23.4977C90.8428 23.5682 89.8807 23.109 89.3431 22.2546C88.9416 21.6247 88.1078 21.4464 87.4895 21.8377C86.8622 22.2366 86.6761 23.0653 87.0725 23.6914C88.068 25.2615 89.7755 26.1929 91.6086 26.1929Z" stroke="white"/>
<path d="M26.4752 26.1923C26.6305 26.1923 26.787 26.1846 26.9422 26.1718C28.6971 26.0191 30.2647 25.0211 31.1409 23.4971C31.5104 22.8544 31.2884 22.0334 30.6457 21.6639C30.0056 21.2945 29.182 21.5113 28.8126 22.1591C28.3751 22.9198 27.59 23.4201 26.7113 23.4971C25.7325 23.56 24.7498 23.1084 24.2072 22.2515C23.8108 21.6242 22.9795 21.4407 22.3535 21.8397C21.7288 22.2386 21.5428 23.0674 21.9417 23.6934C22.9372 25.261 24.6446 26.1923 26.4752 26.1923Z" fill="#276EF1"/>
<path d="M26.4752 26.1923C26.6305 26.1923 26.787 26.1846 26.9422 26.1718C28.6971 26.0191 30.2647 25.0211 31.1409 23.4971C31.5104 22.8544 31.2884 22.0334 30.6457 21.6639C30.0056 21.2945 29.182 21.5113 28.8126 22.1591C28.3751 22.9198 27.59 23.4201 26.7113 23.4971C25.7325 23.56 24.7498 23.1084 24.2072 22.2515C23.8108 21.6242 22.9795 21.4407 22.3535 21.8397C21.7288 22.2386 21.5428 23.0674 21.9417 23.6934C22.9372 25.261 24.6446 26.1923 26.4752 26.1923Z" stroke="white"/>
<path d="M98.671 35.9304H85.64C84.1558 35.9304 82.9551 37.1311 82.9551 38.6154C82.9551 40.0996 84.1558 41.3003 85.64 41.3003H98.671C104.246 41.3003 108.784 45.8377 108.784 51.4129C108.784 52.8971 109.984 54.0979 111.469 54.0979C112.953 54.0979 114.154 52.8971 114.154 51.4129C114.155 42.8769 107.208 35.9304 98.671 35.9304Z" fill="#276EF1"/>
<path d="M98.671 35.9304H85.64C84.1558 35.9304 82.9551 37.1311 82.9551 38.6154C82.9551 40.0996 84.1558 41.3003 85.64 41.3003H98.671C104.246 41.3003 108.784 45.8377 108.784 51.4129C108.784 52.8971 109.984 54.0979 111.469 54.0979C112.953 54.0979 114.154 52.8971 114.154 51.4129C114.155 42.8769 107.208 35.9304 98.671 35.9304Z" stroke="white"/>
</svg>
