<svg width="116" height="61" viewBox="0 0 116 61" fill="none" xmlns="http://www.w3.org/2000/svg">
<path d="M0.0673828 52.0158C0.0673828 44.1472 6.44622 37.7683 14.3149 37.7683H66.7123C74.5809 37.7683 80.9598 44.1471 80.9598 52.0158V60.2022H0.0673828V52.0158Z" fill="#E9F0FE"/>
<circle cx="22.5269" cy="24.2351" r="12.0171" fill="#E9F0FE"/>
<circle cx="56.0288" cy="20.3147" r="13.8198" fill="#E9F0FE"/>
<path d="M59.8005 35.276C69.4692 35.276 77.3373 27.4079 77.3373 17.7392C77.3373 8.07049 69.4692 0.202393 59.8005 0.202393C50.1318 0.202393 42.2637 8.07049 42.2637 17.7405C42.2637 27.4106 50.1305 35.276 59.8005 35.276ZM59.8005 5.6775C66.4512 5.6775 71.8622 11.0885 71.8622 17.7392C71.8622 24.3899 66.4512 29.8009 59.8005 29.8009C53.1498 29.8009 47.7388 24.3899 47.7388 17.7392C47.7375 11.0885 53.1485 5.6775 59.8005 5.6775Z" fill="#276EF1"/>
<path d="M68.4833 36.9106H50.3371C39.0024 36.9106 29.7822 46.1308 29.7822 57.4655C29.7822 58.9785 31.0062 60.2024 32.5191 60.2024C34.0321 60.2024 35.256 58.9785 35.256 57.4655C35.256 49.1515 42.0218 42.3857 50.3358 42.3857H68.482C76.796 42.3857 83.5617 49.1515 83.5617 57.4655C83.5617 58.9785 84.7857 60.2024 86.2986 60.2024C87.8116 60.2024 89.0355 58.9785 89.0355 57.4655C89.0382 46.1308 79.818 36.9106 68.4833 36.9106Z" fill="#276EF1"/>
<path d="M26.3982 34.5542C33.8832 34.5542 39.9729 28.4645 39.9729 20.9795C39.9729 13.4972 33.8832 7.40747 26.3982 7.40747C18.9159 7.40747 12.8262 13.4972 12.8262 20.9795C12.8262 28.4645 18.9159 34.5542 26.3982 34.5542ZM26.3982 12.8826C30.8651 12.8826 34.4978 16.5152 34.4978 20.9795C34.4978 25.4464 30.8651 29.0791 26.3982 29.0791C21.9339 29.0791 18.3013 25.4464 18.3013 20.9795C18.3013 16.5152 21.9339 12.8826 26.3982 12.8826Z" fill="#276EF1"/>
<path d="M35.4917 39.3585C35.4917 37.8455 34.2678 36.6216 32.7548 36.6216H19.4717C10.7707 36.6216 3.68848 43.7025 3.68848 52.4048C3.68848 53.9178 4.91243 55.1418 6.42538 55.1418C7.93832 55.1418 9.16228 53.9178 9.16228 52.4048C9.16228 46.7218 13.7874 42.0967 19.4704 42.0967H32.7548C34.2678 42.0967 35.4917 40.8714 35.4917 39.3585Z" fill="#276EF1"/>
<path d="M93.0141 34.5542C100.496 34.5542 106.586 28.4645 106.586 20.9795C106.586 13.4972 100.496 7.40747 93.0141 7.40747C85.5292 7.40747 79.4395 13.4972 79.4395 20.9795C79.4381 28.4645 85.5279 34.5542 93.0141 34.5542ZM93.0141 12.8826C97.4784 12.8826 101.111 16.5152 101.111 20.9795C101.111 25.4464 97.4784 29.0791 93.0141 29.0791C88.5472 29.0791 84.9146 25.4464 84.9146 20.9795C84.9133 16.5152 88.5459 12.8826 93.0141 12.8826Z" fill="#276EF1"/>
<path d="M59.8296 26.6955C59.9878 26.6955 60.1448 26.6877 60.3056 26.6746C62.0918 26.519 63.6898 25.5016 64.5855 23.9508C64.9647 23.2956 64.7411 22.4588 64.086 22.0822C63.4335 21.7056 62.594 21.9265 62.2174 22.5817C61.7689 23.3597 60.966 23.8697 60.0702 23.9482C59.0594 24.0122 58.0708 23.552 57.5229 22.6811C57.1136 22.039 56.2663 21.8572 55.6334 22.2561C54.994 22.6628 54.8043 23.5075 55.2084 24.1456C56.2231 25.7462 57.961 26.6955 59.8296 26.6955Z" fill="#276EF1"/>
<path d="M92.7395 26.6955C92.8977 26.6955 93.0546 26.6877 93.2154 26.6746C94.9991 26.519 96.597 25.5043 97.4928 23.9508C97.872 23.2956 97.6484 22.4588 96.9932 22.0822C96.3381 21.7056 95.4986 21.9265 95.1246 22.5817C94.6748 23.3597 93.8732 23.8697 92.9801 23.9482C91.9588 24.0201 90.9781 23.552 90.4302 22.6811C90.0209 22.039 89.1709 21.8572 88.5406 22.2561C87.9012 22.6628 87.7116 23.5075 88.1156 24.1456C89.1304 25.7462 90.8708 26.6955 92.7395 26.6955Z" fill="#276EF1"/>
<path d="M26.3463 26.6953C26.5045 26.6953 26.6641 26.6874 26.8223 26.6743C28.6111 26.5187 30.2091 25.5014 31.1022 23.9479C31.4788 23.2928 31.2526 22.4559 30.5975 22.0793C29.9449 21.7027 29.1054 21.9237 28.7288 22.584C28.2829 23.3595 27.4827 23.8695 26.5869 23.9479C25.5892 24.012 24.5875 23.5517 24.0344 22.6782C23.6303 22.0387 22.783 21.8518 22.1448 22.2584C21.508 22.6651 21.3184 23.5098 21.7251 24.148C22.7398 25.7459 24.4803 26.6953 26.3463 26.6953Z" fill="#276EF1"/>
<path d="M99.9389 36.6216H86.6558C85.1429 36.6216 83.9189 37.8455 83.9189 39.3585C83.9189 40.8714 85.1429 42.0954 86.6558 42.0954H99.9389C105.622 42.0954 110.247 46.7205 110.247 52.4035C110.247 53.9165 111.471 55.1404 112.984 55.1404C114.497 55.1404 115.721 53.9165 115.721 52.4035C115.722 43.7025 108.641 36.6216 99.9389 36.6216Z" fill="#276EF1"/>
</svg>
