<svg width="103" height="54" viewBox="0 0 103 54" fill="none" xmlns="http://www.w3.org/2000/svg">
<path d="M0.228516 47.6462C0.228516 39.7775 6.60735 33.3987 14.476 33.3987H57.1711C65.0398 33.3987 71.4186 39.7775 71.4186 47.6462V53.1419H0.228516V47.6462Z" fill="#E9F0FE"/>
<circle cx="19.9937" cy="21.4886" r="10.5758" fill="#E9F0FE"/>
<circle cx="49.4777" cy="18.0385" r="12.1623" fill="#E9F0FE"/>
<path d="M52.7977 4.9068C58.7888 4.9068 63.6627 9.78075 63.6627 15.7718C63.6627 21.7629 58.7888 26.6368 52.7977 26.6368C46.8066 26.6368 41.9327 21.7629 41.9327 15.7719L52.7977 4.9068ZM52.7977 4.9068C46.8055 4.9068 41.9315 9.78071 41.9327 15.7718L52.7977 4.9068ZM67.9811 15.7718C67.9811 24.1428 61.1687 30.9553 52.7977 30.9553C44.4255 30.9553 37.6143 24.1451 37.6143 15.773C37.6143 7.40083 44.4267 0.588379 52.7977 0.588379C61.1687 0.588379 67.9811 7.40084 67.9811 15.7718Z" fill="#276EF1" stroke="white" stroke-width="0.5"/>
<path d="M44.4694 32.8938H60.4391C70.2762 32.8938 78.2786 40.8962 78.2763 50.7332C78.2763 51.9267 77.3111 52.8919 76.1176 52.8919C74.9242 52.8919 73.959 51.9267 73.959 50.7333C73.959 43.2784 67.8928 37.2122 60.4379 37.2122H44.4682C37.0133 37.2122 30.9472 43.2784 30.9472 50.7333C30.9472 51.9267 29.9819 52.8919 28.7885 52.8919C27.5951 52.8919 26.6299 51.9267 26.6299 50.7333C26.6299 40.8962 34.6323 32.8938 44.4694 32.8938Z" fill="#276EF1" stroke="white" stroke-width="0.5"/>
<path d="M35.0987 18.6234C35.0987 25.0725 29.8513 30.3199 23.4022 30.3199C16.9554 30.3199 11.708 25.0726 11.708 18.6234C11.708 12.1766 16.9554 6.9292 23.4022 6.9292C29.8514 6.9292 35.0987 12.1766 35.0987 18.6234ZM30.7803 18.6234C30.7803 14.5564 27.4714 11.2476 23.4022 11.2476C19.3353 11.2476 16.0264 14.5565 16.0264 18.6234C16.0264 22.6926 19.3352 26.0015 23.4022 26.0015C27.4714 26.0015 30.7803 22.6926 30.7803 18.6234Z" fill="#276EF1" stroke="white" stroke-width="0.5"/>
<path d="M28.9961 32.6394C30.1895 32.6394 31.1547 33.6046 31.1547 34.798C31.1547 35.9916 30.1894 36.9578 28.9961 36.9578H17.3051C12.1656 36.9578 7.98328 41.1401 7.98328 46.2796C7.98328 47.473 7.01806 48.4382 5.82465 48.4382C4.63124 48.4382 3.66602 47.473 3.66602 46.2796C3.66602 38.7591 9.78683 32.6394 17.3062 32.6394H28.9961Z" fill="#276EF1" stroke="white" stroke-width="0.5"/>
<path d="M82.0276 11.2476C86.0945 11.2476 89.4033 14.5565 89.4033 18.6234C89.4033 22.6926 86.0945 26.0015 82.0276 26.0015C77.9584 26.0015 74.6495 22.6927 74.6495 18.6235L82.0276 11.2476ZM82.0276 11.2476C77.9573 11.2476 74.6483 14.5564 74.6495 18.6234L82.0276 11.2476ZM70.3311 18.6234V18.6234C70.3311 12.1766 75.5784 6.9292 82.0276 6.9292C88.4744 6.9292 93.7218 12.1766 93.7218 18.6234C93.7218 25.0726 88.4744 30.3199 82.0276 30.3199C75.5773 30.3199 70.3299 25.0725 70.3311 18.6234Z" fill="#276EF1" stroke="white" stroke-width="0.5"/>
<path d="M56.7921 21.1133L56.7922 21.1131C57.0569 20.6559 56.9006 20.0728 56.4444 19.8106L56.444 19.8104C55.9884 19.5474 55.4031 19.7025 55.1412 20.158L55.1411 20.1583C54.7054 20.9141 53.9259 21.409 53.0567 21.4851L53.0507 21.4856L53.0507 21.4855C52.0773 21.5472 51.1167 21.1042 50.5819 20.2547C50.2962 19.8072 49.7052 19.6804 49.2639 19.9581C48.8174 20.2424 48.686 20.8315 48.9673 21.2759L56.7921 21.1133ZM56.7921 21.1133C56.0448 22.4073 54.7115 23.2563 53.221 23.3863M56.7921 21.1133L53.221 23.3863M53.221 23.3863C53.0848 23.3974 52.9539 23.4039 52.8231 23.4039C51.2644 23.4039 49.8146 22.6123 48.9674 21.2761L53.221 23.3863Z" fill="#276EF1" stroke="white" stroke-width="0.5"/>
<path d="M82.2053 23.6355C83.775 23.4985 85.1812 22.6055 85.9695 21.2383C86.3033 20.6618 86.1065 19.9253 85.5299 19.5938C84.9534 19.2624 84.2146 19.4569 83.8854 20.0334C83.4896 20.7182 82.7841 21.167 81.9981 21.236C81.0993 21.2993 80.2362 20.8873 79.754 20.1209C79.3938 19.5559 78.6458 19.3959 78.0911 19.7469M82.2053 23.6355L82.185 23.3863C82.1848 23.3863 82.1845 23.3863 82.1843 23.3863M82.2053 23.6355C82.0637 23.647 81.9256 23.6539 81.7864 23.6539C80.1419 23.6539 78.6101 22.8184 77.7171 21.4098M82.2053 23.6355L82.1835 23.3864C82.1838 23.3864 82.184 23.3864 82.1843 23.3863M82.1843 23.3863C83.6726 23.2563 85.0057 22.4095 85.753 21.1135L85.7532 21.1131C86.0178 20.6559 85.8615 20.0728 85.4053 19.8106C84.9466 19.5469 84.3619 19.7031 84.1025 20.1574L84.1019 20.1586C83.6652 20.9138 82.8872 21.4089 82.02 21.4851L82.0157 21.4855L82.0157 21.4854C81.0301 21.5548 80.0768 21.1029 79.5429 20.2547M82.1843 23.3863C82.048 23.3974 81.9171 23.4039 81.7864 23.4039C80.2275 23.4039 78.7755 22.6122 77.9283 21.2761L77.7171 21.4098M79.5429 20.2547C79.543 20.2549 79.5431 20.2551 79.5432 20.2553L79.754 20.1209L79.5424 20.254C79.5426 20.2543 79.5427 20.2545 79.5429 20.2547ZM79.5429 20.2547C79.257 19.807 78.6638 19.6806 78.225 19.958M78.225 19.958C78.2251 19.958 78.2252 19.9579 78.2253 19.9578L78.0911 19.7469M78.225 19.958C78.225 19.9581 78.2249 19.9581 78.2248 19.9582L78.0911 19.7469M78.225 19.958C77.7784 20.2422 77.6469 20.8314 77.9283 21.2759L77.7171 21.4098M78.0911 19.7469C77.5284 20.1048 77.3615 20.8482 77.7171 21.4098" fill="#276EF1" stroke="white" stroke-width="0.5"/>
<path d="M27.3249 21.1111L27.5416 21.2357C27.8731 20.6592 27.674 19.9227 27.0974 19.5912C26.5232 19.2598 25.7844 19.4543 25.4529 20.0354L27.3249 21.1111ZM27.3249 21.1111C27.5875 20.6544 27.4298 20.0706 26.9728 19.808L26.9725 19.8078C26.5171 19.545 25.9323 19.6996 25.6701 20.1593L25.6697 20.1601C25.2363 20.9137 24.459 21.4086 23.5897 21.4848L23.5839 21.4853L23.5839 21.4852C22.6218 21.547 21.6497 21.1038 21.1103 20.2521L21.1102 20.2519C20.829 19.8069 20.2386 19.6758 19.7931 19.9597C19.3483 20.2438 19.2168 20.8329 19.5 21.2775L19.5003 21.2778C20.3474 22.6119 21.7996 23.4036 23.3562 23.4036C23.4871 23.4036 23.6203 23.3971 23.7539 23.3861C25.2468 23.256 26.5799 22.407 27.3249 21.1111Z" fill="#276EF1" stroke="white" stroke-width="0.5"/>
<path d="M101.761 46.2784V46.2785C101.761 47.4719 100.796 48.4371 99.6024 48.4371C98.409 48.4371 97.4437 47.4719 97.4437 46.2785C97.4437 41.139 93.2614 36.9567 88.1219 36.9567H76.4321C75.2387 36.9567 74.2734 35.9914 74.2734 34.798C74.2734 33.6046 75.2387 32.6394 76.4321 32.6394H88.1219C95.6425 32.6394 101.762 38.7591 101.761 46.2784Z" fill="#276EF1" stroke="white" stroke-width="0.5"/>
</svg>
