<svg width="67" height="84" viewBox="0 0 67 84" fill="none" xmlns="http://www.w3.org/2000/svg">
<path fill-rule="evenodd" clip-rule="evenodd" d="M6.07614 53.6684H35.8509C36.072 55.5452 37.0056 57.2016 38.3821 58.3532H11.2567C8.51197 58.3532 6.52951 56.274 6.07614 53.6684ZM55.7604 8.67274C58.5059 8.67274 60.4913 10.7505 60.9454 13.356H50.3006C50.7048 10.6894 52.9732 8.67274 55.7604 8.67274ZM18.9178 6.98657C14.9365 6.98657 11.7034 10.2204 11.7034 14.2025V51.9815H4.80091C4.36616 51.9815 4.04456 52.3887 4.04456 52.8235C4.04456 56.8048 7.27396 60.0394 11.2567 60.0394L43.1353 60.0349C44.7612 60.0349 46.2568 59.4491 47.4509 58.523C48.1462 58.0071 47.7114 56.906 46.8501 57.0065C46.6915 57.0222 46.5434 57.0847 46.4198 57.1852C45.2875 57.8671 44.1053 58.3488 43.0162 58.3525C40.0064 58.3674 37.6376 56.006 37.4939 53.0282C37.4515 52.2064 37.1373 51.9815 36.5098 51.9815H13.3925V14.2025C13.3925 11.1272 15.8395 8.67274 18.9178 8.67274H51.1269C49.6194 9.94053 48.642 11.8121 48.5608 13.9144L48.5452 19.4233C48.4983 20.5905 50.2783 20.5905 50.2321 19.4233V15.0422H62.1358C62.6011 15.0377 62.9733 14.6655 62.9778 14.2017C62.9778 10.2658 59.8183 6.99253 55.8936 6.99253L18.9178 6.98657Z" fill="#276EF1"/>
<path fill-rule="evenodd" clip-rule="evenodd" d="M49.44 47.0846C50.0259 47.1352 50.5961 47.4144 51.0145 47.9072L56.6328 54.5492C57.4703 55.5378 57.3542 56.9716 56.3611 57.8091C55.3725 58.6466 53.9387 58.5275 53.1012 57.5388L47.4784 50.8969C46.6409 49.9083 46.7615 48.473 47.7531 47.6355C48.2467 47.2171 48.8556 47.0385 49.44 47.0846ZM35.0864 18.6647C39.1853 18.6141 43.2678 20.3241 46.125 23.7016C51.2081 29.7063 50.4636 38.6716 44.4619 43.7465C38.4594 48.8251 29.5001 48.074 24.417 42.0715C19.3339 36.0668 20.0784 27.1126 26.0801 22.034C28.7087 19.8119 31.8994 18.7027 35.0864 18.6647ZM35.0633 16.9852C31.4967 17.0277 27.9211 18.2649 24.9902 20.7454C18.2902 26.4144 17.4527 36.4644 23.1217 43.1644C28.6119 49.6477 38.2086 50.6438 44.8967 45.5607L46.0788 46.9595C44.9547 48.4224 44.9592 50.5247 46.195 51.986L51.8133 58.6235C53.2367 60.3074 55.7722 60.5196 57.4517 59.0977C59.1342 57.6728 59.3523 55.1388 57.9244 53.4548L52.3061 46.8144C51.0688 45.356 48.9956 45.0069 47.3697 45.8719L46.1831 44.4671C52.2987 38.7178 52.9032 29.0944 47.4159 22.611C44.2259 18.8426 39.6461 16.9316 35.0633 16.9852Z" fill="#276EF1"/>
<path fill-rule="evenodd" clip-rule="evenodd" d="M35.2725 27.3448C39.7741 27.3419 42.4422 29.9549 45.2801 32.518C42.446 35.0774 39.7853 37.6785 35.2807 37.6829C30.7746 37.6904 28.1065 35.0804 25.2657 32.518C28.1042 29.9549 30.7679 27.3493 35.2725 27.3448ZM23.3815 31.8815C22.9974 32.2157 22.9974 32.8135 23.3815 33.1493C26.3943 35.8099 29.6236 39.3185 35.2725 39.3185C40.9184 39.3215 44.1448 35.8099 47.1605 33.1493C47.5447 32.8135 47.5447 32.2157 47.1605 31.8815C44.1448 29.2223 40.9184 25.7048 35.277 25.7048C29.6311 25.7048 26.3972 29.2179 23.3815 31.8815Z" fill="#276EF1"/>
<path fill-rule="evenodd" clip-rule="evenodd" d="M35.2725 30.3549C36.4793 30.3549 37.4329 31.3159 37.4329 32.5182C37.4329 33.719 36.4793 34.6771 35.2725 34.6771C34.0717 34.6771 33.1092 33.719 33.1092 32.5182C33.1092 31.3159 34.0717 30.3549 35.2725 30.3549ZM35.2725 28.6687C33.1553 28.6687 31.4222 30.4018 31.4222 32.519C31.4222 34.6362 33.1553 36.3648 35.2725 36.3648C37.3897 36.3648 39.1198 34.6362 39.1198 32.519C39.1198 30.4018 37.3897 28.6687 35.2725 28.6687Z" fill="#276EF1"/>
</svg>
