<svg width="84" height="84" viewBox="0 0 84 84" fill="none" xmlns="http://www.w3.org/2000/svg">
<path fill-rule="evenodd" clip-rule="evenodd" d="M2.89571 73.9126H45.335C45.6501 76.8841 46.9807 79.5067 48.9427 81.3302H10.2798C6.36759 81.3302 3.54191 78.0381 2.89571 73.9126ZM73.7127 2.66975C77.626 2.66975 80.456 5.9595 81.1032 10.0849H65.9307C66.5069 5.86285 69.74 2.66975 73.7127 2.66975ZM21.1995 0C15.5248 0 10.9165 5.12026 10.9165 11.4251V71.2417H1.07807C0.45839 71.2417 0 71.8865 0 72.5748C0 78.8785 4.603 83.9999 10.2798 83.9999L55.7178 83.9929C58.0352 83.9929 60.1669 83.0652 61.8689 81.5989C62.8599 80.7821 62.2403 79.0388 61.0126 79.1979C60.7866 79.2227 60.5754 79.3217 60.3993 79.4808C58.7854 80.5605 57.1003 81.3231 55.548 81.329C51.258 81.3526 47.8816 77.6138 47.6768 72.899C47.6163 71.5977 47.1686 71.2417 46.2741 71.2417H13.3241V11.4251C13.3241 6.55592 16.8119 2.66975 21.1995 2.66975H67.1085C64.9598 4.67707 63.5666 7.64032 63.451 10.969L63.4287 19.6913C63.3618 21.5395 65.8989 21.5395 65.8331 19.6913V12.7547H82.7999C83.4631 12.7476 83.9936 12.1583 84 11.4239C84 5.19217 79.4967 0.0094289 73.9027 0.0094289L21.1995 0Z" fill="#276EF1"/>
<path fill-rule="evenodd" clip-rule="evenodd" d="M64.7041 63.4882C65.5391 63.5684 66.3519 64.0104 66.9483 64.7907L74.9563 75.307C76.15 76.8723 75.9845 79.1425 74.569 80.4685C73.1599 81.7946 71.1162 81.606 69.9225 80.0407L61.9081 69.5243C60.7144 67.959 60.8863 65.6865 62.2996 64.3604C63.0031 63.698 63.8711 63.4151 64.7041 63.4882ZM44.2452 18.4902C50.0876 18.4101 55.9066 21.1175 59.979 26.4653C67.2241 35.9727 66.1631 50.1677 57.6086 58.2029C49.053 66.244 36.2828 65.0547 29.0377 55.5509C21.7926 46.0435 22.8537 31.8661 31.4082 23.825C35.1549 20.3066 39.7027 18.5503 44.2452 18.4902ZM44.2123 15.8311C39.1286 15.8983 34.0322 17.8573 29.8547 21.7847C20.3049 30.7605 19.1112 46.6729 27.1914 57.2812C35.0169 67.5465 48.6954 69.1236 58.2282 61.0754L59.9132 63.2902C58.311 65.6063 58.3174 68.935 60.0788 71.2488L68.0868 81.758C70.1156 84.4243 73.7297 84.7602 76.1235 82.5089C78.5216 80.2528 78.8324 76.2406 76.7973 73.5743L68.7892 63.0603C67.0257 60.7513 64.0706 60.1985 61.7532 61.5681L60.0618 59.3439C68.7786 50.2408 69.6402 35.0038 61.819 24.7385C57.2722 18.7719 50.7444 15.7462 44.2123 15.8311Z" fill="#276EF1"/>
<path fill-rule="evenodd" clip-rule="evenodd" d="M44.5105 32.2339C50.9269 32.2292 54.7299 36.3664 58.7747 40.4247C54.7352 44.477 50.9428 48.5954 44.5222 48.6025C38.0994 48.6142 34.2965 44.4817 30.2474 40.4247C34.2933 36.3664 38.0899 32.241 44.5105 32.2339ZM27.5617 39.4169C27.0142 39.9461 27.0142 40.8926 27.5617 41.4242C31.856 45.6369 36.459 51.1921 44.5105 51.1921C52.5578 51.1968 57.1566 45.6369 61.455 41.4242C62.0025 40.8926 62.0025 39.9461 61.455 39.4169C57.1566 35.2066 52.5578 29.6372 44.5169 29.6372C36.4696 29.6372 31.8602 35.1995 27.5617 39.4169Z" fill="#276EF1"/>
<path fill-rule="evenodd" clip-rule="evenodd" d="M44.5105 36.9996C46.2306 36.9996 47.5898 38.5213 47.5898 40.4249C47.5898 42.3261 46.2306 43.8431 44.5105 43.8431C42.799 43.8431 41.427 42.3261 41.427 40.4249C41.427 38.5213 42.799 36.9996 44.5105 36.9996ZM44.5105 34.3298C41.4928 34.3298 39.0226 37.0738 39.0226 40.4261C39.0226 43.7783 41.4928 46.5152 44.5105 46.5152C47.5283 46.5152 49.9942 43.7783 49.9942 40.4261C49.9942 37.0738 47.5283 34.3298 44.5105 34.3298Z" fill="#276EF1"/>
</svg>
