<svg width="80" height="79" viewBox="0 0 80 79" fill="none" xmlns="http://www.w3.org/2000/svg">
<path d="M24.9507 77.7646H6.68606C6.3444 77.7646 6.06836 78.0407 6.06836 78.3824C6.06836 78.724 6.34438 79.0001 6.68606 79.0001H24.9492C25.2909 79.0001 25.5669 78.724 25.5669 78.3824C25.5675 78.0413 25.2909 77.7646 24.9498 77.7646H24.9507Z" fill="#276EF1"/>
<path d="M51.5885 77.7646H30.3023C29.9606 77.7646 29.6846 78.0407 29.6846 78.3824C29.6846 78.724 29.9606 79.0001 30.3023 79.0001H51.5885C51.9302 79.0001 52.2062 78.724 52.2062 78.3824C52.2062 78.0413 51.9296 77.7646 51.5879 77.7646H51.5885Z" fill="#276EF1"/>
<path d="M72.3903 77.7646H56.9927C56.651 77.7646 56.375 78.0407 56.375 78.3824C56.375 78.724 56.651 79.0001 56.9927 79.0001H72.3903C72.7319 79.0001 73.008 78.724 73.008 78.3824C73.008 78.0413 72.7314 77.7646 72.3903 77.7646Z" fill="#276EF1"/>
<path d="M78.457 74.1369H75.5526L75.5532 70.3468C75.5532 70.0051 75.2772 69.7291 74.9355 69.7291H73.9075V66.7485C73.9075 66.4068 73.6309 66.1308 73.2898 66.1308H72.5186V30.4911H73.2898C73.6315 30.4911 73.9075 30.2151 73.9075 29.8734V26.8934H74.9355C75.2771 26.8934 75.5532 26.6173 75.5532 26.2757V21.2262H75.8767C76.2183 21.2262 76.4944 20.9502 76.4944 20.6085C76.4944 20.2669 76.2184 19.9908 75.8767 19.9908H71.6043V14.4984H72.229C72.5707 14.4984 72.8467 14.2224 72.8467 13.8807C72.8467 13.539 72.5707 13.263 72.229 13.263H48.4508V12.3318C48.4508 11.9901 48.1747 11.714 47.8331 11.714H43.2618L42.1448 4.267C42.1002 3.96402 41.8394 3.74073 41.5341 3.74073H40.1551V0.617704C40.1551 0.27604 39.8791 0 39.5374 0C39.1957 0 38.9197 0.276025 38.9197 0.617704V3.74013H37.5384C37.233 3.74013 36.9723 3.96342 36.9277 4.2664L35.8107 11.7134H31.2382C30.8966 11.7134 30.6205 11.9895 30.6205 12.3312V19.9903L8.70264 19.9909V14.4985H27.1458C27.4875 14.4985 27.7635 14.2224 27.7635 13.8808C27.7635 13.5391 27.4875 13.2631 27.1458 13.2631H6.84227C6.50061 13.2631 6.22457 13.5391 6.22457 13.8808C6.22457 14.2224 6.50059 14.4985 6.84227 14.4985H7.46701V19.9909H3.19461C2.85294 19.9909 2.5769 20.2669 2.5769 20.6086C2.5769 20.9503 2.85293 21.2263 3.19461 21.2263H3.51929V26.2757C3.51929 26.6174 3.79531 26.8934 4.13699 26.8934H5.16376V29.8735C5.16376 30.2152 5.43979 30.4912 5.78147 30.4912H6.55271V66.1308H5.78147C5.4398 66.1308 5.16376 66.4069 5.16376 66.7485V69.7286L4.13699 69.7292C3.79533 69.7292 3.51929 70.0052 3.51929 70.3469V74.1369H0.617704C0.276041 74.1369 0 74.413 0 74.7546C0 75.0963 0.276026 75.3723 0.617704 75.3723C90.1691 75.3764 72.8017 75.3723 78.4563 75.3723C78.798 75.3723 79.074 75.0963 79.074 74.7546C79.074 74.413 78.7974 74.1369 78.4557 74.1369L78.457 74.1369ZM72.6716 69.7267H64.2822V67.3668H72.6716V69.7267ZM71.2832 66.1307H65.6712V30.491H71.2832V66.1307ZM72.6716 29.2548H64.2822V26.8948H72.6716V29.2548ZM63.6645 30.4902H64.4358V66.1298H63.6645C63.3229 66.1298 63.0468 66.4059 63.0468 66.7475V69.7276H54.6129V66.7469C54.6129 66.4053 54.3369 66.1292 53.9952 66.1292H53.2251V30.4896H53.9952C54.3368 30.4896 54.6129 30.2136 54.6129 29.8719V26.8918H63.0468V29.8719C63.0468 30.2135 63.3234 30.4902 63.6645 30.4902V30.4902ZM25.6949 26.8947H34.0843V29.2547H25.6949V26.8947ZM27.0827 30.4902H32.6959V66.1298H27.0827V30.4902ZM34.0843 67.3661V69.726H25.6949V67.3661H34.0843ZM34.702 66.1301H33.9308V30.4904H34.702C35.0437 30.4904 35.3197 30.2144 35.3197 29.8727V26.8927H43.7524V29.8727C43.7524 30.2144 44.0285 30.4904 44.3702 30.4904H45.1414V66.1301H44.3702C44.0285 66.1301 43.7524 66.4061 43.7524 66.7478V69.7278H35.3197V66.7478C35.3197 66.4067 35.0437 66.1301 34.702 66.1301ZM53.3777 69.7262H44.9884V67.3662H53.3777V69.7262ZM51.99 66.1301H46.3767V30.4904H51.99V66.1301ZM44.9884 29.2542V26.8942H53.3777V29.2542H44.9884ZM70.3689 14.4962V19.9886H48.4511V14.4962H70.3689ZM41.0036 4.97393L41.4161 7.72488H37.6595L38.0721 4.97393H41.0036ZM37.4744 8.96023H41.6014L42.014 11.7112H37.0624L37.4744 8.96023ZM31.8582 12.9471H47.2168V19.9886H31.8582V12.9471ZM4.75676 21.224C8.01061 21.2246 -2.61047 21.2281 74.3182 21.224V25.6557H4.75676V21.224ZM6.40124 26.8941H14.7906V29.254H6.40124V26.8941ZM7.79019 30.4895H13.4034V66.1292L7.79019 66.1286V30.4895ZM6.40124 67.3654H14.7906V69.7254H6.40124V67.3654ZM15.4089 66.1294H14.6388V30.4898H15.4089C15.7506 30.4898 16.0266 30.2138 16.0266 29.8721V26.892H24.4605V29.8721C24.4605 30.2138 24.7366 30.4898 25.0782 30.4898H25.8483V66.1294H25.0782C24.7366 66.1294 24.4605 66.4055 24.4605 66.7471V69.7272H16.0266V66.7471C16.0266 66.4061 15.75 66.1294 15.4089 66.1294ZM4.75676 70.9632H74.3182V74.1356H4.75676V70.9632Z" fill="#276EF1"/>
<path d="M18.2622 38.4462H22.2223C22.5639 38.4462 22.84 38.1702 22.84 37.8285V33.8697C22.84 33.528 22.564 33.252 22.2223 33.252H18.2622C17.9206 33.252 17.6445 33.528 17.6445 33.8697V37.8285C17.6445 38.1696 17.9206 38.4462 18.2622 38.4462ZM18.8799 34.4874H21.6045V37.2107H18.8799V34.4874Z" fill="#276EF1"/>
<path d="M18.2622 46.755H22.2223C22.5639 46.755 22.84 46.479 22.84 46.1373V42.1768C22.84 41.8351 22.564 41.5591 22.2223 41.5591H18.2622C17.9206 41.5591 17.6445 41.8351 17.6445 42.1768V46.1368C17.6445 46.4785 17.9206 46.7551 18.2622 46.7551V46.755ZM18.8799 42.7949H21.6045V45.5195H18.8799V42.7949Z" fill="#276EF1"/>
<path d="M18.2622 55.0622H22.2223C22.5639 55.0622 22.84 54.7861 22.84 54.4445V50.4856C22.84 50.144 22.564 49.8679 22.2223 49.8679H18.2622C17.9206 49.8679 17.6445 50.1439 17.6445 50.4856V54.4445C17.6445 54.7855 17.9206 55.0622 18.2622 55.0622ZM18.8799 51.1033H21.6045V53.8267H18.8799V51.1033Z" fill="#276EF1"/>
<path d="M18.2622 63.3707H22.2223C22.5639 63.3707 22.84 63.0947 22.84 62.753V58.793C22.84 58.4513 22.564 58.1753 22.2223 58.1753H18.2622C17.9206 58.1753 17.6445 58.4513 17.6445 58.793V62.753C17.6445 63.0941 17.9206 63.3707 18.2622 63.3707ZM18.8799 59.4107H21.6045V62.1352H18.8799V59.4107Z" fill="#276EF1"/>
<path d="M37.5562 38.4462H41.515C41.8567 38.4462 42.1327 38.1702 42.1327 37.8285V33.8697C42.1327 33.528 41.8567 33.252 41.515 33.252H37.5562C37.2145 33.252 36.9385 33.528 36.9385 33.8697V37.8285C36.9385 38.1696 37.2151 38.4462 37.5562 38.4462ZM38.1745 34.4874H40.8978V37.2107H38.1745V34.4874Z" fill="#276EF1"/>
<path d="M37.5556 46.755H41.5144C41.8561 46.755 42.1321 46.479 42.1321 46.1373L42.1327 42.1768C42.1327 41.8351 41.8567 41.5591 41.515 41.5591H37.5562C37.2145 41.5591 36.9385 41.8351 36.9385 42.1768V46.1368C36.9379 46.4785 37.2145 46.7551 37.5556 46.7551V46.755ZM38.1739 42.7949H40.8972V45.5195H38.1739V42.7949Z" fill="#276EF1"/>
<path d="M37.5562 55.0622H41.515C41.8567 55.0622 42.1327 54.7861 42.1327 54.4445V50.4856C42.1327 50.144 41.8567 49.8679 41.515 49.8679H37.5562C37.2145 49.8679 36.9385 50.1439 36.9385 50.4856V54.4445C36.9385 54.7855 37.2151 55.0622 37.5562 55.0622ZM38.1745 51.1033H40.8978V53.8267H38.1745V51.1033Z" fill="#276EF1"/>
<path d="M37.5562 63.3707H41.515C41.8567 63.3707 42.1327 63.0947 42.1327 62.753V58.793C42.1327 58.4513 41.8567 58.1753 41.515 58.1753H37.5562C37.2145 58.1753 36.9385 58.4513 36.9385 58.793V62.753C36.9385 63.0941 37.2151 63.3707 37.5562 63.3707ZM38.1745 59.4107H40.8978V62.1352H38.1745V59.4107Z" fill="#276EF1"/>
<path d="M60.8102 33.2507H56.8501C56.5085 33.2507 56.2324 33.5268 56.2324 33.8684V37.8273C56.2324 38.1689 56.5084 38.445 56.8501 38.445H60.8102C61.1518 38.445 61.4279 38.169 61.4279 37.8273V33.8684C61.4279 33.5274 61.1518 33.2507 60.8102 33.2507ZM60.1925 37.2096H57.4679V34.4862H60.1925V37.2096Z" fill="#276EF1"/>
<path d="M60.8102 41.5579H56.8501C56.5085 41.5579 56.2324 41.8339 56.2324 42.1756V46.1356C56.2324 46.4773 56.5084 46.7533 56.8501 46.7533H60.8102C61.1518 46.7533 61.4279 46.4773 61.4279 46.1356V42.1756C61.4279 41.8345 61.1518 41.5579 60.8102 41.5579ZM60.1925 45.5179H57.4679V42.794H60.1925V45.5179Z" fill="#276EF1"/>
<path d="M60.8102 49.8665H56.8501C56.5085 49.8665 56.2324 50.1425 56.2324 50.4842V54.443C56.2324 54.7847 56.5084 55.0607 56.8501 55.0607H60.8102C61.1518 55.0607 61.4279 54.7847 61.4279 54.443V50.4842C61.4279 50.1431 61.1518 49.8665 60.8102 49.8665ZM60.1925 53.8253H57.4679V51.102H60.1925V53.8253Z" fill="#276EF1"/>
<path d="M60.8102 58.1736H56.8501C56.5085 58.1736 56.2324 58.4496 56.2324 58.7913V62.7513C56.2324 63.093 56.5084 63.369 56.8501 63.369H60.8102C61.1518 63.369 61.4279 63.093 61.4279 62.7513V58.7913C61.4279 58.4502 61.1518 58.1736 60.8102 58.1736ZM60.1925 62.1336H57.4679V59.4091H60.1925V62.1336Z" fill="#276EF1"/>
</svg>
