<svg width="75" height="79" viewBox="0 0 75 79" fill="none" xmlns="http://www.w3.org/2000/svg">
<path d="M33.1438 21.1573C31.782 20.4307 29.6024 19.4318 26.5152 18.7965C26.2429 18.7059 25.9705 18.7965 25.7887 18.9783C25.6069 19.1601 25.4258 19.4324 25.4258 19.7048V23.2462C25.4258 23.7003 25.6981 24.0633 26.1523 24.1545C28.3318 24.5174 30.4201 25.1534 32.3267 25.9704C32.4172 25.9704 32.5084 26.061 32.6896 26.061C32.8714 26.061 33.0525 25.9704 33.2343 25.8792C33.5067 25.6974 33.5973 25.425 33.5973 25.1527V22.1561C33.5979 21.702 33.4161 21.339 33.1438 21.1573H33.1438ZM31.7813 23.6998C30.3283 23.155 28.7848 22.7915 27.2411 22.4285V20.885C29.1483 21.4297 30.6919 22.0656 31.7813 22.6104V23.6998Z" fill="#276EF1"/>
<path d="M22.7915 18.2515C20.8843 18.0697 19.1597 18.0697 17.1618 18.3421C16.7077 18.4326 16.3447 18.7962 16.3447 19.2504V22.8822C16.3447 23.1546 16.4353 23.3364 16.6171 23.5181C16.7989 23.6999 16.98 23.7905 17.253 23.7905H17.3436C19.3413 23.6087 20.7943 23.6087 22.6103 23.6999C22.8826 23.6999 23.155 23.6094 23.3368 23.4276C23.5186 23.2458 23.6091 22.9734 23.6091 22.7916V19.1598C23.6085 18.7056 23.2456 18.3427 22.7914 18.2515H22.7915ZM21.7926 21.7928C20.5214 21.7023 19.4319 21.7928 18.1608 21.7928V19.9769C19.432 19.8863 20.6127 19.8863 21.7926 19.9769V21.7928Z" fill="#276EF1"/>
<path d="M13.4391 18.9779C10.533 19.6139 8.26291 20.6121 6.90117 21.3387C6.5376 21.4299 6.35645 21.7928 6.35645 22.0652V25.1524C6.35645 25.4247 6.53823 25.6971 6.71939 25.8789C6.90117 25.9695 7.08233 26.0607 7.26411 26.0607C7.35469 26.0607 7.53648 26.0607 7.62706 25.9701C9.62475 25.153 11.7131 24.5171 13.8014 24.1542C14.2556 24.0636 14.5279 23.7 14.5279 23.2459V19.7045C14.5279 19.4322 14.4374 19.1598 14.165 18.978C13.9838 18.978 13.7115 18.8874 13.4391 18.978L13.4391 18.9779ZM12.7126 22.6104C11.169 22.9734 9.62538 23.4275 8.17235 23.8817V22.701C9.26181 22.1563 10.8053 21.5204 12.7126 21.0669V22.6104Z" fill="#276EF1"/>
<path d="M33.1438 28.3308C31.782 27.6043 29.6024 26.6054 26.5152 25.9701C26.2429 25.8795 25.9705 25.9701 25.7887 26.1519C25.6069 26.3337 25.4258 26.606 25.4258 26.8784V30.4198C25.4258 30.8739 25.6981 31.2368 26.1523 31.3281C28.3318 31.691 30.4201 32.3269 32.3267 33.144C32.4172 33.144 32.5084 33.2346 32.6896 33.2346C32.8714 33.2346 33.0525 33.144 33.2343 33.0528C33.5067 32.871 33.5973 32.5986 33.5973 32.3263L33.5979 29.0573C33.5979 28.7849 33.4161 28.422 33.1438 28.3308L33.1438 28.3308ZM31.7813 30.7827C30.3283 30.238 28.7848 29.8744 27.2411 29.5115V27.8773C29.1483 28.4221 30.6919 29.058 31.7813 29.6028V30.7827Z" fill="#276EF1"/>
<path d="M22.7915 25.3342C20.8843 25.1525 19.1597 25.1525 17.1618 25.4248C16.7077 25.5154 16.3447 25.879 16.3447 26.3331V29.965C16.3447 30.2373 16.4353 30.4191 16.6171 30.6009C16.7989 30.7827 16.98 30.8733 17.253 30.8733H17.3436C19.3413 30.6915 20.7943 30.6915 22.6103 30.7827C22.8826 30.7827 23.155 30.6921 23.3368 30.5103C23.5186 30.3285 23.6091 30.0562 23.6091 29.8744V26.2425C23.6085 25.7884 23.2456 25.4255 22.7914 25.3342H22.7915ZM21.7926 28.8756C20.5214 28.785 19.4319 28.785 18.1608 28.8756V27.0597C19.432 26.9691 20.6127 26.9691 21.7926 27.0597V28.8756Z" fill="#276EF1"/>
<path d="M13.4391 26.0608C10.533 26.6967 8.26291 27.6949 6.90117 28.4215C6.62881 28.6033 6.35645 28.8757 6.35645 29.2386V32.3258C6.35645 32.5982 6.53823 32.8705 6.71939 33.0523C6.90117 33.1429 7.08233 33.2341 7.26411 33.2341C7.35469 33.2341 7.53648 33.2341 7.62706 33.1435C9.62475 32.3264 11.7131 31.6905 13.8014 31.3276C14.2556 31.237 14.5279 30.8735 14.5279 30.4193V26.9686C14.5279 26.6962 14.4374 26.4239 14.165 26.2421C13.9838 26.0609 13.7115 26.0609 13.4391 26.0609L13.4391 26.0608ZM12.7126 29.6933C11.169 30.0562 9.62538 30.5104 8.17235 30.9645V29.6933C9.26181 29.1486 10.8053 28.5126 12.7126 28.0591V29.6933Z" fill="#276EF1"/>
<path d="M33.1438 35.4136C31.782 34.6871 29.6024 33.6882 26.5152 33.0529C26.2429 32.9623 25.9705 33.0529 25.7887 33.2346C25.6069 33.4164 25.4258 33.6888 25.4258 33.9612V37.5025C25.4258 37.9567 25.6981 38.3196 26.1523 38.4108C28.3318 38.7738 30.4201 39.4097 32.3267 40.2267C32.4172 40.2267 32.5084 40.3173 32.6896 40.3173C32.8714 40.3173 33.0525 40.2267 33.2343 40.1355C33.5067 39.9537 33.5973 39.6814 33.5973 39.409V36.4125C33.5979 35.8677 33.4161 35.5954 33.1438 35.4136H33.1438ZM31.7813 37.9561C30.3283 37.4114 28.7848 37.0478 27.2411 36.6849V35.0507C29.1483 35.5955 30.6919 36.2314 31.7813 36.7762V37.9561Z" fill="#276EF1"/>
<path d="M22.7915 32.5078C20.8843 32.326 19.1597 32.326 17.1618 32.5984C16.7077 32.689 16.3447 33.0526 16.3447 33.5067V37.1385C16.3447 37.4109 16.4353 37.5927 16.6171 37.7745C16.7989 37.9563 16.98 38.0468 17.253 38.0468H17.3436C19.3413 37.8651 20.7943 37.8651 22.6103 37.9563C22.8826 37.9563 23.155 37.8657 23.3368 37.6839C23.5186 37.5021 23.6091 37.2298 23.6091 37.048V33.4161C23.6085 32.8708 23.2456 32.5078 22.7914 32.5078H22.7915ZM21.7926 36.0492C20.5214 35.9586 19.4319 35.9586 18.1608 36.0492V34.2333C19.432 34.1427 20.6127 34.1427 21.7926 34.1427V36.0492Z" fill="#276EF1"/>
<path d="M13.4391 33.2344C10.533 33.8704 8.26291 34.8686 6.90117 35.5952C6.5376 35.6858 6.35645 35.9588 6.35645 36.3217V39.4089C6.35645 39.6813 6.53823 39.9536 6.71939 40.1354C6.90117 40.226 7.08233 40.3172 7.26411 40.3172C7.35469 40.3172 7.53648 40.3172 7.62706 40.2266C9.62475 39.4095 11.7131 38.7736 13.8014 38.4107C14.2556 38.3201 14.5279 37.9565 14.5279 37.5024V34.0517C14.5279 33.7793 14.4374 33.5069 14.165 33.3252C13.9838 33.2346 13.7115 33.1434 13.4391 33.2346L13.4391 33.2344ZM12.7126 36.8663C11.169 37.2292 9.62538 37.6834 8.17235 38.1375V36.8663C9.26181 36.3216 10.8053 35.6856 12.7126 35.2321V36.8663Z" fill="#276EF1"/>
<path d="M33.1434 42.4964C31.7816 41.7699 29.6021 40.7709 26.5149 40.1356C26.2425 40.045 25.9702 40.1356 25.7884 40.3174C25.6066 40.4992 25.4254 40.7716 25.4254 41.0439L25.4248 44.494C25.4248 44.9481 25.6972 45.3111 26.1513 45.4023C28.3308 45.7652 30.4191 46.4012 32.3257 47.2182C32.4163 47.2182 32.5075 47.3088 32.6886 47.3088C32.8704 47.3088 33.0516 47.2182 33.2333 47.127C33.5057 46.9452 33.5963 46.6729 33.5963 46.4005V43.404C33.5976 42.9504 33.4158 42.6781 33.1434 42.4963L33.1434 42.4964ZM31.781 45.0395C30.328 44.4948 28.7845 44.1312 27.2408 43.7683V42.1342C29.148 42.6789 30.6915 43.3148 31.781 43.8596V45.0395Z" fill="#276EF1"/>
<path d="M22.7915 39.5903C20.8843 39.4086 19.1597 39.4086 17.1618 39.6809C16.7077 39.7715 16.3447 40.1351 16.3447 40.5892V44.2211C16.3447 44.4934 16.4353 44.6752 16.6171 44.857C16.7989 45.0388 16.98 45.1294 17.253 45.1294H17.3436C19.3413 44.9476 20.7943 44.9476 22.6103 45.0388C22.8826 45.0388 23.155 44.9482 23.3368 44.7664C23.5186 44.5846 23.6091 44.3123 23.6091 44.1305V40.4986C23.6085 40.0445 23.2456 39.5903 22.7914 39.5903H22.7915ZM21.7926 43.1317C20.5214 43.0411 19.4319 43.0411 18.1608 43.1317V41.3158C19.432 41.2252 20.6127 41.2252 21.7926 41.2252V43.1317Z" fill="#276EF1"/>
<path d="M13.4391 40.3169C10.533 40.9529 8.26291 41.9511 6.90117 42.6777C6.62881 42.8595 6.35645 43.1318 6.35645 43.4948V46.5819C6.35645 46.8543 6.53823 47.1267 6.71939 47.3085C6.90117 47.399 7.08233 47.4902 7.26411 47.4902C7.35469 47.4902 7.53648 47.4902 7.62706 47.3997C9.62475 46.5826 11.7131 45.9467 13.8014 45.5838C14.2556 45.4932 14.5279 45.1296 14.5279 44.6754V41.2247C14.5279 40.9524 14.4374 40.68 14.165 40.4982C13.9838 40.3171 13.7115 40.2258 13.4391 40.3171L13.4391 40.3169ZM12.7126 43.9488C11.169 44.3117 9.62538 44.7659 8.17235 45.22V43.9488C9.26181 43.404 10.8053 42.7681 12.7126 42.3146V43.9488Z" fill="#276EF1"/>
<path d="M33.1434 49.6697C31.7816 48.9432 29.6021 47.9443 26.5149 47.309C26.2425 47.2184 25.9702 47.309 25.7884 47.4907C25.6066 47.6719 25.4248 47.8537 25.4248 48.1261V51.6674C25.4248 52.1216 25.6972 52.4845 26.1513 52.5757C28.3308 52.9387 30.4191 53.5746 32.3257 54.3916C32.4163 54.3916 32.5075 54.4822 32.6886 54.4822C32.8704 54.4822 33.0516 54.3916 33.2333 54.3004C33.5057 54.1186 33.5963 53.8463 33.5963 53.5739V50.5774C33.5976 50.1239 33.4158 49.7603 33.1434 49.6697L33.1434 49.6697ZM31.781 52.1216C30.328 51.5769 28.7845 51.2133 27.2408 50.8504V49.2162C29.148 49.7609 30.6915 50.3969 31.781 50.9416V52.1216Z" fill="#276EF1"/>
<path d="M22.7915 46.6731C20.8843 46.4913 19.1597 46.4913 17.1618 46.7637C16.7077 46.8543 16.3447 47.2178 16.3447 47.672V51.3038C16.3447 51.5762 16.4353 51.758 16.6171 51.9398C16.7989 52.1216 16.98 52.2121 17.253 52.2121H17.3436C19.3413 52.0303 20.7943 52.0303 22.6103 52.1216C22.8826 52.1216 23.155 52.031 23.3368 51.8492C23.5186 51.6674 23.6091 51.395 23.6091 51.2133V47.5814C23.6085 47.1273 23.2456 46.7637 22.7914 46.6731H22.7915ZM21.7926 50.2145C20.5214 50.1239 19.4319 50.1239 18.1608 50.2145V48.3986C19.432 48.308 20.6127 48.308 21.7926 48.308V50.2145Z" fill="#276EF1"/>
<path d="M13.4391 47.3997C10.533 48.0356 8.26291 49.0338 6.90117 49.7604C6.62881 49.9422 6.35645 50.2146 6.35645 50.5775V53.6647C6.35645 53.937 6.53823 54.2094 6.71939 54.3912C6.90117 54.4818 7.08233 54.573 7.26411 54.573C7.35469 54.573 7.53648 54.573 7.62706 54.4824C9.62475 53.6653 11.7131 53.0294 13.8014 52.6665C14.2556 52.5759 14.5279 52.2123 14.5279 51.7582V48.3075C14.5279 48.0351 14.4374 47.7627 14.165 47.5809C13.9838 47.3998 13.7115 47.3998 13.4391 47.3998L13.4391 47.3997ZM12.7126 51.0315C11.169 51.3944 9.62538 51.8486 8.17235 52.3027V51.0315C9.26181 50.4868 10.8053 49.8509 12.7126 49.3974V51.0315Z" fill="#276EF1"/>
<path d="M33.1434 56.7525C31.7816 56.026 29.6021 55.027 26.5149 54.3917C26.2425 54.3011 25.9702 54.3917 25.7884 54.5735C25.6066 54.7547 25.4248 54.9364 25.4248 55.2088V58.7502C25.4248 59.2043 25.6972 59.5673 26.1513 59.6585C28.3308 60.0214 30.4191 60.6574 32.3257 61.4744C32.4163 61.4744 32.5075 61.565 32.6886 61.565C32.8704 61.565 33.0516 61.4744 33.2333 61.3832C33.5057 61.2014 33.5963 60.929 33.5963 60.6567V57.6601C33.5976 57.2066 33.4158 56.9343 33.1434 56.7525H33.1434ZM31.781 59.295C30.328 58.7503 28.7845 58.3867 27.2408 58.0238V56.3896C29.148 56.9343 30.6915 57.5703 31.781 58.115V59.295Z" fill="#276EF1"/>
<path d="M22.7915 53.8467C20.8843 53.6649 19.1597 53.6649 17.1618 53.9373C16.7077 54.0278 16.3447 54.3914 16.3447 54.8456V58.4774C16.3447 58.7498 16.4353 58.9316 16.6171 59.1134C16.7989 59.2951 16.98 59.3857 17.253 59.3857H17.3436C19.3413 59.2039 20.7032 59.2039 22.6103 59.2951C22.8826 59.2951 23.0644 59.2046 23.3368 59.0228C23.5186 58.841 23.6091 58.5686 23.6091 58.3868V54.755C23.6085 54.2103 23.2456 53.8467 22.7914 53.8467H22.7915ZM21.7926 57.3887C20.5214 57.2981 19.4319 57.2981 18.1608 57.3887V55.5728C19.432 55.4822 20.6127 55.4822 21.7926 55.4822V57.3887Z" fill="#276EF1"/>
<path d="M13.4391 54.4824C10.533 55.1184 8.26291 56.1166 6.90117 56.8432C6.62881 57.025 6.35645 57.2973 6.35645 57.6603V60.7474C6.35645 61.0198 6.53823 61.2922 6.71939 61.474C6.90117 61.5645 7.08233 61.6557 7.26411 61.6557C7.35469 61.6557 7.53648 61.6557 7.62706 61.5652C9.62475 60.7481 11.7131 60.1122 13.8014 59.7492C14.2556 59.6587 14.5279 59.2951 14.5279 58.8409L14.5286 55.3909C14.5286 55.1185 14.438 54.8461 14.1656 54.6644C13.9838 54.4826 13.7115 54.4826 13.4391 54.4826L13.4391 54.4824ZM12.7126 58.2056C11.169 58.5685 9.62538 59.0227 8.17235 59.4768V58.2056C9.26181 57.6608 10.8053 57.0249 12.7126 56.5714V58.2056Z" fill="#276EF1"/>
<path d="M33.1434 63.8352C31.7816 63.1087 29.6021 62.1098 26.5149 61.4745C26.2425 61.3839 25.9702 61.4745 25.7884 61.6563C25.6066 61.8374 25.4248 62.1098 25.4248 62.3822V65.9235C25.4248 66.3777 25.6972 66.7406 26.1513 66.8318C28.3308 67.1948 30.4191 67.8307 32.3257 68.6477C32.4163 68.6477 32.5075 68.7383 32.6886 68.7383C32.8704 68.7383 33.0516 68.6477 33.2333 68.5565C33.5057 68.3747 33.5963 68.1024 33.5963 67.83V64.7428C33.5976 64.2893 33.4158 64.017 33.1434 63.8352L33.1434 63.8352ZM31.781 66.3777C30.328 65.833 28.7845 65.4694 27.2408 65.1065V63.4724C29.148 64.0171 30.6915 64.653 31.781 65.1978V66.3777Z" fill="#276EF1"/>
<path d="M22.7915 60.9295C20.9756 60.7477 19.1597 60.7477 17.1618 61.02C16.7077 61.1106 16.3447 61.4742 16.3447 61.9283V65.5602C16.3447 65.8325 16.4353 66.0143 16.6171 66.1961C16.7989 66.3779 16.98 66.4685 17.253 66.4685H17.3436C19.3413 66.2867 20.7032 66.2867 22.6103 66.3779C22.8826 66.3779 23.0644 66.2873 23.3368 66.1055C23.5186 65.9238 23.6091 65.6514 23.6091 65.4696V61.8378C23.6085 61.383 23.2456 60.9295 22.7914 60.9295H22.7915ZM21.7926 64.4708C20.5214 64.3802 19.4319 64.3802 18.1608 64.4708V62.6549C19.432 62.5643 20.6127 62.5643 21.7926 62.5643V64.4708Z" fill="#276EF1"/>
<path d="M13.4391 61.656C10.533 62.2919 8.26291 63.2902 6.90117 64.0168C6.62881 64.1985 6.35645 64.4709 6.35645 64.8338V67.921C6.35645 68.1934 6.53823 68.4658 6.71939 68.6475C6.90117 68.7381 7.08233 68.8293 7.26411 68.8293C7.35469 68.8293 7.53648 68.8293 7.62706 68.7388C9.62475 67.9217 11.7131 67.2857 13.8014 66.9228C14.2556 66.8323 14.5279 66.4687 14.5279 66.0145V62.5638C14.5279 62.2914 14.4374 62.0191 14.165 61.8373C13.9838 61.6561 13.7115 61.5656 13.4391 61.6561L13.4391 61.656ZM12.7126 65.2885C11.169 65.6514 9.62538 66.1056 8.17235 66.5597V65.3791C9.26181 64.8343 10.8053 64.1984 12.7126 63.7449V65.2885Z" fill="#276EF1"/>
<path d="M33.1434 71.0996C31.7816 70.3731 29.6021 69.3742 26.5149 68.7389C26.2425 68.6483 25.9702 68.7389 25.7884 68.9207C25.6066 69.1018 25.4248 69.2836 25.4248 69.556V73.0973C25.4248 73.5515 25.6972 73.9144 26.1513 74.0056C28.3308 74.3686 30.4191 75.0045 32.3257 75.8216C32.4163 75.8216 32.5075 75.9121 32.6886 75.9121C32.8704 75.9121 33.0516 75.8216 33.2333 75.7304C33.5057 75.5486 33.5963 75.2762 33.5963 75.0038V72.0073C33.5976 71.5538 33.4158 71.2814 33.1434 71.0996L33.1434 71.0996ZM31.781 73.6422C30.328 73.0974 28.7845 72.7339 27.2408 72.3709V70.7368C29.148 71.2815 30.6915 71.9174 31.781 72.4622V73.6422Z" fill="#276EF1"/>
<path d="M22.7915 68.1939C20.8843 68.0121 19.1597 68.0121 17.1618 68.2844C16.7077 68.375 16.3447 68.7386 16.3447 69.1927V72.8246C16.3447 73.0969 16.4353 73.2787 16.6171 73.4605C16.7989 73.6423 16.98 73.7329 17.253 73.7329H17.3436C19.3413 73.5511 20.7943 73.5511 22.6103 73.6423C22.8826 73.6423 23.155 73.5517 23.3368 73.3699C23.5179 73.1882 23.6085 72.9158 23.6085 72.6434V69.0116C23.6085 68.5574 23.2456 68.1939 22.7914 68.1939H22.7915ZM21.7926 71.7352C20.5214 71.6447 19.4319 71.6447 18.1608 71.7352V69.9193C19.432 69.8287 20.6127 69.8287 21.7926 69.8287V71.7352Z" fill="#276EF1"/>
<path d="M13.4391 68.8296C10.533 69.4655 8.26291 70.4637 6.90117 71.1903C6.62881 71.3721 6.35645 71.6445 6.35645 72.0074V75.0946C6.35645 75.367 6.53823 75.6393 6.71939 75.8211C6.90117 75.9117 7.08233 76.0029 7.26411 76.0029C7.35469 76.0029 7.53648 76.0029 7.62706 75.9123C9.62475 75.0952 11.7131 74.4593 13.8014 74.0964C14.2556 74.0058 14.5279 73.6423 14.5279 73.1881V69.7374C14.5279 69.465 14.4374 69.1927 14.165 69.0109C13.9838 68.8297 13.7115 68.8297 13.4391 68.8297L13.4391 68.8296ZM12.7126 72.5527C11.169 72.9157 9.62538 73.3698 8.17235 73.8239V72.5527C9.26181 72.008 10.8053 71.3721 12.7126 70.9186V72.5527Z" fill="#276EF1"/>
<path d="M39.9546 17.2526H59.9315V41.7698C59.9315 42.3145 60.2944 42.6781 60.8398 42.6781C61.3845 42.6781 61.7481 42.3151 61.7481 41.7698L61.7475 16.3446C61.7475 15.7999 61.3845 15.4363 60.8392 15.4363H39.9542C39.4095 15.4363 39.0459 15.7992 39.0459 16.3446C39.0459 16.8893 39.4095 17.2523 39.9542 17.2523L39.9546 17.2526Z" fill="#276EF1"/>
<path d="M55.3914 21.793H40.8624C40.3177 21.793 39.9541 22.1559 39.9541 22.7013C39.9541 23.246 40.317 23.6096 40.8624 23.6096H55.3914C55.9361 23.6096 56.2997 23.2466 56.2997 22.7013C56.2997 22.1565 55.9361 21.793 55.3914 21.793Z" fill="#276EF1"/>
<path d="M55.3914 29.9653H40.8624C40.3177 29.9653 39.9541 30.3283 39.9541 30.8736C39.9541 31.4184 40.317 31.7819 40.8624 31.7819H55.3914C55.9361 31.7819 56.2997 31.419 56.2997 30.8736C56.2997 30.3283 55.9361 29.9653 55.3914 29.9653Z" fill="#276EF1"/>
<path d="M55.3914 38.1375H40.8624C40.3177 38.1375 39.9541 38.5004 39.9541 39.0458C39.9541 39.5905 40.317 39.9541 40.8624 39.9541H55.3914C55.9361 39.9541 56.2997 39.5911 56.2997 39.0458C56.2997 38.501 55.9361 38.1375 55.3914 38.1375Z" fill="#276EF1"/>
<path d="M56.2983 49.0342H50.8497C50.305 49.0342 49.9414 49.3971 49.9414 49.9425V55.3911C49.9414 55.9358 50.3043 56.2994 50.8497 56.2994H56.2983C56.843 56.2994 57.2066 55.9364 57.2066 55.3911V49.9425C57.206 49.3978 56.843 49.0342 56.2983 49.0342ZM55.39 54.4828H51.7581V50.8509H55.39V54.4828Z" fill="#276EF1"/>
<path d="M66.2875 49.0342H60.839C60.2942 49.0342 59.9307 49.3971 59.9307 49.9425V55.3911C59.9307 55.9358 60.2936 56.2994 60.839 56.2994H66.2875C66.8323 56.2994 67.1958 55.9364 67.1958 55.3911V49.9425C67.1958 49.3978 66.8323 49.0342 66.2875 49.0342ZM65.3799 54.4828H61.748V50.8509H65.3799V54.4828Z" fill="#276EF1"/>
<path d="M56.2983 58.1145H50.8497C50.305 58.1145 49.9414 58.4774 49.9414 59.0228V64.4714C49.9414 65.0161 50.3043 65.3797 50.8497 65.3797H56.2983C56.843 65.3797 57.2066 65.0167 57.2066 64.4714V59.0228C57.206 58.4781 56.843 58.1145 56.2983 58.1145ZM55.39 63.5631H51.7581V59.9312H55.39V63.5631Z" fill="#276EF1"/>
<path d="M66.2875 58.1145H60.839C60.2942 58.1145 59.9307 58.4774 59.9307 59.0228V64.4714C59.9307 65.0161 60.2936 65.3797 60.839 65.3797H66.2875C66.8323 65.3797 67.1958 65.0167 67.1958 64.4714V59.0228C67.1958 58.4781 66.8323 58.1145 66.2875 58.1145ZM65.3799 63.5631H61.748V59.9312H65.3799V63.5631Z" fill="#276EF1"/>
<path d="M56.2983 67.1948H50.8497C50.305 67.1948 49.9414 67.5578 49.9414 68.1031V73.5517C49.9414 74.0964 50.3043 74.46 50.8497 74.46H56.2983C56.843 74.46 57.2066 74.0971 57.2066 73.5517V68.1031C57.206 67.5584 56.843 67.1948 56.2983 67.1948ZM55.39 72.6434H51.7581V69.0116H55.39V72.6434Z" fill="#276EF1"/>
<path d="M66.2875 67.1948H60.839C60.2942 67.1948 59.9307 67.5578 59.9307 68.1031V73.5517C59.9307 74.0964 60.2936 74.46 60.839 74.46H66.2875C66.8323 74.46 67.1958 74.0971 67.1958 73.5517V68.1031C67.1958 67.5584 66.8323 67.1948 66.2875 67.1948ZM65.3799 72.6434H61.748V69.0116H65.3799V72.6434Z" fill="#276EF1"/>
<path d="M73.5516 77.1835H71.7357V45.402C71.7357 44.8573 71.3728 44.4937 70.8274 44.4937H46.3102C45.7655 44.4937 45.4019 44.8566 45.4019 45.402V77.1835H37.2299V19.9768C37.2299 19.7044 37.1393 19.4321 36.867 19.2503C36.7764 19.1597 35.5957 18.342 33.598 17.3431V12.8935C33.598 12.5306 33.4162 12.2576 33.1438 12.0764C31.3279 11.0775 27.6953 9.53389 22.7017 9.17035L22.7011 0.908302C22.7011 0.363574 22.3381 0 21.7928 0H19.0685C18.5237 0 18.1602 0.362941 18.1602 0.908302V9.08036V9.17093C13.0753 9.53387 8.9891 11.1686 6.80964 12.2581C6.5379 12.3493 6.35675 12.7123 6.35675 13.0758V17.5254C4.35906 18.4337 3.26957 19.1596 3.0878 19.2509C2.90601 19.432 2.72422 19.7044 2.72422 19.9767V77.1834H0.908302C0.363574 77.1834 0 77.5463 0 78.0917C0 78.6364 0.362941 79 0.908302 79H73.5533C74.098 79 74.4616 78.6371 74.4616 78.0917C74.4603 77.5463 74.0968 77.1834 73.552 77.1834L73.5516 77.1835ZM19.9771 9.08029V1.81579H20.8854V9.08029H20.3407H19.9771ZM8.17241 13.6205C10.5332 12.531 14.9827 10.8962 20.34 10.8962C25.6973 10.8962 29.6929 12.4398 31.7812 13.4387V16.5259C28.9664 15.4365 25.1526 14.4376 20.34 14.4376C15.4369 14.4376 11.169 15.527 8.17241 16.7077V13.6205ZM4.53992 20.5215C5.08465 20.2491 6.08351 19.7044 7.44598 19.0684C7.53655 19.0684 7.62777 18.9779 7.71834 18.9779C10.6244 17.7972 14.9828 16.4354 20.3401 16.4354C25.6068 16.4354 29.693 17.7066 32.3266 18.8872H32.4172C33.9608 19.5232 34.9597 20.1585 35.5044 20.5214V77.1832H4.54013L4.53992 20.5215ZM60.8385 77.1833H47.2179V46.3099H69.919V77.1833H60.8385Z" fill="#276EF1"/>
</svg>
