<svg width="61" height="64" viewBox="0 0 61 64" fill="none" xmlns="http://www.w3.org/2000/svg">
<path fill-rule="evenodd" clip-rule="evenodd" d="M60.5719 63.6007H0V60.5723H60.5719V63.6007Z" fill="#276EF1"/>
<path fill-rule="evenodd" clip-rule="evenodd" d="M6.05859 21.1995C6.05859 20.3634 6.737 19.6855 7.57309 19.6855H53.0027C53.8387 19.6855 54.5172 20.3634 54.5172 21.1995V62.0861C54.5172 62.9227 53.8387 63.6006 53.0027 63.6006H7.57309C6.737 63.6006 6.05859 62.9227 6.05859 62.0861V21.1995ZM9.08758 22.714V60.5724H51.4876V22.714H9.08758Z" fill="#276EF1"/>
<path fill-rule="evenodd" clip-rule="evenodd" d="M1.71234 12.8834C1.98106 12.4088 2.48453 12.1152 3.03005 12.1152H57.5456C58.0911 12.1152 58.5946 12.4088 58.8633 12.8834C59.132 13.3585 59.1244 13.941 58.844 14.409L54.301 21.9805C54.0272 22.4368 53.5344 22.7157 53.0025 22.7157H7.57295C7.04108 22.7157 6.54826 22.4368 6.27445 21.9805L1.73149 14.409C1.45059 13.941 1.44349 13.3585 1.71222 12.8834H1.71234ZM5.70469 15.1442L8.43046 19.6872H52.1454L54.8712 15.1442H5.70469Z" fill="#276EF1"/>
<path fill-rule="evenodd" clip-rule="evenodd" d="M22.7164 3.02847V5.59705C22.7164 6.43365 22.038 7.11155 21.2019 7.11155H12.116C11.2799 7.11155 10.6015 6.43365 10.6015 5.59705V3.02847H4.54461V12.1144H56.0306V3.02847H49.9737V5.59705C49.9737 6.43365 49.2953 7.11155 48.4592 7.11155H39.3733C38.5372 7.11155 37.8588 6.43365 37.8588 5.59705V3.02847H22.7164ZM21.2019 0H39.3738C39.7754 0 40.1607 0.159717 40.4446 0.443652C40.7286 0.727587 40.8883 1.11292 40.8883 1.51449V4.08308H46.9452V1.51449C46.9452 0.6779 47.6236 0 48.4597 0H57.5456C58.3817 0 59.0601 0.6779 59.0601 1.51449V13.6289C59.0601 14.4655 58.3817 15.1434 57.5456 15.1434H3.03012C2.19403 15.1434 1.51562 14.4655 1.51562 13.6289V1.51449C1.51562 0.6779 2.19403 0 3.03012 0H12.116C12.9521 0 13.6305 0.6779 13.6305 1.51449V4.08308H19.6875V1.51449C19.6875 0.6779 20.3659 0 21.2019 0Z" fill="#276EF1"/>
<path fill-rule="evenodd" clip-rule="evenodd" d="M22.7148 36.3429C22.7148 32.1614 26.1048 28.7715 30.2863 28.7715C34.4677 28.7715 37.8577 32.1614 37.8577 36.3429V62.0859C37.8577 62.9225 37.1798 63.6004 36.3437 63.6004H24.2288C23.3927 63.6004 22.7148 62.9225 22.7148 62.0859V36.3429ZM30.2863 31.7999C27.7775 31.7999 25.7433 33.8342 25.7433 36.3429V60.5724H34.8292V36.3429C34.8292 33.8342 32.795 31.7999 30.2863 31.7999Z" fill="#276EF1"/>
<path fill-rule="evenodd" clip-rule="evenodd" d="M53.0008 54.5148H36.3438V51.4863H53.0008V54.5148Z" fill="#276EF1"/>
<path fill-rule="evenodd" clip-rule="evenodd" d="M53.0008 36.3449H36.3438V33.3164H53.0008V36.3449Z" fill="#276EF1"/>
<path fill-rule="evenodd" clip-rule="evenodd" d="M22.717 54.5148H6.05859V51.4863H22.717V54.5148Z" fill="#276EF1"/>
<path fill-rule="evenodd" clip-rule="evenodd" d="M24.2304 36.3449H6.05859V33.3164H24.2304V36.3449Z" fill="#276EF1"/>
<path fill-rule="evenodd" clip-rule="evenodd" d="M46.9425 43.916V53.0019H43.9141V43.916H46.9425Z" fill="#276EF1"/>
<path fill-rule="evenodd" clip-rule="evenodd" d="M16.6574 43.916V53.0019H13.6289V43.916H16.6574Z" fill="#276EF1"/>
</svg>
