<svg width="74" height="69" viewBox="0 0 74 69" fill="none" xmlns="http://www.w3.org/2000/svg">
<rect opacity="0.12" x="0.753906" y="18.5446" width="46.3995" height="49.5249" rx="4" fill="#276EF1"/>
<path d="M17.152 13.5918C17.8033 13.5918 18.3313 13.0638 18.3313 12.4125V7.69519C18.3313 7.04392 17.8033 6.51587 17.152 6.51587C16.5007 6.51587 15.9727 7.04392 15.9727 7.69519V12.4125C15.9727 13.0638 16.5007 13.5918 17.152 13.5918Z" fill="#276EF1"/>
<path d="M24.2279 13.5918C24.8792 13.5918 25.4072 13.0638 25.4072 12.4125V7.69519C25.4072 7.04392 24.8792 6.51587 24.2279 6.51587C23.5766 6.51587 23.0486 7.04392 23.0486 7.69519V12.4125C23.0486 13.0638 23.5766 13.5918 24.2279 13.5918Z" fill="#276EF1"/>
<path d="M31.3038 13.5918C31.9551 13.5918 32.4832 13.0638 32.4832 12.4125V7.69519C32.4832 7.04392 31.9551 6.51587 31.3038 6.51587C30.6526 6.51587 30.1245 7.04392 30.1245 7.69519V12.4125C30.1245 13.0638 30.6526 13.5918 31.3038 13.5918Z" fill="#276EF1"/>
<path d="M17.152 24.2057C17.8033 24.2057 18.3313 23.6777 18.3313 23.0264V18.3091C18.3313 17.6578 17.8033 17.1298 17.152 17.1298C16.5007 17.1298 15.9727 17.6578 15.9727 18.3091V23.0264C15.9727 23.6777 16.5007 24.2057 17.152 24.2057Z" fill="#276EF1"/>
<path d="M24.2279 24.2057C24.8792 24.2057 25.4072 23.6777 25.4072 23.0264V18.3091C25.4072 17.6578 24.8792 17.1298 24.2279 17.1298C23.5766 17.1298 23.0486 17.6578 23.0486 18.3091V23.0264C23.0486 23.6777 23.5766 24.2057 24.2279 24.2057Z" fill="#276EF1"/>
<path d="M31.3038 24.2057C31.9551 24.2057 32.4832 23.6777 32.4832 23.0264V18.3091C32.4832 17.6578 31.9551 17.1298 31.3038 17.1298C30.6526 17.1298 30.1245 17.6578 30.1245 18.3091V23.0264C30.1245 23.6777 30.6526 24.2057 31.3038 24.2057Z" fill="#276EF1"/>
<path d="M50.173 28.3334C49.5217 28.3334 48.9937 28.8614 48.9937 29.5127V34.23C48.9937 34.8813 49.5217 35.4093 50.173 35.4093C50.8243 35.4093 51.3523 34.8813 51.3523 34.23V29.5127C51.3523 28.8614 50.8243 28.3334 50.173 28.3334Z" fill="#276EF1"/>
<path d="M56.0697 28.3334C55.4184 28.3334 54.8904 28.8614 54.8904 29.5127V34.23C54.8904 34.8813 55.4184 35.4093 56.0697 35.4093C56.721 35.4093 57.249 34.8813 57.249 34.23V29.5127C57.249 28.8614 56.721 28.3334 56.0697 28.3334Z" fill="#276EF1"/>
<path d="M50.173 38.9473C49.5217 38.9473 48.9937 39.4753 48.9937 40.1266V44.8439C48.9937 45.4952 49.5217 46.0232 50.173 46.0232C50.8243 46.0232 51.3523 45.4952 51.3523 44.8439V40.1266C51.3523 39.4753 50.8243 38.9473 50.173 38.9473Z" fill="#276EF1"/>
<path d="M56.0697 38.9473C55.4184 38.9473 54.8904 39.4753 54.8904 40.1266V44.8439C54.8904 45.4952 55.4184 46.0232 56.0697 46.0232C56.721 46.0232 57.249 45.4952 57.249 44.8439V40.1266C57.249 39.4753 56.721 38.9473 56.0697 38.9473Z" fill="#276EF1"/>
<path d="M50.173 49.5613C49.5217 49.5613 48.9937 50.0893 48.9937 50.7406V55.4579C48.9937 56.1092 49.5217 56.6372 50.173 56.6372C50.8243 56.6372 51.3523 56.1092 51.3523 55.4579V50.7406C51.3523 50.0893 50.8243 49.5613 50.173 49.5613Z" fill="#276EF1"/>
<path d="M56.0697 49.5613C55.4184 49.5613 54.8904 50.0893 54.8904 50.7406V55.4579C54.8904 56.1092 55.4184 56.6372 56.0697 56.6372C56.721 56.6372 57.249 56.1092 57.249 55.4579V50.7406C57.249 50.0893 56.721 49.5613 56.0697 49.5613Z" fill="#276EF1"/>
<path d="M72.5802 61.3545H70.2215V54.0554C72.2771 53.2876 73.7595 50.556 73.7595 47.2026C73.7595 43.235 71.6876 40.1266 69.0422 40.1266C66.3968 40.1266 64.3249 43.235 64.3249 47.2026C64.3249 50.556 65.8074 53.2876 67.8629 54.0554V61.3545H61.9663V17.7194C61.9663 17.0681 61.4382 16.5401 60.7869 16.5401H37.2004V1.20887C37.2004 0.557589 36.6724 0.029541 36.0211 0.029541H12.4346C11.7833 0.029541 11.2553 0.557589 11.2553 1.20887V24.908C6.6088 25.7099 3 31.1651 3 37.768C3 44.3708 6.6088 49.826 11.2553 50.628V61.3545H4.17933C3.52805 61.3545 3 61.8825 3 62.5338C3 63.1851 3.52805 63.7131 4.17933 63.7131H12.4346H13.6139H36.0211H45.4557H58.4283H60.7869H72.5802C73.2315 63.7131 73.7595 63.1851 73.7595 62.5338C73.7595 61.8825 73.2315 61.3545 72.5802 61.3545ZM66.6836 47.2026C66.6836 44.5024 67.9285 42.4853 69.0422 42.4853C70.1559 42.4853 71.4009 44.5024 71.4009 47.2026C71.4009 48.938 70.8848 50.3824 70.2215 51.1993V50.7405C70.2215 50.0893 69.6935 49.5612 69.0422 49.5612C68.3909 49.5612 67.8629 50.0893 67.8629 50.7405V51.1993C67.1997 50.3824 66.6836 48.938 66.6836 47.2026ZM34.8418 53.0992H13.6139V50.628C15.2081 50.3529 16.6767 49.53 17.9223 48.2993C18.0507 48.3473 18.1862 48.3819 18.3312 48.3819H34.8418V53.0992ZM34.8418 2.38819V17.7194V29.5127V46.0232H19.7066C21.0567 43.7787 21.8692 40.9015 21.8692 37.768C21.8692 31.1651 18.2604 25.7099 13.6139 24.908V2.38819H34.8418ZM5.35865 37.768C5.35865 31.9157 8.53269 27.154 12.4346 27.154C16.3365 27.154 19.5106 31.9157 19.5106 37.768C19.5106 43.0164 16.9551 47.3759 13.6139 48.2221V42.4853C13.6139 41.834 13.0859 41.3059 12.4346 41.3059C11.7833 41.3059 11.2553 41.834 11.2553 42.4853V48.2221C7.9141 47.3759 5.35865 43.0164 5.35865 37.768ZM13.6139 55.4578H34.8418V61.3545H13.6139V55.4578ZM37.2004 61.3545V30.692H44.2764V61.3545H37.2004ZM58.4283 61.3545H46.635V29.5127C46.635 28.8614 46.107 28.3334 45.4557 28.3334H37.2004V18.8988H59.6076V61.3545H58.4283Z" fill="#276EF1"/>
</svg>
