<svg width="36" height="76" viewBox="0 0 36 76" fill="none" xmlns="http://www.w3.org/2000/svg">
<path fill-rule="evenodd" clip-rule="evenodd" d="M3.7404 0.176528C2.46782 0.643355 1.72635 1.76507 1.73129 3.21589L1.73458 4.15204H1.22391C0.507396 4.15204 0.273998 4.27173 0.0796835 4.73925C-0.0633443 5.0832 -0.0285133 5.50426 0.30499 7.45755C0.674147 9.6204 0.725708 9.79182 1.10652 10.1258C1.48226 10.4552 1.51353 10.5541 1.51353 11.4131C1.51353 11.9396 1.60582 12.5674 1.72622 12.8592C1.98046 13.4758 2.6439 14.1992 3.14923 14.4108C3.48808 14.5529 3.62219 14.9159 4.98404 19.3783C5.79216 22.0261 6.45258 24.2428 6.45176 24.3041C6.45093 24.3655 6.07999 24.8508 5.62746 25.3825C5.12008 25.9787 4.80468 26.4759 4.80468 26.6795C4.80468 26.8611 5.39379 29.1705 6.11387 31.8116L7.42306 36.6135L7.12589 37.0354C6.77333 37.5362 6.44915 38.5589 6.45299 39.1583C6.4545 39.3941 6.63812 40.1103 6.86109 40.7498C7.08407 41.3893 7.2404 41.9553 7.20858 42.0073C7.17677 42.0594 7.08201 43.414 6.99809 45.0174C6.70326 50.6502 7.27797 58.4557 8.56125 66.2499L9.00089 68.9197H5.96672C2.9726 68.9197 2.92872 68.9238 2.63444 69.2406C2.2384 69.6671 2.2469 70.312 2.65364 70.6985L2.97109 71H18.1558H33.3404L33.677 70.6595C34.106 70.2257 34.106 69.694 33.677 69.2601L33.3404 68.9197H29.0389H24.7375L24.9904 67.4981C25.342 65.5226 26.1213 59.9871 26.4109 57.4085C26.5438 56.2262 26.7196 55.1923 26.8019 55.1109C26.884 55.0294 27.5684 54.725 28.3227 54.4345C29.0769 54.1438 29.8356 53.8172 30.0087 53.7084C30.6281 53.3193 30.6124 53.0914 29.6995 49.2274L28.8373 45.5782L32.3313 40.8561C34.253 38.2589 35.8701 36.0116 35.9248 35.8621C36.1723 35.1852 35.9621 34.9617 32.8931 32.6379C29.7381 30.2491 29.4162 30.0879 28.836 30.6069C28.6866 30.7403 28.0208 31.5984 27.3563 32.5137L26.148 34.1777L25.7659 32.5498C25.3435 30.7502 24.9084 29.7057 24.1783 28.7384C23.706 28.1126 23.6998 28.0882 23.9246 27.7397C24.5217 26.8142 24.6201 26.4279 24.6201 25.0114C24.6201 23.612 24.6197 23.6101 23.9443 22.2376C23.1722 20.6679 23.1273 20.172 23.6354 18.8205L23.9345 18.0249L25.3462 18.023C26.6611 18.021 26.7813 17.9975 27.0947 17.6804C27.5237 17.2466 27.5237 16.7149 27.0947 16.2811C26.7831 15.9658 26.6584 15.9406 25.4115 15.9406H24.0649L23.7125 15.1431L23.3602 14.3457L24.6415 13.0129C25.3944 12.2297 25.9229 11.5654 25.9229 11.402C25.9229 10.8886 25.4038 10.393 24.866 10.393C24.4371 10.393 24.2249 10.5428 23.1275 11.6197L21.8775 12.8466L21.1266 12.4588C20.7135 12.2456 20.1428 12.0314 19.8581 11.9827L19.3406 11.8942V10.2421C19.3406 8.77495 19.3099 8.55901 19.0663 8.3127C18.6892 7.93131 17.9263 7.94462 17.5632 8.33891C17.3149 8.60852 17.2836 8.82377 17.2836 10.265V11.8877L16.7712 11.9849C16.4893 12.0384 15.9104 12.257 15.4847 12.4706L14.7109 12.8589L13.4974 11.626C12.417 10.5281 12.2298 10.393 11.7882 10.393C11.1828 10.393 10.7928 10.7776 10.7928 11.3745C10.7928 11.7208 11.0173 12.0289 12.0304 13.0717L13.268 14.3457L12.9137 15.1431L12.5593 15.9406L11.3904 15.9382L10.2214 15.9357L9.21152 13.135C8.5666 11.3465 8.25791 10.3152 8.35733 10.2818C8.66711 10.1774 8.88858 9.45189 9.26528 7.3079C9.6897 4.89153 9.65651 4.56547 8.95495 4.26063C8.74637 4.17007 8.55357 4.08089 8.52655 4.06259C8.4994 4.04428 8.60691 3.84512 8.76543 3.62017C9.26116 2.91605 9.87825 1.46703 9.87839 1.007C9.87853 0.695918 9.77212 0.481644 9.51719 0.278881C9.18067 0.0110729 8.98594 -0.0079275 6.67172 0.0019194C5.12968 0.00843777 4.01795 0.074731 3.7404 0.176528ZM7.03388 2.49665C6.88756 2.73048 6.53911 3.19856 6.25936 3.53682C5.7539 4.14843 5.74581 4.15204 4.86213 4.15204C3.86697 4.15204 3.78675 4.07604 3.78401 3.13171C3.7814 2.25034 4.13164 2.07171 5.86182 2.07171H7.29991L7.03388 2.49665ZM7.2729 6.75245C7.21338 7.03857 7.12452 7.50664 7.07557 7.79262L6.98629 8.3127H4.74763H2.50882L2.41489 7.58459C2.36319 7.18405 2.28695 6.71598 2.24526 6.54442L2.16943 6.23237H4.77519H7.38096L7.2729 6.75245ZM6.36454 11.3292C6.55694 11.8441 7.39385 14.1307 8.22445 16.4105L9.73454 20.5557L8.94947 21.4995C8.51764 22.0186 8.12723 22.4 8.0817 22.347C8.03617 22.2942 7.373 20.1914 6.60795 17.6742C5.71043 14.7208 5.13187 13.0338 4.97664 12.9181C4.84431 12.8194 4.58184 12.7018 4.39328 12.6567C3.73423 12.4992 3.57049 12.2239 3.57049 11.273V10.393H4.79274H6.01486L6.36454 11.3292ZM19.5838 14.0719C21.0705 14.5183 22.1671 15.8377 22.041 17.0275C21.9492 17.891 21.8169 17.9613 21.0372 17.5612C20.4157 17.2423 20.1812 17.0348 19.0874 15.8366C18.5222 15.2172 18.0576 15.2345 17.5044 15.8954C16.7435 16.8043 16.2837 17.2046 15.5951 17.5576C14.7629 17.984 14.6069 17.8731 14.6163 16.8616C14.6356 14.7795 17.1808 13.3502 19.5838 14.0719ZM12.9989 18.8238C13.1683 19.2655 13.3072 19.8427 13.3078 20.1067C13.3106 21.5682 14.2954 24.1676 15.2855 25.3273C15.8156 25.9484 17.2419 26.7583 17.8054 26.7583C18.1481 26.7583 19.3695 27.4479 19.306 27.6055C19.2165 27.8279 12.6212 32.6978 12.6212 32.5416C12.6212 32.443 12.9034 31.117 13.2484 29.5949C14.0041 26.2604 14.0141 26.1194 13.5264 25.695C13.0597 25.289 12.7321 25.286 12.2871 25.6835C11.9788 25.9586 11.8243 26.5028 10.9771 30.2949C10.1163 34.1476 9.97905 34.6276 9.655 34.9156C9.45616 35.0922 9.25047 35.1859 9.19795 35.1236C9.09908 35.0061 6.99877 27.3235 6.99877 27.0789C6.99877 27.0031 7.96171 25.8233 9.13871 24.4572C10.3156 23.0912 11.4335 21.7711 11.6227 21.5236C12.0304 20.9905 12.0119 20.7772 11.417 19.1651L10.9948 18.0209H11.8429H12.6911L12.9989 18.8238ZM20.599 19.6499L21.2803 19.8932L21.1897 20.5077C21.0358 21.551 20.6016 22.7864 20.1428 23.487C18.6697 25.7362 16.4762 24.7334 15.6405 21.4288C15.2649 19.9434 15.2718 19.8956 15.8886 19.7088C16.4267 19.5457 18.0016 18.582 18.1639 18.3165C18.2198 18.2249 18.5724 18.4049 19.0861 18.7874C19.5435 19.1281 20.2244 19.5161 20.599 19.6499ZM22.6216 25.094C22.6302 25.8192 22.269 26.7593 21.9824 26.7577C21.9247 26.7573 21.6152 26.5811 21.2946 26.366L20.7116 25.9748L21.0613 25.6425C21.2537 25.4598 21.6346 24.9695 21.9081 24.553C22.3351 23.9021 22.4196 23.8334 22.5087 24.0634C22.5658 24.2107 22.6165 24.6745 22.6216 25.094ZM21.8558 29.2937L22.3828 29.7445L17.6048 33.3333C14.9769 35.3071 12.7498 37.0186 12.6554 37.1368C12.351 37.5185 12.446 38.2191 12.8454 38.5367C13.3427 38.9325 13.577 38.9011 14.4007 38.328C14.7929 38.0551 15.1324 37.8523 15.1551 37.8773C15.1777 37.9024 14.3719 41.8858 13.3644 46.7295C12.3569 51.5732 11.5305 55.739 11.5284 55.9869C11.523 56.5503 11.9367 56.9924 12.4688 56.9924C13.3766 56.9924 13.2696 57.3638 15.5859 46.1772C17.1621 38.5651 17.784 35.8044 17.9499 35.6837C18.0736 35.5937 18.5452 35.238 18.9978 34.8932L19.8205 34.2664L19.8891 43.284L19.9577 52.3016L20.2814 52.5667C20.7216 52.9272 21.2057 52.8997 21.6094 52.4913L21.9461 52.151L21.95 42.4017L21.9542 32.6526L22.6607 32.1346C23.0493 31.8497 23.3858 31.6354 23.4086 31.6584C23.4313 31.6813 23.846 33.3787 24.3304 35.4304C25.2704 39.413 25.3763 39.6564 26.1692 39.6564C26.6329 39.6564 27.1575 39.1456 27.1554 38.6961C27.1546 38.4995 27.0641 37.9981 26.9545 37.5816L26.7553 36.8243L28.1403 34.9465C28.9021 33.9137 29.5721 33.0159 29.6293 32.9517C29.7783 32.784 33.4936 35.6366 33.4106 35.855C33.3111 36.1176 28.3371 42.8332 28.237 42.8401C28.1898 42.8434 28.1137 42.6563 28.0679 42.4244C28.0077 42.12 27.8618 41.9504 27.5434 41.815C27.0143 41.5901 26.6462 41.702 26.2789 42.1999L26.0091 42.5652L27.145 47.3613C27.7698 49.9992 28.2574 52.1812 28.2286 52.2103C28.1999 52.2394 26.4197 52.9553 24.2726 53.8012C21.9217 54.7274 20.2736 55.4534 20.1291 55.6264C19.9305 55.8642 19.8891 56.1926 19.8891 57.5318V59.15L18.3475 59.7702C17.0402 60.296 16.786 60.4483 16.6754 60.7717C16.4947 61.3002 16.721 61.8721 17.2035 62.1059C17.5715 62.2844 17.7235 62.2457 19.5567 61.5074C20.6345 61.0734 21.5978 60.6196 21.697 60.499C21.8143 60.3566 21.9015 59.6949 21.9461 58.609L22.0146 56.9382L23.1117 56.4864C24.501 55.9143 24.5487 55.9137 24.4745 56.4724C24.4414 56.7203 24.2277 58.3585 23.9993 60.1129C23.5996 63.1834 22.8336 68.1742 22.6849 68.677C22.6182 68.9032 22.2207 68.9197 16.8656 68.9197H11.1179L11.0474 68.6076C10.7935 67.4826 10.4622 65.2289 10.5396 65.1521C10.5908 65.1013 11.4897 64.7132 12.5371 64.2895C13.5845 63.866 14.5563 63.4143 14.6969 63.2856C15.0853 62.9301 15.0318 62.2071 14.591 61.8567C14.3923 61.6986 14.1249 61.5692 13.9967 61.5692C13.8686 61.5692 12.9736 61.883 12.0079 62.2665C11.0421 62.65 10.2183 62.93 10.1775 62.8887C10.0852 62.7952 9.69052 59.6795 9.39116 56.6823C9.13596 54.1255 8.96633 46.0444 9.12006 43.7635L9.21961 42.2869L10.0632 41.6368C11.0089 40.9083 11.0803 40.829 11.2001 40.3738C11.3139 39.9405 11.0192 39.4215 10.5691 39.2629C10.1852 39.1274 9.7078 39.2808 9.09236 39.7373C8.79876 39.9551 8.78052 39.9493 8.64668 39.5932C8.46635 39.1134 8.47677 38.8281 8.68878 38.4419C8.83373 38.1779 21.0595 28.8429 21.2604 28.8428C21.2981 28.8428 21.5661 29.0457 21.8558 29.2937Z" fill="#276EF1"/>
<rect opacity="0.12" y="29" width="30" height="47" rx="4" fill="#276EF1"/>
</svg>
