<svg width="65" height="65" viewBox="0 0 65 65" fill="none" xmlns="http://www.w3.org/2000/svg">
<path d="M36.0463 7.74023H28.6049C27.8603 7.74023 27.2578 8.34321 27.2578 9.0873C27.2578 9.83083 27.8603 10.4344 28.6049 10.4344H36.0463C36.7909 10.4344 37.3934 9.83139 37.3934 9.0873C37.3934 8.34321 36.7909 7.74023 36.0463 7.74023Z" fill="#276EF1"/>
<path d="M36.0463 15.6035H28.6049C27.8603 15.6035 27.2578 16.2065 27.2578 16.9506C27.2578 17.6941 27.8603 18.2977 28.6049 18.2977H36.0463C36.7909 18.2977 37.3934 17.6947 37.3934 16.9506C37.3934 16.2065 36.7909 15.6035 36.0463 15.6035Z" fill="#276EF1"/>
<path d="M36.0463 23.4688H28.6049C27.8603 23.4688 27.2578 24.0717 27.2578 24.8158C27.2578 25.5593 27.8603 26.1629 28.6049 26.1629H36.0463C36.7909 26.1629 37.3934 25.5599 37.3934 24.8158C37.3934 24.0717 36.7909 23.4688 36.0463 23.4688Z" fill="#276EF1"/>
<path d="M36.0463 31.334H28.6049C27.8603 31.334 27.2578 31.937 27.2578 32.6811C27.2578 33.4246 27.8603 34.0281 28.6049 34.0281H36.0463C36.7909 34.0281 37.3934 33.4251 37.3934 32.6811C37.3934 31.937 36.7909 31.334 36.0463 31.334Z" fill="#276EF1"/>
<path d="M36.0463 39.1973H28.6049C27.8603 39.1973 27.2578 39.8002 27.2578 40.5443C27.2578 41.2879 27.8603 41.8914 28.6049 41.8914H36.0463C36.7909 41.8914 37.3934 41.2884 37.3934 40.5443C37.3934 39.8002 36.7909 39.1973 36.0463 39.1973Z" fill="#276EF1"/>
<path d="M36.0463 47.0625H28.6049C27.8603 47.0625 27.2578 47.6655 27.2578 48.4096C27.2578 49.1531 27.8603 49.7566 28.6049 49.7566H36.0463C36.7909 49.7566 37.3934 49.1537 37.3934 48.4096C37.3934 47.6655 36.7909 47.0625 36.0463 47.0625Z" fill="#276EF1"/>
<path d="M17.7768 22.4902H10.3354C9.5908 22.4902 8.98828 23.0932 8.98828 23.8373C8.98828 24.5808 9.59074 25.1844 10.3354 25.1844H17.7768C18.5213 25.1844 19.1238 24.5814 19.1238 23.8373C19.1238 23.0932 18.5214 22.4902 17.7768 22.4902Z" fill="#276EF1"/>
<path d="M17.7768 30.3555H10.3354C9.5908 30.3555 8.98828 30.9585 8.98828 31.7025C8.98828 32.4461 9.59074 33.0496 10.3354 33.0496H17.7768C18.5213 33.0496 19.1238 32.4466 19.1238 31.7025C19.1238 30.9585 18.5214 30.3555 17.7768 30.3555Z" fill="#276EF1"/>
<path d="M17.7768 38.2188H10.3354C9.5908 38.2188 8.98828 38.8217 8.98828 39.5658C8.98828 40.3093 9.59074 40.9129 10.3354 40.9129H17.7768C18.5213 40.9129 19.1238 40.3099 19.1238 39.5658C19.1238 38.8217 18.5214 38.2188 17.7768 38.2188Z" fill="#276EF1"/>
<path d="M17.7768 46.082H10.3354C9.5908 46.082 8.98828 46.685 8.98828 47.4291C8.98828 48.1726 9.59074 48.7762 10.3354 48.7762H17.7768C18.5213 48.7762 19.1238 48.1732 19.1238 47.4291C19.1238 46.685 18.5214 46.082 17.7768 46.082Z" fill="#276EF1"/>
<path d="M54.308 32.1289H46.8666C46.122 32.1289 45.5195 32.7319 45.5195 33.476C45.5195 34.2195 46.122 34.823 46.8666 34.823H54.308C55.0526 34.823 55.6551 34.2201 55.6551 33.476C55.6551 32.7319 55.0526 32.1289 54.308 32.1289Z" fill="#276EF1"/>
<path d="M54.308 39.9941H46.8666C46.122 39.9941 45.5195 40.5971 45.5195 41.3412C45.5195 42.0847 46.122 42.6883 46.8666 42.6883H54.308C55.0526 42.6883 55.6551 42.0853 55.6551 41.3412C55.6551 40.5971 55.0526 39.9941 54.308 39.9941Z" fill="#276EF1"/>
<path d="M54.308 47.8613H46.8666C46.122 47.8613 45.5195 48.4643 45.5195 49.2084C45.5195 49.9519 46.122 50.5555 46.8666 50.5555H54.308C55.0526 50.5555 55.6551 49.9525 55.6551 49.2084C55.6551 48.4643 55.0526 47.8613 54.308 47.8613Z" fill="#276EF1"/>
<path d="M1.34682 64.646H63.2983C64.0429 64.646 64.6454 64.0431 64.6454 63.299V56.1489C64.6454 55.4054 64.0429 54.8019 63.2983 54.8019H61.0678L61.0673 26.5337C61.0673 25.7902 60.4648 25.1867 59.7202 25.1867H42.8011L42.8016 1.34707C42.8016 0.603549 42.1992 0 41.4546 0L23.1903 0.000516692C22.4457 0.000516692 21.8432 0.603497 21.8432 1.34759V13.7699H4.92415C4.1796 13.7699 3.57708 14.3729 3.57708 15.117L3.57759 54.8029H1.34707C0.602518 54.8029 0 55.4059 0 56.15V63.3C0 64.0435 0.602465 64.6465 1.34707 64.6465L1.34682 64.646ZM42.8013 27.8807H58.3738V54.8023H42.8013V27.8807ZM24.537 2.69454H40.1082V54.8036H24.537V2.69454ZM6.27135 16.4629H21.8439V54.8023H6.27135V16.4629ZM2.69376 57.4953H61.9508L61.9514 61.9518H2.69427L2.69376 57.4953Z" fill="#276EF1"/>
</svg>
