<svg width="80" height="62" viewBox="0 0 80 62" fill="none" xmlns="http://www.w3.org/2000/svg">
<rect opacity="0.12" x="0.057373" y="12.0022" width="46.3995" height="49.5249" rx="4" fill="#276EF1"/>
<path d="M74.9316 0.135864H7.79544C5.1577 0.135864 3 2.18229 3 4.68336V47.3161C3 49.8172 5.1577 51.8636 7.79544 51.8636H34.1704V57.5874L17.857 59.26C17.1984 59.3275 16.7225 59.8881 16.7939 60.5123C16.8601 61.0952 17.3799 61.5271 17.984 61.5271C18.0273 61.5271 18.0706 61.5249 18.1145 61.5204L40.2284 59.2533H41.5134H42.4986L64.6125 61.5204C64.6564 61.5249 64.6998 61.5271 64.743 61.5271C65.3471 61.5271 65.867 61.0952 65.9332 60.5123C66.0045 59.8881 65.5287 59.3275 64.8701 59.26L48.5567 57.5874V51.8636H74.9316C77.5693 51.8636 79.7271 49.8172 79.7271 47.3161V4.68336C79.7271 2.18229 77.5693 0.135864 74.9316 0.135864ZM46.159 47.3161H36.5681C36.2368 47.3161 35.9687 47.0616 35.9687 46.7477C35.9687 46.4338 36.2368 46.1793 36.5681 46.1793H46.159C46.4903 46.1793 46.7584 46.4338 46.7584 46.7477C46.7584 47.0616 46.4903 47.3161 46.159 47.3161ZM67.139 47.3161C66.8077 47.3161 66.5396 47.0616 66.5396 46.7477C66.5396 46.4338 66.8077 46.1793 67.139 46.1793C67.4703 46.1793 67.7385 46.4338 67.7385 46.7477C67.7385 47.0616 67.4703 47.3161 67.139 47.3161ZM70.7356 47.3161C70.4043 47.3161 70.1362 47.0616 70.1362 46.7477C70.1362 46.4338 70.4043 46.1793 70.7356 46.1793C71.0669 46.1793 71.335 46.4338 71.335 46.7477C71.335 47.0616 71.0669 47.3161 70.7356 47.3161ZM77.3293 42.7687H5.39772V4.68336C5.39772 3.42962 6.47303 2.40961 7.79544 2.40961H74.9316C76.254 2.40961 77.3293 3.42962 77.3293 4.68336V42.7687Z" fill="#276EF1"/>
</svg>
