<svg width="49" height="34" viewBox="0 0 49 34" fill="none" xmlns="http://www.w3.org/2000/svg">
<path d="M40.7074 0H8.29205H8.29258C6.09296 0 3.98381 0.875405 2.42886 2.43437C0.873384 3.99284 0 6.10678 0 8.31138V25.6891V25.6886C0 27.8932 0.873425 30.0072 2.42886 31.5656C3.98381 33.1246 6.09296 34 8.29258 34H40.7079H40.7074C42.907 34 45.0162 33.1246 46.5711 31.5656C48.1266 30.0072 49 27.8932 49 25.6886V8.31085V8.31138C49 6.10678 48.1266 3.99284 46.5711 2.43437C45.0162 0.875365 42.907 0 40.7074 0V0ZM26.5728 20.7778L19.2231 24.5555V9.44444L33.9231 17L26.5728 20.7778Z" fill="#ED4124"/>
</svg>
