<svg width="110" height="110" viewBox="0 0 110 110" fill="none" xmlns="http://www.w3.org/2000/svg">
<mask id="mask0" style="mask-type:alpha" maskUnits="userSpaceOnUse" x="0" y="0" width="110" height="110">
<circle cx="54.75" cy="55.2701" r="54.295" fill="#276EF1"/>
</mask>
<g mask="url(#mask0)">
<path d="M29.4525 75.4557H42.2616C42.6013 75.4557 42.9271 75.3208 43.1673 75.0806C43.4075 74.8404 43.5425 74.5146 43.5425 74.1749C43.5425 73.8352 43.4075 73.5094 43.1673 73.2692C42.9271 73.029 42.6013 72.894 42.2616 72.894H29.4525C29.1128 72.894 28.787 73.029 28.5468 73.2692C28.3066 73.5094 28.1716 73.8352 28.1716 74.1749C28.1716 74.5146 28.3066 74.8404 28.5468 75.0806C28.787 75.3208 29.1128 75.4557 29.4525 75.4557V75.4557Z" fill="black"/>
<path d="M48.0257 49.8395H69.8013C69.9695 49.8395 70.136 49.8064 70.2914 49.742C70.4468 49.6776 70.588 49.5833 70.707 49.4644C70.8259 49.3454 70.9203 49.2042 70.9846 49.0488C71.049 48.8934 71.0821 48.7269 71.0821 48.5587C71.0821 48.3905 71.049 48.2239 70.9846 48.0685C70.9203 47.9131 70.8259 47.7719 70.707 47.653C70.588 47.534 70.4468 47.4397 70.2914 47.3753C70.136 47.311 69.9695 47.2778 69.8013 47.2778H48.0257C47.8575 47.2778 47.691 47.311 47.5356 47.3753C47.3802 47.4397 47.239 47.534 47.12 47.653C47.0011 47.7719 46.9067 47.9131 46.8424 48.0685C46.778 48.2239 46.7449 48.3905 46.7449 48.5587C46.7449 48.7269 46.778 48.8934 46.8424 49.0488C46.9067 49.2042 47.0011 49.3454 47.12 49.4644C47.239 49.5833 47.3802 49.6776 47.5356 49.742C47.691 49.8064 47.8575 49.8395 48.0257 49.8395V49.8395Z" fill="black"/>
<path d="M76.206 52.4009H49.3067C48.967 52.4009 48.6412 52.5358 48.401 52.776C48.1608 53.0162 48.0259 53.342 48.0259 53.6817C48.0259 54.0214 48.1608 54.3472 48.401 54.5874C48.6412 54.8276 48.967 54.9626 49.3067 54.9626H76.206C76.5457 54.9626 76.8714 54.8276 77.1117 54.5874C77.3519 54.3472 77.4868 54.0214 77.4868 53.6817C77.4868 53.342 77.3519 53.0162 77.1117 52.776C76.8714 52.5358 76.5457 52.4009 76.206 52.4009V52.4009Z" fill="black"/>
<path d="M69.8013 57.5244H48.0257C47.8575 57.5244 47.691 57.5575 47.5356 57.6219C47.3802 57.6863 47.239 57.7806 47.12 57.8996C47.0011 58.0185 46.9067 58.1597 46.8424 58.3151C46.778 58.4705 46.7449 58.6371 46.7449 58.8053C46.7449 58.9735 46.778 59.14 46.8424 59.2954C46.9067 59.4508 47.0011 59.592 47.12 59.7109C47.239 59.8299 47.3802 59.9242 47.5356 59.9886C47.691 60.053 47.8575 60.0861 48.0257 60.0861H69.8013C70.141 60.0861 70.4668 59.9511 70.707 59.7109C70.9472 59.4707 71.0821 59.145 71.0821 58.8053C71.0821 58.4656 70.9472 58.1398 70.707 57.8996C70.4668 57.6594 70.141 57.5244 69.8013 57.5244V57.5244Z" fill="black"/>
<path d="M29.4525 81.86H71.0822C71.2504 81.86 71.417 81.8269 71.5724 81.7625C71.7278 81.6982 71.869 81.6038 71.9879 81.4849C72.1069 81.3659 72.2012 81.2247 72.2656 81.0693C72.33 80.9139 72.3631 80.7474 72.3631 80.5792C72.3631 80.411 72.33 80.2444 72.2656 80.089C72.2012 79.9336 72.1069 79.7924 71.9879 79.6735C71.869 79.5546 71.7278 79.4602 71.5724 79.3958C71.417 79.3315 71.2504 79.2983 71.0822 79.2983H29.4525C29.2843 79.2983 29.1177 79.3315 28.9623 79.3958C28.8069 79.4602 28.6657 79.5546 28.5468 79.6735C28.4278 79.7924 28.3335 79.9336 28.2691 80.089C28.2048 80.2444 28.1716 80.411 28.1716 80.5792C28.1716 80.7474 28.2048 80.9139 28.2691 81.0693C28.3335 81.2247 28.4278 81.3659 28.5468 81.4849C28.6657 81.6038 28.8069 81.6982 28.9623 81.7625C29.1177 81.8269 29.2843 81.86 29.4525 81.86V81.86Z" fill="black"/>
<path d="M29.4525 88.2643H71.0822C71.4219 88.2643 71.7477 88.1294 71.9879 87.8892C72.2281 87.649 72.3631 87.3232 72.3631 86.9835C72.3631 86.6438 72.2281 86.318 71.9879 86.0778C71.7477 85.8376 71.4219 85.7026 71.0822 85.7026H29.4525C29.1128 85.7026 28.787 85.8376 28.5468 86.0778C28.3066 86.318 28.1716 86.6438 28.1716 86.9835C28.1716 87.3232 28.3066 87.649 28.5468 87.8892C28.787 88.1294 29.1128 88.2643 29.4525 88.2643V88.2643Z" fill="black"/>
<path d="M29.4525 94.6686H41.6212C41.9609 94.6686 42.2867 94.5337 42.5269 94.2935C42.7671 94.0533 42.902 93.7275 42.902 93.3878C42.902 93.0481 42.7671 92.7223 42.5269 92.4821C42.2867 92.2419 41.9609 92.1069 41.6212 92.1069H29.4525C29.1128 92.1069 28.787 92.2419 28.5468 92.4821C28.3066 92.7223 28.1716 93.0481 28.1716 93.3878C28.1716 93.7275 28.3066 94.0533 28.5468 94.2935C28.787 94.5337 29.1128 94.6686 29.4525 94.6686V94.6686Z" fill="black"/>
<path d="M29.4525 101.073H58.2731C58.4413 101.073 58.6078 101.04 58.7632 100.975C58.9186 100.911 59.0598 100.817 59.1788 100.698C59.2977 100.579 59.3921 100.438 59.4564 100.282C59.5208 100.127 59.5539 99.9603 59.5539 99.7921C59.5539 99.6239 59.5208 99.4573 59.4564 99.3019C59.3921 99.1465 59.2977 99.0053 59.1788 98.8864C59.0598 98.7674 58.9186 98.6731 58.7632 98.6087C58.6078 98.5444 58.4413 98.5112 58.2731 98.5112H29.4525C29.2843 98.5112 29.1177 98.5444 28.9623 98.6087C28.8069 98.6731 28.6657 98.7674 28.5468 98.8864C28.4278 99.0053 28.3335 99.1465 28.2691 99.3019C28.2048 99.4573 28.1716 99.6239 28.1716 99.7921C28.1716 99.9603 28.2048 100.127 28.2691 100.282C28.3335 100.438 28.4278 100.579 28.5468 100.698C28.6657 100.817 28.8069 100.911 28.9623 100.975C29.1177 101.04 29.2843 101.073 29.4525 101.073V101.073Z" fill="black"/>
<path d="M29.4525 107.477H58.2731C58.4413 107.477 58.6078 107.444 58.7632 107.379C58.9186 107.315 59.0598 107.221 59.1788 107.102C59.2977 106.983 59.3921 106.841 59.4564 106.686C59.5208 106.531 59.5539 106.364 59.5539 106.196C59.5539 106.028 59.5208 105.861 59.4564 105.706C59.3921 105.55 59.2977 105.409 59.1788 105.29C59.0598 105.171 58.9186 105.077 58.7632 105.013C58.6078 104.948 58.4413 104.915 58.2731 104.915H29.4525C29.2843 104.915 29.1177 104.948 28.9623 105.013C28.8069 105.077 28.6657 105.171 28.5468 105.29C28.4278 105.409 28.3335 105.55 28.2691 105.706C28.2048 105.861 28.1716 106.028 28.1716 106.196C28.1716 106.364 28.2048 106.531 28.2691 106.686C28.3335 106.841 28.4278 106.983 28.5468 107.102C28.6657 107.221 28.8069 107.315 28.9623 107.379C29.1177 107.444 29.2843 107.477 29.4525 107.477V107.477Z" fill="black"/>
<path d="M36.4976 44.7163C34.7243 44.7164 32.9909 45.2423 31.5165 46.2276C30.0422 47.2128 28.8931 48.6132 28.2146 50.2515C27.536 51.8898 27.3586 53.6925 27.7046 55.4317C28.0506 57.1708 28.9045 58.7684 30.1585 60.0222C31.4124 61.276 33.01 62.1299 34.7491 62.4758C36.4883 62.8217 38.291 62.6441 39.9293 61.9655C41.5676 61.2869 42.9678 60.1377 43.953 58.6633C44.9381 57.1889 45.464 55.4554 45.464 53.6822C45.4612 51.305 44.5156 49.0261 42.8347 47.3452C41.1537 45.6644 38.8747 44.7189 36.4976 44.7163V44.7163ZM36.4976 60.0864C35.2309 60.0863 33.9928 59.7106 32.9397 59.0069C31.8866 58.3031 31.0658 57.3029 30.5811 56.1327C30.0965 54.9625 29.9697 53.6748 30.2169 52.4325C30.464 51.1903 31.074 50.0492 31.9696 49.1536C32.8653 48.258 34.0064 47.6481 35.2487 47.401C36.491 47.1539 37.7786 47.2808 38.9488 47.7655C40.119 48.2502 41.1192 49.0711 41.8229 50.1242C42.5265 51.1774 42.9021 52.4156 42.9021 53.6822C42.9021 55.3807 42.2273 57.0097 41.0262 58.2107C39.8251 59.4117 38.1961 60.0864 36.4976 60.0864V60.0864Z" fill="black"/>
<path d="M67.239 122.207C67.5764 122.213 67.9115 122.15 68.2233 122.021C68.5351 121.891 68.8169 121.699 69.051 121.456L83.1411 107.367C83.6177 106.884 83.8869 106.234 83.8915 105.556V45.3563C83.8899 43.9979 83.3496 42.6956 82.389 41.7351C81.4285 40.7746 80.1262 40.2344 78.7678 40.2329H27.5311C26.1728 40.2344 24.8705 40.7746 23.9099 41.7351C22.9494 42.6956 22.409 43.9979 22.4075 45.3563V117.083C22.4091 118.442 22.9494 119.744 23.9099 120.704C24.8705 121.665 26.1728 122.205 27.5311 122.207L67.239 122.207ZM67.2395 119.645V105.556H81.3296L67.2395 119.645ZM24.9693 45.3563C24.9693 45.0198 25.0356 44.6867 25.1643 44.3759C25.2931 44.0651 25.4818 43.7827 25.7197 43.5448C25.9576 43.307 26.24 43.1183 26.5508 42.9896C26.8616 42.8608 27.1947 42.7946 27.5311 42.7946H78.7678C79.1042 42.7946 79.4373 42.8608 79.7481 42.9895C80.059 43.1183 80.3414 43.307 80.5793 43.5448C80.8171 43.7827 81.0059 44.0651 81.1346 44.3759C81.2633 44.6867 81.3296 45.0198 81.3296 45.3563V65.8496H24.9693V45.3563ZM24.9693 117.083V68.4113H81.3296V102.994H67.2395C66.5601 102.994 65.9085 103.264 65.4281 103.744C64.9477 104.225 64.6777 104.876 64.6777 105.556V119.645H27.5311C27.1947 119.645 26.8616 119.579 26.5508 119.45C26.24 119.321 25.9576 119.133 25.7197 118.895C25.4818 118.657 25.2931 118.374 25.1643 118.064C25.0356 117.753 24.9693 117.42 24.9693 117.083V117.083Z" fill="black"/>
</g>
</svg>
