<svg width="70" height="57" viewBox="0 0 70 57" fill="none" xmlns="http://www.w3.org/2000/svg">
<path opacity="0.1" d="M66.0993 13.6693C68.2872 26.0887 43.9174 57.9193 31.0061 56.199C18.0949 54.4787 -5.57618 32.6939 1.19326 16.1957C4.48615 8.17038 21.7844 14.49 35.0005 14.0059C47.1399 13.5612 64.9756 7.29113 66.0993 13.6693Z" fill="#276EF1"/>
<path d="M66.6808 26.98C67.2215 25.3579 67.6077 23.7359 67.8394 22.0366C68.2256 18.7152 68.4574 13.9262 66.1401 9.9869C64.3636 6.97448 61.9691 4.58 59.2656 3.18965C54.0905 0.408963 48.4519 0.25448 42.9677 2.80345C40.9594 3.73034 38.3332 6.04759 36.7884 7.59242C34.5484 5.27517 31.6905 3.57586 30.3774 2.88069C26.1291 0.563446 21.4174 0.17724 17.0918 1.87655C10.9125 4.27104 6.12355 10.0641 5.2739 16.1662C4.50148 22.0366 6.587 28.7566 10.9898 34.6269C15.9332 41.1924 27.5194 48.7621 28.0601 49.0711C28.3691 49.2255 28.678 49.38 28.987 49.38C29.5277 49.38 30.1456 49.0711 30.4546 48.6076C30.9953 47.8352 30.7636 46.7538 29.9139 46.2131C29.7594 46.1359 18.3277 38.6435 13.7705 32.6186C9.90838 27.4435 8.05459 21.6504 8.67252 16.7069C9.36769 11.7635 13.2298 7.12897 18.3277 5.12069C21.6491 3.80759 25.2794 4.11655 28.678 5.97035C31.536 7.51517 34.0077 9.44621 35.2436 11.2228C35.5525 11.609 36.016 11.9179 36.5567 11.9179C37.0974 11.9179 37.5608 11.7635 37.947 11.3772C39.1056 10.2186 42.427 6.89724 44.4353 5.97035C48.9153 3.88483 53.3953 3.96207 57.7208 6.27931C59.8063 7.36069 61.8146 9.36897 63.205 11.7635C64.9815 14.7759 64.7498 18.8697 64.4408 21.6504C64.2091 23.4269 63.7456 25.1262 63.0505 26.8255H60.7332V21.7276C60.7332 19.7193 59.1112 18.02 57.0256 18.02H51.8505C49.8422 18.02 48.1429 19.6421 48.1429 21.7276V26.8255H43.045C41.0367 26.8255 39.4146 28.4476 39.4146 30.4559V35.6311C39.4146 37.6393 41.0367 39.3386 43.045 39.3386H48.1429V42.969C46.6753 44.0504 45.285 45.0545 43.8946 45.9814L42.9677 46.5993C42.427 46.9855 41.8863 47.3717 41.4229 47.758C40.4187 48.5304 39.4146 49.2255 38.4105 49.8435L37.947 50.1524C37.6381 50.3069 37.0201 50.7704 36.9429 50.7704C36.6339 50.6931 35.8615 50.2297 35.4753 49.998L35.1663 49.7662C34.3167 49.2255 33.3125 49.5345 32.7718 50.3069C32.2312 51.1566 32.5401 52.1607 33.3125 52.7014L33.6215 52.8559C34.4712 53.3966 35.707 54.169 36.8656 54.169C37.947 54.169 38.9512 53.4738 39.8008 53.0104L40.1098 52.7786C41.2684 52.0835 42.3498 51.3111 43.4312 50.5386C43.9718 50.1524 44.4353 49.7662 44.976 49.4573L45.9029 48.8393C46.907 48.1442 47.9112 47.449 48.9925 46.6766C49.6877 47.5262 50.6919 48.0669 51.8505 48.0669H57.0256C59.0339 48.0669 60.7332 46.3676 60.7332 44.3593V39.2614H65.7539C67.7622 39.2614 69.4615 37.6393 69.4615 35.5538V30.3786C69.3843 28.8338 68.2256 27.3662 66.6808 26.98ZM65.9084 35.7083C65.9084 35.8628 65.8312 35.94 65.6767 35.94H58.8794C57.8753 35.94 57.1801 36.7124 57.1801 37.6393V44.4366C57.1801 44.5138 57.1029 44.6683 56.9484 44.6683H51.7732C51.6188 44.6683 51.5415 44.5911 51.5415 44.4366V37.6393C51.5415 36.7124 50.7691 35.94 49.8422 35.94H43.045C42.9677 35.94 42.8905 35.8628 42.8905 35.7083V30.5331C42.8905 30.4559 42.9677 30.3786 43.045 30.3786H49.8422C50.7691 30.3786 51.5415 29.6062 51.5415 28.6793V21.8821C51.5415 21.8048 51.6188 21.6504 51.7732 21.6504H56.9484C57.0256 21.6504 57.1801 21.7276 57.1801 21.8821V28.6793C57.1801 29.6062 57.9525 30.3786 58.8794 30.3786H65.6767C65.7539 30.3786 65.9084 30.4559 65.9084 30.5331V35.7083Z" fill="#276EF1"/>
</svg>
