<svg width="133" height="133" viewBox="0 0 133 133" fill="none" xmlns="http://www.w3.org/2000/svg">
<path d="M50.7754 119.243C50.7754 119.828 51.008 120.39 51.4221 120.804C51.8361 121.218 52.398 121.451 52.9836 121.451H79.4819C80.7014 121.451 81.6901 120.462 81.6901 119.243C81.6901 118.023 80.7014 117.034 79.4819 117.034H52.9836C51.7642 117.034 50.7754 118.023 50.7754 119.243Z" fill="black"/>
<path d="M65.1253 41.8093L45.5826 53.0928V53.0938C44.8995 53.4881 44.4785 54.2166 44.4785 55.0052V77.5733C44.4785 78.3619 44.8995 79.0914 45.5826 79.4857L65.1253 90.7692C65.8084 91.1645 66.6503 91.1645 67.3335 90.7692L86.8761 79.4945C87.5593 79.1002 87.9802 78.3707 87.9802 77.5821V55.0052C87.9802 54.2166 87.5593 53.4881 86.8761 53.0938L67.3335 41.8103V41.8093C66.6503 41.415 65.8084 41.415 65.1253 41.8093V41.8093ZM83.5636 76.3L68.4373 85.0331V67.5707L83.5636 58.8356V76.3ZM81.3554 55.0067L66.2291 63.7398L51.1028 55.0057L66.2291 46.2726L81.3554 55.0067Z" fill="black"/>
<path d="M94.9386 0H37.5255C35.7688 0 34.083 0.697941 32.8411 1.94006C31.5992 3.18217 30.901 4.868 30.901 6.62446V46.8591L1.07649 64.3411C0.408126 64.7444 0 65.4669 0 66.2467C0 67.0265 0.408126 67.7491 1.07649 68.1523L30.901 85.6344V125.869C30.901 127.626 31.599 129.311 32.8411 130.553C34.0832 131.795 35.769 132.493 37.5255 132.493H94.9386C96.6952 132.493 98.3811 131.795 99.623 130.553C100.865 129.311 101.563 127.625 101.563 125.869V85.6344L131.388 68.1523C132.042 67.7629 132.452 67.0659 132.474 66.3049C132.497 65.5438 132.127 64.8242 131.496 64.3983L97.1468 44.2674C96.6598 43.9421 101.575 48.8857 101 49C100.426 49.1144 96.3253 45.512 96 46C95.3237 47.0144 96.1324 48.7141 97.1468 49.3904L126.109 66.1136L101.564 80.5161V6.62608C101.564 4.86939 100.866 3.18356 99.6239 1.94167C98.3818 0.699783 96.696 0.00161492 94.9395 0.00161492L94.9386 0ZM30.9009 80.5146L6.56253 66.2451L30.9009 51.9776V80.5146ZM97.1468 125.867C97.1468 126.453 96.9141 127.015 96.5001 127.429C96.086 127.843 95.5241 128.075 94.9386 128.075H37.5255C36.306 128.075 35.3173 127.087 35.3173 125.867V88.2218L65.114 105.688C65.8031 106.092 66.6588 106.093 67.3479 105.689L97.1446 88.2218L97.1468 125.867ZM97.1468 83.1039L66.232 101.227L35.3173 83.1039V49.3904L66.232 31.2675L97.1468 49.3904V83.1039ZM97.1468 44.2674L67.35 26.8009C66.6599 26.3987 65.8062 26.3987 65.1162 26.8009L35.3194 44.2674V6.62459C35.3194 5.40516 36.3082 4.41639 37.5276 4.41639H48.5686V8.83278C48.5686 10.0039 49.0339 11.1277 49.8619 11.9558C50.69 12.7839 51.8138 13.2492 52.985 13.2492H79.4833C80.6544 13.2492 81.7783 12.7839 82.6063 11.9558C83.4344 11.1277 83.8997 10.0039 83.8997 8.83278V4.41639H94.9407C95.5262 4.41639 96.0882 4.64904 96.5022 5.06308C96.9162 5.47711 97.1489 6.03902 97.1489 6.62459L97.1468 44.2674Z" fill="black"/>
<path d="M92.7308 33.1229C92.7308 34.3423 91.7421 35.3311 90.5226 35.3311C89.3032 35.3311 88.3145 34.3423 88.3145 33.1229C88.3145 31.9034 89.3032 30.9147 90.5226 30.9147C91.7421 30.9147 92.7308 31.9034 92.7308 33.1229Z" fill="black"/>
<path d="M90.5226 8.83289C89.3032 8.83289 88.3145 9.82165 88.3145 11.0411V24.2903C88.3145 25.5097 89.3032 26.4985 90.5226 26.4985C91.7421 26.4985 92.7308 25.5097 92.7308 24.2903V11.0411C92.7308 10.4555 92.4982 9.8936 92.0842 9.47957C91.6701 9.06554 91.1082 8.83289 90.5226 8.83289Z" fill="black"/>
</svg>
