<svg width="96" height="68" viewBox="0 0 96 68" fill="none" xmlns="http://www.w3.org/2000/svg">
<path opacity="0.1" d="M26.6513 55.2391L0.765137 29.9984L2.41255 21.5098L28.9024 40.6348L26.6513 55.2391Z" fill="#276EF1"/>
<rect opacity="0.1" x="73.6077" y="11.186" width="21.9043" height="44.9164" rx="4" fill="#276EF1"/>
<path d="M92.8814 9.11833C92.4542 7.40968 90.3184 3.77882 89.8913 2.99569L89.8201 2.8533C90.3184 2.63972 90.6032 2.14137 90.6032 1.57182C90.6032 0.78869 89.9624 0.147949 89.1793 0.147949H66.7534C65.9702 0.147949 65.3295 0.78869 65.3295 1.57182C65.3295 2.14137 65.6855 2.63972 66.1126 2.8533V3.06688C65.6855 3.77882 63.4785 7.48088 63.1225 9.18952C62.4106 12.2508 62.8377 38.9484 63.0513 48.2035C62.9801 48.1323 62.8377 48.0611 62.7665 47.99L60.2036 46.7085C59.9188 46.5661 59.5628 46.4949 59.2069 46.4949C58.7085 46.4949 58.2102 46.7085 57.8542 46.9932C57.783 46.8509 57.783 46.7797 57.7118 46.6373C57.7118 46.5661 57.6406 46.5661 57.6406 46.4949L61.6274 44.7862L61.7698 44.7151C62.197 44.3591 62.553 43.8607 62.6242 43.2912C62.6954 42.7216 62.553 42.1521 62.197 41.7249L60.346 39.3755C59.9188 38.806 59.3493 38.5212 58.6373 38.5212C58.139 38.5212 57.7118 38.6636 57.3558 38.9484L54.5793 41.013C54.5793 40.9418 54.6505 40.8706 54.6505 40.7994C54.7929 40.2299 54.6505 39.6603 54.3657 39.162L52.0875 35.6023C52.2299 35.1751 52.3723 34.5344 52.0875 33.8937C51.8739 33.4665 51.518 32.9681 50.5925 32.6834L19.2673 16.736H19.125C18.8402 16.736 11.8632 16.8072 4.17433 24.2825L4.03194 24.4249L2.18091 34.1784L25.39 56.6756L25.4612 56.6044C25.39 57.0315 25.5324 57.5299 25.7459 57.957L27.241 60.3776C27.6682 61.0184 28.3089 61.3743 29.0208 61.3743C29.448 61.3743 29.804 61.2319 30.1599 61.0184L31.5838 60.164C31.299 60.52 31.0855 60.9472 31.0855 61.4455L31.0143 64.2933C31.0143 64.8628 31.2278 65.4324 31.5838 65.8595C31.9398 66.2867 32.5093 66.5003 33.0789 66.5003L38.7743 66.7138H38.8455C39.4151 66.7138 39.9134 66.5003 40.2694 66.1443C40.6966 65.7883 40.9102 65.2188 40.9813 64.6492V63.7237L42.8324 64.2221C42.9748 64.2933 43.1883 64.2933 43.4019 64.2933C44.0427 64.2933 44.6122 64.0085 44.9682 63.5813V64.0085C45.0394 65.1476 45.9649 66.0019 47.104 66.0019C47.1752 66.0019 47.1752 66.0019 47.2464 66.0019L52.9418 65.6459C53.5114 65.6459 54.0098 65.3612 54.4369 64.934C54.7929 64.5068 55.0065 63.9373 54.9353 63.3677L54.7929 61.5879V61.6591L56.1456 64.1509C56.5015 64.8628 57.2135 65.29 57.9966 65.29C58.3526 65.29 58.7085 65.2188 58.9933 65.0052L63.3361 62.6558L63.2649 64.8628C63.2649 65.4324 63.4785 66.0019 63.8344 66.3579C64.2616 66.785 64.76 66.9986 65.3295 66.9986L71.025 67.141H71.2386C72.3777 67.141 73.3744 66.2155 73.3744 65.0764L73.4456 62.2286C73.4456 61.6591 73.232 61.0896 72.876 60.7336C72.4489 60.3064 71.9505 60.0928 71.381 60.0928L65.6143 59.9505C65.4719 59.9505 65.3295 59.9505 65.1871 60.0216C65.1159 59.8081 65.1159 59.5945 64.9735 59.4521L64.048 57.7435L67.6789 59.6657C67.9637 59.8081 68.3196 59.8793 68.6756 59.8793C69.4587 59.8793 70.1707 59.4521 70.5978 58.669L71.8793 55.5365C74.0151 55.8212 76.2221 55.8924 78.0019 55.8924C83.555 55.8212 92.9526 55.1093 92.9526 50.9801C93.0238 46.9932 93.7357 12.678 92.8814 9.11833ZM87.8266 5.20269C88.5386 6.48417 89.3929 8.05042 89.8201 9.11833C88.325 9.26071 84.9789 9.47429 77.9308 9.47429C70.5266 9.47429 67.3941 9.26071 66.0414 9.04713C66.4686 8.05042 67.3229 6.48417 68.0349 5.20269C68.1061 5.20269 87.8266 5.20269 87.8266 5.20269ZM61.5563 55.6077C61.5563 55.6789 61.6274 55.6788 61.6274 55.75C61.4139 55.75 61.2003 55.8212 61.0579 55.8924L61.4851 55.0381C61.4851 55.2517 61.4851 55.4653 61.5563 55.6077ZM59.5628 47.9188L62.1258 49.2002C62.2682 49.2714 62.4106 49.4138 62.4818 49.6274C62.553 49.841 62.553 49.9834 62.4106 50.1969L59.8476 55.2517C59.7052 55.5365 59.3493 55.6789 59.0645 55.6077L57.3558 53.0447C57.3558 52.4039 57.9966 50.1258 58.7085 48.2035C58.7797 47.9188 59.2069 47.7764 59.5628 47.9188ZM45.9649 58.313C45.6801 57.8147 45.1818 57.4587 44.6834 57.3163L39.2015 55.8924C39.1303 55.8924 39.1303 55.8924 39.0591 55.8924L41.6221 55.3229C42.1916 55.1805 42.6188 54.8957 42.9036 54.3974C42.9748 54.5398 43.1171 54.6821 43.2595 54.8245C43.6867 55.1805 44.1851 55.3941 44.6834 55.3941H44.7546L46.8904 55.3229L47.4599 57.8147C47.5311 58.2418 47.7447 58.5266 48.0295 58.8114L46.8192 58.8826C46.6056 58.8826 46.392 58.9537 46.1785 59.0249C46.1785 58.7402 46.1073 58.5266 45.9649 58.313ZM35.3571 47.0644L34.218 43.6472L37.1369 44.4303C37.2793 44.5015 37.4929 44.5015 37.7064 44.5015C38.7032 44.5015 39.5575 43.8607 39.7711 42.9352L40.3406 40.5858C40.4118 40.657 40.483 40.657 40.5542 40.7282C40.2694 41.0842 40.127 41.5113 40.0558 41.9385C39.9846 42.5081 40.1982 43.0776 40.5542 43.5048L44.2562 47.8476C44.3986 47.99 44.6122 48.1323 44.7546 48.2747H44.4698C43.9003 48.2747 43.4019 48.5595 42.9748 48.9155C42.7612 49.1291 42.6188 49.485 42.4764 49.7698L41.9781 47.2068C41.6933 46.0677 40.5542 45.3558 39.4151 45.5694L36.6385 46.2101C36.069 46.2813 35.6418 46.6373 35.3571 47.0644ZM35.713 34.3208C35.6418 34.8904 35.8554 35.4599 36.2114 35.8871L37.2793 37.1685L33.3636 36.1718C33.2213 36.1006 33.0077 36.1006 32.7941 36.1006C31.7974 36.1006 30.9431 36.7414 30.7295 37.6669L30.0176 40.4434C29.8752 41.013 29.9464 41.5825 30.2311 42.0809C30.3023 42.2233 30.3735 42.3657 30.5159 42.4369L28.8073 42.9352C28.4513 43.0776 28.0953 43.2912 27.8106 43.576V43.3624C28.7361 36.7414 33.4348 34.8192 35.713 34.3208ZM48.1719 33.1105L48.955 33.5377C48.7414 33.6089 48.5279 33.6801 48.3143 33.8225L45.8937 35.3887C45.6801 35.5311 45.5377 35.6735 45.3953 35.8159C45.3241 35.7447 45.3241 35.6735 45.253 35.6023L43.1171 33.3241H48.1007L48.1719 33.1105ZM52.0163 44.5015L50.8772 44.2167C50.6637 44.1455 50.3789 44.1455 50.1653 44.1455V44.0743H50.2365C50.6637 44.0743 51.0196 43.9319 51.3756 43.7183L52.2299 43.1488C52.1587 43.3624 52.0875 43.576 52.0163 43.7895C52.0163 44.0031 52.0163 44.2879 52.0163 44.5015ZM47.104 53.4007C47.0328 53.543 46.9616 53.6854 46.8904 53.8278L44.6834 53.899C44.4698 53.899 44.3274 53.8278 44.1851 53.6854C44.0427 53.543 43.9715 53.4007 43.9715 53.1871L43.9003 50.3393C43.9003 50.1258 43.9715 49.9834 44.1139 49.841C44.2562 49.6986 44.3986 49.6274 44.6122 49.6274L47.6023 49.5562C47.6735 49.6986 47.7447 49.9122 47.8159 50.0546C48.1007 50.5529 48.599 50.9089 49.0974 51.0513L51.6604 51.692L48.4567 52.4751C47.8871 52.6175 47.3888 52.9023 47.104 53.4007ZM41.7645 41.5825L43.9715 39.7315C44.1139 39.5891 44.3274 39.5891 44.3986 39.5891C44.6122 39.5891 44.8258 39.6603 44.9682 39.8739L48.6702 44.2167C48.8126 44.3591 48.8838 44.5727 48.8126 44.7151C48.8126 44.7863 48.8126 44.8574 48.7414 44.9286C48.6702 44.9998 48.5279 45.1422 48.4567 45.2846L46.3209 47.0644C46.1785 47.2068 45.9649 47.2068 45.8937 47.2068C45.6801 47.2068 45.4665 47.1356 45.3241 46.9221L41.6221 42.5793C41.4797 42.4369 41.4085 42.2233 41.4797 42.0809C41.5509 41.8673 41.6221 41.6537 41.7645 41.5825ZM47.3176 48.0611L47.7447 47.7052L47.6023 48.2035H47.104C47.1752 48.1323 47.2464 48.1323 47.3176 48.0611ZM56.5015 47.8476L55.7896 50.6241C55.7184 50.9801 55.2912 51.1937 54.9353 51.1225L49.4534 49.6986C49.2398 49.6274 49.0974 49.5562 49.0262 49.3426C48.955 49.2002 48.8838 48.9867 48.955 48.7731L49.6669 45.9965C49.7381 45.8542 49.8805 45.783 49.9517 45.6406C50.0941 45.5694 50.2365 45.4982 50.3789 45.4982C50.4501 45.4982 50.5213 45.4982 50.5925 45.4982L56.0744 46.9221C56.2879 46.9932 56.4303 47.0644 56.5015 47.278C56.5727 47.4916 56.5727 47.634 56.5015 47.8476ZM44.2562 36.5278C44.3986 36.6702 44.4698 36.8838 44.3986 37.0262C44.3986 37.2397 44.3274 37.3821 44.1139 37.5245L42.0492 39.3755C41.9069 39.5179 41.6933 39.5179 41.6221 39.5179C41.4085 39.5179 41.1949 39.4467 41.0525 39.2332L37.3505 34.8904C37.2081 34.748 37.1369 34.5344 37.2081 34.392C37.2081 34.2496 37.2793 34.1072 37.4217 33.9648C38.2048 33.6801 40.127 32.9681 40.9813 32.9681H41.0525L44.2562 36.5278ZM32.011 41.6537C31.7974 41.5825 31.655 41.5113 31.5838 41.2978C31.5126 41.1554 31.4414 40.9418 31.5126 40.7282L32.2246 37.9517C32.2957 37.6669 32.5805 37.4533 32.9365 37.4533C33.0077 37.4533 33.0789 37.4533 33.1501 37.4533L38.632 38.8772C38.8455 38.9484 38.9879 39.0196 39.0591 39.2332C39.1303 39.4467 39.2015 39.5891 39.1303 39.8027L38.4184 42.5793C38.3472 42.9352 37.92 43.1488 37.5641 43.0776L32.011 41.6537ZM27.7394 46.7085L29.092 51.0513C29.3056 51.692 29.804 52.2616 30.4447 52.404L27.597 54.3262L27.7394 46.7085ZM31.3702 51.1225C31.0143 51.2649 30.5871 51.0513 30.4447 50.6241L28.7361 45.2134C28.6649 44.9998 28.6649 44.8574 28.8073 44.6439C28.8785 44.5015 29.0208 44.3591 29.2344 44.2879L31.9398 43.4336C32.011 43.4336 32.0822 43.4336 32.1534 43.4336C32.4381 43.4336 32.7229 43.6472 32.8653 43.9319L34.5739 49.3426C34.7163 49.6986 34.5027 50.1258 34.0756 50.2681L31.3702 51.1225ZM36.4962 47.9188C36.5674 47.7764 36.7809 47.634 36.9233 47.634L39.6999 46.9932C39.7711 46.9932 39.7711 46.9932 39.8423 46.9932C40.1982 46.9932 40.483 47.2068 40.5542 47.5628L41.7645 53.1159C41.8357 53.4719 41.6221 53.899 41.1949 53.9702L38.4896 54.5398C38.1336 54.611 37.7064 54.3974 37.6353 53.9702L36.425 48.4171C36.3538 48.2747 36.425 48.0611 36.4962 47.9188ZM49.7381 58.0282C49.667 58.0282 49.5958 58.0282 49.5958 58.0282C49.2398 58.0282 48.955 57.8147 48.8838 57.4587L48.2431 54.6821C48.1719 54.4686 48.2431 54.3262 48.3143 54.1126C48.3855 53.9702 48.599 53.8278 48.7414 53.8278L54.2945 52.5463C54.3657 52.5463 54.4369 52.5463 54.4369 52.5463C54.7929 52.5463 55.0777 52.7599 55.1488 53.1159L55.7896 55.8924C55.8608 56.106 55.7896 56.2484 55.7184 56.462C55.6472 56.6756 55.4336 56.7468 55.2912 56.7468L49.7381 58.0282ZM58.2102 40.0875C58.4949 39.8739 58.9933 39.9451 59.2069 40.2299L60.9155 42.5081C61.0579 42.6504 61.0579 42.864 61.0579 43.0064C61.0579 43.1488 60.9867 43.2912 60.8443 43.4336L56.2879 45.4982C55.7896 45.4982 54.4369 44.9286 53.5114 44.4303C53.4402 44.2879 53.4402 44.1455 53.4402 44.0031C53.4402 43.7895 53.5826 43.6472 53.725 43.5048L58.2102 40.0875ZM53.2978 40.5146C53.2266 40.7282 53.1554 40.8706 53.013 40.9418L50.5925 42.5081C50.4501 42.5793 50.3077 42.6504 50.2365 42.6504C50.0229 42.6504 49.7381 42.5081 49.6669 42.2945L46.6056 37.5245C46.5344 37.3821 46.4632 37.1685 46.5344 36.955C46.6056 36.7414 46.6768 36.599 46.8192 36.5278L49.2398 34.9616C49.3822 34.8904 49.5246 34.8192 49.5958 34.8192C49.8093 34.8192 50.0941 34.9616 50.1653 35.1751L53.2266 39.9451C53.2978 40.1587 53.369 40.3011 53.2978 40.5146ZM45.7513 31.9002H41.8357C41.6221 31.6867 41.2661 31.6155 40.9102 31.6155C39.6999 31.6155 37.3505 32.541 36.7809 32.7546C35.7842 32.8258 29.5192 33.6801 27.0986 40.2299L5.74058 24.7809C12.148 18.943 17.9147 18.3023 18.9114 18.2311L45.7513 31.9002ZM3.74716 33.6801L5.09984 26.1336L26.6715 41.7249C26.5291 42.2233 26.4579 42.7216 26.3867 43.2912L26.1019 55.3229L26.0307 55.3941L3.74716 33.6801ZM29.5192 59.8081C29.3768 59.8793 29.3056 59.9505 29.1632 59.9505C28.9497 59.9505 28.6649 59.8081 28.5937 59.5945L26.9562 57.1739C26.885 57.0315 26.8138 56.8179 26.885 56.6044C26.9562 56.3908 27.0274 56.2484 27.1698 56.1772L32.011 53.1159C32.1534 53.0447 32.2246 52.9735 32.3669 52.9735C32.5805 52.9735 32.8653 53.1159 32.9365 53.3295L34.4315 55.75C34.6451 56.106 34.5739 56.5332 34.218 56.7468L29.5192 59.8081ZM35.0723 57.957C36.069 57.3163 36.3538 56.0348 35.713 55.0381L34.218 52.6175C34.0044 52.3328 33.7908 52.1192 33.506 51.9056L34.5739 51.5496C35.0011 51.4072 35.2859 51.1937 35.5706 50.8377L36.3538 54.1838C36.5674 55.0381 37.2081 55.6788 37.9912 55.8212C37.2793 56.0348 36.7809 56.6044 36.5673 57.3163L35.9978 59.3809L33.3636 59.3097C33.1501 59.3097 32.9365 59.3097 32.7229 59.3809L35.0723 57.957ZM39.5575 64.578C39.5575 64.7916 39.4863 64.934 39.3439 65.0764C39.2015 65.2188 39.0591 65.29 38.8455 65.29L33.1501 65.0764C32.9365 65.0764 32.7941 65.0052 32.6517 64.8628C32.5093 64.7204 32.4381 64.578 32.4381 64.3644L32.5093 61.5167C32.5093 61.0896 32.8653 60.8048 33.2213 60.8048L35.713 60.876C35.713 61.1607 35.8554 61.4455 35.9978 61.7303C36.2826 62.2286 36.7809 62.5846 37.2793 62.727L39.5575 63.2965V64.578ZM44.8258 59.5233L44.1139 62.2998C44.0427 62.6558 43.6155 62.9406 43.2595 62.7982L37.7776 61.3743C37.5641 61.3031 37.4217 61.2319 37.3505 61.0184C37.2793 60.876 37.2081 60.6624 37.2793 60.4488L37.9912 57.6723C38.0624 57.3875 38.3472 57.1739 38.7032 57.1739C38.7743 57.1739 38.8455 57.1739 38.9167 57.1739L44.3986 58.5978C44.6122 58.669 44.7546 58.7402 44.8258 58.9537C44.897 59.1673 44.8258 59.3809 44.8258 59.5233ZM53.369 63.9373C53.2266 64.0797 53.0842 64.1509 52.8707 64.1509L47.1752 64.5068H47.104C46.748 64.5068 46.392 64.2221 46.392 63.8661L46.2497 61.0184C46.2497 60.8048 46.3209 60.6624 46.392 60.52C46.5344 60.3776 46.6768 60.3064 46.8904 60.3064L52.5859 59.9505C52.9418 59.9505 53.2978 60.2352 53.2978 60.5912L53.4402 63.4389C53.5114 63.6525 53.4402 63.7949 53.369 63.9373ZM54.6505 60.0216C54.4369 59.3809 53.9386 58.8114 53.2978 58.5978L55.576 58.0994C56.1456 57.957 56.5727 57.6011 56.9287 57.1739C57.2135 56.6756 57.3558 56.106 57.2135 55.5365V55.4653L58.0678 56.7468L58.2102 56.8179C58.4237 56.9603 58.7085 56.9603 58.9221 57.0315L55.7184 58.8114C55.22 59.0249 54.8641 59.5233 54.6505 60.0216ZM58.4237 63.7949C58.2814 63.8661 58.2102 63.8661 58.0678 63.8661C57.783 63.8661 57.5694 63.7237 57.427 63.5101L56.0744 61.0184C56.0032 60.876 55.932 60.6624 56.0032 60.4488C56.0744 60.2352 56.1456 60.0928 56.3591 60.0216L61.3427 57.2451C61.4139 57.1739 61.5563 57.1739 61.6986 57.1739C61.9834 57.1739 62.197 57.3163 62.3394 57.5299L63.6921 60.0216C63.7633 60.164 63.8344 60.3776 63.7633 60.5912C63.6921 60.8048 63.6209 60.9472 63.4073 61.0184L58.4237 63.7949ZM65.6143 61.3743L71.3098 61.5167C71.5233 61.5167 71.6657 61.5879 71.8081 61.7303C71.9505 61.8727 72.0217 62.0151 72.0217 62.2286L71.9505 65.0764C71.9505 65.4324 71.5945 65.7883 71.2386 65.7883V66.5003V65.7883L65.5431 65.6459C65.3295 65.6459 65.1871 65.5747 65.0447 65.4324C64.9024 65.29 64.8312 65.1476 64.8312 64.934L64.9023 62.0863C64.9023 61.6591 65.2583 61.3743 65.6143 61.3743ZM69.2451 58.0282C69.0316 58.3842 68.6044 58.5266 68.2484 58.313L63.1937 55.6077C63.0513 55.5365 62.9089 55.3941 62.8377 55.1805C62.7665 54.9669 62.7665 54.8245 62.9089 54.6109L63.9056 52.8311C65.1871 54.0414 67.6789 54.8245 70.3842 55.2517L69.2451 58.0282ZM90.1048 50.8377C89.4641 51.9056 83.7686 52.9023 78.0019 53.0447C72.2353 52.9735 66.4686 51.9056 65.8991 50.9089C65.6143 36.599 65.3295 15.0274 65.7567 10.5422C67.4653 10.827 70.9538 10.9694 78.0019 10.9694C84.8365 10.9694 88.3962 10.827 90.2472 10.5422C90.6744 15.0986 90.3896 36.5278 90.1048 50.8377Z" fill="#276EF1"/>
<path d="M78.002 13.8884C77.5748 13.8884 77.29 14.1732 77.29 14.6004V48.4885C77.29 48.9156 77.5748 49.2004 78.002 49.2004C78.4291 49.2004 78.7139 48.9156 78.7139 48.4885V14.6004C78.7139 14.2444 78.3579 13.8884 78.002 13.8884Z" fill="#276EF1"/>
</svg>
