<svg width="83" height="84" viewBox="0 0 83 84" fill="none" xmlns="http://www.w3.org/2000/svg">
<path d="M25.1819 53.2531L27.3778 54.0374C27.8483 52.4689 29.1031 52.1552 29.1031 52.1552L28.4757 49.8025C28.6326 49.6456 26.123 50.4299 25.1819 53.2531Z" fill="#276EF1"/>
<path d="M76.3146 55.9199C74.7461 56.5472 73.9619 58.4294 74.5893 60.1548L76.7852 59.2137C76.6283 58.7431 76.7852 58.2726 77.2557 58.1157C78.1968 57.802 79.2948 58.1157 79.7653 59.2137C80.079 60.1548 80.079 61.0959 79.7653 61.8801C79.4516 62.8212 78.6674 63.4486 77.8831 63.7623C76.3146 64.3897 74.7461 64.3897 73.1776 63.7623C71.766 63.1349 70.5112 62.037 69.8838 60.4685C69.8838 60.3116 69.8838 60.1548 69.8838 60.1548C69.8838 53.0966 67.8448 49.8027 64.7078 46.5089C64.0804 45.8815 63.2961 45.2541 62.5119 44.6267L62.8256 39.2938C62.8256 38.8233 62.6687 38.3527 62.1982 38.039L61.4139 37.7253L56.7085 41.3329C52.9441 39.7644 48.866 38.9801 44.6311 38.9801C40.0824 38.9801 35.6907 39.9212 31.9263 41.6466L27.8482 38.5096C27.3777 38.1959 26.9071 38.1959 26.4366 38.3527L25.6523 38.8233L26.1229 45.0973C24.2407 46.5089 22.6722 48.3911 21.5742 50.4301C21.2605 50.9007 21.1037 51.3712 20.79 51.8418C20.4763 52.3123 19.8489 52.9397 19.0647 52.9397H16.2414C14.6729 52.9397 13.2612 54.1945 13.2612 55.9199V58.5863C13.2612 60.1548 14.516 61.5664 16.2414 61.5664C17.653 61.5664 18.9078 62.9781 19.692 65.3308L19.8489 65.8014C20.6331 68.6246 22.2016 71.1342 24.2407 73.1733C24.8681 73.8007 25.4955 74.2712 26.1229 74.8986L26.4366 75.0555C26.4366 75.0555 29.2599 77.0945 29.5736 79.6041C30.0441 83.0548 32.24 83.2116 33.6516 83.2116H33.8085H33.9653C35.2201 83.2116 37.5729 82.7411 38.514 79.6041H49.964C50.2776 80.702 50.7482 81.4863 51.3756 82.1137C52.1598 82.8979 53.2578 83.3685 54.5126 83.3685H54.6694H54.8263C56.2379 83.3685 58.5907 83.2116 58.9044 79.7609C59.2181 77.2514 62.0413 75.2123 62.0413 75.2123L62.355 75.0555C65.8057 72.389 68.1585 68.7815 69.0996 64.7034C69.8838 65.4877 70.8249 66.1151 71.766 66.5856C72.8639 67.0561 73.9619 67.213 75.0598 67.213C76.1578 67.213 77.2557 67.0561 78.1968 66.5856C81.177 65.3308 82.7454 61.8801 81.4907 58.9C81.0201 56.0767 78.5105 54.9788 76.3146 55.9199ZM61.2571 72.5459L60.9434 72.7027C60.7865 72.8596 57.3359 75.3692 56.8653 78.9767C56.7085 80.3883 56.3948 80.3883 54.9831 80.5452H54.8263C54.1989 80.5452 53.5715 80.3883 53.2578 80.0746C52.4735 79.2904 52.1598 77.8787 52.1598 75.6829H49.8071C49.8071 76.1534 49.8071 76.4671 49.8071 76.9377H39.1414C39.1414 76.624 39.1414 76.1534 39.1414 75.6829H36.7886C36.7886 76.1534 36.7886 76.4671 36.7886 76.7808C36.4749 80.702 34.7496 80.5452 34.1222 80.5452H33.9653C32.5537 80.5452 32.24 80.5452 32.0831 78.9767C31.6126 75.3692 28.1619 72.8596 28.0051 72.7027L27.6914 72.5459C27.064 72.0753 26.5934 71.6048 25.966 71.1342C24.2407 69.4089 22.829 67.213 22.0448 64.8603C22.0448 64.7034 21.8879 64.5466 21.8879 64.3897C20.79 61.0959 18.5941 59.0568 16.2414 59.0568C15.9277 59.0568 15.614 58.7431 15.614 58.4294V55.763C15.614 55.4493 15.9277 55.1356 16.2414 55.1356H18.9078C20.3194 55.1356 21.5742 54.3514 22.5153 53.0966C22.6722 52.7829 22.829 52.626 22.9859 52.3123C22.9859 52.1555 23.1427 52.1555 23.1427 51.9986C23.2996 51.8418 23.2996 51.6849 23.4564 51.3712C24.2407 50.1164 25.1818 49.0185 26.1229 47.9205L28.4756 47.7637L28.0051 41.8034L33.1811 45.8815L34.5927 43.9993L33.6516 43.2151C36.9455 41.9603 40.553 41.3329 44.1605 41.3329C47.6112 41.3329 51.0619 41.9603 54.042 43.0582L53.4146 43.6856L54.8263 45.5678L60.0023 41.4897L59.5318 47.45L61.8845 47.6068V47.45C62.1982 47.6068 62.355 47.9205 62.6687 48.0774C65.6489 51.0575 67.2174 53.8808 67.2174 59.9979C67.3742 65.0171 65.1783 69.5657 61.2571 72.5459Z" fill="#276EF1"/>
<path d="M40.2393 44.4699L40.7098 46.8226C40.7098 46.8226 46.8269 45.5678 51.3756 47.7637L52.3167 45.5678C47.1406 43.0582 40.553 44.313 40.2393 44.4699Z" fill="#276EF1"/>
<path d="M31.8677 15.8876C31.7482 15.7682 31.6288 15.6487 31.6288 15.4098H29.837C29.837 16.1266 30.1953 16.8433 30.6731 17.3211C31.0315 17.56 31.3899 17.7989 31.7482 17.9183V18.8739H33.54V17.9183C33.8984 17.7989 34.2567 17.56 34.6151 17.3211C35.2123 16.8433 35.4512 16.1266 35.4512 15.4098C35.4512 14.6931 35.0929 13.9764 34.6151 13.4986C34.1373 13.0208 33.4205 12.7819 32.5844 12.7819C32.226 12.7819 31.9871 12.6624 31.7482 12.543C31.6288 12.4235 31.5093 12.3041 31.5093 12.0652C31.5093 11.8263 31.6288 11.7068 31.7482 11.5874C32.1066 11.229 32.9427 11.229 33.3011 11.5874C33.4205 11.7068 33.54 11.8263 33.54 12.0652H35.3318C35.3318 11.3485 34.9734 10.6318 34.4956 10.154C34.1373 9.91505 33.7789 9.67614 33.4205 9.55669V8.60107H31.6288V9.67614C31.2704 9.79559 30.9121 9.91505 30.5537 10.2734C29.9564 10.7512 29.7175 11.4679 29.7175 12.1846C29.7175 12.9013 30.0759 13.6181 30.5537 14.0959C31.0315 14.5737 31.7482 14.8126 32.5844 14.8126C32.9427 14.8126 33.1816 14.932 33.4205 15.0515C33.54 15.1709 33.6594 15.2904 33.6594 15.5293C33.6594 15.7682 33.54 16.0071 33.4205 16.0071C33.0622 16.246 32.226 16.246 31.8677 15.8876Z" fill="#276EF1"/>
<path d="M32.3457 22.6966C37.2433 22.6966 41.3046 18.6352 41.3046 13.7377C41.3046 8.84018 37.2433 4.77881 32.3457 4.77881C31.9874 4.77881 31.7485 4.77881 31.3901 4.77881L26.612 0.000732422L5.94683 2.74813V0.120184H0.213135V1.91196H4.15505V2.86758V15.8879V16.6046H1.2882V18.3963H5.94683V15.7684H6.90245L8.21642 17.4407C9.41094 18.8742 11.2027 19.5909 13.114 19.5909H25.6564C27.2093 21.5021 29.7178 22.6966 32.3457 22.6966ZM39.5129 13.7377C39.5129 17.6796 36.2876 20.9048 32.3457 20.9048C30.7929 20.9048 29.4789 20.427 28.2844 19.5909H29.9567V18.6352C29.9567 16.0073 27.926 13.7377 25.2981 13.4988C25.4175 9.67635 28.5233 6.57059 32.4652 6.57059C36.2876 6.57059 39.5129 9.7958 39.5129 13.7377ZM23.3868 13.4988H21.834C20.9978 13.4988 20.2811 13.1405 19.6838 12.6626C19.4449 12.4237 19.4449 11.9459 19.6838 11.5876L23.9841 7.28731L25.1786 8.48183C24.1035 9.7958 23.3868 11.5876 23.3868 13.4988ZM9.53039 16.2462L7.73861 14.2155H5.94683V4.53991L26.0148 2.03142L29.3594 5.37607C28.2844 5.73443 27.3287 6.33169 26.4926 7.16785L24.1035 4.77881L18.4893 10.3931C17.5337 11.3487 17.5337 13.021 18.4893 13.9766C19.4449 14.9322 20.6394 15.41 21.834 15.41H24.7008C26.2537 15.41 27.5676 16.4851 27.926 17.9185H12.9945C11.6805 17.7991 10.3666 17.2018 9.53039 16.2462Z" fill="#276EF1"/>
<path d="M79.077 14.3787V13.3599H82.9259V11.6619H77.3789V14.1523L57.3421 11.6619L52.814 16.19C52.4743 16.19 52.1347 16.19 51.9083 16.19C47.1538 16.19 43.3049 20.0389 43.3049 24.7934C43.3049 29.5479 47.1538 33.3968 51.9083 33.3968C54.3988 33.3968 56.776 32.2647 58.4741 30.3403H70.5868C72.398 30.3403 74.0961 29.5479 75.2281 28.3027L76.4733 26.9442H77.3789V29.4347H81.907V27.7366H79.077V26.9442V14.3787ZM51.9083 31.6987C48.0594 31.6987 45.003 28.6423 45.003 24.7934C45.003 20.9445 48.0594 17.888 51.9083 17.888C55.644 17.888 58.7005 20.9445 58.8137 24.567C56.3232 24.7934 54.2856 26.9442 54.2856 29.5479V30.4535H55.8704C54.7384 31.2459 53.38 31.6987 51.9083 31.6987ZM60.5117 24.567C60.5117 22.7557 59.8325 21.0577 58.8137 19.6993L59.9457 18.5672L64.1342 22.7557C64.3606 22.9821 64.3606 23.5481 64.1342 23.7746C63.5682 24.3406 62.889 24.6802 62.0966 24.6802H60.5117V24.567ZM75.6809 25.2462L73.8696 27.1706C72.964 28.1895 71.7188 28.6423 70.4736 28.6423H56.0968C56.4364 27.2838 57.7949 26.1518 59.2665 26.1518H61.9834C63.2286 26.1518 64.3606 25.699 65.2662 24.7934C66.1719 23.8878 66.1719 22.3029 65.2662 21.3973L59.8325 15.9636L57.5685 18.2276C56.776 17.4352 55.7572 16.8692 54.7384 16.5296L57.9081 13.3599L77.2657 15.7372V25.133H75.6809V25.2462Z" fill="#276EF1"/>
<path d="M52.3611 22.6427C52.4743 22.7559 52.5875 22.8691 52.5875 23.0955H54.2855C54.2855 22.4163 53.9459 21.7371 53.3799 21.2843C53.0403 21.0579 52.7007 20.8315 52.3611 20.7183V19.6995H50.6631V20.7183C50.3234 20.8315 49.8706 20.9447 49.6442 21.2843C49.0782 21.7371 48.8518 22.4163 48.8518 23.0955C48.8518 23.7748 49.1914 24.454 49.7574 24.9068C50.3234 25.3596 50.8895 25.586 51.6819 25.586C52.0215 25.586 52.2479 25.6992 52.4743 25.8124C52.5875 25.9256 52.7007 26.0388 52.7007 26.2652C52.7007 26.4916 52.5875 26.718 52.4743 26.718C52.1347 27.0576 51.3423 27.0576 50.8895 26.718C50.7763 26.6048 50.6631 26.4916 50.6631 26.2652H48.965C48.965 26.9444 49.3046 27.6236 49.7574 28.0765C50.097 28.3029 50.4366 28.5293 50.7763 28.6425V29.6613H52.4743V28.6425C52.8139 28.5293 53.2667 28.3029 53.4931 28.0765C54.0591 27.6236 54.3987 26.9444 54.3987 26.2652C54.3987 25.586 54.0591 24.9068 53.4931 24.454C52.9271 24.0012 52.3611 23.7748 51.5687 23.7748C51.2291 23.7748 51.0027 23.6616 50.7763 23.5484C50.663 23.4352 50.5498 23.3219 50.5498 23.0955C50.5498 22.8691 50.663 22.6427 50.7763 22.6427C51.2291 22.3031 51.9083 22.3031 52.3611 22.6427Z" fill="#276EF1"/>
<path opacity="0.2" d="M70.765 64.255C69.7664 46.4664 24.4574 48.5486 25.1907 66.3502C25.5109 74.1234 26.2143 72.9591 32.5132 77.5252C42.0806 84.4607 59.2929 83.5322 64.7408 81.0178C70.1888 78.5033 71.1548 71.2002 70.765 64.255Z" fill="#276EF1"/>
</svg>
