<svg width="110" height="110" viewBox="0 0 110 110" fill="none" xmlns="http://www.w3.org/2000/svg">
<mask id="mask0" style="mask-type:alpha" maskUnits="userSpaceOnUse" x="0" y="0" width="110" height="110">
<circle cx="54.75" cy="54.9341" r="54.295" fill="#276EF1"/>
</mask>
<g mask="url(#mask0)">
<path d="M81.4059 81.9969V36.4721C81.4404 35.9373 81.3593 35.4014 81.1681 34.9008C80.9769 34.4002 80.6801 33.9466 80.2979 33.571C79.9157 33.1954 79.457 32.9065 78.9532 32.724C78.4493 32.5415 77.9121 32.4697 77.378 32.5134H32.0907C31.6673 32.4991 31.244 32.5457 30.8339 32.652C28.9634 33.1864 28.0826 34.6313 28.0826 36.9768C28.043 66.9902 28.0232 96.9837 28.0232 126.958C28.0232 130.006 29.9234 131.49 32.5658 131.48C47.391 131.441 62.236 131.441 77.1009 131.48C77.6854 131.525 78.2726 131.442 78.8223 131.239C79.372 131.035 79.8712 130.715 80.2857 130.301C80.7002 129.886 81.0202 129.387 81.2238 128.837C81.4274 128.288 81.5098 127.7 81.4653 127.116C81.3663 112.093 81.4059 97.0596 81.4059 81.9969ZM58.0992 126.839H51.3893C51.0558 126.86 50.7216 126.813 50.4072 126.7C50.0927 126.587 49.8048 126.41 49.5612 126.182C49.3175 125.953 49.1233 125.677 48.9906 125.37C48.8578 125.064 48.7893 124.733 48.7893 124.399C48.7893 124.065 48.8578 123.735 48.9906 123.428C49.1233 123.121 49.3175 122.845 49.5612 122.617C49.8048 122.388 50.0927 122.212 50.4072 122.099C50.7216 121.986 51.0558 121.938 51.3893 121.96H58.0992C58.4327 121.938 58.7669 121.986 59.0813 122.099C59.3957 122.212 59.6837 122.388 59.9273 122.617C60.171 122.845 60.3652 123.121 60.4979 123.428C60.6307 123.735 60.6992 124.065 60.6992 124.399C60.6992 124.733 60.6307 125.064 60.4979 125.37C60.3652 125.677 60.171 125.953 59.9273 126.182C59.6837 126.41 59.3957 126.587 59.0813 126.7C58.7669 126.813 58.4327 126.86 58.0992 126.839V126.839ZM78.2192 116.378H31.3386V40.3219H78.2192V116.378Z" fill="black"/>
<path d="M40.8889 74.901C40.9914 74.0927 41.4072 73.357 42.0468 72.8524C42.4921 72.4466 42.8979 71.9913 43.363 71.6054C43.5822 71.3689 43.8461 71.1783 44.1395 71.0447C44.4329 70.911 44.7499 70.837 45.0722 70.8269C45.3944 70.8168 45.7155 70.8707 46.0167 70.9857C46.3179 71.1006 46.5933 71.2743 46.8269 71.4965C47.9935 72.4093 48.8926 73.6195 49.4297 74.9999C49.622 75.4479 49.6748 75.9434 49.5813 76.4219C49.4877 76.9003 49.2521 77.3394 48.9052 77.6819C48.6083 78.0184 48.3015 78.345 47.9848 78.6716C47.7766 78.8366 47.6281 79.0653 47.562 79.3226C47.4959 79.5799 47.5158 79.8518 47.6186 80.0967C47.8444 80.6756 48.1296 81.2295 48.4697 81.7495C49.5723 83.2796 50.8328 84.6893 52.2305 85.9556C53.2474 86.9683 54.3687 87.8707 55.5755 88.6475C56.0235 88.9449 56.5295 89.144 57.06 89.2314C57.239 89.2581 57.4218 89.2424 57.5937 89.1857C57.7656 89.129 57.9217 89.0328 58.0497 88.9048C58.3268 88.6277 58.594 88.3506 58.881 88.0834C59.3119 87.5692 59.9199 87.2353 60.5849 87.1473C61.2499 87.0594 61.9238 87.2239 62.4735 87.6083C63.474 88.1347 64.3776 88.8274 65.1456 89.6569C65.3972 89.8788 65.6016 90.149 65.7468 90.4515C65.8919 90.7539 65.9748 91.0825 65.9904 91.4176C66.0061 91.7526 65.9543 92.0875 65.8381 92.4022C65.7219 92.7169 65.5436 93.005 65.3139 93.2494C64.6978 93.9732 64.0367 94.6574 63.3345 95.298C62.907 95.6452 62.371 95.8309 61.8203 95.8226C60.3538 95.8836 58.8924 95.6129 57.545 95.0308C54.8028 93.9163 52.2721 92.3397 50.0631 90.3695C47.4377 88.157 45.1768 85.5454 43.363 82.6303C42.2844 80.9599 41.4948 79.1198 41.0274 77.1871C40.9383 76.8011 40.8889 76.4053 40.8196 76.0193L40.8889 74.901Z" fill="black"/>
<path d="M54.9125 68.1414C55.3677 68.1909 55.823 68.2305 56.2782 68.2998C58.0009 68.562 59.6495 69.1823 61.1177 70.1207C63.6272 71.6621 65.6911 73.8317 67.1052 76.415C68.1206 78.2414 68.636 80.3033 68.5996 82.3926C68.5871 82.8092 68.5341 83.2235 68.4413 83.6297C68.3518 83.9612 68.1456 84.2492 67.8607 84.4408C67.5758 84.6325 67.2312 84.7148 66.8905 84.6726C66.5497 84.6305 66.2356 84.4667 66.006 84.2115C65.7763 83.9562 65.6465 83.6266 65.6405 83.2833C65.6405 83.0854 65.6405 82.8875 65.6405 82.6895C65.7848 80.9852 65.3901 79.2785 64.5123 77.8105C63.1601 75.3225 61.0913 73.2985 58.5743 72.0011C57.3022 71.3147 55.8725 70.9735 54.4276 71.0115C54.1208 71.0115 53.814 71.0708 53.5072 71.0609C53.1505 71.0719 52.8034 70.9439 52.5394 70.7038C52.2753 70.4638 52.1149 70.1305 52.0919 69.7744C52.0586 69.4343 52.1495 69.0936 52.3478 68.8153C52.5461 68.537 52.8384 68.3398 53.1707 68.2602C53.4643 68.1973 53.7619 68.1543 54.0614 68.1315L54.3484 68.082L54.9125 68.1414Z" fill="black"/>
<path d="M55.1401 73.4858C55.632 73.5785 56.1178 73.7008 56.5949 73.852C58.0786 74.3243 59.4278 75.1448 60.5297 76.245C61.6316 77.3451 62.4542 78.693 62.9288 80.176C63.0982 80.6721 63.224 81.1821 63.3049 81.7001C63.361 82.0623 63.2764 82.4322 63.0685 82.734C62.8605 83.0358 62.545 83.2466 62.1866 83.3231C61.8313 83.4086 61.4567 83.3533 61.1413 83.1688C60.8258 82.9843 60.594 82.685 60.4942 82.3335C60.3359 81.8287 60.2765 81.2844 60.0786 80.7995C59.6684 79.6924 58.9822 78.7086 58.085 77.9413C57.1878 77.174 56.1093 76.6487 54.9521 76.4153C54.6511 76.3628 54.3604 76.2625 54.0911 76.1184C53.8253 75.9575 53.6212 75.712 53.5117 75.4212C53.4022 75.1304 53.3937 74.8113 53.4874 74.5151C53.6754 73.8718 54.1801 73.5056 55.1401 73.4858Z" fill="black"/>
</g>
</svg>
