<svg width="60" height="60" viewBox="0 0 60 60" fill="none" xmlns="http://www.w3.org/2000/svg">
<rect x="2.77539" y="23.5112" width="52.8721" height="36.4705" rx="2" fill="#E9F0FE"/>
<path d="M14.4648 38.2236L25.6113 42.8611C25.7676 42.9261 25.9382 42.9493 26.1061 42.9283C26.2741 42.9073 26.4337 42.8429 26.5691 42.7415L37.7087 34.4002L44.9252 38.9033C45.1065 39.0164 45.32 39.0668 45.5329 39.0465C45.7457 39.0263 45.9459 38.9366 46.1026 38.7914L59.7212 26.1657L58.3975 24.7424L45.3246 36.8615L38.1742 32.3997C38.0077 32.2957 37.8135 32.2446 37.6173 32.2529C37.4211 32.2612 37.2321 32.3286 37.075 32.4463L25.8465 40.8541L14.6865 36.2115C14.5268 36.1451 14.3523 36.1224 14.1809 36.1457C14.0095 36.1691 13.8475 36.2376 13.7114 36.3443L0.0927734 47.0276L1.29462 48.555L14.4648 38.2236Z" fill="#276EF1"/>
<path d="M3.95895 41.7741L5.20993 40.2864C3.8393 39.1389 2.94613 37.5227 2.70473 35.7532C2.46333 33.9837 2.89103 32.1879 3.90436 30.7162L12.8783 17.6842H21.5824L30.5561 30.7162C31.1155 31.5265 31.501 32.4434 31.6885 33.4095L33.5975 33.0375C33.3594 31.8101 32.8696 30.6452 32.1589 29.6158L23.0669 16.4113V13.152L25.2921 10.1898C25.7406 9.59017 25.9836 8.86222 25.9852 8.11385C25.9851 7.52414 25.8341 6.94422 25.5464 6.42917C25.2588 5.91412 24.844 5.48102 24.3416 5.171C23.8391 4.86097 23.2656 4.68432 22.6756 4.6578C22.0855 4.63128 21.4984 4.75578 20.9701 5.01947L17.2303 6.88637L13.4906 5.01947C12.9622 4.75578 12.3752 4.63128 11.7851 4.6578C11.195 4.68432 10.6216 4.86097 10.1191 5.171C9.61666 5.48102 9.20191 5.91412 8.91424 6.42917C8.62658 6.94422 8.47555 7.52414 8.47549 8.11385C8.47705 8.86222 8.72009 9.59017 9.16858 10.1898L11.3938 13.152V16.4113L2.30125 29.6158C1.01386 31.4854 0.470382 33.7668 0.776887 36.0148C1.08339 38.2628 2.21788 40.3162 3.95895 41.7741V41.7741ZM21.1214 15.7418H13.3393V13.7994H21.1214V15.7418ZM10.421 8.11385C10.4211 7.85524 10.4873 7.60092 10.6135 7.37505C10.7396 7.14918 10.9215 6.95924 11.1419 6.82328C11.3622 6.68732 11.6137 6.60983 11.8725 6.59818C12.1313 6.58653 12.3887 6.6411 12.6204 6.75672L16.7953 8.8408C16.9304 8.90824 17.0793 8.94335 17.2303 8.94335C17.3814 8.94335 17.5303 8.90824 17.6654 8.8408L21.8403 6.75672C22.072 6.6411 22.3294 6.58653 22.5882 6.59818C22.847 6.60983 23.0985 6.68732 23.3188 6.82328C23.5392 6.95924 23.721 7.14918 23.8472 7.37505C23.9734 7.60092 24.0396 7.85524 24.0397 8.11385C24.039 8.44208 23.9324 8.76136 23.7357 9.02436L21.6078 11.857H12.8529L10.725 9.02436C10.5283 8.76136 10.4217 8.44208 10.421 8.11385V8.11385Z" fill="#276EF1"/>
<path d="M20.1481 27.396V27.2544C20.1473 26.6643 19.9583 26.0898 19.6085 25.6142C19.2587 25.1386 18.7663 24.7866 18.2026 24.6093V23.5112H16.257V24.6093C15.7291 24.7746 15.2626 25.0937 14.9176 25.5256C14.5725 25.9574 14.3645 26.4824 14.3204 27.0331C14.2762 27.5838 14.3979 28.1351 14.6697 28.6163C14.9416 29.0974 15.3513 29.4865 15.8462 29.7336L17.7431 30.6805C17.9105 30.7641 18.0447 30.9016 18.1241 31.0709C18.2034 31.2401 18.2232 31.4311 18.1802 31.613C18.1373 31.7949 18.034 31.9569 17.8873 32.0729C17.7405 32.1889 17.5589 32.252 17.3717 32.2521H17.0879C16.8676 32.2518 16.6564 32.1644 16.5006 32.0089C16.3449 31.8533 16.2573 31.6425 16.257 31.4225V31.2809H14.3115V31.4225C14.3123 32.0126 14.5013 32.5871 14.8511 33.0627C15.2009 33.5383 15.6934 33.8903 16.257 34.0676V35.1657H18.2026V34.0676C18.7305 33.9023 19.197 33.5832 19.5421 33.1513C19.8871 32.7195 20.0951 32.1945 20.1392 31.6438C20.1834 31.0931 20.0617 30.5418 19.7899 30.0607C19.518 29.5795 19.1083 29.1904 18.6134 28.9433L16.7166 27.9964C16.5491 27.9128 16.4149 27.7753 16.3355 27.606C16.2562 27.4368 16.2364 27.2458 16.2794 27.0639C16.3224 26.882 16.4256 26.72 16.5723 26.604C16.7191 26.488 16.9007 26.4249 17.0879 26.4248H17.3717C17.592 26.4251 17.8032 26.5125 17.959 26.6681C18.1147 26.8236 18.2023 27.0344 18.2026 27.2544V27.396H20.1481Z" fill="#276EF1"/>
<path d="M12.3674 28.3672H10.4219V30.3096H12.3674V28.3672Z" fill="#276EF1"/>
<path d="M24.0402 28.3672H22.0947V30.3096H24.0402V28.3672Z" fill="#276EF1"/>
<path d="M31.8225 11.6706L43.4956 9.17375V13.7991H40.5773V15.7415H43.4956V17.6839H40.5773V19.6263H43.4956V21.5688H40.5773V23.5112H43.4956V25.4536H40.5773V27.396H43.4956V33.2232H45.4411V7.97188C45.4411 7.82707 45.4087 7.6841 45.3462 7.55343C45.2837 7.42276 45.1927 7.30769 45.0799 7.21666C44.9671 7.12562 44.8354 7.06092 44.6943 7.02729C44.5532 6.99366 44.4064 6.99195 44.2646 7.02228L30.6459 9.9359C30.4283 9.98246 30.2332 10.1021 30.0933 10.2749C29.9533 10.4478 29.877 10.6633 29.877 10.8855V17.6839H31.8225V11.6706Z" fill="#276EF1"/>
<path d="M39.6037 2.29333L51.2769 3.95822V7.00076H47.3858V8.94317H51.2769V10.8856H47.3858V12.828H51.2769V14.7704H47.3858V16.7128H51.2769V18.6552H53.2224V3.11595C53.2224 2.88219 53.1379 2.65627 52.9845 2.47968C52.8311 2.30308 52.619 2.18765 52.3873 2.15457L38.7686 0.212165C38.6306 0.192475 38.49 0.202615 38.3563 0.241898C38.2226 0.281181 38.099 0.348689 37.9937 0.439852C37.8884 0.531014 37.8039 0.643702 37.746 0.770284C37.6882 0.896867 37.6582 1.03439 37.6582 1.17354V6.02956H39.6037V2.29333Z" fill="#276EF1"/>
<path d="M36.6862 19.8571V30.3097H38.6317V18.6552C38.6317 18.5104 38.5993 18.3675 38.5368 18.2368C38.4743 18.1061 38.3833 17.991 38.2705 17.9C38.1577 17.809 38.0259 17.7443 37.8849 17.7106C37.7438 17.677 37.597 17.6753 37.4552 17.7056L27.7275 19.7868L28.1351 21.686L36.6862 19.8571Z" fill="#276EF1"/>
<path d="M47.3867 22.5401H53.2233V25.4537H55.1688V21.5689C55.1688 21.3113 55.0663 21.0643 54.8839 20.8821C54.7015 20.7 54.454 20.5977 54.196 20.5977H47.3867V22.5401Z" fill="#276EF1"/>
<path d="M34.7406 23.5112H31.8223V25.4536H34.7406V23.5112Z" fill="#276EF1"/>
<path d="M34.7404 27.396H32.7949V29.3384H34.7404V27.396Z" fill="#276EF1"/>
<path d="M51.2778 24.4824H47.3867V26.4248H51.2778V24.4824Z" fill="#276EF1"/>
<path d="M51.2778 28.3672H47.3867V30.3096H51.2778V28.3672Z" fill="#276EF1"/>
<path d="M56.1408 34.1943H54.1952V56.532H52.2497V37.108H50.3042V56.532H48.3587V40.9928H46.4131V56.532H44.4676V40.9928H42.5221V56.532H40.5766V39.0504H38.6311V56.532H36.6855V39.0504H34.74V56.532H32.7945V41.964H30.849V56.532H28.9034V44.8776H26.9579V56.532H25.0124V44.8776H23.0669V56.532H21.1213V43.9064H19.1758V56.532H17.2303V41.964H15.2848V56.532H13.3393V42.9352H11.3937V56.532H9.44821V45.8488H7.50269V56.532H5.55717V48.7624H3.61164V56.532H0.693359V58.4745H59.059V56.532H56.1408V34.1943Z" fill="#276EF1"/>
</svg>
