<svg width="110" height="109" viewBox="0 0 110 109" fill="none" xmlns="http://www.w3.org/2000/svg">
<mask id="mask0" style="mask-type:alpha" maskUnits="userSpaceOnUse" x="0" y="0" width="110" height="109">
<circle cx="54.75" cy="54.5811" r="54.295" fill="#276EF1"/>
</mask>
<g mask="url(#mask0)">
<path d="M84.4993 101.412H25.001C23.9077 101.412 22.8591 100.978 22.0861 100.204C21.313 99.4314 20.8787 98.3828 20.8787 97.2895V55.572C20.8787 54.4787 21.313 53.4302 22.0861 52.6571C22.8591 51.884 23.9077 51.4497 25.001 51.4497H84.4993C85.5926 51.4497 86.6411 51.884 87.4142 52.6571C88.1873 53.4302 88.6216 54.4787 88.6216 55.572V97.2483C88.627 97.7931 88.5244 98.3336 88.3197 98.8385C88.115 99.3434 87.8122 99.8027 87.4289 100.19C87.0455 100.577 86.5893 100.884 86.0864 101.094C85.5836 101.304 85.0441 101.412 84.4993 101.412V101.412ZM25.001 54.1704C24.6365 54.1704 24.287 54.3152 24.0293 54.5729C23.7716 54.8306 23.6269 55.1801 23.6269 55.5445V97.2483C23.6269 97.6128 23.7716 97.9623 24.0293 98.22C24.287 98.4776 24.6365 98.6224 25.001 98.6224H84.4993C84.8637 98.6224 85.2132 98.4776 85.4709 98.22C85.7286 97.9623 85.8734 97.6128 85.8734 97.2483V55.572C85.8734 55.2076 85.7286 54.8581 85.4709 54.6004C85.2132 54.3427 84.8637 54.1979 84.4993 54.1979L25.001 54.1704Z" fill="black"/>
<path d="M87.2748 89.6777H22.2251V92.4259H87.2748V89.6777Z" fill="black"/>
<path d="M42.9876 112.267L41.9158 109.739C43.6238 108.94 44.9835 107.548 45.7418 105.822C46.5001 104.095 46.6054 102.152 46.0381 100.354L48.6626 99.7632C49.3759 102.182 49.195 104.776 48.153 107.072C47.111 109.368 45.2774 111.212 42.9876 112.267V112.267Z" fill="black"/>
<path d="M67.735 112.267C65.4451 111.212 63.6116 109.368 62.5696 107.072C61.5276 104.776 61.3467 102.182 62.06 99.7632L64.8082 100.395C64.2409 102.193 64.3461 104.137 65.1044 105.863C65.8628 107.589 67.2224 108.982 68.9305 109.78L67.735 112.267Z" fill="black"/>
<path d="M38.1647 68.9698L33.0806 65.4109L34.6608 63.1574L37.5189 65.1636L41.6549 59.3374L43.8947 60.9314L38.1647 68.9698Z" fill="black"/>
<path d="M37.5876 82.4356L32.5034 78.8767L34.0699 76.6232L36.928 78.6156L41.0778 72.8032L43.3176 74.3972L37.5876 82.4356Z" fill="black"/>
<path d="M78.7005 63.3223H50.0781V66.0705H78.7005V63.3223Z" fill="black"/>
<path d="M78.7005 77.311H50.0781V80.0592H78.7005V77.311Z" fill="black"/>
</g>
</svg>
