<svg width="59" height="60" viewBox="0 0 59 60" fill="none" xmlns="http://www.w3.org/2000/svg">
<ellipse cx="26.4307" cy="54.2301" rx="16.0535" ry="5.35121" fill="#DEE5F2"/>
<path d="M58.5011 27.099C58.4766 26.8156 58.4483 26.5315 58.4148 26.2552C58.3355 25.573 58.2312 24.8908 58.0946 24.1694C57.0208 18.5388 54.3134 13.3938 50.2655 9.29055C49.8706 8.88923 49.4603 8.49758 49.0467 8.12719C44.0745 3.63417 37.6721 0.986674 31.0212 0.672324C30.5683 0.649778 30.1097 0.638184 29.6491 0.638184C29.0977 0.638184 28.5386 0.654932 27.9904 0.68714C27.6947 0.700667 27.3965 0.723213 27.0995 0.748979C20.1072 1.36093 13.5799 4.49284 8.72035 9.56754C7.97119 10.347 7.24393 11.196 6.55855 12.0914C2.33929 17.6389 0.258012 24.514 0.698618 31.449C0.712145 31.6829 0.729538 31.916 0.750151 32.1512C0.789445 32.6034 0.838401 33.0549 0.899596 33.4975C1.77565 40.0138 4.89404 46.1017 9.6795 50.6392C10.0576 51.0012 10.4808 51.3787 10.9363 51.7613C15.7346 55.8183 21.8129 58.2351 28.049 58.5682C28.5579 58.5978 29.0835 58.6126 29.6098 58.6126C30.2031 58.6126 30.8093 58.5933 31.4128 58.5566C31.6576 58.5418 31.903 58.5231 32.1517 58.5018C40.0961 57.8068 47.4821 53.8007 52.4144 47.5118C52.9697 46.8084 53.4921 46.0773 53.9662 45.3397C57.4994 39.8804 59.0679 33.5735 58.5011 27.099ZM42.2714 20.0635C42.1529 18.6914 41.941 17.3445 41.6389 16.0517C43.2345 15.8983 44.611 15.4925 45.8433 14.8129C47.1703 14.0799 48.277 13.0653 49.2155 11.7171C52.055 14.8162 54.1253 18.5607 55.2339 22.5983C50.1173 20.4912 44.669 20.1176 42.2714 20.0635ZM44.6658 12.6833C43.6996 13.2154 42.5929 13.5298 41.282 13.6444C41.179 13.6534 41.0752 13.6612 40.9702 13.6676C39.6858 9.78591 37.5639 6.38345 34.6581 3.55043C39.4191 4.46965 43.8219 6.67397 47.4569 9.96563C46.6801 11.1837 45.7647 12.074 44.6658 12.6833ZM25.5085 10.1602C22.2825 9.0142 19.0617 8.43381 15.9349 8.43381C15.2077 8.43381 14.4759 8.46538 13.7596 8.52851C13.6662 8.53688 13.5728 8.54525 13.4794 8.55427C17.4861 5.47132 22.2477 3.61614 27.3121 3.17296C28.087 3.10532 28.8697 3.07118 29.6382 3.07118C29.8688 3.07118 30.0994 3.0744 30.3287 3.0802C31.2634 3.75463 32.153 4.50379 32.9736 5.30706C35.4118 7.68852 37.2328 10.479 38.3923 13.6077C35.3184 13.3082 31.4206 12.2627 25.5085 10.1602ZM14.007 10.9512C14.6492 10.8952 15.3056 10.8668 15.9581 10.8668C18.7976 10.8668 21.7369 11.3995 24.693 12.4508C31.3497 14.8162 35.6984 15.9132 39.1589 16.0935C39.4803 17.3651 39.7058 18.7069 39.8314 20.0886C37.1697 20.1569 34.575 20.2999 32.1156 20.5157C16.4934 21.8826 7.74251 25.9833 3.07428 29.3156C3.14321 22.7696 5.62129 16.5225 10.0879 11.6591C11.3621 11.3055 12.6806 11.0678 14.007 10.9512ZM7.35344 29.5294C11.6332 27.148 19.4675 24.0708 32.4796 22.9319C34.872 22.7226 37.3913 22.5841 39.9705 22.519C40.0072 23.4775 40.0317 24.3529 40.0446 25.1807C34.3135 25.8725 30.312 30.582 25.6862 36.0251L25.6476 36.0702C21.6235 40.7971 17.4642 45.683 11.5218 49.0333C6.80268 44.6369 3.85758 38.7113 3.21084 32.3103C4.41478 31.3253 5.8081 30.3907 7.35344 29.5294ZM27.5588 37.5769C31.7587 32.6439 35.3989 28.3693 40.0542 27.6388C39.9447 42.1073 36.7961 51.6995 30.6933 56.1564C30.3326 56.1713 29.9731 56.1783 29.6137 56.1783C23.8072 56.1783 18.0897 54.2291 13.4652 50.6817C19.4836 47.0757 23.7686 42.0352 27.5588 37.5769ZM34.8378 55.6624C36.8566 53.4033 38.496 50.4698 39.7174 46.9295C41.5017 41.7543 42.4331 35.247 42.4866 27.5828C44.2825 27.7831 45.7853 28.5561 47.0737 29.9404C50.2674 33.3744 51.2742 39.7754 51.5538 44.5802C47.6392 50.3068 41.588 54.309 34.8378 55.6624ZM42.4067 22.5081C44.6252 22.5899 50.8079 23.0492 55.8703 25.5852C55.9586 26.1605 56.0281 26.7402 56.0777 27.3109C56.4868 31.9837 55.6565 36.6506 53.6744 40.8705C52.9439 35.1678 51.3258 30.9363 48.858 28.2836C47.1181 26.4117 44.9731 25.354 42.4789 25.1375C42.4647 24.2699 42.4402 23.3874 42.4067 22.5081Z" fill="#276EF1"/>
</svg>
