<svg width="78" height="61" viewBox="0 0 78 61" fill="none" xmlns="http://www.w3.org/2000/svg">
<path d="M16.785 11.8665C15.5422 14.1035 5.08171 16.0092 0.00683594 16.6824C0.00683594 40.5447 16.785 46.2135 19.263 46.7393C29.7052 48.1667 35.3238 24.5536 34.9613 14.9735C29.12 16.092 20.4099 13.3682 16.785 11.8665Z" fill="#E9F0FE"/>
<path d="M28.0419 16.98C27.3229 16.2609 26.1245 16.2609 25.3256 16.98L17.1764 25.1291L13.741 21.6937C13.022 20.9746 11.8236 20.9746 11.0246 21.6937C10.3056 22.4127 10.3056 23.6111 11.0246 24.41L15.7383 29.1238C16.1378 29.5232 16.6172 29.683 17.0965 29.683C17.5759 29.683 18.0553 29.5232 18.4547 29.1238L27.962 19.6164C28.8409 18.8974 28.8409 17.699 28.0419 16.98Z" fill="#276EF1"/>
<path d="M75.3384 37.9121C76.4569 36.9534 77.0961 35.5153 77.0961 33.9174C77.0961 30.9614 74.6993 28.5646 71.7432 28.5646C70.8644 28.5646 68.5475 28.5646 66.1507 28.6445C63.674 28.6445 61.0375 28.7244 59.9989 28.7244C59.7592 28.7244 59.5994 28.7244 59.5195 28.6445C59.4396 28.5646 59.4396 28.4847 59.4396 28.4048C60.3184 24.7297 61.3571 19.9361 61.6766 18.3382C62.2359 15.5419 60.638 13.0652 57.682 12.2663C54.7259 11.3875 51.8497 12.6658 50.8111 15.0626C49.373 18.6578 44.5794 27.4461 39.5461 30.5619C39.4662 30.5619 39.4662 30.6418 39.3863 30.6418C38.6673 30.0826 37.7086 29.763 36.7499 29.763H36.5901C37.389 27.6857 37.9483 25.4487 37.9483 23.0519V11.2277C37.9483 10.269 37.2292 9.47004 36.2705 9.31025C24.7658 8.11185 21.4103 1.56058 21.3304 1.24101C21.0108 0.60186 20.3717 0.202393 19.6527 0.202393C18.9336 0.202393 18.2945 0.60186 17.9749 1.24101C17.8151 1.56058 14.4596 8.11185 3.03482 9.31025C1.91631 9.47004 1.19727 10.269 1.19727 11.2277V23.0519C1.19727 37.0333 17.9749 45.8216 18.6939 46.221C18.9336 46.3808 19.2532 46.4607 19.5728 46.4607C19.8923 46.4607 20.132 46.3808 20.4516 46.221C20.6913 46.0612 22.7685 44.9427 25.405 43.0253V54.0506C25.405 56.5273 27.4023 58.5246 29.879 58.5246H36.8298C38.1081 58.5246 39.2266 58.0453 40.0255 57.1664C42.3424 58.7643 46.2572 60.2024 50.6513 60.2024H69.1067C72.0628 60.2024 74.4596 57.8056 74.4596 54.8495C74.4596 53.731 74.14 52.6924 73.5808 51.8935C74.6993 50.9347 75.3384 49.4967 75.3384 47.8988C75.3384 46.7803 75.0188 45.7417 74.4596 44.9427C75.5781 43.984 76.2172 42.5459 76.2172 40.9481C76.2172 39.7497 75.8977 38.711 75.3384 37.9121ZM19.5728 42.3063C16.2971 40.3888 5.03215 33.0386 5.03215 23.0519V12.9055C13.1014 11.7071 17.4955 7.95206 19.6527 5.47536C21.8098 8.03195 26.2039 11.7071 34.2732 12.9055V23.0519C34.2732 25.4487 33.634 27.6857 32.5954 29.763H30.0388C27.5621 29.763 25.5648 31.7603 25.5648 34.237V38.2317C23.0881 40.1491 20.7712 41.5872 19.5728 42.3063ZM37.5488 54.0506C37.5488 54.4501 37.2292 54.7696 36.8298 54.7696H29.879C29.4796 54.7696 29.16 54.4501 29.16 54.0506V34.1571C29.16 33.7577 29.4796 33.4381 29.879 33.4381H36.8298C37.2292 33.4381 37.5488 33.7577 37.5488 34.1571V54.0506V54.0506ZM71.7432 35.5153H69.5062C68.4676 35.5153 67.6686 36.3142 67.6686 37.3529C67.6686 38.3915 68.4676 39.1904 69.5062 39.1904H70.8644C71.7432 39.1904 72.4622 39.9095 72.4622 40.7883C72.4622 41.6671 71.7432 42.3861 70.8644 42.3861H68.7073C67.6686 42.3861 66.8697 43.1851 66.8697 44.2237C66.8697 45.2623 67.6686 46.0612 68.7073 46.0612H70.0654C70.9443 46.0612 71.6633 46.7803 71.6633 47.6591C71.6633 48.5379 70.9443 49.257 70.0654 49.257H67.9083C66.8697 49.257 66.0708 50.0559 66.0708 51.0945C66.0708 52.1331 66.8697 52.9321 67.9083 52.9321H69.2665C70.1453 52.9321 70.8644 53.6511 70.8644 54.53C70.8644 55.4088 70.1453 56.1278 69.2665 56.1278H50.6513C45.5381 56.1278 42.0228 53.8908 41.3038 53.0919V33.6778C41.3038 33.518 41.3837 33.3582 41.5435 33.2783C47.9349 29.3635 53.0481 19.217 54.3264 15.9414C54.646 15.2224 55.7645 15.0626 56.6433 15.3023C57.2026 15.462 58.2412 15.9414 58.0015 17.1398C57.7618 18.3382 56.9629 21.8535 55.8444 27.0466C55.6047 28.245 55.8444 29.4434 56.6433 30.4021C57.4423 31.3609 58.5608 31.9201 59.7592 31.9201C60.638 31.9201 63.4343 31.9201 66.2306 31.8402C68.5475 31.8402 70.8644 31.7603 71.7432 31.7603C72.622 31.7603 73.3411 32.4794 73.3411 33.3582C73.3411 34.7963 72.622 35.5153 71.7432 35.5153Z" fill="#276EF1"/>
</svg>
